<svg width="1037" height="2737" viewBox="0 0 1037 2737" fill="none" xmlns="http://www.w3.org/2000/svg">
<path d="M582.685 1.28898C574.731 -1.02686 566.405 3.54376 564.09 11.4978L526.351 141.116C524.035 149.07 528.605 157.395 536.559 159.711C544.513 162.027 552.839 157.456 555.155 149.502L588.7 34.2861L703.916 67.8318C711.87 70.1477 720.196 65.577 722.511 57.623C724.827 49.669 720.257 41.3437 712.303 39.0278L582.685 1.28898ZM555.534 2471.45C907.728 2002.87 1046.98 1622 1032.07 1239.49C1017.18 857.792 848.794 476.876 591.64 8.47227L565.343 22.9097C822.392 491.123 987.506 866.611 1002.09 1240.65C1016.64 1613.87 881.315 1988.08 531.553 2453.43L555.534 2471.45Z" fill="white"/>
<path d="M9.11749 1830.38C14.9339 1831.6 17.8422 1834.21 17.8422 1838.19C16.3115 1842.47 13.8625 1844.62 10.4951 1844.62C4.83169 1843.54 2 1840.71 2 1836.12C3.53064 1832.29 5.90314 1830.38 9.11749 1830.38ZM17.8422 1862.52C20.2912 1862.52 22.3576 1864.74 24.0413 1869.18L21.9749 1885.48V1896.27C21.9749 1908.83 24.1178 1925.28 28.4036 1945.64C26.873 1948.55 24.2709 1950 20.5973 1950C14.3217 1950 10.1889 1931.63 8.19911 1894.9V1886.86C8.19911 1870.64 11.4135 1862.52 17.8422 1862.52ZM137.557 1832.68C141.231 1832.68 143.603 1838.42 144.675 1849.9L145.593 1862.29C145.593 1871.63 143.909 1895.97 140.542 1935.31H141.919V1935.99L142.838 1935.31H144.675L171.537 1937.37H173.374L184.854 1933.93H186.461C188.91 1935.46 190.594 1937.6 191.512 1940.36C191.512 1946.17 185.007 1949.77 171.997 1951.15L148.578 1948.85H144.215L133.195 1951.84C129.062 1950.31 126.996 1947.86 126.996 1944.49L131.817 1865.74V1862.29L130.44 1839.33C130.44 1835.51 132.812 1833.29 137.557 1832.68ZM228.346 1825.79L234.086 1824.87H236.382C239.443 1824.87 242.811 1826.78 246.484 1830.61C253.219 1830.61 262.786 1839.03 275.184 1855.87C285.745 1875.76 291.026 1893.44 291.026 1908.9C291.026 1930.03 283.373 1944.11 268.067 1951.15L253.602 1954.13C230.642 1954.13 214.111 1936.91 204.009 1902.47C201.713 1893.44 200.565 1884.64 200.565 1876.07V1873.77C200.565 1847.91 209.826 1831.91 228.346 1825.79ZM226.28 1847.83L221.229 1845.76C216.484 1851.43 214.111 1859.62 214.111 1870.33V1876.53C214.111 1904.85 223.678 1925.43 242.811 1938.29L249.24 1939.67H257.964C265.924 1939.67 271.664 1934.69 275.184 1924.74L276.562 1914.64V1907.52C276.562 1884.56 267.454 1863.98 249.24 1845.76L239.826 1843.01H239.367C236.306 1843.01 231.943 1844.62 226.28 1847.83ZM329.467 1825.79L335.207 1824.87H337.503C340.565 1824.87 343.932 1826.78 347.606 1830.61C354.34 1830.61 363.907 1839.03 376.305 1855.87C386.867 1875.76 392.147 1893.44 392.147 1908.9C392.147 1930.03 384.494 1944.11 369.188 1951.15L354.723 1954.13C331.763 1954.13 315.232 1936.91 305.13 1902.47C302.834 1893.44 301.686 1884.64 301.686 1876.07V1873.77C301.686 1847.91 310.947 1831.91 329.467 1825.79ZM327.401 1847.83L322.35 1845.76C317.605 1851.43 315.232 1859.62 315.232 1870.33V1876.53C315.232 1904.85 324.799 1925.43 343.932 1938.29L350.361 1939.67H359.085C367.045 1939.67 372.785 1934.69 376.305 1924.74L377.683 1914.64V1907.52C377.683 1884.56 368.575 1863.98 350.361 1845.76L340.947 1843.01H340.488C337.427 1843.01 333.064 1844.62 327.401 1847.83ZM426.685 1801.45C429.441 1801.45 431.583 1803.36 433.114 1807.19C426.532 1824.64 423.241 1847.37 423.241 1875.38V1900.41H423.701C432.272 1891.84 445.512 1865.36 463.421 1820.97C468.013 1815.15 471.533 1812.24 473.982 1812.24H474.901C477.503 1812.24 479.569 1813.7 481.1 1816.6V1820.97C476.814 1823.57 466.329 1845.23 449.645 1885.94L430.818 1914.18V1914.64C448.114 1932.55 466.1 1941.5 484.773 1941.5H493.498C499.161 1941.5 502.988 1940.97 504.978 1939.9C509.111 1941.58 511.177 1944.03 511.177 1947.24V1949.08C511.177 1952.91 504.519 1954.82 491.202 1954.82H487.758C465.87 1954.82 444.977 1945.79 425.078 1927.73H423.701V1954.36C423.701 1959.57 421.328 1962.17 416.583 1962.17C412.297 1962.17 410.154 1959.57 410.154 1954.36V1927.04C404.491 1922.75 401.659 1918.16 401.659 1913.26C401.659 1909.13 404.261 1907.07 409.466 1907.07V1874.46C409.466 1844.77 413.292 1821.2 420.946 1803.75C422.935 1802.22 424.849 1801.45 426.685 1801.45ZM17.1534 2176.68C20.8269 2176.68 23.1994 2182.42 24.2709 2193.9L25.1893 2206.29C25.1893 2215.63 23.5055 2239.97 20.1381 2279.31H21.5157V2279.99L22.4341 2279.31H24.2709L51.1337 2281.37H52.9704L64.4503 2277.93H66.0574C68.5065 2279.46 70.1902 2281.6 71.1086 2284.36C71.1086 2290.17 64.6033 2293.77 51.5929 2295.15L28.174 2292.85H23.8117L12.791 2295.84C8.6583 2294.31 6.59193 2291.86 6.59193 2288.49L11.4135 2209.74V2206.29L10.0359 2183.33C10.0359 2179.51 12.4084 2177.29 17.1534 2176.68ZM89.5749 2166.8C93.2485 2166.8 95.621 2168.72 96.6924 2172.54L95.3148 2186.09V2190.45C99.1415 2222.14 101.514 2246.78 102.432 2264.38C104.116 2280.76 105.876 2288.95 107.713 2288.95C107.713 2292.16 105.034 2294.23 99.6772 2295.15C92.024 2295.15 88.1974 2279.69 88.1974 2248.77L81.7687 2189.07V2187.01C81.7687 2173.54 84.3707 2166.8 89.5749 2166.8ZM144.623 2145.45C147.378 2145.45 149.521 2147.36 151.051 2151.19C144.469 2168.64 141.179 2191.37 141.179 2219.38V2244.41H141.638C150.209 2235.84 163.449 2209.36 181.358 2164.97C185.95 2159.15 189.47 2156.24 191.919 2156.24H192.838C195.44 2156.24 197.506 2157.7 199.037 2160.6V2164.97C194.751 2167.57 184.266 2189.23 167.582 2229.94L148.755 2258.18V2258.64C166.052 2276.55 184.037 2285.5 202.71 2285.5H211.435C217.098 2285.5 220.925 2284.97 222.915 2283.9C227.048 2285.58 229.114 2288.03 229.114 2291.24V2293.08C229.114 2296.91 222.456 2298.82 209.139 2298.82H205.695C183.807 2298.82 162.914 2289.79 143.015 2271.73H141.638V2298.36C141.638 2303.57 139.265 2306.17 134.52 2306.17C130.234 2306.17 128.092 2303.57 128.092 2298.36V2271.04C122.428 2266.75 119.596 2262.16 119.596 2257.26C119.596 2253.13 122.199 2251.07 127.403 2251.07V2218.46C127.403 2188.77 131.229 2165.2 138.883 2147.75C140.872 2146.22 142.786 2145.45 144.623 2145.45ZM309.995 2161.52C312.75 2161.52 314.663 2163.9 315.735 2168.64C315.735 2171.4 310.913 2175.22 301.27 2180.12C289.331 2190.53 280.453 2208.44 274.637 2233.85V2237.98C287.954 2231.4 297.52 2227.42 303.336 2226.04C305.173 2226.04 307.393 2227.65 309.995 2230.86V2235.22C309.995 2236.91 303.26 2240.27 289.79 2245.33C279.688 2250.84 274.637 2253.97 274.637 2254.74V2256.81C274.637 2265.38 280.147 2272.8 291.168 2279.08L298.974 2280.45C304.025 2280.45 311.525 2277.32 321.475 2271.04H324.23C327.444 2272.57 329.051 2274.79 329.051 2277.7V2279.08C319.561 2289.03 309.076 2294 297.597 2294C281.219 2294 269.28 2282.98 261.78 2260.94L247.315 2263.92C240.274 2262.85 236.753 2260.56 236.753 2257.03C236.753 2253.51 238.82 2250.99 242.953 2249.46L248.233 2250.38C256.193 2248.08 260.172 2246.4 260.172 2245.33C260.172 2219.3 270.045 2195.2 289.79 2173C299.739 2165.35 306.474 2161.52 309.995 2161.52ZM51.1337 2493.12L120.013 2488.76C122.002 2488.76 123.916 2490.68 125.753 2494.5C125.753 2500.32 119.018 2503.23 105.548 2503.23L65.3687 2505.52L64.4503 2505.98C68.2769 2530.93 70.1902 2578.3 70.1902 2648.1C69.4249 2654.84 66.9758 2658.2 62.8431 2658.2C58.8634 2658.2 56.5674 2655.14 55.9552 2649.02V2595.75C55.9552 2560.24 54.348 2530.63 51.1337 2506.9C23.7351 2509.5 10.0359 2512.56 10.0359 2516.08L7.96951 2517C3.22451 2515.63 0.852017 2513.18 0.852017 2509.66C0.852017 2501.24 17.6126 2495.73 51.1337 2493.12ZM122.264 2510.11C127.621 2510.11 130.3 2519.45 130.3 2538.13L131.677 2573.94H132.136L168.872 2559.71C172.545 2528.48 175.913 2512.87 178.974 2512.87L181.959 2512.41C184.561 2512.41 186.933 2514.48 189.076 2518.61C183.719 2544.94 181.04 2567.74 181.04 2587.03V2596.9C181.04 2610.98 184.408 2624.38 191.143 2637.08C189.612 2641.37 187.163 2643.51 183.796 2643.51C176.449 2643.51 171.015 2628.66 167.494 2598.97V2575.55H166.117C143.157 2583.66 131.677 2588.87 131.677 2591.16C131.677 2627.59 128.31 2645.81 121.575 2645.81H120.657C117.442 2645.81 115.376 2643.13 114.457 2637.77C116.753 2621.09 117.901 2608.15 117.901 2598.97L107.799 2604.25L105.733 2604.71C101.906 2603.33 99.9929 2600.96 99.9929 2597.59C99.9929 2594.22 105.962 2588.94 117.901 2581.75V2581.29C117.442 2554.96 116.447 2533.15 114.917 2515.85C114.917 2512.49 117.366 2510.57 122.264 2510.11ZM211.548 2510.8C215.222 2510.8 217.594 2512.72 218.666 2516.54L217.288 2530.09V2534.45C221.115 2566.14 223.487 2590.78 224.405 2608.38C226.089 2624.76 227.849 2632.95 229.686 2632.95C229.686 2636.16 227.008 2638.23 221.65 2639.15C213.997 2639.15 210.171 2623.69 210.171 2592.77L203.742 2533.07V2531.01C203.742 2517.54 206.344 2510.8 211.548 2510.8ZM310.908 2502.08H313.204C317.49 2502.08 319.939 2504.6 320.551 2509.66C320.551 2514.09 314.505 2516.31 302.413 2516.31C282.974 2523.66 269.887 2534.38 263.152 2548.46L261.545 2555.12V2556.49C261.545 2563.23 266.06 2566.6 275.091 2566.6L300.346 2565.22C317.337 2565.22 328.816 2573.48 334.786 2590.01L336.163 2598.05C336.163 2613.97 323.306 2628.51 297.591 2641.67C289.938 2643.82 283.203 2645.27 277.387 2646.04C261.774 2646.04 250.753 2637.23 244.325 2619.63C242.488 2613.66 241.57 2607.62 241.57 2601.49C241.57 2599.66 243.024 2597.74 245.932 2595.75H248.687C253.432 2595.75 255.805 2601.8 255.805 2613.89C259.784 2625.83 266.06 2631.8 274.632 2631.8H280.831C293.229 2631.8 305.474 2624.61 317.566 2610.22C320.78 2605.63 322.388 2600.65 322.388 2595.3C322.388 2587.79 316.495 2582.51 304.709 2579.45H303.79L273.713 2580.14C257.029 2578.15 248.687 2571.26 248.687 2559.48L247.769 2556.49C247.769 2540.73 259.555 2525.42 283.127 2510.57C293.382 2504.91 302.642 2502.08 310.908 2502.08Z" fill="white"/>
</svg>
