<svg width="3751" height="3007" viewBox="0 0 3751 3007" fill="none" xmlns="http://www.w3.org/2000/svg">
<path d="M103.061 106.911C95.6557 110.624 92.663 119.638 96.3766 127.043L156.894 247.719C160.607 255.124 169.621 258.117 177.026 254.403C184.431 250.69 187.424 241.676 183.71 234.271L129.918 127.003L237.185 73.2105C244.59 69.4968 247.583 60.4832 243.869 53.0779C240.156 45.6726 231.142 42.68 223.737 46.3936L103.061 106.911ZM1259.15 2272.1C833.072 2004.94 815.528 1561.56 772.322 1130.7C750.843 916.498 722.798 705.397 631.858 525.469C540.445 344.604 386.064 196.243 114.512 106.083L105.059 134.555C369.505 222.355 517.437 365.589 605.083 539.001C693.202 713.349 720.964 919.206 742.472 1133.69C785.241 1560.2 802.395 2021.11 1243.21 2297.52L1259.15 2272.1Z" fill="white"/>
<path d="M1475.69 1610.34C1482.08 1610.34 1487.91 1616.35 1493.18 1628.38L1468.36 1785.19V1829.19C1468.36 1875.06 1475.5 1898 1489.79 1898C1499.19 1902.51 1503.89 1908.53 1503.89 1916.05C1503.89 1924.7 1496.37 1929.78 1481.33 1931.28C1464.79 1931.28 1451.81 1916.05 1442.41 1885.59H1436.77C1422.86 1916.05 1405.94 1931.28 1386.01 1931.28C1362.69 1931.28 1348.59 1913.61 1343.7 1878.26C1343.7 1837.27 1371.15 1793.84 1426.06 1747.96C1436.96 1747.96 1442.41 1732.73 1442.41 1702.28C1450.69 1640.98 1461.78 1610.34 1475.69 1610.34ZM1376.98 1873.75V1888.98L1386.01 1898H1389.39C1401.43 1898 1415.53 1861.71 1431.7 1789.14H1428.31C1394.09 1823.36 1376.98 1851.56 1376.98 1873.75ZM1574.58 1717.51C1589.62 1717.88 1615 1744.2 1650.72 1796.47L1651.85 1806.06C1651.85 1816.59 1626.09 1824.68 1574.58 1830.32L1572.89 1832.01V1834.26C1580.78 1868.11 1589.05 1885.03 1597.7 1885.03H1604.47C1616.51 1885.03 1634.74 1872.06 1659.19 1846.11H1662.57C1670.09 1846.11 1675.92 1851.56 1680.06 1862.47C1680.06 1871.49 1664.26 1887.1 1632.67 1909.28C1624.4 1914.17 1614.44 1917.74 1602.78 1920C1572.32 1920 1551.08 1891.42 1539.04 1834.26C1521.74 1831.63 1513.1 1824.49 1513.1 1812.83C1513.1 1804.56 1519.49 1799.1 1532.27 1796.47V1798.73L1537.91 1796.47V1782.37C1537.91 1739.13 1550.14 1717.51 1574.58 1717.51ZM1577.96 1758.12H1572.89L1570.63 1778.99V1796.47H1572.89C1593.94 1795.72 1604.47 1793.46 1604.47 1789.7C1594.7 1775.04 1585.86 1764.51 1577.96 1758.12ZM1789.72 1666.18C1807.4 1666.18 1819.62 1684.98 1826.39 1722.58V1724.84C1826.39 1733.49 1820.56 1738.56 1808.9 1740.07C1799.5 1740.07 1793.11 1728.41 1789.72 1705.1L1787.47 1703.4H1780.7C1772.43 1715.44 1768.29 1731.23 1768.29 1750.78L1769.98 1778.99C1785.02 1778.99 1801.38 1775.04 1819.05 1767.14C1826.2 1767.14 1832.78 1772.22 1838.8 1782.37C1838.8 1797.79 1817.74 1807.94 1775.62 1812.83L1789.72 1904.77C1789.72 1912.67 1783.14 1917.74 1769.98 1920C1758.32 1920 1752.5 1901.95 1752.5 1865.85L1741.78 1817.91L1705.12 1823.55C1697.22 1823.55 1692.52 1817.72 1691.01 1806.06C1691.01 1794.78 1706.24 1787.64 1736.7 1784.63L1734.45 1749.66C1740.46 1694 1758.89 1666.18 1789.72 1666.18ZM1860.53 1626.13C1874.82 1629.14 1881.96 1635.53 1881.96 1645.31C1878.2 1655.84 1872.19 1661.1 1863.91 1661.1C1850 1658.47 1843.04 1651.51 1843.04 1640.23C1846.8 1630.83 1852.63 1626.13 1860.53 1626.13ZM1881.96 1705.1C1887.98 1705.1 1893.06 1710.55 1897.19 1721.45L1892.12 1761.5V1788.01C1892.12 1818.85 1897.38 1859.27 1907.91 1909.28C1904.15 1916.43 1897.76 1920 1888.73 1920C1873.32 1920 1863.16 1874.88 1858.27 1784.63V1764.89C1858.27 1725.03 1866.17 1705.1 1881.96 1705.1ZM2010.26 1729.91C2042.23 1732.55 2058.21 1748.15 2058.21 1776.73L2059.34 1784.06L2058.21 1872.06C2058.21 1882.21 2064.04 1895.93 2075.69 1913.23V1914.36C2072.69 1925.26 2067.23 1930.72 2059.34 1930.72C2036.02 1920.94 2024.37 1900.26 2024.37 1868.67V1861.34L2022.67 1860.21L2024.37 1857.95V1856.83L2026.06 1778.99C2026.06 1768.08 2021.36 1762.63 2011.96 1762.63H2005.19C1986.39 1770.15 1976.98 1811.33 1976.98 1886.16C1976.98 1912.1 1970.4 1925.08 1957.24 1925.08C1947.09 1925.08 1941.83 1918.68 1941.45 1905.9V1849.49C1941.45 1776.54 1947.84 1740.07 1960.63 1740.07L1966.27 1738.38L1978.11 1740.07C1988.27 1733.3 1998.98 1729.91 2010.26 1729.91ZM2100.14 1626.13C2114.43 1629.14 2121.58 1635.53 2121.58 1645.31C2117.82 1655.84 2111.8 1661.1 2103.53 1661.1C2089.61 1658.47 2082.66 1651.51 2082.66 1640.23C2086.42 1630.83 2092.25 1626.13 2100.14 1626.13ZM2121.58 1705.1C2127.59 1705.1 2132.67 1710.55 2136.81 1721.45L2131.73 1761.5V1788.01C2131.73 1818.85 2136.99 1859.27 2147.52 1909.28C2143.76 1916.43 2137.37 1920 2128.34 1920C2112.93 1920 2102.77 1874.88 2097.89 1784.63V1764.89C2097.89 1725.03 2105.78 1705.1 2121.58 1705.1ZM2243.11 1577.62C2253.64 1579.88 2258.9 1585.14 2258.9 1593.41L2255.52 1618.23V1625.56C2255.52 1642.11 2257.4 1659.6 2261.16 1678.02H2262.29C2305.91 1664.86 2332.98 1658.28 2343.51 1658.28C2354.41 1661.29 2359.87 1666.74 2359.87 1674.64C2359.87 1687.42 2346.89 1693.81 2320.95 1693.81L2262.29 1714.68C2262.29 1765.45 2267.74 1834.45 2278.64 1921.69C2276.39 1931.85 2270.93 1936.92 2262.29 1936.92H2261.16C2248 1936.92 2241.42 1920 2241.42 1886.16C2236.53 1860.96 2232.39 1806.25 2229.01 1722.02H2218.85C2183.51 1719.76 2165.83 1711.49 2165.83 1697.2C2165.83 1693.06 2169.78 1687.99 2177.68 1681.97H2183.32L2209.26 1688.74H2227.31L2222.24 1618.23C2222.24 1591.16 2229.19 1577.62 2243.11 1577.62ZM2427.82 1717.51C2442.86 1717.88 2468.24 1744.2 2503.96 1796.47L2505.09 1806.06C2505.09 1816.59 2479.33 1824.68 2427.82 1830.32L2426.12 1832.01V1834.26C2434.02 1868.11 2442.29 1885.03 2450.94 1885.03H2457.71C2469.74 1885.03 2487.98 1872.06 2512.42 1846.11H2515.81C2523.33 1846.11 2529.16 1851.56 2533.29 1862.47C2533.29 1871.49 2517.5 1887.1 2485.91 1909.28C2477.64 1914.17 2467.68 1917.74 2456.02 1920C2425.56 1920 2404.31 1891.42 2392.28 1834.26C2374.98 1831.63 2366.34 1824.49 2366.34 1812.83C2366.34 1804.56 2372.73 1799.1 2385.51 1796.47V1798.73L2391.15 1796.47V1782.37C2391.15 1739.13 2403.37 1717.51 2427.82 1717.51ZM2431.2 1758.12H2426.12L2423.87 1778.99V1796.47H2426.12C2447.18 1795.72 2457.71 1793.46 2457.71 1789.7C2447.93 1775.04 2439.1 1764.51 2431.2 1758.12ZM2587.12 1609.21C2597.65 1612.97 2602.92 1618.8 2602.92 1626.69L2608.56 1841.6V1910.98C2608.56 1923.76 2603.1 1930.15 2592.2 1930.15H2584.87C2578.1 1925.64 2574.71 1920.38 2574.71 1914.36V1848.93L2569.64 1625.56C2569.64 1616.16 2575.47 1610.71 2587.12 1609.21ZM2667.21 1750.78C2680.37 1750.78 2689.4 1779.74 2694.29 1837.65C2700.68 1864.35 2705.38 1877.7 2708.39 1877.7H2711.77C2721.17 1854.01 2725.87 1830.5 2725.87 1807.19L2722.49 1768.27C2726.63 1758.12 2732.46 1753.04 2739.98 1753.04C2753.89 1753.04 2760.85 1777.67 2760.85 1826.93C2769.12 1878.07 2773.25 1925.64 2773.25 1969.64V1996.15C2773.25 2076.99 2750.32 2131.52 2704.44 2159.72L2692.03 2161.98C2670.6 2161.98 2650.67 2142.05 2632.24 2102.19L2627.17 2068.35V2066.65C2627.17 2041.84 2634.12 2029.43 2648.04 2029.43L2662.14 2038.45L2660.44 2073.99C2660.44 2091.28 2669.28 2108.77 2686.95 2126.44H2694.29C2714.97 2126.44 2730.2 2086.96 2739.98 2007.99L2741.1 1975.28C2740.73 1937.3 2739.22 1913.04 2736.59 1902.51C2721.55 1915.68 2709.71 1922.26 2701.06 1922.26C2681.88 1922.26 2664.77 1870.93 2649.73 1768.27L2648.04 1767.14C2648.04 1758.49 2654.43 1753.04 2667.21 1750.78ZM3084.39 1729.91C3116.35 1732.55 3132.33 1748.15 3132.33 1776.73L3133.46 1784.06L3132.33 1872.06C3132.33 1882.21 3138.16 1895.93 3149.82 1913.23V1914.36C3146.81 1925.26 3141.36 1930.72 3133.46 1930.72C3110.15 1920.94 3098.49 1900.26 3098.49 1868.67V1861.34L3096.8 1860.21L3098.49 1857.95V1856.83L3100.18 1778.99C3100.18 1768.08 3095.48 1762.63 3086.08 1762.63H3079.31C3060.51 1770.15 3051.11 1811.33 3051.11 1886.16C3051.11 1912.1 3044.53 1925.08 3031.37 1925.08C3021.21 1925.08 3015.95 1918.68 3015.57 1905.9V1849.49C3015.57 1776.54 3021.97 1740.07 3034.75 1740.07L3040.39 1738.38L3052.24 1740.07C3062.39 1733.3 3073.11 1729.91 3084.39 1729.91ZM3257.75 1707.35C3285.57 1707.35 3306.63 1728.03 3320.92 1769.4L3323.18 1781.24C3323.18 1821.48 3304.37 1862.65 3266.77 1904.77C3251.73 1918.68 3236.5 1925.64 3221.08 1925.64C3198.52 1925.64 3182.54 1912.67 3173.14 1886.72C3169.75 1874.69 3168.06 1864.16 3168.06 1855.13V1848.37C3168.06 1788.95 3189.68 1743.83 3232.93 1712.99C3240.45 1709.23 3248.72 1707.35 3257.75 1707.35ZM3201.34 1854.01C3201.34 1879.58 3207.92 1892.36 3221.08 1892.36C3248.53 1892.36 3271.28 1857.2 3289.33 1786.88V1776.17C3282.94 1752.85 3271.09 1741.2 3253.8 1741.2C3247.03 1741.2 3243.64 1745.9 3243.64 1755.3C3243.64 1761.69 3236.12 1766.77 3221.08 1770.53C3207.92 1792.71 3201.34 1820.54 3201.34 1854.01ZM3414.73 1577.62C3425.26 1579.88 3430.52 1585.14 3430.52 1593.41L3427.14 1618.23V1625.56C3427.14 1642.11 3429.02 1659.6 3432.78 1678.02H3433.91C3477.53 1664.86 3504.6 1658.28 3515.13 1658.28C3526.03 1661.29 3531.49 1666.74 3531.49 1674.64C3531.49 1687.42 3518.51 1693.81 3492.57 1693.81L3433.91 1714.68C3433.91 1765.45 3439.36 1834.45 3450.26 1921.69C3448.01 1931.85 3442.55 1936.92 3433.91 1936.92H3432.78C3419.62 1936.92 3413.04 1920 3413.04 1886.16C3408.15 1860.96 3404.01 1806.25 3400.63 1722.02H3390.47C3355.13 1719.76 3337.45 1711.49 3337.45 1697.2C3337.45 1693.06 3341.4 1687.99 3349.3 1681.97H3354.94L3380.88 1688.74H3398.93L3393.86 1618.23C3393.86 1591.16 3400.81 1577.62 3414.73 1577.62ZM1630.39 2547.28C1646.94 2547.28 1655.21 2553.86 1655.21 2567.02L1650.13 2577.73L1646.75 2680.96C1646.75 2727.58 1656.15 2756.54 1674.95 2767.82L1676.08 2776.28C1674.95 2787.19 1669.88 2792.64 1660.85 2792.64H1657.47C1629.26 2773.46 1615.16 2744.13 1615.16 2704.65H1611.21C1596.17 2746.76 1577.94 2767.82 1556.5 2767.82C1536.57 2762.18 1526.61 2747.33 1526.61 2723.26C1526.61 2670.24 1547.85 2617.41 1590.34 2564.76C1604.63 2553.1 1617.98 2547.28 1630.39 2547.28ZM1562.14 2700.7L1559.89 2716.49V2727.21H1565.53C1593.73 2656.89 1607.83 2614.02 1607.83 2598.6H1605.57C1583.76 2623.05 1569.29 2657.08 1562.14 2700.7ZM1696.38 2471.13C1710.67 2474.14 1717.82 2480.53 1717.82 2490.31C1714.06 2500.84 1708.04 2506.1 1699.77 2506.1C1685.85 2503.47 1678.9 2496.51 1678.9 2485.23C1682.66 2475.83 1688.49 2471.13 1696.38 2471.13ZM1717.82 2550.1C1723.83 2550.1 1728.91 2555.55 1733.05 2566.45L1727.97 2606.5V2633.01C1727.97 2663.85 1733.23 2704.27 1743.76 2754.28C1740 2761.43 1733.61 2765 1724.58 2765C1709.17 2765 1699.01 2719.88 1694.13 2629.63V2609.89C1694.13 2570.03 1702.02 2550.1 1717.82 2550.1ZM2076.22 2548.4C2093.52 2548.4 2102.17 2556.68 2102.17 2573.22C2104.43 2573.22 2105.55 2576.04 2105.55 2581.68H2107.81L2105.55 2598.04L2107.81 2711.98L2104.43 2802.23C2138.27 2802.23 2161.02 2827.05 2172.68 2876.68C2172.68 2886.84 2165.72 2892.66 2151.81 2894.17C2145.41 2894.17 2138.27 2880.07 2130.37 2851.86C2122.85 2840.96 2114.2 2835.51 2104.43 2835.51H2102.17C2090.14 2915.6 2079.61 2955.65 2070.58 2955.65C2059.68 2975.58 2043.88 2985.54 2023.2 2985.54C1992.74 2978.4 1977.51 2963.17 1977.51 2939.86V2936.47C1977.51 2901.12 2002.71 2862.77 2053.1 2821.41L2070.58 2810.69L2072.84 2749.77V2735.67H2070.58C2057.8 2751.84 2045.58 2759.92 2033.92 2759.92H2030.53C2004.59 2759.92 1989.73 2739.99 1985.97 2700.13V2687.72C1985.97 2639.59 2003.65 2597.85 2039 2562.51C2049.9 2553.1 2062.31 2548.4 2076.22 2548.4ZM2019.82 2680.39V2707.47C2021.32 2719.88 2024.14 2726.08 2028.28 2726.08H2033.92C2044.45 2726.08 2057.42 2687.35 2072.84 2609.89V2581.68C2050.28 2581.68 2032.6 2614.59 2019.82 2680.39ZM2010.79 2937.6C2012.3 2947 2017.56 2951.7 2026.59 2951.7C2044.64 2951.7 2057.61 2919.55 2065.51 2855.25H2062.12C2027.9 2884.96 2010.79 2912.41 2010.79 2937.6ZM2188.2 2562.51C2203.25 2562.88 2228.63 2589.2 2264.35 2641.47L2265.48 2651.06C2265.48 2661.59 2239.72 2669.68 2188.2 2675.32L2186.51 2677.01V2679.26C2194.41 2713.11 2202.68 2730.03 2211.33 2730.03H2218.1C2230.13 2730.03 2248.37 2717.06 2272.81 2691.11H2276.2C2283.72 2691.11 2289.55 2696.56 2293.68 2707.47C2293.68 2716.49 2277.89 2732.1 2246.3 2754.28C2238.03 2759.17 2228.06 2762.74 2216.41 2765C2185.95 2765 2164.7 2736.42 2152.67 2679.26C2135.37 2676.63 2126.72 2669.49 2126.72 2657.83C2126.72 2649.56 2133.12 2644.1 2145.9 2641.47V2643.73L2151.54 2641.47V2627.37C2151.54 2584.13 2163.76 2562.51 2188.2 2562.51ZM2191.59 2603.12H2186.51L2184.26 2623.99V2641.47H2186.51C2207.57 2640.72 2218.1 2638.46 2218.1 2634.7C2208.32 2620.04 2199.49 2609.51 2191.59 2603.12ZM2388.69 2574.91C2420.65 2577.55 2436.63 2593.15 2436.63 2621.73L2437.76 2629.06L2436.63 2717.06C2436.63 2727.21 2442.46 2740.93 2454.12 2758.23V2759.36C2451.11 2770.26 2445.66 2775.72 2437.76 2775.72C2414.44 2765.94 2402.79 2745.26 2402.79 2713.67V2706.34L2401.1 2705.21L2402.79 2702.95V2701.83L2404.48 2623.99C2404.48 2613.08 2399.78 2607.63 2390.38 2607.63H2383.61C2364.81 2615.15 2355.41 2656.33 2355.41 2731.16C2355.41 2757.1 2348.83 2770.08 2335.66 2770.08C2325.51 2770.08 2320.25 2763.68 2319.87 2750.9V2694.49C2319.87 2621.54 2326.26 2585.07 2339.05 2585.07L2344.69 2583.38L2356.53 2585.07C2366.69 2578.3 2377.4 2574.91 2388.69 2574.91ZM2522.56 2562.51C2537.6 2562.88 2562.98 2589.2 2598.71 2641.47L2599.84 2651.06C2599.84 2661.59 2574.08 2669.68 2522.56 2675.32L2520.87 2677.01V2679.26C2528.76 2713.11 2537.04 2730.03 2545.69 2730.03H2552.45C2564.49 2730.03 2582.73 2717.06 2607.17 2691.11H2610.55C2618.07 2691.11 2623.9 2696.56 2628.04 2707.47C2628.04 2716.49 2612.24 2732.1 2580.66 2754.28C2572.38 2759.17 2562.42 2762.74 2550.76 2765C2520.3 2765 2499.06 2736.42 2487.02 2679.26C2469.73 2676.63 2461.08 2669.49 2461.08 2657.83C2461.08 2649.56 2467.47 2644.1 2480.26 2641.47V2643.73L2485.9 2641.47V2627.37C2485.9 2584.13 2498.12 2562.51 2522.56 2562.51ZM2525.94 2603.12H2520.87L2518.61 2623.99V2641.47H2520.87C2541.93 2640.72 2552.45 2638.46 2552.45 2634.7C2542.68 2620.04 2533.84 2609.51 2525.94 2603.12ZM2724.17 2542.76C2747.86 2542.76 2761.96 2559.31 2766.47 2592.4V2597.48C2766.47 2633.95 2747.67 2667.42 2710.07 2697.88C2731.88 2719.31 2770.05 2730.03 2824.57 2730.03C2832.84 2732.66 2836.98 2738.49 2836.98 2747.51C2836.98 2757.67 2830.4 2762.74 2817.24 2762.74C2780.39 2762.74 2741.65 2753.34 2701.04 2734.54V2750.9C2701.04 2789.63 2692.77 2809 2676.22 2809C2664.57 2809 2658.74 2786.62 2658.74 2741.87V2697.88L2657.05 2682.08L2661 2664.03L2657.05 2609.89V2607.63C2657.05 2597.48 2662.31 2590.52 2672.84 2586.76C2687.51 2557.43 2704.62 2542.76 2724.17 2542.76ZM2695.97 2666.29C2706.87 2666.29 2719.09 2646.74 2732.63 2607.63V2583.38L2725.86 2576.04H2720.78C2704.24 2587.32 2695.97 2617.41 2695.97 2666.29ZM2961.2 2547.28C2977.75 2547.28 2986.02 2553.86 2986.02 2567.02L2980.95 2577.73L2977.56 2680.96C2977.56 2727.58 2986.96 2756.54 3005.76 2767.82L3006.89 2776.28C3005.76 2787.19 3000.69 2792.64 2991.66 2792.64H2988.28C2960.08 2773.46 2945.97 2744.13 2945.97 2704.65H2942.03C2926.98 2746.76 2908.75 2767.82 2887.31 2767.82C2867.38 2762.18 2857.42 2747.33 2857.42 2723.26C2857.42 2670.24 2878.66 2617.41 2921.16 2564.76C2935.45 2553.1 2948.79 2547.28 2961.2 2547.28ZM2892.95 2700.7L2890.7 2716.49V2727.21H2896.34C2924.54 2656.89 2938.64 2614.02 2938.64 2598.6H2936.39C2914.58 2623.05 2900.1 2657.08 2892.95 2700.7ZM3086.98 2422.62C3097.51 2424.88 3102.78 2430.14 3102.78 2438.41L3099.39 2463.23V2470.56C3099.39 2487.11 3101.27 2504.6 3105.03 2523.02H3106.16C3149.78 2509.86 3176.86 2503.28 3187.38 2503.28C3198.29 2506.29 3203.74 2511.74 3203.74 2519.64C3203.74 2532.42 3190.77 2538.81 3164.82 2538.81L3106.16 2559.68C3106.16 2610.45 3111.61 2679.45 3122.52 2766.69C3120.26 2776.85 3114.81 2781.92 3106.16 2781.92H3105.03C3091.87 2781.92 3085.29 2765 3085.29 2731.16C3080.4 2705.96 3076.27 2651.25 3072.88 2567.02H3062.73C3027.38 2564.76 3009.71 2556.49 3009.71 2542.2C3009.71 2538.06 3013.66 2532.99 3021.55 2526.97H3027.19L3053.14 2533.74H3071.19L3066.11 2463.23C3066.11 2436.16 3073.07 2422.62 3086.98 2422.62ZM3271.69 2562.51C3286.73 2562.88 3312.12 2589.2 3347.84 2641.47L3348.97 2651.06C3348.97 2661.59 3323.21 2669.68 3271.69 2675.32L3270 2677.01V2679.26C3277.9 2713.11 3286.17 2730.03 3294.82 2730.03H3301.59C3313.62 2730.03 3331.86 2717.06 3356.3 2691.11H3359.68C3367.21 2691.11 3373.03 2696.56 3377.17 2707.47C3377.17 2716.49 3361.38 2732.1 3329.79 2754.28C3321.52 2759.17 3311.55 2762.74 3299.89 2765C3269.44 2765 3248.19 2736.42 3236.16 2679.26C3218.86 2676.63 3210.21 2669.49 3210.21 2657.83C3210.21 2649.56 3216.6 2644.1 3229.39 2641.47V2643.73L3235.03 2641.47V2627.37C3235.03 2584.13 3247.25 2562.51 3271.69 2562.51ZM3275.08 2603.12H3270L3267.74 2623.99V2641.47H3270C3291.06 2640.72 3301.59 2638.46 3301.59 2634.7C3291.81 2620.04 3282.97 2609.51 3275.08 2603.12ZM3531.4 2455.34C3537.79 2455.34 3543.62 2461.35 3548.88 2473.38L3524.07 2630.19V2674.19C3524.07 2720.06 3531.21 2743 3545.5 2743C3554.9 2747.51 3559.6 2753.53 3559.6 2761.05C3559.6 2769.7 3552.08 2774.78 3537.04 2776.28C3520.49 2776.28 3507.52 2761.05 3498.12 2730.59H3492.48C3478.57 2761.05 3461.64 2776.28 3441.71 2776.28C3418.4 2776.28 3404.3 2758.61 3399.41 2723.26C3399.41 2682.27 3426.86 2638.84 3481.76 2592.96C3492.67 2592.96 3498.12 2577.73 3498.12 2547.28C3506.39 2485.98 3517.49 2455.34 3531.4 2455.34ZM3432.69 2718.75V2733.98L3441.71 2743H3445.1C3457.13 2743 3471.23 2706.71 3487.4 2634.14H3484.02C3449.8 2668.36 3432.69 2696.56 3432.69 2718.75Z" fill="white"/>
</svg>
