<svg width="21" height="146" viewBox="0 0 21 146" fill="none" xmlns="http://www.w3.org/2000/svg">
<path d="M19.76 142.78C19.76 143.207 19.64 143.593 19.4 143.94C19.1733 144.287 18.8733 144.56 18.5 144.76C18.1133 144.96 17.7 145.06 17.26 145.06C16.4333 145.06 15.6267 144.88 14.84 144.52C14.0533 144.147 13.3067 143.66 12.6 143.06C11.8933 142.46 11.2467 141.807 10.66 141.1C10.06 140.38 9.54667 139.667 9.12 138.96C8.69333 138.24 8.36 137.587 8.12 137C7.88 136.4 7.76 135.933 7.76 135.6C7.76 135.213 7.84667 134.9 8.02 134.66C8.18 134.407 8.43333 134.28 8.78 134.28C8.88667 134.28 8.97333 134.307 9.04 134.36C9.08 134.187 9.18 134.047 9.34 133.94C9.5 133.833 9.74 133.78 10.06 133.78C10.1933 133.78 10.54 133.813 11.1 133.88C11.66 133.947 12.34 134.02 13.14 134.1C13.94 134.167 14.7733 134.2 15.64 134.2C15.7733 134.2 15.8933 134.18 16 134.14C16.0933 134.1 16.14 134.013 16.14 133.88C16.14 133.347 16.0333 132.807 15.82 132.26C15.5933 131.7 15.32 131.16 15 130.64C14.6667 130.107 14.34 129.627 14.02 129.2C13.6867 128.76 13.4133 128.393 13.2 128.1C12.9733 127.793 12.86 127.593 12.86 127.5C12.86 127.047 13.0867 126.82 13.54 126.82C13.66 126.82 13.9133 126.967 14.3 127.26C14.6733 127.54 15.1067 127.927 15.6 128.42C16.08 128.913 16.56 129.467 17.04 130.08C17.5067 130.68 17.8933 131.307 18.2 131.96C18.5067 132.6 18.66 133.22 18.66 133.82C18.66 134.553 18.4867 135.113 18.14 135.5C17.7933 135.873 17.3267 136.14 16.74 136.3C16.14 136.447 15.4667 136.527 14.72 136.54C15.6933 137.22 16.56 137.927 17.32 138.66C18.0667 139.38 18.66 140.093 19.1 140.8C19.54 141.507 19.76 142.167 19.76 142.78ZM9.74 135.7C10.3667 137.007 11.0867 138.18 11.9 139.22C12.7 140.26 13.54 141.087 14.42 141.7C15.3 142.3 16.1467 142.6 16.96 142.6C17.1867 142.6 17.3 142.493 17.3 142.28C17.3 142.027 17.1533 141.693 16.86 141.28C16.5667 140.853 16.18 140.393 15.7 139.9C15.2067 139.407 14.66 138.913 14.06 138.42C13.4467 137.927 12.82 137.467 12.18 137.04C11.54 136.613 10.9267 136.273 10.34 136.02C10.1267 135.927 9.92667 135.82 9.74 135.7ZM19.62 126.213C19.62 127.013 19.46 127.566 19.14 127.873C18.8333 128.166 18.4067 128.313 17.86 128.313C15.54 128.313 13.12 127.879 10.6 127.013C8.06667 126.133 5.52667 124.899 2.98 123.313C2.54 123.046 2.28 122.826 2.2 122.653C2.12 122.479 2.08 122.286 2.08 122.073C2.08 121.766 2.18667 121.499 2.4 121.273C2.61333 121.033 2.89333 120.913 3.24 120.913C3.34667 120.913 3.64 121.026 4.12 121.253C4.6 121.479 5.21333 121.779 5.96 122.153C6.70667 122.513 7.55333 122.906 8.5 123.333C9.43333 123.759 10.42 124.179 11.46 124.593C12.5 124.993 13.5467 125.339 14.6 125.633C14.0267 125.179 13.44 124.666 12.84 124.093C12.2267 123.506 11.6667 122.899 11.16 122.273C10.64 121.646 10.2267 121.039 9.92 120.453C9.6 119.866 9.44 119.339 9.44 118.873C9.44 118.433 9.54667 118.026 9.76 117.653C9.97333 117.266 10.3067 116.953 10.76 116.713C11.2133 116.473 11.8 116.353 12.52 116.353C13.3067 116.353 14.1133 116.579 14.94 117.033C15.7667 117.473 16.5333 118.119 17.24 118.973C17.9467 119.813 18.52 120.846 18.96 122.073C19.4 123.286 19.62 124.666 19.62 126.213ZM17.34 125.373C17.26 124.346 17.04 123.419 16.68 122.593C16.32 121.753 15.8733 121.033 15.34 120.433C14.8067 119.833 14.2467 119.373 13.66 119.053C13.06 118.733 12.4933 118.573 11.96 118.573C11.84 118.573 11.78 118.606 11.78 118.673C11.78 118.953 11.9067 119.306 12.16 119.733C12.4 120.159 12.7267 120.626 13.14 121.133C13.5533 121.639 14.0067 122.153 14.5 122.673C14.9933 123.193 15.4867 123.686 15.98 124.153C16.4733 124.619 16.9267 125.026 17.34 125.373ZM19.66 111.756C19.66 112.703 19.3267 113.463 18.66 114.036C17.98 114.61 17.0733 114.896 15.94 114.896C15.58 114.896 15.2133 114.85 14.84 114.756C14.4667 114.65 14.12 114.523 13.8 114.376C13.68 114.456 13.5267 114.523 13.34 114.576C13.14 114.616 12.9067 114.636 12.64 114.636C11.7733 114.636 10.98 114.483 10.26 114.176C9.52667 113.87 8.89333 113.456 8.36 112.936C7.82667 112.416 7.41333 111.843 7.12 111.216C6.82667 110.59 6.68 109.956 6.68 109.316C6.68 108.223 7.04667 107.33 7.78 106.636C8.51333 105.93 9.65333 105.576 11.2 105.576C11.9733 105.576 12.76 105.696 13.56 105.936C14.36 106.176 15.1267 106.503 15.86 106.916C16.58 107.316 17.2267 107.783 17.8 108.316C18.3733 108.836 18.8267 109.396 19.16 109.996C19.4933 110.583 19.66 111.17 19.66 111.756ZM12.9 112.076C13.0467 112.01 13.22 111.976 13.42 111.976C13.62 111.976 13.8267 112.016 14.04 112.096C14.2533 112.176 14.54 112.256 14.9 112.336C15.2467 112.416 15.7467 112.456 16.4 112.456C16.5733 112.456 16.72 112.436 16.84 112.396C16.9467 112.343 17 112.23 17 112.056C17 111.603 16.8533 111.176 16.56 110.776C16.2667 110.363 15.88 109.996 15.4 109.676C14.92 109.343 14.3867 109.063 13.8 108.836C13.2 108.596 12.5933 108.416 11.98 108.296C11.3533 108.163 10.7733 108.096 10.24 108.096C9.89333 108.096 9.65333 108.163 9.52 108.296C9.38667 108.43 9.32 108.663 9.32 108.996C9.32 109.45 9.46667 109.916 9.76 110.396C10.04 110.863 10.4267 111.256 10.92 111.576C11.4 111.896 11.9467 112.056 12.56 112.056C12.68 112.056 12.7933 112.063 12.9 112.076ZM19.9 95.5458C19.9 95.8524 19.7733 96.1324 19.52 96.3858C19.28 96.6258 18.8733 96.7458 18.3 96.7458C17.8733 96.7458 17.28 96.7124 16.52 96.6458C15.7467 96.5658 14.7533 96.4191 13.54 96.2058C14.5 96.6724 15.3533 97.1591 16.1 97.6658C16.8467 98.1724 17.4333 98.6724 17.86 99.1658C18.2733 99.6458 18.48 100.106 18.48 100.546C18.48 101.252 18.2667 101.812 17.84 102.226C17.4 102.639 16.58 102.846 15.38 102.846C14.8067 102.846 14.16 102.799 13.44 102.706C12.72 102.599 12 102.466 11.28 102.306C10.56 102.146 9.92 101.986 9.36 101.826C8.78667 101.652 8.36 101.499 8.08 101.366C7.84 101.259 7.65333 101.126 7.52 100.966C7.38667 100.792 7.32 100.572 7.32 100.306C7.32 99.8791 7.46 99.5524 7.74 99.3258C8.02 99.0991 8.30667 98.9858 8.6 98.9858C8.82667 98.9858 9.15333 99.0391 9.58 99.1458C10.0067 99.2391 10.48 99.3591 11 99.5058C11.52 99.6391 12.0533 99.7791 12.6 99.9258C13.1467 100.072 13.66 100.199 14.14 100.306C14.62 100.399 15.0267 100.446 15.36 100.446C15.7733 100.446 15.98 100.286 15.98 99.9658C15.98 99.7791 15.8 99.5391 15.44 99.2458C15.08 98.9391 14.6 98.6191 14 98.2858C13.3867 97.9391 12.72 97.5924 12 97.2458C11.2667 96.8858 10.5267 96.5591 9.78 96.2658C9.02 95.9591 8.32 95.6991 7.68 95.4858C7.28 95.3524 7 95.1724 6.84 94.9458C6.68 94.7191 6.6 94.4591 6.6 94.1658C6.6 93.7124 6.72667 93.3658 6.98 93.1258C7.23333 92.8724 7.59333 92.7458 8.06 92.7458C8.27333 92.7458 8.63333 92.7791 9.14 92.8458C9.64667 92.9124 10.24 92.9991 10.92 93.1058C11.6 93.1991 12.32 93.3124 13.08 93.4458C13.84 93.5791 14.5867 93.7124 15.32 93.8458C16.0533 93.9658 16.7267 94.0858 17.34 94.2058C17.94 94.3258 18.42 94.4258 18.78 94.5058C19.3133 94.6391 19.6333 94.7991 19.74 94.9858C19.8467 95.1724 19.9 95.3591 19.9 95.5458ZM8.92 75.5466C9.08 75.5466 9.22 75.5999 9.34 75.7066C9.46 75.8132 9.55333 75.9466 9.62 76.1066C9.71333 76.3332 9.83333 76.7266 9.98 77.2866C10.1267 77.8466 10.2933 78.5266 10.48 79.3266C10.6667 80.1132 10.86 80.9599 11.06 81.8666C11.2467 82.7732 11.4267 83.6799 11.6 84.5866C12.88 84.9332 14.2 85.2866 15.56 85.6466C16.9067 86.0066 18.2333 86.3666 19.54 86.7266C20.0067 86.8599 20.36 87.0199 20.6 87.2066C20.8533 87.3932 20.98 87.7132 20.98 88.1666C20.98 88.6599 20.82 88.9932 20.5 89.1666C20.1933 89.3266 19.7733 89.3466 19.24 89.2266C17.7867 88.8799 16.4333 88.5599 15.18 88.2666C13.9267 87.9599 12.9133 87.7132 12.14 87.5266C12.2733 88.3266 12.38 89.0266 12.46 89.6266C12.5267 90.2266 12.5533 90.6532 12.54 90.9066C12.5133 91.1866 12.4 91.4199 12.2 91.6066C12 91.7932 11.7533 91.8799 11.46 91.8666C11.1933 91.8399 10.9667 91.7199 10.78 91.5066C10.58 91.2932 10.46 91.0399 10.42 90.7466C10.38 90.3332 10.32 89.7999 10.24 89.1466C10.16 88.4932 10.0667 87.7732 9.96 86.9866C9.28 86.8132 8.58 86.6132 7.86 86.3866C7.12667 86.1599 6.42667 85.9266 5.76 85.6866C5.08 85.4332 4.48667 85.1932 3.98 84.9666C3.47333 84.7399 3.10667 84.5332 2.88 84.3466C2.70667 84.1999 2.57333 84.0199 2.48 83.8066C2.38667 83.5799 2.34 83.3599 2.34 83.1466C2.34 82.8666 2.44 82.6399 2.64 82.4666C2.84 82.2932 3.07333 82.2066 3.34 82.2066C3.44667 82.2066 3.56 82.2132 3.68 82.2266C3.78667 82.2399 3.89333 82.2666 4 82.3066C4.66667 82.5599 5.47333 82.8332 6.42 83.1266C7.36667 83.4066 8.40667 83.6999 9.54 84.0066C9.39333 83.0066 9.24667 82.0266 9.1 81.0666C8.94 80.0932 8.79333 79.2132 8.66 78.4266C8.51333 77.6266 8.38667 76.9866 8.28 76.5066C8.18667 76.2399 8.20667 76.0132 8.34 75.8266C8.46 75.6399 8.65333 75.5466 8.92 75.5466ZM18.98 65.5234C18.98 65.8701 18.8133 66.1768 18.48 66.4434C18.1467 66.6968 17.6333 66.8901 16.94 67.0234C16.3533 67.1301 15.6867 67.2234 14.94 67.3034C14.1933 67.3834 13.46 67.4568 12.74 67.5234C12.0067 67.5768 11.3667 67.6168 10.82 67.6434C10.2733 67.6701 9.9 67.6834 9.7 67.6834C8.98 67.6834 8.38667 67.5568 7.92 67.3034C7.44 67.0501 7.2 66.5634 7.2 65.8434C7.2 65.5368 7.33333 65.3034 7.6 65.1434C7.85333 64.9834 8.20667 64.9034 8.66 64.9034C8.94 64.9034 9.29333 64.9034 9.72 64.9034C10.1333 64.8901 10.6 64.8768 11.12 64.8634C11.6933 64.8501 12.3133 64.8368 12.98 64.8234C13.6333 64.7968 14.2867 64.7834 14.94 64.7834C14.2067 64.3168 13.4267 63.8168 12.6 63.2834C11.76 62.7501 10.9467 62.2301 10.16 61.7234C9.37333 61.2034 8.68 60.7368 8.08 60.3234C7.46667 59.9101 7.03333 59.5968 6.78 59.3834C6.55333 59.1968 6.36 58.9701 6.2 58.7034C6.02667 58.4368 5.94 58.1568 5.94 57.8634C5.94 57.5434 6.06667 57.2768 6.32 57.0634C6.57333 56.8501 6.86667 56.7434 7.2 56.7434C7.45333 56.7434 7.69333 56.7968 7.92 56.9034C8.14667 56.9968 8.36 57.1168 8.56 57.2634C9.12 57.6634 9.77333 58.1368 10.52 58.6834C11.2667 59.2168 12.0533 59.7768 12.88 60.3634C13.6933 60.9501 14.48 61.5234 15.24 62.0834C16 62.6301 16.6733 63.1168 17.26 63.5434C17.7533 63.8901 18.1267 64.1701 18.38 64.3834C18.62 64.5968 18.78 64.7901 18.86 64.9634C18.94 65.1234 18.98 65.3101 18.98 65.5234ZM19.3 54.7919C19.3 55.1652 19.1733 55.4985 18.92 55.7919C18.6667 56.0719 18.2533 56.2119 17.68 56.2119C17.3733 56.2119 16.94 56.1719 16.38 56.0919C15.82 55.9985 15.2133 55.8785 14.56 55.7319C13.8933 55.5852 13.2333 55.4252 12.58 55.2519C11.9267 55.0652 11.3467 54.8852 10.84 54.7119C10.32 54.5385 9.93333 54.3852 9.68 54.2519C9.37333 54.0785 9.18667 53.9185 9.12 53.7719C9.04 53.6119 9 53.4585 9 53.3119C9 53.0452 9.08 52.7985 9.24 52.5719C9.4 52.3319 9.75333 52.2119 10.3 52.2119C10.5133 52.2119 10.86 52.2519 11.34 52.3319C11.8067 52.4119 12.3533 52.5119 12.98 52.6319C13.6067 52.7519 14.2533 52.8852 14.92 53.0319C15.5867 53.1652 16.22 53.2985 16.82 53.4319C17.4067 53.5519 17.9 53.6519 18.3 53.7319C18.6333 53.7985 18.88 53.9385 19.04 54.1519C19.2133 54.3519 19.3 54.5652 19.3 54.7919ZM7.02 52.4919C7.02 52.9319 6.89333 53.3385 6.64 53.7119C6.37333 54.0852 5.96667 54.2719 5.42 54.2719C4.96667 54.2719 4.6 54.1585 4.32 53.9319C4.04 53.7052 3.84 53.4385 3.72 53.1319C3.58667 52.8119 3.52 52.5319 3.52 52.2919C3.52 52.0519 3.57333 51.7852 3.68 51.4919C3.77333 51.1985 3.95333 50.9452 4.22 50.7319C4.47333 50.5052 4.84 50.3919 5.32 50.3919C5.64 50.3919 5.93333 50.5052 6.2 50.7319C6.45333 50.9585 6.65333 51.2385 6.8 51.5719C6.94667 51.8919 7.02 52.1985 7.02 52.4919ZM18.98 46.5C18.98 46.8467 18.8133 47.1533 18.48 47.42C18.1467 47.6733 17.6333 47.8667 16.94 48C16.3533 48.1067 15.6867 48.2 14.94 48.28C14.1933 48.36 13.46 48.4333 12.74 48.5C12.0067 48.5533 11.3667 48.5933 10.82 48.62C10.2733 48.6467 9.9 48.66 9.7 48.66C8.98 48.66 8.38667 48.5333 7.92 48.28C7.44 48.0267 7.2 47.54 7.2 46.82C7.2 46.5133 7.33333 46.28 7.6 46.12C7.85333 45.96 8.20667 45.88 8.66 45.88C8.94 45.88 9.29333 45.88 9.72 45.88C10.1333 45.8667 10.6 45.8533 11.12 45.84C11.6933 45.8267 12.3133 45.8133 12.98 45.8C13.6333 45.7733 14.2867 45.76 14.94 45.76C14.2067 45.2933 13.4267 44.7933 12.6 44.26C11.76 43.7267 10.9467 43.2067 10.16 42.7C9.37333 42.18 8.68 41.7133 8.08 41.3C7.46667 40.8867 7.03333 40.5733 6.78 40.36C6.55333 40.1733 6.36 39.9467 6.2 39.68C6.02667 39.4133 5.94 39.1333 5.94 38.84C5.94 38.52 6.06667 38.2533 6.32 38.04C6.57333 37.8267 6.86667 37.72 7.2 37.72C7.45333 37.72 7.69333 37.7733 7.92 37.88C8.14667 37.9733 8.36 38.0933 8.56 38.24C9.12 38.64 9.77333 39.1133 10.52 39.66C11.2667 40.1933 12.0533 40.7533 12.88 41.34C13.6933 41.9267 14.48 42.5 15.24 43.06C16 43.6067 16.6733 44.0933 17.26 44.52C17.7533 44.8667 18.1267 45.1467 18.38 45.36C18.62 45.5733 18.78 45.7667 18.86 45.94C18.94 46.1 18.98 46.2867 18.98 46.5ZM19.68 34.5417C19.68 35.3684 19.3933 36.0351 18.82 36.5417C18.2333 37.0484 17.2933 37.3017 16 37.3017C15.1733 37.3017 14.3467 37.2084 13.52 37.0217C12.68 36.8217 11.8867 36.5484 11.14 36.2017C10.38 35.8417 9.70667 35.4284 9.12 34.9617C8.53333 34.4817 8.07333 33.9551 7.74 33.3817C7.39333 32.8084 7.22 32.2151 7.22 31.6017C7.22 30.5617 7.5 29.7484 8.06 29.1617C8.62 28.5751 9.33333 28.2817 10.2 28.2817C10.8667 28.2817 11.4733 28.4684 12.02 28.8417C12.5533 29.2017 13.0333 29.6951 13.46 30.3217C13.8867 30.9484 14.2733 31.6484 14.62 32.4217C14.9667 33.1951 15.28 33.9884 15.56 34.8017C16.04 34.8684 16.4667 34.9017 16.84 34.9017C17.0667 34.9017 17.18 34.7751 17.18 34.5217C17.18 33.9217 17.0867 33.2817 16.9 32.6017C16.7 31.9084 16.4467 31.2084 16.14 30.5017C15.82 29.7951 15.4933 29.1151 15.16 28.4617C14.8133 27.8084 14.4867 27.2151 14.18 26.6817C13.86 26.1351 13.6067 25.6884 13.42 25.3417C13.22 24.9817 13.12 24.7484 13.12 24.6417C13.12 24.3484 13.2067 24.1351 13.38 24.0017C13.5533 23.8684 13.74 23.8017 13.94 23.8017C14.0333 23.8017 14.24 23.9817 14.56 24.3417C14.88 24.6884 15.26 25.1684 15.7 25.7817C16.1267 26.3817 16.5733 27.0617 17.04 27.8217C17.4933 28.5684 17.9267 29.3484 18.34 30.1617C18.74 30.9617 19.06 31.7417 19.3 32.5017C19.5533 33.2484 19.68 33.9284 19.68 34.5417ZM13.78 34.4617C13.46 33.9151 13.1267 33.3751 12.78 32.8417C12.42 32.2951 12.02 31.8417 11.58 31.4817C11.1267 31.1217 10.6 30.9417 10 30.9417C9.82667 30.9417 9.71333 30.9884 9.66 31.0817C9.59333 31.1751 9.56 31.3084 9.56 31.4817C9.56 31.9484 9.76667 32.3751 10.18 32.7617C10.5933 33.1351 11.1267 33.4684 11.78 33.7617C12.42 34.0417 13.0867 34.2751 13.78 34.4617ZM20.46 14.0045C20.46 14.9112 20.2667 15.7512 19.88 16.5245C19.5067 17.2979 19.0133 18.0045 18.4 18.6445C17.7733 19.2845 17.0933 19.8579 16.36 20.3645C15.6133 20.8579 14.88 21.2779 14.16 21.6245C14.8933 21.7845 15.52 21.9312 16.04 22.0645C16.56 22.1845 16.9933 22.2845 17.34 22.3645C17.6067 22.4312 17.8667 22.5045 18.12 22.5845C18.3733 22.6512 18.58 22.7579 18.74 22.9045C18.9 23.0512 18.98 23.2579 18.98 23.5245C18.98 24.0979 18.7867 24.4645 18.4 24.6245C18 24.7845 17.4933 24.8645 16.88 24.8645C16.3333 24.8645 15.6133 24.7779 14.72 24.6045C13.8267 24.4179 12.8267 24.1712 11.72 23.8645C10.6133 23.5579 9.47333 23.2045 8.3 22.8045C7.11333 22.3912 5.96 21.9512 4.84 21.4845C3.70667 21.0179 2.68 20.5512 1.76 20.0845C1.2 19.7912 0.846666 19.5312 0.7 19.3045C0.539999 19.0779 0.459999 18.8112 0.459999 18.5045C0.459999 18.1979 0.539999 17.9645 0.7 17.8045C0.859999 17.6445 1.07333 17.5645 1.34 17.5645C1.51333 17.5645 1.68667 17.6045 1.86 17.6845C2.03333 17.7645 2.24667 17.8512 2.5 17.9445C3.18 18.2512 3.97333 18.5712 4.88 18.9045C5.77333 19.2379 6.7 19.5579 7.66 19.8645C8.60667 20.1712 9.50667 20.4445 10.36 20.6845C9.97333 20.0312 9.6 19.3045 9.24 18.5045C8.86667 17.7045 8.53333 16.8979 8.24 16.0845C7.93333 15.2579 7.69333 14.4845 7.52 13.7645C7.34667 13.0445 7.26 12.4379 7.26 11.9445C7.26 11.5579 7.37333 11.2645 7.6 11.0645C7.82667 10.8645 8.07333 10.7645 8.34 10.7645C8.54 10.7645 8.74 10.8245 8.94 10.9445C9.14 11.0645 9.31333 11.3179 9.46 11.7045C9.88667 12.9845 10.32 14.2579 10.76 15.5245C11.2 16.7779 11.72 18.1712 12.32 19.7045C12.9467 19.3845 13.5933 19.0112 14.26 18.5845C14.9133 18.1579 15.5267 17.6979 16.1 17.2045C16.66 16.7112 17.12 16.2045 17.48 15.6845C17.8267 15.1645 18 14.6512 18 14.1445C18 13.3979 17.8533 12.6779 17.56 11.9845C17.2533 11.2912 16.8867 10.6512 16.46 10.0645C16.02 9.47786 15.5933 8.96453 15.18 8.52453C14.7667 8.0712 14.4467 7.71786 14.22 7.46453C14.0733 7.31786 13.9667 7.17786 13.9 7.04453C13.8333 6.89786 13.8 6.71786 13.8 6.50453C13.8 6.2512 13.88 6.05786 14.04 5.92453C14.1867 5.77786 14.38 5.7112 14.62 5.72453C14.8467 5.73786 15.0733 5.8512 15.3 6.06453C15.4867 6.23786 15.7867 6.5112 16.2 6.88453C16.6 7.24453 17.0467 7.68453 17.54 8.20453C18.02 8.7112 18.4867 9.27786 18.94 9.90453C19.38 10.5179 19.74 11.1712 20.02 11.8645C20.3133 12.5579 20.46 13.2712 20.46 14.0045ZM19.52 2.54266C19.52 2.95599 19.3933 3.34266 19.14 3.70266C18.8867 4.06266 18.4733 4.24266 17.9 4.24266C17.46 4.24266 17.1067 4.12932 16.84 3.90266C16.56 3.67599 16.3533 3.41599 16.22 3.12266C16.0867 2.81599 16.02 2.55599 16.02 2.34266C16.02 2.11599 16.0733 1.86266 16.18 1.58266C16.2733 1.28932 16.4533 1.03599 16.72 0.822656C16.9733 0.609323 17.34 0.502656 17.82 0.502656C18.2867 0.502656 18.6867 0.702656 19.02 1.10266C19.3533 1.48932 19.52 1.96932 19.52 2.54266Z" fill="#6F15C4"/>
</svg>
