<svg width="36" height="36" viewBox="0 0 36 36" fill="none" xmlns="http://www.w3.org/2000/svg">
<g clip-path="url(#clip0_206_23)">
<path d="M6.375 2.90166e-06H29.625C30.4624 -0.00080659 31.2917 0.167763 32.0655 0.496065C32.8394 0.824367 33.5424 1.30596 34.1346 1.91327C34.7267 2.52058 35.1963 3.2417 35.5163 4.03535C35.8364 4.82899 36.0008 5.67959 36 6.53846V29.4615C36.0008 30.3204 35.8364 31.171 35.5163 31.9647C35.1963 32.7583 34.7267 33.4794 34.1346 34.0867C33.5424 34.694 32.8394 35.1756 32.0655 35.5039C31.2917 35.8322 30.4624 36.0008 29.625 36H6.375C5.5376 36.0008 4.70827 35.8322 3.93446 35.5039C3.16066 35.1756 2.45757 34.694 1.86544 34.0867C1.27331 33.4794 0.803758 32.7583 0.483663 31.9647C0.163569 31.171 -0.000786426 30.3204 2.82911e-06 29.4615V6.53846C-0.000786426 5.67959 0.163569 4.82899 0.483663 4.03535C0.803758 3.2417 1.27331 2.52058 1.86544 1.91327C2.45757 1.30596 3.16066 0.824367 3.93446 0.496065C4.70827 0.167763 5.5376 -0.00080659 6.375 2.90166e-06Z" fill="#00005B"/>
<path d="M8.55005 25.2461V9.41535C8.55005 9.30765 8.59505 9.24612 8.70005 9.24612C8.95505 9.24612 9.19505 9.24612 9.54005 9.23073C9.88505 9.21535 10.275 9.21535 10.68 9.19996C11.085 9.18458 11.52 9.18458 11.985 9.16919C12.45 9.15381 12.9 9.15381 13.35 9.15381C14.58 9.15381 15.6 9.30765 16.44 9.63073C17.193 9.893 17.8797 10.3239 18.45 10.8923C18.9334 11.3896 19.3068 11.9878 19.545 12.6461C19.7721 13.2873 19.8888 13.964 19.89 14.6461C19.89 15.9692 19.59 17.0615 18.99 17.923C18.3873 18.7834 17.5457 19.4375 16.575 19.8C15.555 20.1846 14.43 20.323 13.2 20.323C12.84 20.323 12.6 20.323 12.45 20.3077C12.3 20.2923 12.09 20.2923 11.805 20.2923V25.2307C11.8084 25.256 11.8068 25.2818 11.8002 25.3064C11.7937 25.3311 11.7824 25.3542 11.767 25.3742C11.7516 25.3943 11.7324 25.411 11.7106 25.4234C11.6888 25.4357 11.6648 25.4435 11.64 25.4461H8.73005C8.61005 25.4461 8.55005 25.3846 8.55005 25.2461ZM11.82 12.2153V17.3846C12.03 17.4 12.225 17.4153 12.405 17.4153H13.2C13.7856 17.4161 14.3677 17.3226 14.925 17.1384C15.4032 16.9942 15.8305 16.711 16.155 16.323C16.47 15.9384 16.62 15.4153 16.62 14.7384C16.6342 14.2577 16.5145 13.7827 16.275 13.3692C16.0249 12.9697 15.6571 12.6625 15.225 12.4923C14.6619 12.2661 14.0594 12.1613 13.455 12.1846C13.065 12.1846 12.72 12.1846 12.435 12.2C12.23 12.1862 12.0242 12.1914 11.82 12.2153ZM21.9901 13.1077H24.6151C24.6861 13.1094 24.7549 13.1342 24.8114 13.1784C24.868 13.2226 24.9095 13.284 24.93 13.3538C24.9758 13.4776 25.0061 13.6068 25.0201 13.7384C25.0501 13.8923 25.08 14.0615 25.0951 14.2153C25.1101 14.3692 25.125 14.5692 25.125 14.7692C25.5754 14.2299 26.1197 13.7813 26.73 13.4461C27.4273 13.0489 28.2125 12.8423 29.01 12.8461C29.0347 12.8427 29.0598 12.8444 29.0839 12.8511C29.1079 12.8578 29.1304 12.8694 29.15 12.8851C29.1696 12.9009 29.1859 12.9206 29.1979 12.943C29.2099 12.9653 29.2175 12.9899 29.2201 13.0153V16.0769C29.2201 16.2 29.1451 16.2461 28.98 16.2461C28.4359 16.2278 27.8917 16.2795 27.36 16.4C26.9267 16.4917 26.5043 16.631 26.1 16.8153C25.8098 16.9496 25.5495 17.1433 25.335 17.3846V25.2307C25.335 25.3846 25.2751 25.4461 25.1401 25.4461H22.185C22.1574 25.4509 22.1291 25.4499 22.1018 25.4431C22.0745 25.4363 22.0489 25.4239 22.0264 25.4066C22.004 25.3893 21.9852 25.3676 21.9712 25.3426C21.9572 25.3177 21.9483 25.2901 21.9451 25.2615V16.6769C21.9451 16.3077 21.945 15.923 21.93 15.523C21.915 15.123 21.915 14.723 21.9 14.323C21.9 13.9692 21.8701 13.6307 21.8401 13.2769C21.8361 13.2587 21.8356 13.2399 21.8388 13.2215C21.8419 13.2032 21.8485 13.1856 21.8583 13.1699C21.868 13.1542 21.8807 13.1406 21.8956 13.1299C21.9105 13.1192 21.9273 13.1117 21.9451 13.1077C21.9451 13.0923 21.975 13.0923 21.9901 13.1077Z" fill="#9999FF"/>
</g>
<defs>
<clipPath id="clip0_206_23">
<rect width="36" height="36" rx="7" fill="white"/>
</clipPath>
</defs>
</svg>
