<svg width="36" height="36" viewBox="0 0 36 36" fill="none" xmlns="http://www.w3.org/2000/svg">
<path d="M6.37502 0H29.625C33.15 0 36 2.92253 36 6.53714V29.4555C36 33.0701 33.15 35.9926 29.625 35.9926H6.37502C2.85005 35.9926 0 33.0701 0 29.4555V6.53714C0 2.92253 2.85005 0 6.37502 0Z" fill="#00005B"/>
<path d="M14.46 21.8158H8.88002L7.73997 25.3614C7.71002 25.4966 7.58992 25.5867 7.45499 25.5717H4.63504C4.47002 25.5717 4.42509 25.4816 4.47002 25.3013L9.30006 11.4342C9.34499 11.284 9.39006 11.1488 9.45011 10.9685C9.51016 10.6531 9.54011 10.3225 9.54011 9.99195C9.52514 9.9168 9.58504 9.84166 9.66006 9.82666H13.545C13.65 9.82666 13.725 9.87166 13.74 9.9468L19.215 25.2711C19.2601 25.4364 19.215 25.5116 19.065 25.5116H15.93C15.825 25.5266 15.72 25.4514 15.6899 25.3463L14.4599 21.7406V21.8157L14.46 21.8158ZM9.75006 18.8261H13.56C13.47 18.5107 13.3501 18.135 13.215 17.7444C13.0799 17.3388 12.945 16.9031 12.8101 16.4524C12.66 15.9867 12.5251 15.536 12.375 15.0702C12.225 14.6045 12.0901 14.1688 11.9701 13.7331C11.8502 13.3124 11.7452 12.9218 11.6401 12.5612H11.6101C11.475 13.2072 11.3102 13.8532 11.1001 14.4994C10.8751 15.2205 10.6501 15.9717 10.41 16.723C10.215 17.4891 9.97499 18.1953 9.75006 18.8263V18.8261ZM28.05 20.4637H23.295C23.355 20.9294 23.5049 21.3951 23.76 21.8008C24.03 22.2064 24.4049 22.522 24.8549 22.7023C25.455 22.9577 26.1149 23.0928 26.7749 23.0778C27.2999 23.0628 27.8249 23.0177 28.3348 22.9126C28.7998 22.8524 29.2498 22.7323 29.6699 22.567C29.7449 22.5068 29.7898 22.537 29.7898 22.6871V24.9858C29.7898 25.046 29.7748 25.106 29.7599 25.1661C29.7299 25.2113 29.6998 25.2413 29.6549 25.2713C29.1749 25.4816 28.6799 25.6319 28.1548 25.722C27.4498 25.8571 26.7448 25.9173 26.0248 25.9023C24.8848 25.9023 23.9248 25.722 23.1448 25.3764C22.4098 25.0608 21.7648 24.5651 21.2548 23.9491C20.7748 23.3633 20.4298 22.7021 20.2199 21.981C20.0099 21.2748 19.9048 20.5387 19.9048 19.7875C19.9048 18.9763 20.0248 18.18 20.2798 17.3987C20.5198 16.6475 20.8948 15.9564 21.4047 15.3404C21.8998 14.7394 22.5147 14.2587 23.2197 13.9131C23.9247 13.5675 24.7647 13.4474 25.7247 13.4474C26.5197 13.4324 27.3148 13.5827 28.0497 13.9131C28.6648 14.1835 29.2048 14.5892 29.6248 15.115C30.0148 15.6258 30.3298 16.1967 30.5248 16.8277C30.7198 17.4287 30.8098 18.0445 30.8098 18.6605C30.8098 19.0211 30.7948 19.3367 30.7798 19.6221C30.7499 19.9075 30.7348 20.118 30.7198 20.2531C30.7048 20.3583 30.6148 20.4484 30.5098 20.4484C30.4198 20.4484 30.2548 20.4634 30.0148 20.4784C29.7747 20.5084 29.4897 20.5235 29.1447 20.5235C28.7997 20.5235 28.4397 20.4634 28.0497 20.4634L28.05 20.4637ZM23.295 18.2703H26.46C26.8499 18.2703 27.135 18.2703 27.3149 18.2553C27.4348 18.2403 27.5549 18.2101 27.6599 18.1351V17.9848C27.6599 17.7895 27.63 17.6093 27.5699 17.429C27.2999 16.5877 26.5049 16.0167 25.6199 16.0468C24.7949 16.0017 24.0148 16.4374 23.6249 17.1887C23.4449 17.5343 23.3399 17.8948 23.2948 18.2704L23.295 18.2703Z" fill="#9999FF"/>
</svg>
