<svg width="109" height="38" viewBox="0 0 109 38" fill="none" xmlns="http://www.w3.org/2000/svg">
<path d="M6.53849 7.958C6.79049 7.35133 7.02849 6.726 7.25249 6.082C7.48582 5.438 7.69582 4.78 7.88249 4.108C7.93849 3.92133 8.02249 3.772 8.13449 3.66C8.25582 3.53867 8.39582 3.478 8.55449 3.478C8.66649 3.478 8.75982 3.52 8.83449 3.604C8.91849 3.688 8.96049 3.8 8.96049 3.94C8.96049 4.11733 8.89049 4.42533 8.75049 4.864C8.61982 5.30267 8.45182 5.858 8.24649 6.53C8.05049 7.202 7.84982 7.97667 7.64449 8.854C7.44849 9.722 7.28049 10.6833 7.14049 11.738C7.00982 12.7927 6.94449 13.9173 6.94449 15.112C6.94449 15.3733 6.88849 15.588 6.77649 15.756C6.66449 15.9333 6.52916 16.022 6.37049 16.022C6.27716 16.022 6.18849 15.9987 6.10449 15.952C6.02049 15.9053 5.94582 15.7933 5.88049 15.616C5.82449 15.448 5.77782 15.182 5.74049 14.818C5.70316 14.4447 5.68449 13.9407 5.68449 13.306C5.68449 12.8207 5.71249 12.2933 5.76849 11.724C5.33916 12.4987 4.87249 13.1753 4.36849 13.754C3.87382 14.3233 3.39316 14.762 2.92649 15.07C2.46916 15.378 2.07716 15.532 1.75049 15.532C1.34915 15.532 1.02249 15.3967 0.770488 15.126C0.527822 14.8647 0.406488 14.4727 0.406488 13.95C0.406488 13.4927 0.513822 13.0213 0.728488 12.536C0.943155 12.0507 1.22782 11.5747 1.58249 11.108C1.93716 10.632 2.32916 10.184 2.75849 9.764C3.18782 9.344 3.61716 8.97533 4.04649 8.658C4.48516 8.33133 4.89116 8.07933 5.26449 7.902C5.63782 7.71533 5.94116 7.622 6.17449 7.622C6.26782 7.622 6.35182 7.65467 6.42649 7.72C6.50116 7.78533 6.53849 7.86467 6.53849 7.958ZM6.35649 8.392C6.29116 8.45733 6.21182 8.52267 6.11849 8.588C6.02516 8.65333 5.92249 8.72333 5.81049 8.798C5.39982 9.08733 4.94716 9.42333 4.45249 9.806C3.96716 10.1793 3.50049 10.59 3.05249 11.038C2.61382 11.4767 2.25449 11.9387 1.97449 12.424C1.69449 12.9093 1.55449 13.4087 1.55449 13.922C1.55449 14.146 1.66649 14.258 1.89049 14.258C2.19849 14.258 2.53449 14.1133 2.89849 13.824C3.27182 13.5253 3.65449 13.1147 4.04649 12.592C4.43849 12.06 4.83049 11.4393 5.22249 10.73C5.61449 10.0113 5.99249 9.232 6.35649 8.392ZM15.2026 8.966C15.2026 9.26467 15.1093 9.55867 14.9226 9.848C14.736 10.128 14.4886 10.3987 14.1806 10.66C13.8726 10.912 13.532 11.15 13.1586 11.374C12.7853 11.598 12.412 11.794 12.0386 11.962C11.6653 12.13 11.3246 12.2653 11.0166 12.368C10.942 12.732 10.9046 13.054 10.9046 13.334C10.9046 13.5113 10.9466 13.6373 11.0306 13.712C11.1146 13.7867 11.2453 13.824 11.4226 13.824C11.8146 13.824 12.23 13.754 12.6686 13.614C13.1073 13.474 13.5553 13.292 14.0126 13.068C14.47 12.844 14.9086 12.606 15.3286 12.354C15.7486 12.102 16.1313 11.864 16.4766 11.64C16.8313 11.416 17.1253 11.234 17.3586 11.094C17.592 10.954 17.746 10.884 17.8206 10.884C17.9326 10.884 18.0166 10.9213 18.0726 10.996C18.138 11.0613 18.1706 11.1407 18.1706 11.234C18.1706 11.3087 18.054 11.4533 17.8206 11.668C17.5966 11.8827 17.2933 12.1347 16.9106 12.424C16.528 12.704 16.0986 12.9933 15.6226 13.292C15.1466 13.5907 14.652 13.8707 14.1386 14.132C13.6346 14.3933 13.1446 14.6033 12.6686 14.762C12.202 14.9207 11.782 15 11.4086 15C10.9233 15 10.5453 14.818 10.2746 14.454C10.004 14.09 9.86863 13.5253 9.86863 12.76C9.86863 12.2467 9.93396 11.7287 10.0646 11.206C10.2046 10.6833 10.3913 10.184 10.6246 9.708C10.8673 9.22267 11.1333 8.79333 11.4226 8.42C11.7213 8.03733 12.034 7.73867 12.3606 7.524C12.6873 7.3 13.0046 7.188 13.3126 7.188C13.9006 7.188 14.3626 7.35133 14.6986 7.678C15.0346 8.00467 15.2026 8.434 15.2026 8.966ZM11.3106 11.29C11.6 11.1127 11.8986 10.926 12.2066 10.73C12.5146 10.534 12.7993 10.3333 13.0606 10.128C13.322 9.92267 13.532 9.708 13.6906 9.484C13.8586 9.25067 13.9426 9.01267 13.9426 8.77C13.9426 8.42467 13.756 8.252 13.3826 8.252C13.1493 8.252 12.902 8.40133 12.6406 8.7C12.3886 8.98933 12.146 9.36733 11.9126 9.834C11.6793 10.3007 11.4786 10.786 11.3106 11.29ZM18.773 16.246C18.6143 16.246 18.4883 16.19 18.395 16.078C18.3016 15.966 18.255 15.7793 18.255 15.518C18.255 15.0513 18.2783 14.5707 18.325 14.076C18.381 13.572 18.409 13.1053 18.409 12.676C18.409 11.696 18.3203 10.8887 18.143 10.254C17.975 9.61 17.6063 9.176 17.037 8.952C16.9063 8.90533 16.813 8.854 16.757 8.798C16.6916 8.742 16.659 8.65333 16.659 8.532C16.659 8.40133 16.7103 8.294 16.813 8.21C16.9063 8.126 17.0836 8.084 17.345 8.084C17.5596 8.084 17.8443 8.09333 18.199 8.112C18.5536 8.13067 18.9363 8.14933 19.347 8.168C19.6363 7.132 19.963 6.27333 20.327 5.592C20.691 4.91067 21.0876 4.374 21.517 3.982C21.9556 3.59 22.4176 3.31 22.903 3.142C23.3976 2.974 23.911 2.89 24.443 2.89C24.6763 2.89 24.8256 2.92267 24.891 2.988C24.9563 3.044 24.989 3.13267 24.989 3.254C24.989 3.40333 24.9423 3.562 24.849 3.73C24.7556 3.88867 24.5643 3.99133 24.275 4.038C23.6403 4.15 23.0756 4.35533 22.581 4.654C22.0863 4.95267 21.657 5.38667 21.293 5.956C20.929 6.516 20.6256 7.25333 20.383 8.168C21.279 8.14933 22.049 8.10267 22.693 8.028C23.337 7.944 23.8736 7.85533 24.303 7.762C24.7416 7.65933 25.0916 7.57533 25.353 7.51C25.6143 7.43533 25.815 7.398 25.955 7.398C26.1136 7.398 26.2116 7.44 26.249 7.524C26.2863 7.608 26.305 7.69667 26.305 7.79C26.305 7.96733 26.137 8.14 25.801 8.308C25.465 8.46667 25.0216 8.61133 24.471 8.742C23.9296 8.86333 23.3323 8.96133 22.679 9.036C22.0256 9.11067 21.3816 9.148 20.747 9.148C20.6443 9.148 20.5416 9.148 20.439 9.148C20.3456 9.148 20.2476 9.148 20.145 9.148C20.1263 9.21333 20.1123 9.28333 20.103 9.358C20.0096 9.89933 19.9163 10.4733 19.823 11.08C19.739 11.6773 19.6596 12.2653 19.585 12.844C19.5196 13.4133 19.4683 13.9313 19.431 14.398C19.3936 14.8647 19.375 15.238 19.375 15.518C19.375 15.7513 19.319 15.9287 19.207 16.05C19.095 16.1807 18.9503 16.246 18.773 16.246ZM19.109 9.092C18.8383 9.064 18.5863 9.02667 18.353 8.98C18.4743 9.12 18.577 9.28333 18.661 9.47C18.7543 9.65667 18.8336 9.85733 18.899 10.072C18.9643 9.72667 19.0343 9.4 19.109 9.092ZM24.8474 13.07C24.6701 13.07 24.5114 13.0047 24.3714 12.874C24.2314 12.734 24.1614 12.5193 24.1614 12.23C24.1614 12.0247 24.1894 11.74 24.2454 11.376C24.3014 11.0027 24.3761 10.5967 24.4694 10.158C24.5628 9.71933 24.6608 9.28533 24.7634 8.856C24.8754 8.41733 24.9874 8.02533 25.0994 7.68C25.2114 7.33467 25.3094 7.078 25.3934 6.91C25.4681 6.77933 25.5381 6.69533 25.6034 6.658C25.6781 6.62067 25.7481 6.602 25.8134 6.602C25.9441 6.602 26.0561 6.644 26.1494 6.728C26.2521 6.812 26.3034 6.97533 26.3034 7.218C26.3034 7.358 26.2754 7.59133 26.2194 7.918C26.1728 8.23533 26.1074 8.60867 26.0234 9.038C25.9488 9.458 25.8648 9.892 25.7714 10.34C25.6874 10.7787 25.6034 11.1987 25.5194 11.6C25.4354 12.0013 25.3701 12.3373 25.3234 12.608C25.2861 12.7573 25.2208 12.874 25.1274 12.958C25.0434 13.0327 24.9501 13.07 24.8474 13.07ZM26.2194 5.328C26.0048 5.328 25.7994 5.26267 25.6034 5.132C25.4168 5.00133 25.3234 4.79133 25.3234 4.502C25.3234 4.25933 25.3794 4.06333 25.4914 3.914C25.6128 3.76467 25.7528 3.65733 25.9114 3.592C26.0794 3.51733 26.2241 3.48 26.3454 3.48C26.4668 3.48 26.6021 3.508 26.7514 3.564C26.9101 3.61067 27.0454 3.704 27.1574 3.844C27.2694 3.97467 27.3254 4.17067 27.3254 4.432C27.3254 4.60933 27.2648 4.768 27.1434 4.908C27.0221 5.03867 26.8728 5.14133 26.6954 5.216C26.5274 5.29067 26.3688 5.328 26.2194 5.328ZM29.3756 14.678C29.1049 14.678 28.8622 14.524 28.6476 14.216C28.4329 13.908 28.3256 13.5113 28.3256 13.026C28.3256 12.494 28.3956 11.9247 28.5356 11.318C28.6849 10.7113 28.8669 10.0953 29.0816 9.47C29.2962 8.83533 29.5062 8.224 29.7116 7.636C29.7582 7.51467 29.8236 7.426 29.9076 7.37C30.0009 7.30467 30.1409 7.272 30.3276 7.272C30.6636 7.272 30.8316 7.43533 30.8316 7.762C30.8316 7.83667 30.7942 8.00467 30.7196 8.266C30.6449 8.52733 30.5469 8.84933 30.4256 9.232C30.3136 9.61467 30.1969 10.03 30.0756 10.478C29.9542 10.9167 29.8469 11.36 29.7536 11.808C29.6602 12.256 29.5949 12.6713 29.5576 13.054C29.7069 12.8953 29.8749 12.6527 30.0616 12.326C30.2576 11.9993 30.4676 11.6307 30.6916 11.22C30.9156 10.8 31.1489 10.38 31.3916 9.96C31.6342 9.53067 31.8769 9.13867 32.1196 8.784C32.3716 8.42 32.6142 8.13067 32.8476 7.916C33.0902 7.692 33.3142 7.58 33.5196 7.58C33.8182 7.58 34.0702 7.67333 34.2756 7.86C34.4902 8.03733 34.6536 8.35467 34.7656 8.812C34.8869 9.26 34.9476 9.89467 34.9476 10.716C34.9476 11.1547 34.9896 11.5653 35.0736 11.948C35.1669 12.3307 35.3116 12.6387 35.5076 12.872C35.7129 13.096 35.9742 13.208 36.2916 13.208C36.7676 13.208 37.1922 13.124 37.5656 12.956C37.9389 12.7787 38.2609 12.5827 38.5316 12.368C38.8116 12.144 39.0449 11.948 39.2316 11.78C39.4182 11.6027 39.5629 11.514 39.6656 11.514C39.8802 11.514 39.9876 11.626 39.9876 11.85C39.9876 11.9433 39.9176 12.0927 39.7776 12.298C39.6469 12.494 39.4602 12.718 39.2176 12.97C38.9842 13.2127 38.7136 13.4507 38.4056 13.684C38.1069 13.908 37.7849 14.0947 37.4396 14.244C37.1036 14.3933 36.7629 14.468 36.4176 14.468C35.7736 14.468 35.2462 14.342 34.8356 14.09C34.4342 13.838 34.1356 13.4227 33.9396 12.844C33.7529 12.2653 33.6596 11.4907 33.6596 10.52C33.6596 9.988 33.6269 9.60067 33.5616 9.358C33.5056 9.106 33.3982 8.938 33.2396 8.854C33.1276 9.05 32.9829 9.33 32.8056 9.694C32.6282 10.0487 32.4229 10.4453 32.1896 10.884C31.9656 11.3227 31.7276 11.766 31.4756 12.214C31.2329 12.6527 30.9856 13.0587 30.7336 13.432C30.4816 13.8053 30.2389 14.1087 30.0056 14.342C29.7722 14.566 29.5622 14.678 29.3756 14.678ZM41.1196 15.35C40.6996 15.35 40.3262 15.224 39.9996 14.972C39.6822 14.7107 39.4349 14.356 39.2576 13.908C39.0802 13.46 38.9916 12.942 38.9916 12.354C38.9916 11.738 39.0616 11.1173 39.2016 10.492C39.3416 9.86667 39.5189 9.29267 39.7336 8.77C39.9482 8.24733 40.1676 7.832 40.3916 7.524C40.6156 7.20667 40.8162 7.048 40.9936 7.048C41.1242 7.048 41.2316 7.09 41.3156 7.174C41.3996 7.258 41.4416 7.37933 41.4416 7.538C41.4416 7.57533 41.4042 7.706 41.3296 7.93C41.2549 8.14467 41.1616 8.42467 41.0496 8.77C40.9376 9.106 40.8256 9.47933 40.7136 9.89C40.6016 10.3007 40.5082 10.7207 40.4336 11.15C40.3589 11.5793 40.3216 11.9853 40.3216 12.368C40.3216 13.0213 40.3822 13.4833 40.5036 13.754C40.6342 14.0153 40.8396 14.146 41.1196 14.146C41.8009 14.146 42.4356 13.9687 43.0236 13.614C43.6209 13.25 44.1716 12.774 44.6756 12.186C45.1889 11.5887 45.6602 10.9307 46.0896 10.212C45.7629 10.2587 45.4456 10.296 45.1376 10.324C44.8296 10.3427 44.5356 10.3567 44.2556 10.366C43.9849 10.3753 43.8076 10.3427 43.7236 10.268C43.6396 10.1933 43.5976 10.0767 43.5976 9.918C43.5882 9.778 43.6442 9.652 43.7656 9.54C43.8962 9.428 44.0316 9.36733 44.1716 9.358C44.5916 9.32067 45.0209 9.274 45.4596 9.218C45.8982 9.162 46.3322 9.09667 46.7616 9.022C46.9856 8.59267 47.2002 8.15867 47.4056 7.72C47.6109 7.28133 47.7976 6.86133 47.9656 6.46C48.1616 5.85333 48.3669 5.28867 48.5816 4.766C48.7962 4.234 49.0109 3.80467 49.2256 3.478C49.4402 3.142 49.6409 2.974 49.8276 2.974C50.1449 2.974 50.3036 3.13267 50.3036 3.45C50.3036 3.51533 50.2616 3.69733 50.1776 3.996C50.0936 4.29467 49.9769 4.682 49.8276 5.158C49.6876 5.634 49.5242 6.17533 49.3376 6.782C49.1509 7.37933 48.9596 8.00933 48.7636 8.672C49.6036 8.504 50.3689 8.34067 51.0596 8.182C51.7596 8.014 52.3336 7.87867 52.7816 7.776C53.2296 7.664 53.4956 7.608 53.5796 7.608C53.7009 7.608 53.7989 7.66867 53.8736 7.79C53.9482 7.902 53.9856 8.00933 53.9856 8.112C53.9856 8.196 53.8316 8.308 53.5236 8.448C53.2249 8.588 52.8096 8.742 52.2776 8.91C51.7549 9.06867 51.1576 9.232 50.4856 9.4C49.8229 9.55867 49.1322 9.708 48.4136 9.848C48.1802 10.6413 47.9562 11.4253 47.7416 12.2C47.5269 12.9747 47.3449 13.684 47.1956 14.328C47.1116 14.7387 46.9062 14.944 46.5796 14.944C46.4116 14.944 46.2856 14.902 46.2016 14.818C46.1269 14.734 46.0896 14.5893 46.0896 14.384C46.0896 14.356 46.1129 14.216 46.1596 13.964C46.2156 13.7027 46.2856 13.3807 46.3696 12.998C46.4536 12.606 46.5422 12.2 46.6356 11.78C46.7289 11.3507 46.8176 10.954 46.9016 10.59C46.4069 11.4673 45.8609 12.2653 45.2636 12.984C44.6662 13.7027 44.0176 14.2767 43.3176 14.706C42.6269 15.1353 41.8942 15.35 41.1196 15.35ZM41.2876 5.676C41.0636 5.676 40.8769 5.606 40.7276 5.466C40.5876 5.326 40.5176 5.15333 40.5176 4.948C40.5176 4.696 40.6062 4.486 40.7836 4.318C40.9702 4.14067 41.1849 4.052 41.4276 4.052C41.6982 4.052 41.9036 4.13133 42.0436 4.29C42.1836 4.43933 42.2536 4.63533 42.2536 4.878C42.2536 5.074 42.1602 5.256 41.9736 5.424C41.7869 5.592 41.5582 5.676 41.2876 5.676ZM57.9409 8.966C57.9409 9.26467 57.8476 9.55867 57.6609 9.848C57.4742 10.128 57.2269 10.3987 56.9189 10.66C56.6109 10.912 56.2702 11.15 55.8969 11.374C55.5236 11.598 55.1502 11.794 54.7769 11.962C54.4036 12.13 54.0629 12.2653 53.7549 12.368C53.6802 12.732 53.6429 13.054 53.6429 13.334C53.6429 13.5113 53.6849 13.6373 53.7689 13.712C53.8529 13.7867 53.9836 13.824 54.1609 13.824C54.5529 13.824 54.9682 13.754 55.4069 13.614C55.8456 13.474 56.2936 13.292 56.7509 13.068C57.2082 12.844 57.6469 12.606 58.0669 12.354C58.4869 12.102 58.8696 11.864 59.2149 11.64C59.5696 11.416 59.8636 11.234 60.0969 11.094C60.3302 10.954 60.4842 10.884 60.5589 10.884C60.6709 10.884 60.7549 10.9213 60.8109 10.996C60.8762 11.0613 60.9089 11.1407 60.9089 11.234C60.9089 11.3087 60.7922 11.4533 60.5589 11.668C60.3349 11.8827 60.0316 12.1347 59.6489 12.424C59.2662 12.704 58.8369 12.9933 58.3609 13.292C57.8849 13.5907 57.3902 13.8707 56.8769 14.132C56.3729 14.3933 55.8829 14.6033 55.4069 14.762C54.9402 14.9207 54.5202 15 54.1469 15C53.6616 15 53.2836 14.818 53.0129 14.454C52.7422 14.09 52.6069 13.5253 52.6069 12.76C52.6069 12.2467 52.6722 11.7287 52.8029 11.206C52.9429 10.6833 53.1296 10.184 53.3629 9.708C53.6056 9.22267 53.8716 8.79333 54.1609 8.42C54.4596 8.03733 54.7722 7.73867 55.0989 7.524C55.4256 7.3 55.7429 7.188 56.0509 7.188C56.6389 7.188 57.1009 7.35133 57.4369 7.678C57.7729 8.00467 57.9409 8.434 57.9409 8.966ZM54.0489 11.29C54.3382 11.1127 54.6369 10.926 54.9449 10.73C55.2529 10.534 55.5376 10.3333 55.7989 10.128C56.0602 9.92267 56.2702 9.708 56.4289 9.484C56.5969 9.25067 56.6809 9.01267 56.6809 8.77C56.6809 8.42467 56.4942 8.252 56.1209 8.252C55.8876 8.252 55.6402 8.40133 55.3789 8.7C55.1269 8.98933 54.8842 9.36733 54.6509 9.834C54.4176 10.3007 54.2169 10.786 54.0489 11.29ZM62.5516 15.56C61.8329 15.56 61.2683 15.3267 60.8576 14.86C60.4563 14.384 60.2556 13.7213 60.2556 12.872C60.2556 12.3493 60.3256 11.738 60.4656 11.038C60.6149 10.3287 60.8016 9.582 61.0256 8.798C61.2589 8.00467 61.5109 7.22067 61.7816 6.446C62.0523 5.67133 62.3136 4.95267 62.5656 4.29C62.8269 3.618 63.0556 3.058 63.2516 2.61C63.3636 2.358 63.5223 2.232 63.7276 2.232C64.0076 2.232 64.1476 2.40467 64.1476 2.75C64.1476 2.862 64.0963 3.09067 63.9936 3.436C63.8909 3.78133 63.7556 4.21067 63.5876 4.724C63.4196 5.228 63.2376 5.788 63.0416 6.404C62.8456 7.02 62.6449 7.65467 62.4396 8.308C62.2436 8.952 62.0616 9.59133 61.8936 10.226C61.7256 10.8513 61.5903 11.4393 61.4876 11.99C61.3849 12.5407 61.3336 13.012 61.3336 13.404C61.3336 13.656 61.3989 13.8567 61.5296 14.006C61.6696 14.146 61.8563 14.216 62.0896 14.216C62.5189 14.216 62.9483 14.132 63.3776 13.964C63.8163 13.7867 64.2363 13.572 64.6376 13.32C65.0389 13.0587 65.4029 12.802 65.7296 12.55C66.0656 12.2887 66.3503 12.074 66.5836 11.906C66.8169 11.7287 66.9803 11.64 67.0736 11.64C67.2789 11.64 67.3816 11.752 67.3816 11.976C67.3816 12.0507 67.3069 12.1907 67.1576 12.396C67.0083 12.592 66.8076 12.8253 66.5556 13.096C66.3036 13.3667 66.0096 13.6467 65.6736 13.936C65.3469 14.216 65.0016 14.482 64.6376 14.734C64.2829 14.9767 63.9236 15.1727 63.5596 15.322C63.2049 15.4807 62.8689 15.56 62.5516 15.56ZM68.4317 18.598C67.9651 18.598 67.5357 18.5653 67.1437 18.5C66.7611 18.444 66.3831 18.3507 66.0097 18.22C65.6364 18.0987 65.2304 17.94 64.7917 17.744C64.6611 17.6787 64.5444 17.5993 64.4417 17.506C64.3391 17.422 64.2877 17.324 64.2877 17.212C64.2877 17.072 64.3764 16.9227 64.5537 16.764C64.7217 16.6147 64.8804 16.54 65.0297 16.54C65.1884 16.54 65.3844 16.596 65.6177 16.708C65.8604 16.82 66.1404 16.9507 66.4577 17.1C66.7751 17.2587 67.1251 17.394 67.5077 17.506C67.8997 17.618 68.3197 17.674 68.7677 17.674C69.2531 17.674 69.7104 17.4733 70.1397 17.072C70.5691 16.6707 70.9191 16.092 71.1897 15.336C71.4604 14.5893 71.5957 13.6887 71.5957 12.634C71.5957 12.3167 71.5864 11.9667 71.5677 11.584C71.5584 11.192 71.5397 10.7813 71.5117 10.352C71.2877 10.8373 71.0357 11.318 70.7557 11.794C70.4851 12.27 70.2004 12.6993 69.9017 13.082C69.6124 13.4647 69.3091 13.7727 68.9917 14.006C68.6837 14.23 68.3711 14.342 68.0537 14.342C67.6524 14.342 67.3631 14.2393 67.1857 14.034C67.0084 13.8287 66.9197 13.5113 66.9197 13.082C66.9197 12.634 66.9524 12.1487 67.0177 11.626C67.0831 11.1033 67.1671 10.576 67.2697 10.044C67.3817 9.50267 67.5124 8.98933 67.6617 8.504C67.8111 8.01867 67.9697 7.59867 68.1377 7.244C68.2311 7.05733 68.3711 6.964 68.5577 6.964C68.6884 6.964 68.8144 7.034 68.9357 7.174C69.0664 7.30467 69.1317 7.47733 69.1317 7.692C69.1317 7.86 69.0944 8.098 69.0197 8.406C68.9451 8.714 68.8517 9.064 68.7397 9.456C68.6277 9.848 68.5157 10.2587 68.4037 10.688C68.2917 11.108 68.1984 11.5233 68.1237 11.934C68.0491 12.3353 68.0117 12.704 68.0117 13.04C68.0117 13.18 68.1051 13.25 68.2917 13.25C68.3944 13.25 68.5391 13.1567 68.7257 12.97C68.9217 12.774 69.1364 12.522 69.3697 12.214C69.6124 11.8967 69.8551 11.5513 70.0977 11.178C70.3497 10.7953 70.5924 10.4173 70.8257 10.044C71.0591 9.66133 71.2597 9.31133 71.4277 8.994C71.4184 8.91933 71.4137 8.84933 71.4137 8.784C71.4137 8.71867 71.4137 8.658 71.4137 8.602C71.4137 8.14467 71.4604 7.86 71.5537 7.748C71.6564 7.62667 71.7871 7.566 71.9457 7.566C72.2164 7.566 72.4077 7.62667 72.5197 7.748C72.6317 7.86933 72.6877 8.07933 72.6877 8.378C72.6877 8.49 72.6737 8.61133 72.6457 8.742C72.6177 8.86333 72.5711 9.04067 72.5057 9.274C72.5804 10.0113 72.6411 10.674 72.6877 11.262C72.7437 11.85 72.7717 12.4427 72.7717 13.04C72.7717 14.1693 72.5897 15.1493 72.2257 15.98C71.8711 16.8107 71.3671 17.4547 70.7137 17.912C70.0697 18.3693 69.3091 18.598 68.4317 18.598ZM83.1607 14.678C82.89 14.678 82.6474 14.524 82.4327 14.216C82.218 13.908 82.1107 13.5113 82.1107 13.026C82.1107 12.494 82.1807 11.9247 82.3207 11.318C82.47 10.7113 82.652 10.0953 82.8667 9.47C83.0814 8.83533 83.2914 8.224 83.4967 7.636C83.5434 7.51467 83.6087 7.426 83.6927 7.37C83.786 7.30467 83.926 7.272 84.1127 7.272C84.4487 7.272 84.6167 7.43533 84.6167 7.762C84.6167 7.83667 84.5794 8.00467 84.5047 8.266C84.43 8.52733 84.332 8.84933 84.2107 9.232C84.0987 9.61467 83.982 10.03 83.8607 10.478C83.7394 10.9167 83.632 11.36 83.5387 11.808C83.4454 12.256 83.38 12.6713 83.3427 13.054C83.492 12.8953 83.66 12.6527 83.8467 12.326C84.0427 11.9993 84.2527 11.6307 84.4767 11.22C84.7007 10.8 84.934 10.38 85.1767 9.96C85.4194 9.53067 85.662 9.13867 85.9047 8.784C86.1567 8.42 86.3994 8.13067 86.6327 7.916C86.8754 7.692 87.0994 7.58 87.3047 7.58C87.6034 7.58 87.8554 7.67333 88.0607 7.86C88.2754 8.03733 88.4387 8.35467 88.5507 8.812C88.672 9.26 88.7327 9.89467 88.7327 10.716C88.7327 11.1547 88.7747 11.5653 88.8587 11.948C88.952 12.3307 89.0967 12.6387 89.2927 12.872C89.498 13.096 89.7594 13.208 90.0767 13.208C90.5527 13.208 90.9774 13.124 91.3507 12.956C91.724 12.7787 92.046 12.5827 92.3167 12.368C92.5967 12.144 92.83 11.948 93.0167 11.78C93.2034 11.6027 93.348 11.514 93.4507 11.514C93.6654 11.514 93.7727 11.626 93.7727 11.85C93.7727 11.9433 93.7027 12.0927 93.5627 12.298C93.432 12.494 93.2454 12.718 93.0027 12.97C92.7694 13.2127 92.4987 13.4507 92.1907 13.684C91.892 13.908 91.57 14.0947 91.2247 14.244C90.8887 14.3933 90.548 14.468 90.2027 14.468C89.5587 14.468 89.0314 14.342 88.6207 14.09C88.2194 13.838 87.9207 13.4227 87.7247 12.844C87.538 12.2653 87.4447 11.4907 87.4447 10.52C87.4447 9.988 87.412 9.60067 87.3467 9.358C87.2907 9.106 87.1834 8.938 87.0247 8.854C86.9127 9.05 86.768 9.33 86.5907 9.694C86.4134 10.0487 86.208 10.4453 85.9747 10.884C85.7507 11.3227 85.5127 11.766 85.2607 12.214C85.018 12.6527 84.7707 13.0587 84.5187 13.432C84.2667 13.8053 84.024 14.1087 83.7907 14.342C83.5574 14.566 83.3474 14.678 83.1607 14.678ZM94.6075 15.14C94.0568 15.14 93.6228 14.93 93.3055 14.51C92.9881 14.09 92.8295 13.544 92.8295 12.872C92.8295 12.6293 92.8621 12.3727 92.9275 12.102C93.0021 11.822 93.0955 11.57 93.2075 11.346C93.1421 11.2807 93.0908 11.192 93.0535 11.08C93.0161 10.9587 92.9975 10.8093 92.9975 10.632C92.9975 10.0813 93.0908 9.57733 93.2775 9.12C93.4641 8.66267 93.7115 8.266 94.0195 7.93C94.3275 7.58467 94.6681 7.31867 95.0415 7.132C95.4241 6.94533 95.8115 6.852 96.2035 6.852C96.8475 6.852 97.3701 7.08533 97.7715 7.552C98.1728 8.00933 98.3735 8.70933 98.3735 9.652C98.3735 10.1467 98.2988 10.6507 98.1495 11.164C98.0095 11.6773 97.8135 12.172 97.5615 12.648C97.3188 13.124 97.0341 13.5487 96.7075 13.922C96.3901 14.2953 96.0495 14.594 95.6855 14.818C95.3308 15.0327 94.9715 15.14 94.6075 15.14ZM94.1315 10.87C94.1875 10.9447 94.2155 11.0427 94.2155 11.164C94.2155 11.304 94.1875 11.444 94.1315 11.584C94.0848 11.724 94.0335 11.9153 93.9775 12.158C93.9215 12.4007 93.8935 12.746 93.8935 13.194C93.8935 13.642 94.0708 13.866 94.4255 13.866C94.8175 13.866 95.1815 13.712 95.5175 13.404C95.8535 13.0867 96.1521 12.6807 96.4135 12.186C96.6748 11.6913 96.8755 11.164 97.0155 10.604C97.1648 10.0347 97.2395 9.498 97.2395 8.994C97.2395 8.66733 97.1788 8.43867 97.0575 8.308C96.9361 8.168 96.7168 8.098 96.3995 8.098C96.0728 8.098 95.7321 8.21 95.3775 8.434C95.0321 8.64867 94.7428 8.94267 94.5095 9.316C94.2761 9.68933 94.1595 10.1093 94.1595 10.576C94.1595 10.6787 94.1501 10.7767 94.1315 10.87ZM99.3758 10.52C99.1238 10.5013 99.0071 10.338 99.0258 10.03C99.0351 9.95533 99.0864 9.86667 99.1798 9.764C99.2731 9.652 99.3804 9.59133 99.5018 9.582C99.7911 9.554 100.146 9.512 100.566 9.456C100.995 9.39067 101.466 9.316 101.98 9.232C102.073 8.77467 102.185 8.294 102.316 7.79C102.446 7.286 102.591 6.796 102.75 6.32C102.908 5.83467 103.076 5.396 103.254 5.004C103.431 4.612 103.618 4.304 103.814 4.08C103.916 3.97733 104.01 3.90733 104.094 3.87C104.178 3.82333 104.252 3.8 104.318 3.8C104.448 3.8 104.551 3.856 104.626 3.968C104.71 4.08 104.752 4.206 104.752 4.346C104.752 4.42067 104.738 4.49533 104.71 4.57C104.523 5.09267 104.322 5.73667 104.108 6.502C103.893 7.26733 103.664 8.10267 103.422 9.008C104.28 8.868 105.139 8.71867 105.998 8.56C106.856 8.40133 107.594 8.25667 108.21 8.126C108.387 8.05133 108.522 8.06533 108.616 8.168C108.718 8.27067 108.77 8.37333 108.77 8.476C108.77 8.60667 108.732 8.70467 108.658 8.77C108.592 8.83533 108.522 8.89133 108.448 8.938L108.434 8.952C108.247 9.02667 107.967 9.11533 107.594 9.218C107.22 9.31133 106.791 9.414 106.306 9.526C105.82 9.62867 105.302 9.73133 104.752 9.834C104.21 9.93667 103.674 10.03 103.142 10.114C102.927 10.9353 102.708 11.78 102.484 12.648C102.269 13.5067 102.054 14.3513 101.84 15.182C101.746 15.518 101.639 15.728 101.518 15.812C101.406 15.9053 101.284 15.952 101.154 15.952C101.004 15.952 100.874 15.896 100.762 15.784C100.659 15.672 100.645 15.4433 100.72 15.098L101.742 10.324C101.182 10.408 100.687 10.4687 100.258 10.506C99.8378 10.5433 99.5438 10.548 99.3758 10.52ZM1.96049 34.364C1.60582 34.364 1.31182 34.2007 1.07849 33.874C0.854488 33.538 0.742488 33.104 0.742488 32.572C0.742488 32.0773 0.863822 31.5873 1.10649 31.102C1.35849 30.6167 1.68982 30.15 2.10049 29.702C2.51116 29.254 2.95916 28.8433 3.44449 28.47C3.92982 28.0873 4.41516 27.756 4.90049 27.476C5.39516 27.196 5.84782 26.9767 6.25849 26.818C6.66916 26.6593 6.99582 26.58 7.23849 26.58C7.36916 26.58 7.47649 26.608 7.56049 26.664C7.64449 26.7107 7.68649 26.7993 7.68649 26.93C7.68649 27.014 7.65382 27.0933 7.58849 27.168C7.59782 27.168 7.60716 27.168 7.61649 27.168C7.82182 27.168 7.92449 27.2893 7.92449 27.532C7.92449 27.616 7.89182 27.7887 7.82649 28.05C7.76116 28.302 7.68649 28.6193 7.60249 29.002C7.51849 29.3847 7.44382 29.8093 7.37849 30.276C7.31316 30.7333 7.28049 31.2 7.28049 31.676C7.28049 32.0773 7.43449 32.278 7.74249 32.278C8.08782 32.278 8.43782 32.1987 8.79249 32.04C9.14716 31.8813 9.49249 31.69 9.82849 31.466C10.1645 31.2327 10.4725 31.004 10.7525 30.78C11.0325 30.5467 11.2705 30.3507 11.4665 30.192C11.6625 30.0333 11.8025 29.954 11.8865 29.954C11.9612 29.954 12.0265 29.9773 12.0825 30.024C12.1385 30.0707 12.1665 30.1453 12.1665 30.248C12.1665 30.3413 12.0732 30.5093 11.8865 30.752C11.6998 30.9947 11.4525 31.27 11.1445 31.578C10.8365 31.886 10.4912 32.1847 10.1085 32.474C9.72582 32.7633 9.33382 33.0013 8.93249 33.188C8.53116 33.3747 8.14849 33.468 7.78449 33.468C7.50449 33.468 7.24782 33.384 7.01449 33.216C6.79049 33.0387 6.60849 32.74 6.46849 32.32C6.33782 31.9 6.27249 31.3213 6.27249 30.584V30.234C5.81516 30.99 5.33449 31.6807 4.83049 32.306C4.33582 32.9313 3.84116 33.4307 3.34649 33.804C2.86116 34.1773 2.39916 34.364 1.96049 34.364ZM6.97249 27.588C6.92582 27.6067 6.86049 27.6347 6.77649 27.672C6.34716 27.868 5.89916 28.1107 5.43249 28.4C4.97516 28.6893 4.52716 29.0113 4.08849 29.366C3.65916 29.7207 3.27182 30.0893 2.92649 30.472C2.58116 30.8547 2.30582 31.242 2.10049 31.634C1.89516 32.026 1.79249 32.4087 1.79249 32.782C1.79249 32.9033 1.81582 32.9967 1.86249 33.062C1.91849 33.1273 2.01182 33.16 2.14249 33.16C2.32916 33.16 2.57182 33.0433 2.87049 32.81C3.16916 32.5673 3.49582 32.25 3.85049 31.858C4.21449 31.466 4.57849 31.032 4.94249 30.556C5.30649 30.08 5.65182 29.5993 5.97849 29.114C6.31449 28.6287 6.60382 28.1807 6.84649 27.77C6.88382 27.7047 6.92582 27.644 6.97249 27.588ZM11.8455 34.07C11.6681 34.07 11.5095 34.0047 11.3695 33.874C11.2295 33.734 11.1595 33.5193 11.1595 33.23C11.1595 33.0247 11.1875 32.74 11.2435 32.376C11.2995 32.0027 11.3741 31.5967 11.4675 31.158C11.5608 30.7193 11.6588 30.2853 11.7615 29.856C11.8735 29.4173 11.9855 29.0253 12.0975 28.68C12.2095 28.3347 12.3075 28.078 12.3915 27.91C12.4661 27.7793 12.5361 27.6953 12.6015 27.658C12.6761 27.6207 12.7461 27.602 12.8115 27.602C12.9421 27.602 13.0541 27.644 13.1475 27.728C13.2501 27.812 13.3015 27.9753 13.3015 28.218C13.3015 28.358 13.2735 28.5913 13.2175 28.918C13.1708 29.2353 13.1055 29.6087 13.0215 30.038C12.9468 30.458 12.8628 30.892 12.7695 31.34C12.6855 31.7787 12.6015 32.1987 12.5175 32.6C12.4335 33.0013 12.3681 33.3373 12.3215 33.608C12.2841 33.7573 12.2188 33.874 12.1255 33.958C12.0415 34.0327 11.9481 34.07 11.8455 34.07ZM13.2175 26.328C13.0028 26.328 12.7975 26.2627 12.6015 26.132C12.4148 26.0013 12.3215 25.7913 12.3215 25.502C12.3215 25.2593 12.3775 25.0633 12.4895 24.914C12.6108 24.7647 12.7508 24.6573 12.9095 24.592C13.0775 24.5173 13.2221 24.48 13.3435 24.48C13.4648 24.48 13.6001 24.508 13.7495 24.564C13.9081 24.6107 14.0435 24.704 14.1555 24.844C14.2675 24.9747 14.3235 25.1707 14.3235 25.432C14.3235 25.6093 14.2628 25.768 14.1415 25.908C14.0201 26.0387 13.8708 26.1413 13.6935 26.216C13.5255 26.2907 13.3668 26.328 13.2175 26.328ZM23.2509 37.696C22.5322 37.696 22.0049 37.626 21.6689 37.486C21.3329 37.346 21.1649 37.1593 21.1649 36.926C21.1649 36.7767 21.2115 36.6553 21.3049 36.562C21.4075 36.4687 21.5335 36.422 21.6829 36.422C21.8415 36.422 22.0702 36.4453 22.3689 36.492C22.6675 36.548 22.9615 36.576 23.2509 36.576C24.2122 36.576 25.0009 36.2913 25.6169 35.722C26.2329 35.1527 26.7042 34.28 27.0309 33.104C27.3575 31.9187 27.5769 30.4067 27.6889 28.568C27.4089 29.1373 27.0915 29.7067 26.7369 30.276C26.3915 30.836 26.0182 31.3493 25.6169 31.816C25.2249 32.2733 24.8189 32.642 24.3989 32.922C23.9789 33.202 23.5635 33.342 23.1529 33.342C22.7609 33.342 22.4715 33.244 22.2849 33.048C22.1075 32.852 22.0189 32.53 22.0189 32.082C22.0189 31.6807 22.1309 31.256 22.3549 30.808C22.5789 30.3507 22.8775 29.8933 23.2509 29.436C23.6242 28.9787 24.0349 28.5447 24.4829 28.134C24.9309 27.714 25.3789 27.3453 25.8269 27.028C26.2842 26.7013 26.7089 26.4447 27.1009 26.258C27.4929 26.0713 27.8102 25.978 28.0529 25.978C28.2955 25.978 28.4822 26.062 28.6129 26.23C28.7435 26.398 28.8089 26.7153 28.8089 27.182C28.8089 28.274 28.7715 29.338 28.6969 30.374C28.6315 31.4007 28.4962 32.3573 28.2909 33.244C28.0855 34.1307 27.7775 34.9053 27.3669 35.568C26.9655 36.24 26.4289 36.7627 25.7569 37.136C25.0849 37.5093 24.2495 37.696 23.2509 37.696ZM27.4369 27.196C26.9702 27.4947 26.4895 27.8307 25.9949 28.204C25.5002 28.5773 25.0382 28.974 24.6089 29.394C24.1889 29.814 23.8482 30.248 23.5869 30.696C23.3255 31.144 23.1949 31.592 23.1949 32.04C23.1949 32.18 23.2835 32.25 23.4609 32.25C23.6009 32.25 23.7922 32.1427 24.0349 31.928C24.2869 31.704 24.5669 31.41 24.8749 31.046C25.1829 30.6727 25.4955 30.2667 25.8129 29.828C26.1395 29.38 26.4429 28.9273 26.7229 28.47C27.0029 28.0127 27.2409 27.588 27.4369 27.196ZM36.8589 27.966C36.8589 28.2647 36.7655 28.5587 36.5789 28.848C36.3922 29.128 36.1449 29.3987 35.8369 29.66C35.5289 29.912 35.1882 30.15 34.8149 30.374C34.4415 30.598 34.0682 30.794 33.6949 30.962C33.3215 31.13 32.9809 31.2653 32.6729 31.368C32.5982 31.732 32.5609 32.054 32.5609 32.334C32.5609 32.5113 32.6029 32.6373 32.6869 32.712C32.7709 32.7867 32.9015 32.824 33.0789 32.824C33.4709 32.824 33.8862 32.754 34.3249 32.614C34.7635 32.474 35.2115 32.292 35.6689 32.068C36.1262 31.844 36.5649 31.606 36.9849 31.354C37.4049 31.102 37.7875 30.864 38.1329 30.64C38.4875 30.416 38.7815 30.234 39.0149 30.094C39.2482 29.954 39.4022 29.884 39.4769 29.884C39.5889 29.884 39.6729 29.9213 39.7289 29.996C39.7942 30.0613 39.8269 30.1407 39.8269 30.234C39.8269 30.3087 39.7102 30.4533 39.4769 30.668C39.2529 30.8827 38.9495 31.1347 38.5669 31.424C38.1842 31.704 37.7549 31.9933 37.2789 32.292C36.8029 32.5907 36.3082 32.8707 35.7949 33.132C35.2909 33.3933 34.8009 33.6033 34.3249 33.762C33.8582 33.9207 33.4382 34 33.0649 34C32.5795 34 32.2015 33.818 31.9309 33.454C31.6602 33.09 31.5249 32.5253 31.5249 31.76C31.5249 31.2467 31.5902 30.7287 31.7209 30.206C31.8609 29.6833 32.0475 29.184 32.2809 28.708C32.5235 28.2227 32.7895 27.7933 33.0789 27.42C33.3775 27.0373 33.6902 26.7387 34.0169 26.524C34.3435 26.3 34.6609 26.188 34.9689 26.188C35.5569 26.188 36.0189 26.3513 36.3549 26.678C36.6909 27.0047 36.8589 27.434 36.8589 27.966ZM32.9669 30.29C33.2562 30.1127 33.5549 29.926 33.8629 29.73C34.1709 29.534 34.4555 29.3333 34.7169 29.128C34.9782 28.9227 35.1882 28.708 35.3469 28.484C35.5149 28.2507 35.5989 28.0127 35.5989 27.77C35.5989 27.4247 35.4122 27.252 35.0389 27.252C34.8055 27.252 34.5582 27.4013 34.2969 27.7C34.0449 27.9893 33.8022 28.3673 33.5689 28.834C33.3355 29.3007 33.1349 29.786 32.9669 30.29ZM40.0259 33.678C39.7553 33.678 39.5126 33.524 39.2979 33.216C39.0833 32.908 38.9759 32.5113 38.9759 32.026C38.9759 31.494 39.0459 30.9247 39.1859 30.318C39.3353 29.7113 39.5173 29.0953 39.7319 28.47C39.9466 27.8353 40.1566 27.224 40.3619 26.636C40.4086 26.5147 40.4739 26.426 40.5579 26.37C40.6513 26.3047 40.7913 26.272 40.9779 26.272C41.3139 26.272 41.4819 26.4353 41.4819 26.762C41.4819 26.8367 41.4446 27.0047 41.3699 27.266C41.2953 27.5273 41.1973 27.8493 41.0759 28.232C40.9639 28.6147 40.8473 29.03 40.7259 29.478C40.6046 29.9167 40.4973 30.36 40.4039 30.808C40.3106 31.256 40.2453 31.6713 40.2079 32.054C40.3573 31.8953 40.5253 31.6527 40.7119 31.326C40.9079 30.9993 41.1179 30.6307 41.3419 30.22C41.5659 29.8 41.7993 29.38 42.0419 28.96C42.2846 28.5307 42.5273 28.1387 42.7699 27.784C43.0219 27.42 43.2646 27.1307 43.4979 26.916C43.7406 26.692 43.9646 26.58 44.1699 26.58C44.4686 26.58 44.7206 26.6733 44.9259 26.86C45.1406 27.0373 45.3039 27.3547 45.4159 27.812C45.5373 28.26 45.5979 28.8947 45.5979 29.716C45.5979 30.1547 45.6399 30.5653 45.7239 30.948C45.8173 31.3307 45.9619 31.6387 46.1579 31.872C46.3633 32.096 46.6246 32.208 46.9419 32.208C47.4179 32.208 47.8426 32.124 48.2159 31.956C48.5893 31.7787 48.9113 31.5827 49.1819 31.368C49.4619 31.144 49.6953 30.948 49.8819 30.78C50.0686 30.6027 50.2133 30.514 50.3159 30.514C50.5306 30.514 50.6379 30.626 50.6379 30.85C50.6379 30.9433 50.5679 31.0927 50.4279 31.298C50.2973 31.494 50.1106 31.718 49.8679 31.97C49.6346 32.2127 49.3639 32.4507 49.0559 32.684C48.7573 32.908 48.4353 33.0947 48.0899 33.244C47.7539 33.3933 47.4133 33.468 47.0679 33.468C46.4239 33.468 45.8966 33.342 45.4859 33.09C45.0846 32.838 44.7859 32.4227 44.5899 31.844C44.4033 31.2653 44.3099 30.4907 44.3099 29.52C44.3099 28.988 44.2773 28.6007 44.2119 28.358C44.1559 28.106 44.0486 27.938 43.8899 27.854C43.7779 28.05 43.6333 28.33 43.4559 28.694C43.2786 29.0487 43.0733 29.4453 42.8399 29.884C42.6159 30.3227 42.3779 30.766 42.1259 31.214C41.8833 31.6527 41.6359 32.0587 41.3839 32.432C41.1319 32.8053 40.8893 33.1087 40.6559 33.342C40.4226 33.566 40.2126 33.678 40.0259 33.678ZM54.836 27.742C54.836 28.3393 54.5513 28.918 53.982 29.478C53.4126 30.038 52.5446 30.5513 51.378 31.018C51.3406 31.2513 51.322 31.4473 51.322 31.606C51.322 31.9793 51.3686 32.25 51.462 32.418C51.5646 32.586 51.7326 32.67 51.966 32.67C52.3113 32.67 52.6986 32.5627 53.128 32.348C53.5573 32.124 54.0006 31.8393 54.458 31.494C54.9153 31.1393 55.3633 30.766 55.802 30.374C56.25 29.982 56.6606 29.6133 57.034 29.268C57.4073 28.9133 57.7246 28.6287 57.986 28.414C58.2473 28.19 58.4246 28.078 58.518 28.078C58.6486 28.078 58.756 28.1387 58.84 28.26C58.924 28.372 58.966 28.526 58.966 28.722C58.966 28.9647 58.952 29.2447 58.924 29.562C58.896 29.87 58.8633 30.1967 58.826 30.542C59.0686 29.8607 59.372 29.268 59.736 28.764C60.1093 28.2507 60.506 27.826 60.926 27.49C61.346 27.154 61.7566 26.902 62.158 26.734C62.5593 26.566 62.9046 26.482 63.194 26.482C63.4646 26.482 63.6653 26.5333 63.796 26.636C63.9266 26.7387 63.992 26.86 63.992 27C63.992 27.1307 63.9313 27.252 63.81 27.364C63.698 27.4667 63.4366 27.602 63.026 27.77C62.55 27.9567 62.102 28.176 61.682 28.428C61.2713 28.68 60.8886 29.0253 60.534 29.464C60.1793 29.8933 59.862 30.4673 59.582 31.186C59.302 31.9047 59.064 32.8287 58.868 33.958C58.8306 34.182 58.7653 34.3407 58.672 34.434C58.5786 34.5367 58.4666 34.588 58.336 34.588C58.2426 34.588 58.1493 34.546 58.056 34.462C57.9626 34.3873 57.888 34.2053 57.832 33.916C57.776 33.6173 57.748 33.1507 57.748 32.516C57.748 32.0867 57.7666 31.62 57.804 31.116C57.8506 30.612 57.916 30.0847 58 29.534C57.5706 30.0007 57.0946 30.4907 56.572 31.004C56.0493 31.508 55.508 31.9793 54.948 32.418C54.388 32.8473 53.8373 33.1973 53.296 33.468C52.7546 33.7387 52.2506 33.874 51.784 33.874C51.2893 33.874 50.8926 33.7013 50.594 33.356C50.2953 33.0107 50.146 32.4973 50.146 31.816C50.146 31.032 50.2486 30.3133 50.454 29.66C50.6593 29.0067 50.9253 28.442 51.252 27.966C51.5786 27.4807 51.9286 27.1073 52.302 26.846C52.6753 26.5847 53.0346 26.454 53.38 26.454C53.8466 26.454 54.206 26.5753 54.458 26.818C54.71 27.0513 54.836 27.3593 54.836 27.742ZM51.602 29.996C51.882 29.8 52.1853 29.5807 52.512 29.338C52.848 29.0953 53.1326 28.848 53.366 28.596C53.6086 28.3347 53.73 28.0967 53.73 27.882C53.73 27.7513 53.6973 27.658 53.632 27.602C53.5666 27.546 53.4546 27.518 53.296 27.518C53.044 27.518 52.8106 27.644 52.596 27.896C52.3813 28.1387 52.19 28.4513 52.022 28.834C51.854 29.2073 51.714 29.5947 51.602 29.996ZM64.6871 34.364C64.3324 34.364 64.0384 34.2007 63.8051 33.874C63.5811 33.538 63.4691 33.104 63.4691 32.572C63.4691 32.0773 63.5904 31.5873 63.8331 31.102C64.0851 30.6167 64.4164 30.15 64.8271 29.702C65.2377 29.254 65.6857 28.8433 66.1711 28.47C66.6564 28.0873 67.1417 27.756 67.6271 27.476C68.1217 27.196 68.5744 26.9767 68.9851 26.818C69.3957 26.6593 69.7224 26.58 69.9651 26.58C70.0957 26.58 70.2031 26.608 70.2871 26.664C70.3711 26.7107 70.4131 26.7993 70.4131 26.93C70.4131 27.014 70.3804 27.0933 70.3151 27.168C70.3244 27.168 70.3337 27.168 70.3431 27.168C70.5484 27.168 70.6511 27.2893 70.6511 27.532C70.6511 27.616 70.6184 27.7887 70.5531 28.05C70.4877 28.302 70.4131 28.6193 70.3291 29.002C70.2451 29.3847 70.1704 29.8093 70.1051 30.276C70.0397 30.7333 70.0071 31.2 70.0071 31.676C70.0071 32.0773 70.1611 32.278 70.4691 32.278C70.8144 32.278 71.1644 32.1987 71.5191 32.04C71.8737 31.8813 72.2191 31.69 72.5551 31.466C72.8911 31.2327 73.1991 31.004 73.4791 30.78C73.7591 30.5467 73.9971 30.3507 74.1931 30.192C74.3891 30.0333 74.5291 29.954 74.6131 29.954C74.6877 29.954 74.7531 29.9773 74.8091 30.024C74.8651 30.0707 74.8931 30.1453 74.8931 30.248C74.8931 30.3413 74.7997 30.5093 74.6131 30.752C74.4264 30.9947 74.1791 31.27 73.8711 31.578C73.5631 31.886 73.2177 32.1847 72.8351 32.474C72.4524 32.7633 72.0604 33.0013 71.6591 33.188C71.2577 33.3747 70.8751 33.468 70.5111 33.468C70.2311 33.468 69.9744 33.384 69.7411 33.216C69.5171 33.0387 69.3351 32.74 69.1951 32.32C69.0644 31.9 68.9991 31.3213 68.9991 30.584V30.234C68.5417 30.99 68.0611 31.6807 67.5571 32.306C67.0624 32.9313 66.5677 33.4307 66.0731 33.804C65.5877 34.1773 65.1257 34.364 64.6871 34.364ZM69.6991 27.588C69.6524 27.6067 69.5871 27.6347 69.5031 27.672C69.0737 27.868 68.6257 28.1107 68.1591 28.4C67.7017 28.6893 67.2537 29.0113 66.8151 29.366C66.3857 29.7207 65.9984 30.0893 65.6531 30.472C65.3077 30.8547 65.0324 31.242 64.8271 31.634C64.6217 32.026 64.5191 32.4087 64.5191 32.782C64.5191 32.9033 64.5424 32.9967 64.5891 33.062C64.6451 33.1273 64.7384 33.16 64.8691 33.16C65.0557 33.16 65.2984 33.0433 65.5971 32.81C65.8957 32.5673 66.2224 32.25 66.5771 31.858C66.9411 31.466 67.3051 31.032 67.6691 30.556C68.0331 30.08 68.3784 29.5993 68.7051 29.114C69.0411 28.6287 69.3304 28.1807 69.5731 27.77C69.6104 27.7047 69.6524 27.644 69.6991 27.588ZM72.948 29.52C72.696 29.5013 72.5794 29.338 72.598 29.03C72.6074 28.9553 72.6587 28.8667 72.752 28.764C72.8454 28.652 72.9527 28.5913 73.074 28.582C73.3634 28.554 73.718 28.512 74.138 28.456C74.5674 28.3907 75.0387 28.316 75.552 28.232C75.6454 27.7747 75.7574 27.294 75.888 26.79C76.0187 26.286 76.1634 25.796 76.322 25.32C76.4807 24.8347 76.6487 24.396 76.826 24.004C77.0034 23.612 77.19 23.304 77.386 23.08C77.4887 22.9773 77.582 22.9073 77.666 22.87C77.75 22.8233 77.8247 22.8 77.89 22.8C78.0207 22.8 78.1234 22.856 78.198 22.968C78.282 23.08 78.324 23.206 78.324 23.346C78.324 23.4207 78.31 23.4953 78.282 23.57C78.0954 24.0927 77.8947 24.7367 77.68 25.502C77.4654 26.2673 77.2367 27.1027 76.994 28.008C77.8527 27.868 78.7114 27.7187 79.57 27.56C80.4287 27.4013 81.166 27.2567 81.782 27.126C81.9594 27.0513 82.0947 27.0653 82.188 27.168C82.2907 27.2707 82.342 27.3733 82.342 27.476C82.342 27.6067 82.3047 27.7047 82.23 27.77C82.1647 27.8353 82.0947 27.8913 82.02 27.938L82.006 27.952C81.8194 28.0267 81.5394 28.1153 81.166 28.218C80.7927 28.3113 80.3634 28.414 79.878 28.526C79.3927 28.6287 78.8747 28.7313 78.324 28.834C77.7827 28.9367 77.246 29.03 76.714 29.114C76.4994 29.9353 76.28 30.78 76.056 31.648C75.8414 32.5067 75.6267 33.3513 75.412 34.182C75.3187 34.518 75.2114 34.728 75.09 34.812C74.978 34.9053 74.8567 34.952 74.726 34.952C74.5767 34.952 74.446 34.896 74.334 34.784C74.2314 34.672 74.2174 34.4433 74.292 34.098L75.314 29.324C74.754 29.408 74.2594 29.4687 73.83 29.506C73.41 29.5433 73.116 29.548 72.948 29.52ZM86.4058 27.966C86.4058 28.2647 86.3124 28.5587 86.1258 28.848C85.9391 29.128 85.6918 29.3987 85.3838 29.66C85.0758 29.912 84.7351 30.15 84.3618 30.374C83.9884 30.598 83.6151 30.794 83.2418 30.962C82.8684 31.13 82.5278 31.2653 82.2198 31.368C82.1451 31.732 82.1078 32.054 82.1078 32.334C82.1078 32.5113 82.1498 32.6373 82.2338 32.712C82.3178 32.7867 82.4484 32.824 82.6258 32.824C83.0178 32.824 83.4331 32.754 83.8718 32.614C84.3104 32.474 84.7584 32.292 85.2158 32.068C85.6731 31.844 86.1118 31.606 86.5318 31.354C86.9518 31.102 87.3344 30.864 87.6798 30.64C88.0344 30.416 88.3284 30.234 88.5618 30.094C88.7951 29.954 88.9491 29.884 89.0238 29.884C89.1358 29.884 89.2198 29.9213 89.2758 29.996C89.3411 30.0613 89.3738 30.1407 89.3738 30.234C89.3738 30.3087 89.2571 30.4533 89.0238 30.668C88.7998 30.8827 88.4964 31.1347 88.1138 31.424C87.7311 31.704 87.3018 31.9933 86.8258 32.292C86.3498 32.5907 85.8551 32.8707 85.3418 33.132C84.8378 33.3933 84.3478 33.6033 83.8718 33.762C83.4051 33.9207 82.9851 34 82.6118 34C82.1264 34 81.7484 33.818 81.4778 33.454C81.2071 33.09 81.0718 32.5253 81.0718 31.76C81.0718 31.2467 81.1371 30.7287 81.2678 30.206C81.4078 29.6833 81.5944 29.184 81.8278 28.708C82.0704 28.2227 82.3364 27.7933 82.6258 27.42C82.9244 27.0373 83.2371 26.7387 83.5638 26.524C83.8904 26.3 84.2078 26.188 84.5158 26.188C85.1038 26.188 85.5658 26.3513 85.9018 26.678C86.2378 27.0047 86.4058 27.434 86.4058 27.966ZM82.5138 30.29C82.8031 30.1127 83.1018 29.926 83.4098 29.73C83.7178 29.534 84.0024 29.3333 84.2638 29.128C84.5251 28.9227 84.7351 28.708 84.8938 28.484C85.0618 28.2507 85.1458 28.0127 85.1458 27.77C85.1458 27.4247 84.9591 27.252 84.5858 27.252C84.3524 27.252 84.1051 27.4013 83.8438 27.7C83.5918 27.9893 83.3491 28.3673 83.1158 28.834C82.8824 29.3007 82.6818 29.786 82.5138 30.29ZM94.0932 26.958C94.3452 26.3513 94.5832 25.726 94.8072 25.082C95.0405 24.438 95.2505 23.78 95.4372 23.108C95.4932 22.9213 95.5772 22.772 95.6892 22.66C95.8105 22.5387 95.9505 22.478 96.1092 22.478C96.2212 22.478 96.3145 22.52 96.3892 22.604C96.4732 22.688 96.5152 22.8 96.5152 22.94C96.5152 23.1173 96.4452 23.4253 96.3052 23.864C96.1745 24.3027 96.0065 24.858 95.8012 25.53C95.6052 26.202 95.4045 26.9767 95.1992 27.854C95.0032 28.722 94.8352 29.6833 94.6952 30.738C94.5645 31.7927 94.4992 32.9173 94.4992 34.112C94.4992 34.3733 94.4432 34.588 94.3312 34.756C94.2192 34.9333 94.0838 35.022 93.9252 35.022C93.8318 35.022 93.7432 34.9987 93.6592 34.952C93.5752 34.9053 93.5005 34.7933 93.4352 34.616C93.3792 34.448 93.3325 34.182 93.2952 33.818C93.2578 33.4447 93.2392 32.9407 93.2392 32.306C93.2392 31.8207 93.2672 31.2933 93.3232 30.724C92.8938 31.4987 92.4272 32.1753 91.9232 32.754C91.4285 33.3233 90.9478 33.762 90.4812 34.07C90.0238 34.378 89.6318 34.532 89.3052 34.532C88.9038 34.532 88.5772 34.3967 88.3252 34.126C88.0825 33.8647 87.9612 33.4727 87.9612 32.95C87.9612 32.4927 88.0685 32.0213 88.2832 31.536C88.4978 31.0507 88.7825 30.5747 89.1372 30.108C89.4918 29.632 89.8838 29.184 90.3132 28.764C90.7425 28.344 91.1718 27.9753 91.6012 27.658C92.0398 27.3313 92.4458 27.0793 92.8192 26.902C93.1925 26.7153 93.4958 26.622 93.7292 26.622C93.8225 26.622 93.9065 26.6547 93.9812 26.72C94.0558 26.7853 94.0932 26.8647 94.0932 26.958ZM93.9112 27.392C93.8458 27.4573 93.7665 27.5227 93.6732 27.588C93.5798 27.6533 93.4772 27.7233 93.3652 27.798C92.9545 28.0873 92.5018 28.4233 92.0072 28.806C91.5218 29.1793 91.0552 29.59 90.6072 30.038C90.1685 30.4767 89.8092 30.9387 89.5292 31.424C89.2492 31.9093 89.1092 32.4087 89.1092 32.922C89.1092 33.146 89.2212 33.258 89.4452 33.258C89.7532 33.258 90.0892 33.1133 90.4532 32.824C90.8265 32.5253 91.2092 32.1147 91.6012 31.592C91.9932 31.06 92.3852 30.4393 92.7772 29.73C93.1692 29.0113 93.5472 28.232 93.9112 27.392Z" fill="white" fill-opacity="0.3"/>
</svg>
