<svg width="5179" height="11115" viewBox="0 0 5179 11115" fill="none" xmlns="http://www.w3.org/2000/svg">
<path d="M43.2017 276.283C6.65611 292.826 -9.55845 335.864 6.98546 372.41L276.584 967.954C293.128 1004.5 336.165 1020.71 372.711 1004.17C409.257 987.627 425.471 944.589 408.927 908.043L169.284 378.67L698.657 139.027C735.203 122.483 751.417 79.4458 734.873 42.9002C718.329 6.35463 675.292 -9.85993 638.746 6.68398L43.2017 276.283ZM5178.66 10995.1C3165.36 9616.78 3180.74 7465.33 3068.35 5369.02C3012.48 4326.93 2923.95 3298.46 2522.09 2408.62C2118.12 1514.09 1400.19 764.797 98.7658 274.482L47.5483 410.426C1315.02 887.952 2002.52 1611.08 2389.7 2468.41C2778.99 3330.44 2867.34 4333.28 2923.29 5376.8C3034.53 7451.71 3013.24 9688.7 5096.59 11114.9L5178.66 10995.1Z" fill="white"/>
</svg>
