<svg width="21" height="88" viewBox="0 0 21 88" fill="none" xmlns="http://www.w3.org/2000/svg">
<path d="M19.56 83.54C19.56 84.2867 19.3867 84.9333 19.04 85.48C18.7067 86.0267 18.2733 86.4467 17.74 86.74C17.1933 87.0333 16.6333 87.18 16.06 87.18C15.1 87.18 14.2133 87.0333 13.4 86.74C12.5733 86.4467 11.8267 86.06 11.16 85.58C10.48 85.1 9.88 84.58 9.36 84.02C8.84 83.4467 8.40667 82.8933 8.06 82.36C7.7 81.8133 7.43333 81.3267 7.26 80.9C7.07333 80.4733 6.98 80.16 6.98 79.96C6.98 79.6 7.06 79.3467 7.22 79.2C7.36667 79.04 7.61333 78.96 7.96 78.96C8.16 78.96 8.4 79.1067 8.68 79.4C8.96 79.68 9.28 80.0533 9.64 80.52C10 80.9733 10.4067 81.4533 10.86 81.96C11.3133 82.4667 11.82 82.9533 12.38 83.42C12.94 83.8733 13.5533 84.2467 14.22 84.54C14.8867 84.82 15.6133 84.96 16.4 84.96C16.6933 84.96 16.92 84.9067 17.08 84.8C17.24 84.68 17.32 84.4867 17.32 84.22C17.32 83.46 17.1867 82.6467 16.92 81.78C16.64 80.9 16.2933 80.0267 15.88 79.16C15.4533 78.28 15.0133 77.4533 14.56 76.68C14.1067 75.8933 13.7 75.22 13.34 74.66C13.18 74.4333 13.0533 74.24 12.96 74.08C12.8667 73.92 12.82 73.8067 12.82 73.74C12.82 73.34 13.0267 73.14 13.44 73.14C13.6533 73.14 13.94 73.3 14.3 73.62C14.7667 73.9933 15.2467 74.5 15.74 75.14C16.2333 75.7667 16.7067 76.4667 17.16 77.24C17.6133 78 18.02 78.78 18.38 79.58C18.74 80.3667 19.0267 81.1067 19.24 81.8C19.4533 82.4933 19.56 83.0733 19.56 83.54ZM20 70.6005C20 71.8005 19.6333 72.7471 18.9 73.4405C18.1533 74.1205 17.0933 74.4605 15.72 74.4605C14.9733 74.4605 14.1 74.3605 13.1 74.1605C12.0867 73.9605 11.02 73.7005 9.9 73.3805C8.76667 73.0471 7.64667 72.6938 6.54 72.3205C5.43333 71.9338 4.40667 71.5538 3.46 71.1805C2.51333 70.8071 1.72 70.4805 1.08 70.2005C0.586666 69.9605 0.339999 69.6205 0.339999 69.1805C0.339999 68.9005 0.426666 68.6738 0.6 68.5005C0.773332 68.3138 1.05333 68.2205 1.44 68.2205C1.62667 68.2205 2.03333 68.3138 2.66 68.5005C3.28667 68.6871 4.06 68.9338 4.98 69.2405C5.88667 69.5338 6.86667 69.8538 7.92 70.2005C8.97333 70.5338 10.0333 70.8538 11.1 71.1605C12.1667 71.4538 13.1733 71.6938 14.12 71.8805C15.0533 72.0671 15.8467 72.1605 16.5 72.1605C16.7667 72.1605 16.98 72.0871 17.14 71.9405C17.3 71.7805 17.38 71.5738 17.38 71.3205C17.38 70.7738 17.28 70.2138 17.08 69.6405C16.88 69.0538 16.6267 68.4805 16.32 67.9205C16.0133 67.3471 15.6867 66.8071 15.34 66.3005C14.9933 65.7938 14.6667 65.3405 14.36 64.9405C14.04 64.5271 13.7867 64.1938 13.6 63.9405C13.3467 63.6071 13.22 63.3805 13.22 63.2605C13.22 62.8071 13.44 62.5805 13.88 62.5805C13.9867 62.5805 14.2067 62.7138 14.54 62.9805C14.8333 63.2071 15.2067 63.5271 15.66 63.9405C16.1133 64.3538 16.5933 64.8338 17.1 65.3805C17.5933 65.9138 18.06 66.4871 18.5 67.1005C18.94 67.7005 19.3 68.3005 19.58 68.9005C19.86 69.5005 20 70.0671 20 70.6005ZM19.3 62.4598C19.3 62.8332 19.1733 63.1665 18.92 63.4598C18.6667 63.7398 18.2533 63.8798 17.68 63.8798C17.3733 63.8798 16.94 63.8398 16.38 63.7598C15.82 63.6665 15.2133 63.5465 14.56 63.3998C13.8933 63.2532 13.2333 63.0932 12.58 62.9198C11.9267 62.7332 11.3467 62.5532 10.84 62.3798C10.32 62.2065 9.93333 62.0532 9.68 61.9198C9.37333 61.7465 9.18667 61.5865 9.12 61.4398C9.04 61.2798 9 61.1265 9 60.9798C9 60.7132 9.08 60.4665 9.24 60.2398C9.4 59.9998 9.75333 59.8798 10.3 59.8798C10.5133 59.8798 10.86 59.9198 11.34 59.9998C11.8067 60.0798 12.3533 60.1798 12.98 60.2998C13.6067 60.4198 14.2533 60.5532 14.92 60.6998C15.5867 60.8332 16.22 60.9665 16.82 61.0998C17.4067 61.2198 17.9 61.3198 18.3 61.3998C18.6333 61.4665 18.88 61.6065 19.04 61.8198C19.2133 62.0198 19.3 62.2332 19.3 62.4598ZM7.02 60.1598C7.02 60.5998 6.89333 61.0065 6.64 61.3798C6.37333 61.7532 5.96667 61.9398 5.42 61.9398C4.96667 61.9398 4.6 61.8265 4.32 61.5998C4.04 61.3732 3.84 61.1065 3.72 60.7998C3.58667 60.4798 3.52 60.1998 3.52 59.9598C3.52 59.7198 3.57333 59.4532 3.68 59.1598C3.77333 58.8665 3.95333 58.6132 4.22 58.3998C4.47333 58.1732 4.84 58.0598 5.32 58.0598C5.64 58.0598 5.93333 58.1732 6.2 58.3998C6.45333 58.6265 6.65333 58.9065 6.8 59.2398C6.94667 59.5598 7.02 59.8665 7.02 60.1598ZM19.68 54.2605C19.68 55.0871 19.3933 55.7538 18.82 56.2605C18.2333 56.7671 17.2933 57.0205 16 57.0205C15.1733 57.0205 14.3467 56.9271 13.52 56.7405C12.68 56.5405 11.8867 56.2671 11.14 55.9205C10.38 55.5605 9.70667 55.1471 9.12 54.6805C8.53333 54.2005 8.07333 53.6738 7.74 53.1005C7.39333 52.5271 7.22 51.9338 7.22 51.3205C7.22 50.2805 7.5 49.4671 8.06 48.8805C8.62 48.2938 9.33333 48.0005 10.2 48.0005C10.8667 48.0005 11.4733 48.1871 12.02 48.5605C12.5533 48.9205 13.0333 49.4138 13.46 50.0405C13.8867 50.6671 14.2733 51.3671 14.62 52.1405C14.9667 52.9138 15.28 53.7071 15.56 54.5205C16.04 54.5871 16.4667 54.6205 16.84 54.6205C17.0667 54.6205 17.18 54.4938 17.18 54.2405C17.18 53.6405 17.0867 53.0005 16.9 52.3205C16.7 51.6271 16.4467 50.9271 16.14 50.2205C15.82 49.5138 15.4933 48.8338 15.16 48.1805C14.8133 47.5271 14.4867 46.9338 14.18 46.4005C13.86 45.8538 13.6067 45.4071 13.42 45.0605C13.22 44.7005 13.12 44.4671 13.12 44.3605C13.12 44.0671 13.2067 43.8538 13.38 43.7205C13.5533 43.5871 13.74 43.5205 13.94 43.5205C14.0333 43.5205 14.24 43.7005 14.56 44.0605C14.88 44.4071 15.26 44.8871 15.7 45.5005C16.1267 46.1005 16.5733 46.7805 17.04 47.5405C17.4933 48.2871 17.9267 49.0671 18.34 49.8805C18.74 50.6805 19.06 51.4605 19.3 52.2205C19.5533 52.9671 19.68 53.6471 19.68 54.2605ZM13.78 54.1805C13.46 53.6338 13.1267 53.0938 12.78 52.5605C12.42 52.0138 12.02 51.5605 11.58 51.2005C11.1267 50.8405 10.6 50.6605 10 50.6605C9.82667 50.6605 9.71333 50.7071 9.66 50.8005C9.59333 50.8938 9.56 51.0271 9.56 51.2005C9.56 51.6671 9.76667 52.0938 10.18 52.4805C10.5933 52.8538 11.1267 53.1871 11.78 53.4805C12.42 53.7605 13.0867 53.9938 13.78 54.1805ZM19 42.9856C19 43.3056 18.8933 43.6256 18.68 43.9456C18.4533 44.2523 18.1333 44.5056 17.72 44.7056C17.2933 44.9056 16.78 45.0056 16.18 45.0056C15.38 45.0056 14.5267 44.899 13.62 44.6856C12.7133 44.459 11.8067 44.1856 10.9 43.8656C9.99333 43.5456 9.14 43.2323 8.34 42.9256C7.95333 42.779 7.69333 42.599 7.56 42.3856C7.41333 42.1723 7.34 41.8923 7.34 41.5456C7.34 40.759 7.73333 40.3656 8.52 40.3656C8.65333 40.3656 8.91333 40.4256 9.3 40.5456C9.67333 40.6656 10.1333 40.8256 10.68 41.0256C11.2267 41.2123 11.82 41.4123 12.46 41.6256C13.0867 41.8256 13.7267 42.0123 14.38 42.1856C15.02 42.3456 15.6267 42.4723 16.2 42.5656C15.7333 42.259 15.1533 41.919 14.46 41.5456C13.7533 41.159 13.0133 40.7523 12.24 40.3256C11.4667 39.8856 10.7467 39.4456 10.08 39.0056C9.4 38.5656 8.84667 38.1323 8.42 37.7056C7.99333 37.279 7.78 36.8723 7.78 36.4856C7.78 36.1523 7.84667 35.839 7.98 35.5456C8.1 35.239 8.34 34.9723 8.7 34.7456C9.04667 34.519 9.54667 34.3456 10.2 34.2256C10.8533 34.0923 11.7133 34.0256 12.78 34.0256C13.3133 34.0256 13.8333 33.979 14.34 33.8856C14.8333 33.779 15.2467 33.6056 15.58 33.3656C15.9 33.1256 16.06 32.7856 16.06 32.3456C16.06 31.5856 15.92 30.9056 15.64 30.3056C15.36 29.7056 15.0333 29.179 14.66 28.7256C14.2867 28.2723 13.96 27.8923 13.68 27.5856C13.4933 27.399 13.3467 27.239 13.24 27.1056C13.1333 26.959 13.08 26.839 13.08 26.7456C13.08 26.4656 13.1533 26.2656 13.3 26.1456C13.4467 26.0123 13.6467 25.9456 13.9 25.9456C14.0333 25.9456 14.28 26.059 14.64 26.2856C15 26.5123 15.4133 26.8323 15.88 27.2456C16.3333 27.6456 16.7733 28.1056 17.2 28.6256C17.6267 29.1456 17.98 29.7056 18.26 30.3056C18.54 30.9056 18.68 31.519 18.68 32.1456C18.68 33.199 18.4933 34.0723 18.12 34.7656C17.7333 35.4456 17.0933 35.9523 16.2 36.2856C15.2933 36.619 14.06 36.7856 12.5 36.7856C12.46 36.7856 12.3933 36.7856 12.3 36.7856C11.8867 36.7856 11.52 36.7923 11.2 36.8056C10.88 36.8056 10.62 36.8256 10.42 36.8656C10.8333 37.0923 11.3267 37.3656 11.9 37.6856C12.4733 37.9923 13.0867 38.3256 13.74 38.6856C14.38 39.0456 15.0133 39.419 15.64 39.8056C16.2533 40.1923 16.8133 40.579 17.32 40.9656C17.8267 41.339 18.2333 41.699 18.54 42.0456C18.8467 42.3923 19 42.7056 19 42.9856ZM8.92 13.0387C9.08 13.0387 9.22 13.0921 9.34 13.1987C9.46 13.3054 9.55333 13.4387 9.62 13.5987C9.71333 13.8254 9.83333 14.2187 9.98 14.7787C10.1267 15.3387 10.2933 16.0187 10.48 16.8187C10.6667 17.6054 10.86 18.4521 11.06 19.3587C11.2467 20.2654 11.4267 21.1721 11.6 22.0787C12.88 22.4254 14.2 22.7787 15.56 23.1387C16.9067 23.4987 18.2333 23.8587 19.54 24.2187C20.0067 24.3521 20.36 24.5121 20.6 24.6987C20.8533 24.8854 20.98 25.2054 20.98 25.6587C20.98 26.1521 20.82 26.4854 20.5 26.6587C20.1933 26.8187 19.7733 26.8387 19.24 26.7187C17.7867 26.3721 16.4333 26.0521 15.18 25.7587C13.9267 25.4521 12.9133 25.2054 12.14 25.0187C12.2733 25.8187 12.38 26.5187 12.46 27.1187C12.5267 27.7187 12.5533 28.1454 12.54 28.3988C12.5133 28.6788 12.4 28.9121 12.2 29.0988C12 29.2854 11.7533 29.3721 11.46 29.3588C11.1933 29.3321 10.9667 29.2121 10.78 28.9988C10.58 28.7854 10.46 28.5321 10.42 28.2388C10.38 27.8254 10.32 27.2921 10.24 26.6387C10.16 25.9854 10.0667 25.2654 9.96 24.4787C9.28 24.3054 8.58 24.1054 7.86 23.8787C7.12667 23.6521 6.42667 23.4187 5.76 23.1787C5.08 22.9254 4.48667 22.6854 3.98 22.4587C3.47333 22.2321 3.10667 22.0254 2.88 21.8387C2.70667 21.6921 2.57333 21.5121 2.48 21.2987C2.38667 21.0721 2.34 20.8521 2.34 20.6387C2.34 20.3587 2.44 20.1321 2.64 19.9587C2.84 19.7854 3.07333 19.6987 3.34 19.6987C3.44667 19.6987 3.56 19.7054 3.68 19.7187C3.78667 19.7321 3.89333 19.7587 4 19.7987C4.66667 20.0521 5.47333 20.3254 6.42 20.6187C7.36667 20.8987 8.40667 21.1921 9.54 21.4987C9.39333 20.4987 9.24667 19.5187 9.1 18.5587C8.94 17.5854 8.79333 16.7054 8.66 15.9187C8.51333 15.1187 8.38667 14.4787 8.28 13.9987C8.18667 13.7321 8.20667 13.5054 8.34 13.3187C8.46 13.1321 8.65333 13.0387 8.92 13.0387ZM20.02 13.225C20.02 13.7983 19.94 14.205 19.78 14.445C19.62 14.6717 19.3867 14.785 19.08 14.785C18.8133 14.785 18.5867 14.6917 18.4 14.505C18.2 14.3183 18 13.905 17.8 13.265C17.5733 12.5183 17.3133 11.8117 17.02 11.145C16.7133 10.465 16.38 9.91167 16.02 9.485C15.66 9.045 15.28 8.825 14.88 8.825C14.6133 8.825 14.42 8.91833 14.3 9.105C14.18 9.27833 14.12 9.485 14.12 9.725C14.12 9.925 14.1533 10.2183 14.22 10.605C14.2733 10.9783 14.3467 11.3917 14.44 11.845C14.52 12.2983 14.5933 12.7383 14.66 13.165C14.7133 13.5783 14.74 13.9317 14.74 14.225C14.74 14.9183 14.5867 15.4317 14.28 15.765C13.96 16.0983 13.5533 16.265 13.06 16.265C12.7933 16.265 12.4267 16.125 11.96 15.845C11.4933 15.565 10.98 15.1917 10.42 14.725C9.86 14.2583 9.3 13.7383 8.74 13.165C8.18 12.5917 7.66667 12.0117 7.2 11.425C6.72 10.825 6.34 10.2583 6.06 9.725C5.76667 9.19167 5.62 8.73833 5.62 8.365C5.62 7.93833 5.75333 7.59833 6.02 7.345C6.28667 7.07833 6.64667 6.945 7.1 6.945C7.31333 6.945 7.54667 6.965 7.8 7.005C8.04 7.045 8.26 7.145 8.46 7.305C8.64667 7.465 8.78 7.71167 8.86 8.045C8.94 8.37833 8.92667 8.83167 8.82 9.405C9.15333 9.85833 9.52 10.3317 9.92 10.825C10.3067 11.305 10.7133 11.7583 11.14 12.185C11.5533 12.6117 11.96 12.965 12.36 13.245C12.2 12.7517 12.0733 12.1917 11.98 11.565C11.8733 10.9383 11.82 10.305 11.82 9.665C11.82 8.89167 11.96 8.265 12.24 7.785C12.5067 7.29167 12.8667 6.93167 13.32 6.705C13.7733 6.465 14.2733 6.345 14.82 6.345C15.4333 6.345 16.0467 6.545 16.66 6.945C17.2733 7.345 17.8333 7.87833 18.34 8.545C18.8467 9.21167 19.2533 9.95167 19.56 10.765C19.8667 11.5783 20.02 12.3983 20.02 13.225ZM19.52 2.55437C19.52 2.96771 19.3933 3.35437 19.14 3.71437C18.8867 4.07437 18.4733 4.25438 17.9 4.25438C17.46 4.25438 17.1067 4.14104 16.84 3.91437C16.56 3.68771 16.3533 3.42771 16.22 3.13437C16.0867 2.82771 16.02 2.56771 16.02 2.35437C16.02 2.12771 16.0733 1.87437 16.18 1.59438C16.2733 1.30104 16.4533 1.04771 16.72 0.834375C16.9733 0.621042 17.34 0.514375 17.82 0.514375C18.2867 0.514375 18.6867 0.714375 19.02 1.11437C19.3533 1.50104 19.52 1.98104 19.52 2.55437Z" fill="#6F15C4"/>
</svg>
