<svg width="19" height="94" viewBox="0 0 19 94" fill="none" xmlns="http://www.w3.org/2000/svg">
<path d="M17.56 89.54C17.56 90.2867 17.3867 90.9333 17.04 91.48C16.7067 92.0267 16.2733 92.4467 15.74 92.74C15.1933 93.0333 14.6333 93.18 14.06 93.18C13.1 93.18 12.2133 93.0333 11.4 92.74C10.5733 92.4467 9.82667 92.06 9.16 91.58C8.48 91.1 7.88 90.58 7.36 90.02C6.84 89.4467 6.40667 88.8933 6.06 88.36C5.7 87.8133 5.43333 87.3267 5.26 86.9C5.07333 86.4733 4.98 86.16 4.98 85.96C4.98 85.6 5.06 85.3467 5.22 85.2C5.36667 85.04 5.61333 84.96 5.96 84.96C6.16 84.96 6.4 85.1067 6.68 85.4C6.96 85.68 7.28 86.0533 7.64 86.52C8 86.9733 8.40667 87.4533 8.86 87.96C9.31333 88.4667 9.82 88.9533 10.38 89.42C10.94 89.8733 11.5533 90.2467 12.22 90.54C12.8867 90.82 13.6133 90.96 14.4 90.96C14.6933 90.96 14.92 90.9067 15.08 90.8C15.24 90.68 15.32 90.4867 15.32 90.22C15.32 89.46 15.1867 88.6467 14.92 87.78C14.64 86.9 14.2933 86.0267 13.88 85.16C13.4533 84.28 13.0133 83.4533 12.56 82.68C12.1067 81.8933 11.7 81.22 11.34 80.66C11.18 80.4333 11.0533 80.24 10.96 80.08C10.8667 79.92 10.82 79.8067 10.82 79.74C10.82 79.34 11.0267 79.14 11.44 79.14C11.6533 79.14 11.94 79.3 12.3 79.62C12.7667 79.9933 13.2467 80.5 13.74 81.14C14.2333 81.7667 14.7067 82.4667 15.16 83.24C15.6133 84 16.02 84.78 16.38 85.58C16.74 86.3667 17.0267 87.1067 17.24 87.8C17.4533 88.4933 17.56 89.0733 17.56 89.54ZM18.02 68.2134C18.02 68.7334 17.88 69.1134 17.6 69.3534C17.3333 69.5934 16.7933 69.7134 15.98 69.7134C15.2867 69.7134 14.3867 69.6001 13.28 69.3734C12.1733 69.1468 10.98 68.8934 9.7 68.6134C11.3533 70.0934 12.4067 71.8001 12.86 73.7334C13.66 74.1201 14.3933 74.5734 15.06 75.0934C15.7267 75.6134 16.2667 76.1801 16.68 76.7934C17.08 77.3934 17.28 78.0201 17.28 78.6734C17.28 79.4868 17.0133 80.1868 16.48 80.7734C15.9467 81.3468 15.1267 81.6334 14.02 81.6334C13.2733 81.6334 12.64 81.5201 12.12 81.2934C11.5867 81.0668 11.1867 80.8068 10.92 80.5134C10.4133 80.7534 9.83333 80.8734 9.18 80.8734C8.3 80.8734 7.52 80.6334 6.84 80.1534C6.16 79.6734 5.62667 79.0401 5.24 78.2534C4.85333 77.4534 4.66 76.5868 4.66 75.6534C4.66 75.1334 4.79333 74.6401 5.06 74.1734C5.31333 73.6934 5.70667 73.3068 6.24 73.0134C6.76 72.7068 7.42 72.5534 8.22 72.5534C8.88667 72.5534 9.62 72.6534 10.42 72.8534C9.86 71.9068 9.09333 70.9734 8.12 70.0534C7.14667 69.1201 6.05333 68.2868 4.84 67.5534C4.48 67.3268 4.3 67.0068 4.3 66.5934C4.3 66.2468 4.40667 65.9734 4.62 65.7734C4.82 65.5601 5.08667 65.4534 5.42 65.4534C5.48667 65.4534 5.70667 65.4934 6.08 65.5734C6.45333 65.6534 6.94 65.7601 7.54 65.8934C8.12667 66.0268 8.77333 66.1734 9.48 66.3334C10.1867 66.4801 10.9067 66.6268 11.64 66.7734C12.3733 66.9201 13.0667 67.0534 13.72 67.1734C13.0933 66.8268 12.4267 66.4534 11.72 66.0534C11 65.6401 10.2933 65.2134 9.6 64.7734C8.89333 64.3334 8.25333 63.9001 7.68 63.4734C7.10667 63.0468 6.65333 62.6534 6.32 62.2934C5.97333 61.9334 5.8 61.6268 5.8 61.3734C5.8 60.8668 5.94667 60.4401 6.24 60.0934C6.53333 59.7468 6.83333 59.5734 7.14 59.5734C7.44667 59.5734 7.92 59.6068 8.56 59.6734C9.2 59.7401 9.92 59.8268 10.72 59.9334C11.5067 60.0268 12.3 60.1268 13.1 60.2334C13.9 60.3401 14.6267 60.4268 15.28 60.4934C15.92 60.5601 16.4 60.5934 16.72 60.5934C16.9867 60.5934 17.24 60.7201 17.48 60.9734C17.72 61.2268 17.84 61.5134 17.84 61.8334C17.84 61.8601 17.84 61.9068 17.84 61.9734C17.8533 62.1334 17.8267 62.2801 17.76 62.4134C17.7067 62.5468 17.5067 62.6601 17.16 62.7534C16.8133 62.8334 16.2267 62.8734 15.4 62.8734C14.84 62.8734 14.2267 62.8468 13.56 62.7934C12.8933 62.7401 12.2267 62.6734 11.56 62.5934C10.88 62.5001 10.2467 62.4001 9.66 62.2934C10.2333 62.6401 10.8867 63.0268 11.62 63.4534C12.34 63.8668 13.08 64.3001 13.84 64.7534C14.5867 65.2068 15.28 65.6534 15.92 66.0934C16.5467 66.5201 17.0533 66.9201 17.44 67.2934C17.8267 67.6534 18.02 67.9601 18.02 68.2134ZM11.34 75.7334C10.82 75.5601 10.28 75.4201 9.72 75.3134C9.14667 75.2068 8.58667 75.1534 8.04 75.1534C7.81333 75.1534 7.59333 75.2001 7.38 75.2934C7.16667 75.3868 7.06 75.5468 7.06 75.7734C7.06 76.2268 7.15333 76.6734 7.34 77.1134C7.52667 77.5401 7.79333 77.8934 8.14 78.1734C8.48667 78.4534 8.9 78.5934 9.38 78.5934C9.80667 78.5934 10.1667 78.4534 10.46 78.1734C10.7533 77.8801 10.9733 77.5201 11.12 77.0934C11.2667 76.6534 11.34 76.2201 11.34 75.7934C11.34 75.7801 11.34 75.7601 11.34 75.7334ZM13.1 76.5534C13.0867 77.0201 13.0267 77.4734 12.92 77.9134C12.8 78.3534 12.6333 78.7534 12.42 79.1134C12.6333 79.1534 12.84 79.1934 13.04 79.2334C13.2267 79.2734 13.4067 79.2934 13.58 79.2934C13.8733 79.2934 14.14 79.2468 14.38 79.1534C14.6067 79.0468 14.72 78.8334 14.72 78.5134C14.72 78.1801 14.5733 77.8468 14.28 77.5134C13.9867 77.1668 13.5933 76.8468 13.1 76.5534ZM17 54.4934C17 54.8134 16.8933 55.1334 16.68 55.4534C16.4533 55.7601 16.1333 56.0134 15.72 56.2134C15.2933 56.4134 14.78 56.5134 14.18 56.5134C13.38 56.5134 12.5267 56.4068 11.62 56.1934C10.7133 55.9668 9.80667 55.6934 8.9 55.3734C7.99333 55.0534 7.14 54.7401 6.34 54.4334C5.95333 54.2868 5.69333 54.1068 5.56 53.8934C5.41333 53.6801 5.34 53.4001 5.34 53.0534C5.34 52.2668 5.73333 51.8734 6.52 51.8734C6.65333 51.8734 6.91333 51.9334 7.3 52.0534C7.67333 52.1734 8.13333 52.3334 8.68 52.5334C9.22667 52.7201 9.82 52.9201 10.46 53.1334C11.0867 53.3334 11.7267 53.5201 12.38 53.6934C13.02 53.8534 13.6267 53.9801 14.2 54.0734C13.7333 53.7668 13.1533 53.4268 12.46 53.0534C11.7533 52.6668 11.0133 52.2601 10.24 51.8334C9.46667 51.3934 8.74667 50.9534 8.08 50.5134C7.4 50.0734 6.84667 49.6401 6.42 49.2134C5.99333 48.7868 5.78 48.3801 5.78 47.9934C5.78 47.6601 5.84667 47.3468 5.98 47.0534C6.1 46.7468 6.34 46.4801 6.7 46.2534C7.04667 46.0268 7.54667 45.8534 8.2 45.7334C8.85333 45.6001 9.71333 45.5334 10.78 45.5334C11.3133 45.5334 11.8333 45.4868 12.34 45.3934C12.8333 45.2868 13.2467 45.1134 13.58 44.8734C13.9 44.6334 14.06 44.2934 14.06 43.8534C14.06 43.0934 13.92 42.4134 13.64 41.8134C13.36 41.2134 13.0333 40.6868 12.66 40.2334C12.2867 39.7801 11.96 39.4001 11.68 39.0934C11.4933 38.9068 11.3467 38.7468 11.24 38.6134C11.1333 38.4668 11.08 38.3468 11.08 38.2534C11.08 37.9734 11.1533 37.7734 11.3 37.6534C11.4467 37.5201 11.6467 37.4534 11.9 37.4534C12.0333 37.4534 12.28 37.5668 12.64 37.7934C13 38.0201 13.4133 38.3401 13.88 38.7534C14.3333 39.1534 14.7733 39.6134 15.2 40.1334C15.6267 40.6534 15.98 41.2134 16.26 41.8134C16.54 42.4134 16.68 43.0268 16.68 43.6534C16.68 44.7068 16.4933 45.5801 16.12 46.2734C15.7333 46.9534 15.0933 47.4601 14.2 47.7934C13.2933 48.1268 12.06 48.2934 10.5 48.2934C10.46 48.2934 10.3933 48.2934 10.3 48.2934C9.88667 48.2934 9.52 48.3001 9.2 48.3134C8.88 48.3134 8.62 48.3334 8.42 48.3734C8.83333 48.6001 9.32667 48.8734 9.9 49.1934C10.4733 49.5001 11.0867 49.8334 11.74 50.1934C12.38 50.5534 13.0133 50.9268 13.64 51.3134C14.2533 51.7001 14.8133 52.0868 15.32 52.4734C15.8267 52.8468 16.2333 53.2068 16.54 53.5534C16.8467 53.9001 17 54.2134 17 54.4934ZM17.68 36.4128C17.68 37.2395 17.3933 37.9061 16.82 38.4128C16.2333 38.9195 15.2933 39.1728 14 39.1728C13.1733 39.1728 12.3467 39.0795 11.52 38.8928C10.68 38.6928 9.88667 38.4195 9.14 38.0728C8.38 37.7128 7.70667 37.2995 7.12 36.8328C6.53333 36.3528 6.07333 35.8261 5.74 35.2528C5.39333 34.6795 5.22 34.0861 5.22 33.4728C5.22 32.4328 5.5 31.6195 6.06 31.0328C6.62 30.4461 7.33333 30.1528 8.2 30.1528C8.86667 30.1528 9.47333 30.3395 10.02 30.7128C10.5533 31.0728 11.0333 31.5661 11.46 32.1928C11.8867 32.8195 12.2733 33.5195 12.62 34.2928C12.9667 35.0661 13.28 35.8595 13.56 36.6728C14.04 36.7395 14.4667 36.7728 14.84 36.7728C15.0667 36.7728 15.18 36.6461 15.18 36.3928C15.18 35.7928 15.0867 35.1528 14.9 34.4728C14.7 33.7795 14.4467 33.0795 14.14 32.3728C13.82 31.6661 13.4933 30.9861 13.16 30.3328C12.8133 29.6795 12.4867 29.0861 12.18 28.5528C11.86 28.0061 11.6067 27.5595 11.42 27.2128C11.22 26.8528 11.12 26.6195 11.12 26.5128C11.12 26.2195 11.2067 26.0061 11.38 25.8728C11.5533 25.7395 11.74 25.6728 11.94 25.6728C12.0333 25.6728 12.24 25.8528 12.56 26.2128C12.88 26.5595 13.26 27.0395 13.7 27.6528C14.1267 28.2528 14.5733 28.9328 15.04 29.6928C15.4933 30.4395 15.9267 31.2195 16.34 32.0328C16.74 32.8328 17.06 33.6128 17.3 34.3728C17.5533 35.1195 17.68 35.7995 17.68 36.4128ZM11.78 36.3328C11.46 35.7861 11.1267 35.2461 10.78 34.7128C10.42 34.1661 10.02 33.7128 9.58 33.3528C9.12667 32.9928 8.6 32.8128 8 32.8128C7.82667 32.8128 7.71333 32.8595 7.66 32.9528C7.59333 33.0461 7.56 33.1795 7.56 33.3528C7.56 33.8195 7.76667 34.2461 8.18 34.6328C8.59333 35.0061 9.12667 35.3395 9.78 35.6328C10.42 35.9128 11.0867 36.1461 11.78 36.3328ZM17.56 23.6611C17.56 24.4078 17.3867 25.0544 17.04 25.6011C16.7067 26.1478 16.2733 26.5678 15.74 26.8611C15.1933 27.1544 14.6333 27.3011 14.06 27.3011C13.1 27.3011 12.2133 27.1544 11.4 26.8611C10.5733 26.5678 9.82667 26.1811 9.16 25.7011C8.48 25.2211 7.88 24.7011 7.36 24.1411C6.84 23.5678 6.40667 23.0144 6.06 22.4811C5.7 21.9344 5.43333 21.4478 5.26 21.0211C5.07333 20.5944 4.98 20.2811 4.98 20.0811C4.98 19.7211 5.06 19.4678 5.22 19.3211C5.36667 19.1611 5.61333 19.0811 5.96 19.0811C6.16 19.0811 6.4 19.2278 6.68 19.5211C6.96 19.8011 7.28 20.1744 7.64 20.6411C8 21.0944 8.40667 21.5744 8.86 22.0811C9.31333 22.5878 9.82 23.0744 10.38 23.5411C10.94 23.9944 11.5533 24.3678 12.22 24.6611C12.8867 24.9411 13.6133 25.0811 14.4 25.0811C14.6933 25.0811 14.92 25.0278 15.08 24.9211C15.24 24.8011 15.32 24.6078 15.32 24.3411C15.32 23.5811 15.1867 22.7678 14.92 21.9011C14.64 21.0211 14.2933 20.1478 13.88 19.2811C13.4533 18.4011 13.0133 17.5744 12.56 16.8011C12.1067 16.0144 11.7 15.3411 11.34 14.7811C11.18 14.5544 11.0533 14.3611 10.96 14.2011C10.8667 14.0411 10.82 13.9278 10.82 13.8611C10.82 13.4611 11.0267 13.2611 11.44 13.2611C11.6533 13.2611 11.94 13.4211 12.3 13.7411C12.7667 14.1144 13.2467 14.6211 13.74 15.2611C14.2333 15.8878 14.7067 16.5878 15.16 17.3611C15.6133 18.1211 16.02 18.9011 16.38 19.7011C16.74 20.4878 17.0267 21.2278 17.24 21.9211C17.4533 22.6144 17.56 23.1944 17.56 23.6611ZM6.92 0.30828C7.08 0.30828 7.22 0.361613 7.34 0.46828C7.46 0.574947 7.55333 0.708281 7.62 0.868281C7.71333 1.09495 7.83333 1.48828 7.98 2.04828C8.12667 2.60828 8.29333 3.28828 8.48 4.08828C8.66667 4.87495 8.86 5.72161 9.06 6.62828C9.24667 7.53495 9.42667 8.44161 9.6 9.34828C10.88 9.69495 12.2 10.0483 13.56 10.4083C14.9067 10.7683 16.2333 11.1283 17.54 11.4883C18.0067 11.6216 18.36 11.7816 18.6 11.9683C18.8533 12.1549 18.98 12.4749 18.98 12.9283C18.98 13.4216 18.82 13.7549 18.5 13.9283C18.1933 14.0883 17.7733 14.1083 17.24 13.9883C15.7867 13.6416 14.4333 13.3216 13.18 13.0283C11.9267 12.7216 10.9133 12.4749 10.14 12.2883C10.2733 13.0883 10.38 13.7883 10.46 14.3883C10.5267 14.9883 10.5533 15.4149 10.54 15.6683C10.5133 15.9483 10.4 16.1816 10.2 16.3683C10 16.5549 9.75333 16.6416 9.46 16.6283C9.19333 16.6016 8.96667 16.4816 8.78 16.2683C8.58 16.0549 8.46 15.8016 8.42 15.5083C8.38 15.0949 8.32 14.5616 8.24 13.9083C8.16 13.2549 8.06667 12.5349 7.96 11.7483C7.28 11.5749 6.58 11.3749 5.86 11.1483C5.12667 10.9216 4.42667 10.6883 3.76 10.4483C3.08 10.1949 2.48667 9.95495 1.98 9.72828C1.47333 9.50161 1.10667 9.29495 0.879999 9.10828C0.706665 8.96161 0.573332 8.78161 0.479999 8.56828C0.386666 8.34161 0.339999 8.12161 0.339999 7.90828C0.339999 7.62828 0.439999 7.40161 0.64 7.22828C0.839999 7.05495 1.07333 6.96828 1.34 6.96828C1.44667 6.96828 1.56 6.97495 1.68 6.98828C1.78667 7.00161 1.89333 7.02828 2 7.06828C2.66667 7.32161 3.47333 7.59495 4.42 7.88828C5.36667 8.16828 6.40667 8.46161 7.54 8.76828C7.39333 7.76828 7.24667 6.78828 7.1 5.82828C6.94 4.85495 6.79333 3.97495 6.66 3.18828C6.51333 2.38828 6.38667 1.74828 6.28 1.26828C6.18667 1.00161 6.20667 0.774947 6.34 0.58828C6.46 0.401613 6.65333 0.30828 6.92 0.30828ZM17.52 3.90594C17.52 4.31927 17.3933 4.70594 17.14 5.06594C16.8867 5.42594 16.4733 5.60594 15.9 5.60594C15.46 5.60594 15.1067 5.4926 14.84 5.26594C14.56 5.03927 14.3533 4.77927 14.22 4.48594C14.0867 4.17927 14.02 3.91927 14.02 3.70594C14.02 3.47927 14.0733 3.22594 14.18 2.94594C14.2733 2.6526 14.4533 2.39927 14.72 2.18594C14.9733 1.9726 15.34 1.86594 15.82 1.86594C16.2867 1.86594 16.6867 2.06594 17.02 2.46594C17.3533 2.8526 17.52 3.3326 17.52 3.90594Z" fill="#6F15C4"/>
</svg>
