<svg width="23" height="130" viewBox="0 0 23 130" fill="none" xmlns="http://www.w3.org/2000/svg">
<path d="M16.68 126.28C16.68 127.107 16.3933 127.773 15.82 128.28C15.2333 128.787 14.2933 129.04 13 129.04C12.1733 129.04 11.3467 128.947 10.52 128.76C9.68 128.56 8.88667 128.287 8.14 127.94C7.38 127.58 6.70667 127.167 6.12 126.7C5.53333 126.22 5.07333 125.693 4.74 125.12C4.39333 124.547 4.22 123.953 4.22 123.34C4.22 122.3 4.5 121.487 5.06 120.9C5.62 120.313 6.33333 120.02 7.2 120.02C7.86667 120.02 8.47333 120.207 9.02 120.58C9.55333 120.94 10.0333 121.433 10.46 122.06C10.8867 122.687 11.2733 123.387 11.62 124.16C11.9667 124.933 12.28 125.727 12.56 126.54C13.04 126.607 13.4667 126.64 13.84 126.64C14.0667 126.64 14.18 126.513 14.18 126.26C14.18 125.66 14.0867 125.02 13.9 124.34C13.7 123.647 13.4467 122.947 13.14 122.24C12.82 121.533 12.4933 120.853 12.16 120.2C11.8133 119.547 11.4867 118.953 11.18 118.42C10.86 117.873 10.6067 117.427 10.42 117.08C10.22 116.72 10.12 116.487 10.12 116.38C10.12 116.087 10.2067 115.873 10.38 115.74C10.5533 115.607 10.74 115.54 10.94 115.54C11.0333 115.54 11.24 115.72 11.56 116.08C11.88 116.427 12.26 116.907 12.7 117.52C13.1267 118.12 13.5733 118.8 14.04 119.56C14.4933 120.307 14.9267 121.087 15.34 121.9C15.74 122.7 16.06 123.48 16.3 124.24C16.5533 124.987 16.68 125.667 16.68 126.28ZM10.78 126.2C10.46 125.653 10.1267 125.113 9.78 124.58C9.42 124.033 9.02 123.58 8.58 123.22C8.12667 122.86 7.6 122.68 7 122.68C6.82667 122.68 6.71333 122.727 6.66 122.82C6.59333 122.913 6.56 123.047 6.56 123.22C6.56 123.687 6.76667 124.113 7.18 124.5C7.59333 124.873 8.12667 125.207 8.78 125.5C9.42 125.78 10.0867 126.013 10.78 126.2ZM15.6 115.994C15.6 116.314 15.4933 116.547 15.28 116.694C15.0533 116.84 14.7733 116.9 14.44 116.874C14.2533 116.86 13.9867 116.714 13.64 116.434C13.28 116.154 12.86 115.787 12.38 115.334C11.8867 114.88 11.36 114.38 10.8 113.834C10.2267 113.274 9.64667 112.7 9.06 112.114C7.98 112.847 7.11333 113.4 6.46 113.774C5.80667 114.134 5.29333 114.327 4.92 114.354C4.50667 114.38 4.17333 114.314 3.92 114.154C3.66667 113.98 3.54 113.707 3.54 113.334C3.54 113.12 3.64 112.9 3.84 112.674C4.04 112.434 4.40667 112.134 4.94 111.774C5.47333 111.4 6.22667 110.907 7.2 110.294C6.28 109.374 5.53333 108.62 4.96 108.034C4.37333 107.434 3.92 106.954 3.6 106.594C3.28 106.22 3.06 105.934 2.94 105.734C2.82 105.52 2.76 105.34 2.76 105.194C2.76 104.874 2.87333 104.647 3.1 104.514C3.31333 104.367 3.59333 104.307 3.94 104.334C4.22 104.36 4.56 104.527 4.96 104.834C5.34667 105.127 5.77333 105.507 6.24 105.974C6.69333 106.44 7.16667 106.947 7.66 107.494C8.14 108.027 8.61333 108.547 9.08 109.054C10.2533 108.227 11.28 107.454 12.16 106.734C13.0267 106 13.7467 105.407 14.32 104.954C14.88 104.5 15.2933 104.267 15.56 104.254C15.84 104.227 16.06 104.3 16.22 104.474C16.38 104.634 16.46 104.867 16.46 105.174C16.46 105.347 16.4 105.56 16.28 105.814C16.16 106.067 15.9133 106.407 15.54 106.834C15.1667 107.247 14.6067 107.78 13.86 108.434C13.1 109.074 12.08 109.874 10.8 110.834C11.36 111.38 11.92 111.927 12.48 112.474C13.04 113.007 13.56 113.514 14.04 113.994C14.5067 114.46 14.8867 114.874 15.18 115.234C15.46 115.58 15.6 115.834 15.6 115.994ZM22.42 101.736C22.42 102.11 22.2867 102.403 22.02 102.616C21.7667 102.816 21.3733 102.916 20.84 102.916C20.1067 102.916 19.2333 102.85 18.22 102.716C17.2067 102.583 16.1333 102.403 15 102.176C13.8667 101.95 12.7533 101.703 11.66 101.436C10.4067 101.116 9.26667 100.803 8.24 100.496C7.21333 100.176 6.39333 99.8562 5.78 99.5362C5.15333 99.2029 4.84 98.8696 4.84 98.5362C4.84 98.2296 4.95333 97.9629 5.18 97.7362C5.39333 97.4962 5.71333 97.3762 6.14 97.3762C6.44667 97.3762 6.88667 97.4562 7.46 97.6162C8.02 97.7762 8.72 97.9762 9.56 98.2162C8.81333 97.7629 8.08 97.2962 7.36 96.8162C6.64 96.3229 5.98667 95.8229 5.4 95.3162C4.81333 94.8096 4.34667 94.3162 4 93.8362C3.65333 93.3562 3.48 92.9029 3.48 92.4762C3.48 91.9696 3.62667 91.5229 3.92 91.1362C4.21333 90.7362 4.61333 90.4229 5.12 90.1962C5.62667 89.9696 6.2 89.8562 6.84 89.8562C8.02667 89.8562 9.18 90.0696 10.3 90.4962C11.4067 90.9229 12.4 91.5162 13.28 92.2762C14.16 93.0229 14.86 93.8962 15.38 94.8962C15.8867 95.8962 16.14 96.9762 16.14 98.1362C16.14 98.4696 16.1067 98.7762 16.04 99.0562C15.9867 99.3229 15.92 99.5696 15.84 99.7962C16.6933 99.9562 17.5667 100.11 18.46 100.256C19.3667 100.39 20.32 100.53 21.32 100.676C22.0533 100.836 22.42 101.19 22.42 101.736ZM5.84 92.2762C5.84 92.5696 6.04 92.9429 6.44 93.3962C6.84 93.8362 7.36667 94.3162 8.02 94.8362C8.66 95.3562 9.36 95.8829 10.12 96.4162C10.8667 96.9362 11.6 97.4362 12.32 97.9162C13.04 98.3829 13.6667 98.7829 14.2 99.1162C14.0933 98.1029 13.8267 97.2096 13.4 96.4362C12.96 95.6629 12.4267 95.0029 11.8 94.4562C11.1733 93.9096 10.5133 93.4696 9.82 93.1362C9.11333 92.7896 8.42667 92.5362 7.76 92.3762C7.09333 92.2162 6.51333 92.1362 6.02 92.1362C5.9 92.1362 5.84 92.1829 5.84 92.2762ZM7.34 78.2306C8.20667 78.2306 9.06667 78.724 9.92 79.7106C10.76 80.684 11.5067 82.1973 12.16 84.2506C12.1733 84.2506 12.1933 84.2506 12.22 84.2506C12.66 84.2506 13.0133 84.1973 13.28 84.0906C13.5333 83.984 13.66 83.7506 13.66 83.3906C13.66 82.8573 13.5 82.264 13.18 81.6106C12.8467 80.944 12.4267 80.2573 11.92 79.5506C11.4 78.8306 10.8533 78.1306 10.28 77.4506C9.70667 76.7706 9.16667 76.144 8.66 75.5706C8.14 74.984 7.72 74.4906 7.4 74.0906C7.06667 73.6773 6.9 73.404 6.9 73.2706C6.9 72.9906 7.00667 72.7573 7.22 72.5706C7.43333 72.3706 7.75333 72.2706 8.18 72.2706C8.42 72.2706 8.70667 72.284 9.04 72.3106C8.02667 71.724 7.19333 71.044 6.54 70.2706C5.87333 69.4973 5.38 68.7373 5.06 67.9906C4.72667 67.2306 4.56 66.584 4.56 66.0506C4.56 65.4506 4.68 65.044 4.92 64.8306C5.14667 64.6173 5.38667 64.5106 5.64 64.5106C5.78667 64.5106 5.93333 64.544 6.08 64.6106C6.21333 64.664 6.36 64.8106 6.52 65.0506C6.68 65.2773 6.86667 65.6573 7.08 66.1906C7.34667 66.8973 7.66 67.5706 8.02 68.2106C8.38 68.8373 8.87333 69.4173 9.5 69.9506C10.1133 70.4706 10.94 70.944 11.98 71.3706C13.0067 71.784 14.3267 72.1306 15.94 72.4106C16.3933 72.504 16.7 72.6506 16.86 72.8506C17.0333 73.0506 17.12 73.284 17.12 73.5506C17.12 73.5773 17.12 73.624 17.12 73.6906C17.1333 73.8106 17.12 73.9373 17.08 74.0706C17.0533 74.1906 16.94 74.3106 16.74 74.4306C16.5533 74.5373 16.2267 74.624 15.76 74.6906C15.2933 74.7573 14.6267 74.7906 13.76 74.7906C13.24 74.7906 12.6933 74.7706 12.12 74.7306C11.5333 74.6773 10.9267 74.6106 10.3 74.5306C10.9667 75.2106 11.64 75.9373 12.32 76.7106C13 77.484 13.6267 78.284 14.2 79.1106C14.76 79.924 15.2133 80.724 15.56 81.5106C15.9067 82.284 16.08 83.004 16.08 83.6706C16.08 84.564 15.7933 85.2973 15.22 85.8706C14.6333 86.4306 13.7333 86.7106 12.52 86.7106C11.32 86.7106 10.2333 86.5506 9.26 86.2306C8.27333 85.8973 7.42667 85.4706 6.72 84.9506C6.01333 84.4306 5.47333 83.8773 5.1 83.2906C4.71333 82.6906 4.52 82.1306 4.52 81.6106C4.52 80.504 4.78667 79.664 5.32 79.0906C5.84 78.5173 6.51333 78.2306 7.34 78.2306ZM10.38 83.9906C10.2067 83.644 10.0067 83.2773 9.78 82.8906C9.54 82.4906 9.29333 82.1173 9.04 81.7706C8.77333 81.424 8.51333 81.144 8.26 80.9306C8.00667 80.704 7.76667 80.5906 7.54 80.5906C7.16667 80.5906 6.94 80.6973 6.86 80.9106C6.76667 81.1106 6.72 81.384 6.72 81.7306C6.72 82.0906 6.91333 82.4173 7.3 82.7106C7.67333 83.004 8.14 83.2573 8.7 83.4706C9.26 83.684 9.82 83.8573 10.38 83.9906ZM16.3 64.1864C16.3 64.5597 16.1733 64.8931 15.92 65.1864C15.6667 65.4664 15.2533 65.6064 14.68 65.6064C14.3733 65.6064 13.94 65.5664 13.38 65.4864C12.82 65.3931 12.2133 65.2731 11.56 65.1264C10.8933 64.9797 10.2333 64.8197 9.58 64.6464C8.92667 64.4597 8.34667 64.2797 7.84 64.1064C7.32 63.9331 6.93333 63.7797 6.68 63.6464C6.37333 63.4731 6.18667 63.3131 6.12 63.1664C6.04 63.0064 6 62.8531 6 62.7064C6 62.4397 6.08 62.1931 6.24 61.9664C6.4 61.7264 6.75333 61.6064 7.3 61.6064C7.51333 61.6064 7.86 61.6464 8.34 61.7264C8.80667 61.8064 9.35333 61.9064 9.98 62.0264C10.6067 62.1464 11.2533 62.2797 11.92 62.4264C12.5867 62.5597 13.22 62.6931 13.82 62.8264C14.4067 62.9464 14.9 63.0464 15.3 63.1264C15.6333 63.1931 15.88 63.3331 16.04 63.5464C16.2133 63.7464 16.3 63.9597 16.3 64.1864ZM4.02 61.8864C4.02 62.3264 3.89333 62.7331 3.64 63.1064C3.37333 63.4797 2.96667 63.6664 2.42 63.6664C1.96667 63.6664 1.6 63.5531 1.32 63.3264C1.04 63.0997 0.839999 62.8331 0.719999 62.5264C0.586666 62.2064 0.519999 61.9264 0.519999 61.6864C0.519999 61.4464 0.573332 61.1797 0.679999 60.8864C0.773332 60.5931 0.953332 60.3397 1.22 60.1264C1.47333 59.8997 1.84 59.7864 2.32 59.7864C2.64 59.7864 2.93333 59.8997 3.2 60.1264C3.45333 60.3531 3.65333 60.6331 3.8 60.9664C3.94667 61.2864 4.02 61.5931 4.02 61.8864ZM16.68 55.987C16.68 56.8137 16.3933 57.4804 15.82 57.987C15.2333 58.4937 14.2933 58.747 13 58.747C12.1733 58.747 11.3467 58.6537 10.52 58.467C9.68 58.267 8.88667 57.9937 8.14 57.647C7.38 57.287 6.70667 56.8737 6.12 56.407C5.53333 55.927 5.07333 55.4004 4.74 54.827C4.39333 54.2537 4.22 53.6604 4.22 53.047C4.22 52.007 4.5 51.1937 5.06 50.607C5.62 50.0204 6.33333 49.727 7.2 49.727C7.86667 49.727 8.47333 49.9137 9.02 50.287C9.55333 50.647 10.0333 51.1404 10.46 51.767C10.8867 52.3937 11.2733 53.0937 11.62 53.867C11.9667 54.6404 12.28 55.4337 12.56 56.247C13.04 56.3137 13.4667 56.347 13.84 56.347C14.0667 56.347 14.18 56.2204 14.18 55.967C14.18 55.367 14.0867 54.727 13.9 54.047C13.7 53.3537 13.4467 52.6537 13.14 51.947C12.82 51.2404 12.4933 50.5604 12.16 49.907C11.8133 49.2537 11.4867 48.6604 11.18 48.127C10.86 47.5804 10.6067 47.1337 10.42 46.787C10.22 46.427 10.12 46.1937 10.12 46.087C10.12 45.7937 10.2067 45.5804 10.38 45.447C10.5533 45.3137 10.74 45.247 10.94 45.247C11.0333 45.247 11.24 45.427 11.56 45.787C11.88 46.1337 12.26 46.6137 12.7 47.227C13.1267 47.827 13.5733 48.507 14.04 49.267C14.4933 50.0137 14.9267 50.7937 15.34 51.607C15.74 52.407 16.06 53.187 16.3 53.947C16.5533 54.6937 16.68 55.3737 16.68 55.987ZM10.78 55.907C10.46 55.3604 10.1267 54.8204 9.78 54.287C9.42 53.7404 9.02 53.287 8.58 52.927C8.12667 52.567 7.6 52.387 7 52.387C6.82667 52.387 6.71333 52.4337 6.66 52.527C6.59333 52.6204 6.56 52.7537 6.56 52.927C6.56 53.3937 6.76667 53.8204 7.18 54.207C7.59333 54.5804 8.12667 54.9137 8.78 55.207C9.42 55.487 10.0867 55.7204 10.78 55.907ZM16 44.7122C16 45.0322 15.8933 45.3522 15.68 45.6722C15.4533 45.9789 15.1333 46.2322 14.72 46.4322C14.2933 46.6322 13.78 46.7322 13.18 46.7322C12.38 46.7322 11.5267 46.6255 10.62 46.4122C9.71333 46.1855 8.80667 45.9122 7.9 45.5922C6.99333 45.2722 6.14 44.9589 5.34 44.6522C4.95333 44.5055 4.69333 44.3255 4.56 44.1122C4.41333 43.8989 4.34 43.6189 4.34 43.2722C4.34 42.4855 4.73333 42.0922 5.52 42.0922C5.65333 42.0922 5.91333 42.1522 6.3 42.2722C6.67333 42.3922 7.13333 42.5522 7.68 42.7522C8.22667 42.9389 8.82 43.1389 9.46 43.3522C10.0867 43.5522 10.7267 43.7389 11.38 43.9122C12.02 44.0722 12.6267 44.1989 13.2 44.2922C12.7333 43.9855 12.1533 43.6455 11.46 43.2722C10.7533 42.8855 10.0133 42.4789 9.24 42.0522C8.46667 41.6122 7.74667 41.1722 7.08 40.7322C6.4 40.2922 5.84667 39.8589 5.42 39.4322C4.99333 39.0055 4.78 38.5989 4.78 38.2122C4.78 37.8789 4.84667 37.5655 4.98 37.2722C5.1 36.9655 5.34 36.6989 5.7 36.4722C6.04667 36.2455 6.54667 36.0722 7.2 35.9522C7.85333 35.8189 8.71333 35.7522 9.78 35.7522C10.3133 35.7522 10.8333 35.7055 11.34 35.6122C11.8333 35.5055 12.2467 35.3322 12.58 35.0922C12.9 34.8522 13.06 34.5122 13.06 34.0722C13.06 33.3122 12.92 32.6322 12.64 32.0322C12.36 31.4322 12.0333 30.9055 11.66 30.4522C11.2867 29.9989 10.96 29.6189 10.68 29.3122C10.4933 29.1255 10.3467 28.9655 10.24 28.8322C10.1333 28.6855 10.08 28.5655 10.08 28.4722C10.08 28.1922 10.1533 27.9922 10.3 27.8722C10.4467 27.7389 10.6467 27.6722 10.9 27.6722C11.0333 27.6722 11.28 27.7855 11.64 28.0122C12 28.2389 12.4133 28.5589 12.88 28.9722C13.3333 29.3722 13.7733 29.8322 14.2 30.3522C14.6267 30.8722 14.98 31.4322 15.26 32.0322C15.54 32.6322 15.68 33.2455 15.68 33.8722C15.68 34.9255 15.4933 35.7989 15.12 36.4922C14.7333 37.1722 14.0933 37.6789 13.2 38.0122C12.2933 38.3455 11.06 38.5122 9.5 38.5122C9.46 38.5122 9.39333 38.5122 9.3 38.5122C8.88667 38.5122 8.52 38.5189 8.2 38.5322C7.88 38.5322 7.62 38.5522 7.42 38.5922C7.83333 38.8189 8.32667 39.0922 8.9 39.4122C9.47333 39.7189 10.0867 40.0522 10.74 40.4122C11.38 40.7722 12.0133 41.1455 12.64 41.5322C13.2533 41.9189 13.8133 42.3055 14.32 42.6922C14.8267 43.0655 15.2333 43.4255 15.54 43.7722C15.8467 44.1189 16 44.4322 16 44.7122ZM16.56 25.8916C16.56 26.6382 16.3867 27.2849 16.04 27.8316C15.7067 28.3782 15.2733 28.7982 14.74 29.0916C14.1933 29.3849 13.6333 29.5316 13.06 29.5316C12.1 29.5316 11.2133 29.3849 10.4 29.0916C9.57333 28.7982 8.82667 28.4116 8.16 27.9316C7.48 27.4516 6.88 26.9316 6.36 26.3716C5.84 25.7982 5.40667 25.2449 5.06 24.7116C4.7 24.1649 4.43333 23.6782 4.26 23.2516C4.07333 22.8249 3.98 22.5116 3.98 22.3116C3.98 21.9516 4.06 21.6982 4.22 21.5516C4.36667 21.3916 4.61333 21.3116 4.96 21.3116C5.16 21.3116 5.4 21.4582 5.68 21.7516C5.96 22.0316 6.28 22.4049 6.64 22.8716C7 23.3249 7.40667 23.8049 7.86 24.3116C8.31333 24.8182 8.82 25.3049 9.38 25.7716C9.94 26.2249 10.5533 26.5982 11.22 26.8916C11.8867 27.1716 12.6133 27.3116 13.4 27.3116C13.6933 27.3116 13.92 27.2582 14.08 27.1516C14.24 27.0316 14.32 26.8382 14.32 26.5716C14.32 25.8116 14.1867 24.9982 13.92 24.1316C13.64 23.2516 13.2933 22.3782 12.88 21.5116C12.4533 20.6316 12.0133 19.8049 11.56 19.0316C11.1067 18.2449 10.7 17.5716 10.34 17.0116C10.18 16.7849 10.0533 16.5916 9.96 16.4316C9.86667 16.2716 9.82 16.1582 9.82 16.0916C9.82 15.6916 10.0267 15.4916 10.44 15.4916C10.6533 15.4916 10.94 15.6516 11.3 15.9716C11.7667 16.3449 12.2467 16.8516 12.74 17.4916C13.2333 18.1182 13.7067 18.8182 14.16 19.5916C14.6133 20.3516 15.02 21.1316 15.38 21.9316C15.74 22.7182 16.0267 23.4582 16.24 24.1516C16.4533 24.8449 16.56 25.4249 16.56 25.8916ZM16.68 14.405C16.68 15.2317 16.3933 15.8983 15.82 16.405C15.2333 16.9117 14.2933 17.165 13 17.165C12.1733 17.165 11.3467 17.0717 10.52 16.885C9.68 16.685 8.88667 16.4117 8.14 16.065C7.38 15.705 6.70667 15.2917 6.12 14.825C5.53333 14.345 5.07333 13.8183 4.74 13.245C4.39333 12.6717 4.22 12.0783 4.22 11.465C4.22 10.425 4.5 9.61167 5.06 9.025C5.62 8.43833 6.33333 8.145 7.2 8.145C7.86667 8.145 8.47333 8.33167 9.02 8.705C9.55333 9.065 10.0333 9.55833 10.46 10.185C10.8867 10.8117 11.2733 11.5117 11.62 12.285C11.9667 13.0583 12.28 13.8517 12.56 14.665C13.04 14.7317 13.4667 14.765 13.84 14.765C14.0667 14.765 14.18 14.6383 14.18 14.385C14.18 13.785 14.0867 13.145 13.9 12.465C13.7 11.7717 13.4467 11.0717 13.14 10.365C12.82 9.65833 12.4933 8.97833 12.16 8.325C11.8133 7.67167 11.4867 7.07833 11.18 6.545C10.86 5.99833 10.6067 5.55167 10.42 5.205C10.22 4.845 10.12 4.61167 10.12 4.505C10.12 4.21167 10.2067 3.99833 10.38 3.865C10.5533 3.73167 10.74 3.665 10.94 3.665C11.0333 3.665 11.24 3.845 11.56 4.205C11.88 4.55167 12.26 5.03167 12.7 5.645C13.1267 6.245 13.5733 6.925 14.04 7.685C14.4933 8.43167 14.9267 9.21167 15.34 10.025C15.74 10.825 16.06 11.605 16.3 12.365C16.5533 13.1117 16.68 13.7917 16.68 14.405ZM10.78 14.325C10.46 13.7783 10.1267 13.2383 9.78 12.705C9.42 12.1583 9.02 11.705 8.58 11.345C8.12667 10.985 7.6 10.805 7 10.805C6.82667 10.805 6.71333 10.8517 6.66 10.945C6.59333 11.0383 6.56 11.1717 6.56 11.345C6.56 11.8117 6.76667 12.2383 7.18 12.625C7.59333 12.9983 8.12667 13.3317 8.78 13.625C9.42 13.905 10.0867 14.1383 10.78 14.325ZM16.52 2.23016C16.52 2.64349 16.3933 3.03016 16.14 3.39016C15.8867 3.75016 15.4733 3.93016 14.9 3.93016C14.46 3.93016 14.1067 3.81682 13.84 3.59016C13.56 3.36349 13.3533 3.10349 13.22 2.81016C13.0867 2.50349 13.02 2.24349 13.02 2.03016C13.02 1.80349 13.0733 1.55016 13.18 1.27016C13.2733 0.976823 13.4533 0.723489 13.72 0.510156C13.9733 0.296823 14.34 0.190156 14.82 0.190156C15.2867 0.190156 15.6867 0.390156 16.02 0.790156C16.3533 1.17682 16.52 1.65682 16.52 2.23016Z" fill="#6F15C4"/>
</svg>
