<svg width="143" height="126" viewBox="0 0 143 126" fill="none" xmlns="http://www.w3.org/2000/svg">
<path d="M5.2 41.12C3.97333 41.12 3.09333 40.7733 2.56 40.08C2.02667 39.3867 1.76 38.3733 1.76 37.04C1.76 35.8133 1.98667 34.2133 2.44 32.24C2.92 30.24 3.54667 28.0133 4.32 25.56C5.12 23.08 6.01333 20.5333 7 17.92C7.98667 15.28 9.01333 12.6933 10.08 10.16C11.1467 7.6 12.1867 5.25333 13.2 3.12C13.68 2.18666 14.1867 1.54666 14.72 1.2C15.2533 0.853332 15.84 0.679999 16.48 0.679999C17.0933 0.679999 17.6133 0.853332 18.04 1.2C18.4667 1.52 18.68 2.04 18.68 2.76C18.68 2.92 18.4667 3.53333 18.04 4.6C17.6133 5.64 17.0533 7 16.36 8.68C15.6667 10.3333 14.9067 12.2 14.08 14.28C13.2533 16.3333 12.4267 18.48 11.6 20.72C10.7733 22.9333 10.0267 25.12 9.36 27.28C8.69333 29.44 8.16 31.44 7.76 33.28C8.69333 32.0267 9.69333 30.64 10.76 29.12C11.8533 27.5733 12.96 26.04 14.08 24.52C15.2267 22.9733 16.3467 21.56 17.44 20.28C18.56 19 19.6 17.9733 20.56 17.2C21.52 16.4267 22.36 16.04 23.08 16.04C24.4133 16.04 25.48 16.4133 26.28 17.16C27.1067 17.88 27.52 19.1333 27.52 20.92C27.52 21.7467 27.36 22.7467 27.04 23.92C26.72 25.0667 26.3333 26.28 25.88 27.56C25.4533 28.8133 25.08 30.0267 24.76 31.2C24.44 32.3733 24.28 33.4 24.28 34.28C24.28 34.76 24.5067 35 24.96 35C26.2667 35 27.5867 34.72 28.92 34.16C30.28 33.6 31.5733 32.9067 32.8 32.08C34.0533 31.2267 35.1867 30.3867 36.2 29.56C37.24 28.7067 38.08 28 38.72 27.44C39.1733 27.0133 39.5867 26.7333 39.96 26.6C40.3333 26.44 40.68 26.36 41 26.36C42.0933 26.36 42.64 26.9067 42.64 28C42.64 28.2133 42.6 28.48 42.52 28.8C42.44 29.0933 42.1867 29.4667 41.76 29.92C41.3333 30.3733 40.6933 31.0133 39.84 31.84C38.9867 32.6667 37.9867 33.5467 36.84 34.48C35.72 35.4133 34.4933 36.3067 33.16 37.16C31.8533 37.9867 30.5067 38.6667 29.12 39.2C27.7333 39.7333 26.3867 40 25.08 40C23.1067 40 21.5867 39.44 20.52 38.32C19.4533 37.2267 18.92 35.7333 18.92 33.84C18.92 32.5333 19.1867 30.8933 19.72 28.92C20.2533 26.92 20.8533 24.88 21.52 22.8C20.5867 23.7067 19.6133 24.7867 18.6 26.04C17.5867 27.2667 16.56 28.5733 15.52 29.96C14.48 31.32 13.4533 32.6667 12.44 34C11.4533 35.3067 10.5067 36.5067 9.6 37.6C8.69333 38.6667 7.86667 39.52 7.12 40.16C6.37333 40.8 5.73333 41.12 5.2 41.12ZM40.4631 38.6C39.7165 38.6 39.0498 38.3467 38.4631 37.84C37.9031 37.3333 37.6231 36.5067 37.6231 35.36C37.6231 34.7467 37.7031 33.88 37.8631 32.76C38.0498 31.64 38.2898 30.4267 38.5831 29.12C38.8765 27.7867 39.1965 26.4667 39.5431 25.16C39.9165 23.8533 40.2765 22.6933 40.6231 21.68C40.9698 20.64 41.2765 19.8667 41.5431 19.36C41.8898 18.7467 42.2098 18.3733 42.5031 18.24C42.8231 18.08 43.1298 18 43.4231 18C43.9565 18 44.4498 18.16 44.9031 18.48C45.3831 18.8 45.6231 19.5067 45.6231 20.6C45.6231 21.0267 45.5431 21.72 45.3831 22.68C45.2231 23.6133 45.0231 24.7067 44.7831 25.96C44.5431 27.2133 44.2765 28.5067 43.9831 29.84C43.7165 31.1733 43.4498 32.44 43.1831 33.64C42.9431 34.8133 42.7431 35.8 42.5831 36.6C42.4498 37.2667 42.1698 37.76 41.7431 38.08C41.3431 38.4267 40.9165 38.6 40.4631 38.6ZM45.0631 14.04C44.1831 14.04 43.3698 13.7867 42.6231 13.28C41.8765 12.7467 41.5031 11.9333 41.5031 10.84C41.5031 9.93333 41.7298 9.2 42.1831 8.64C42.6365 8.08 43.1698 7.68 43.7831 7.44C44.4231 7.17333 44.9831 7.04 45.4631 7.04C45.9431 7.04 46.4765 7.14666 47.0631 7.36C47.6498 7.54666 48.1565 7.90666 48.5831 8.44C49.0365 8.94667 49.2631 9.68 49.2631 10.64C49.2631 11.28 49.0365 11.8667 48.5831 12.4C48.1298 12.9067 47.5698 13.3067 46.9031 13.6C46.2631 13.8933 45.6498 14.04 45.0631 14.04ZM47.7034 51.4C45.3034 52.04 44.1034 51.6267 44.1034 50.16C44.1034 49.3867 44.5568 48.7467 45.4634 48.24C46.7968 47.4133 47.8768 46.2 48.7034 44.6C49.5034 43 50.1301 41.1867 50.5834 39.16C51.0634 37.1333 51.4368 35.08 51.7034 33C51.8368 32.1467 52.0901 31.5867 52.4634 31.32C52.8368 31.0267 53.2368 30.88 53.6634 30.88C54.4901 30.88 55.2634 31.2133 55.9834 31.88C56.7034 32.52 57.0634 33.5867 57.0634 35.08C57.0634 37.1067 56.7568 39.04 56.1434 40.88C55.5568 42.72 54.7834 44.3733 53.8234 45.84C52.8901 47.3333 51.8768 48.56 50.7834 49.52C49.6901 50.48 48.6634 51.1067 47.7034 51.4ZM90.8069 38.6C90.0602 38.6 89.3935 38.3467 88.8069 37.84C88.2469 37.3333 87.9669 36.5067 87.9669 35.36C87.9669 34.7467 88.0469 33.88 88.2069 32.76C88.3935 31.64 88.6335 30.4267 88.9269 29.12C89.2202 27.7867 89.5402 26.4667 89.8869 25.16C90.2602 23.8533 90.6202 22.6933 90.9669 21.68C91.3135 20.64 91.6202 19.8667 91.8869 19.36C92.2335 18.7467 92.5535 18.3733 92.8469 18.24C93.1669 18.08 93.4735 18 93.7669 18C94.3002 18 94.7935 18.16 95.2469 18.48C95.7269 18.8 95.9669 19.5067 95.9669 20.6C95.9669 21.0267 95.8869 21.72 95.7269 22.68C95.5669 23.6133 95.3669 24.7067 95.1269 25.96C94.8869 27.2133 94.6202 28.5067 94.3269 29.84C94.0602 31.1733 93.7935 32.44 93.5269 33.64C93.2869 34.8133 93.0869 35.8 92.9269 36.6C92.7935 37.2667 92.5135 37.76 92.0869 38.08C91.6869 38.4267 91.2602 38.6 90.8069 38.6ZM95.4069 14.04C94.5269 14.04 93.7135 13.7867 92.9669 13.28C92.2202 12.7467 91.8469 11.9333 91.8469 10.84C91.8469 9.93333 92.0735 9.2 92.5269 8.64C92.9802 8.08 93.5135 7.68 94.1269 7.44C94.7669 7.17333 95.3269 7.04 95.8069 7.04C96.2869 7.04 96.8202 7.14666 97.4069 7.36C97.9935 7.54666 98.5002 7.90666 98.9269 8.44C99.3802 8.94667 99.6069 9.68 99.6069 10.64C99.6069 11.28 99.3802 11.8667 98.9269 12.4C98.4735 12.9067 97.9135 13.3067 97.2469 13.6C96.6069 13.8933 95.9935 14.04 95.4069 14.04ZM137.201 37.08C137.041 38.52 136.188 39.24 134.641 39.24C133.841 39.24 133.201 39 132.721 38.52C132.268 38.04 132.041 37.3467 132.041 36.44C132.041 34.8933 132.108 33.24 132.241 31.48C132.401 29.6933 132.588 27.8933 132.801 26.08C133.041 24.2667 133.268 22.5333 133.481 20.88C132.521 22.2667 131.508 23.6933 130.441 25.16C129.374 26.6267 128.308 28.0533 127.241 29.44C126.174 30.8267 125.148 32.08 124.161 33.2C123.201 34.2933 122.321 35.1733 121.521 35.84C120.721 36.48 120.054 36.8 119.521 36.8C118.241 36.8 117.134 36.3333 116.201 35.4C115.268 34.44 114.801 33.2267 114.801 31.76C114.801 31.2533 114.854 30.5733 114.961 29.72C115.068 28.84 115.201 27.9067 115.361 26.92C115.521 25.9333 115.654 25 115.761 24.12C115.868 23.24 115.921 22.5467 115.921 22.04C115.921 22.04 115.921 22.0133 115.921 21.96C115.948 21.8267 115.921 21.76 115.841 21.76C115.734 21.76 115.441 22.12 114.961 22.84C114.481 23.5333 113.894 24.44 113.201 25.56C112.508 26.68 111.774 27.8533 111.001 29.08C110.254 30.3067 109.548 31.4533 108.881 32.52C108.241 33.5867 107.708 34.4133 107.281 35C106.694 35.9067 106.148 36.48 105.641 36.72C105.134 36.96 104.548 37.08 103.881 37.08C102.948 37.08 102.214 36.7733 101.681 36.16C101.174 35.52 100.921 34.6267 100.921 33.48C100.921 33 101.001 32.2533 101.161 31.24C101.348 30.2267 101.574 29.1067 101.841 27.88C102.108 26.6267 102.374 25.4133 102.641 24.24C102.934 23.04 103.188 22.0267 103.401 21.2C103.641 20.1067 103.974 19.3467 104.401 18.92C104.854 18.4667 105.428 18.24 106.121 18.24C107.748 18.24 108.561 19.04 108.561 20.64C108.561 20.9333 108.468 21.4133 108.281 22.08C108.094 22.7467 107.868 23.52 107.601 24.4C107.334 25.28 107.054 26.1867 106.761 27.12C106.468 28.0267 106.228 28.88 106.041 29.68C106.681 28.56 107.374 27.36 108.121 26.08C108.868 24.8 109.628 23.5467 110.401 22.32C111.201 21.0933 111.988 19.9733 112.761 18.96C113.561 17.9467 114.348 17.1467 115.121 16.56C115.894 15.9467 116.628 15.64 117.321 15.64C118.014 15.64 118.694 15.8933 119.361 16.4C120.028 16.88 120.574 17.5067 121.001 18.28C121.454 19.0267 121.681 19.8267 121.681 20.68C121.681 21.48 121.574 22.44 121.361 23.56C121.148 24.68 120.908 25.8533 120.641 27.08C120.374 28.3067 120.188 29.5067 120.081 30.68C120.988 29.6667 121.948 28.52 122.961 27.24C123.974 25.9333 125.014 24.5867 126.081 23.2C127.148 21.8133 128.188 20.4667 129.201 19.16C130.241 17.8533 131.201 16.6667 132.081 15.6C132.988 14.5333 133.788 13.6933 134.481 13.08C135.174 12.44 135.708 12.12 136.081 12.12C137.174 12.12 138.028 12.4133 138.641 13C139.281 13.56 139.601 14.5467 139.601 15.96C139.601 16.84 139.534 17.9867 139.401 19.4C139.294 20.8133 139.134 22.3467 138.921 24C138.734 25.6267 138.521 27.28 138.281 28.96C138.068 30.6133 137.868 32.1467 137.681 33.56C137.494 34.9733 137.334 36.1467 137.201 37.08ZM9 80.96C8.30667 80.96 7.69333 80.6267 7.16 79.96C6.65333 79.2933 6.26667 78.2667 6 76.88C5.78667 75.7067 5.6 74.3733 5.44 72.88C5.28 71.3867 5.13333 69.92 5 68.48C4.89333 67.0133 4.81333 65.7333 4.76 64.64C4.70667 63.5467 4.68 62.8 4.68 62.4C4.68 60.96 4.93333 59.7733 5.44 58.84C5.94667 57.88 6.92 57.4 8.36 57.4C8.97333 57.4 9.44 57.6667 9.76 58.2C10.08 58.7067 10.24 59.4133 10.24 60.32C10.24 60.88 10.24 61.5867 10.24 62.44C10.2667 63.2667 10.2933 64.2 10.32 65.24C10.3467 66.3867 10.3733 67.6267 10.4 68.96C10.4533 70.2667 10.48 71.5733 10.48 72.88C11.4133 71.4133 12.4133 69.8533 13.48 68.2C14.5467 66.52 15.5867 64.8933 16.6 63.32C17.64 61.7467 18.5733 60.36 19.4 59.16C20.2267 57.9333 20.8533 57.0667 21.28 56.56C21.6533 56.1067 22.1067 55.72 22.64 55.4C23.1733 55.0533 23.7333 54.88 24.32 54.88C24.96 54.88 25.4933 55.1333 25.92 55.64C26.3467 56.1467 26.56 56.7333 26.56 57.4C26.56 57.9067 26.4533 58.3867 26.24 58.84C26.0533 59.2933 25.8133 59.72 25.52 60.12C24.72 61.24 23.7733 62.5467 22.68 64.04C21.6133 65.5333 20.4933 67.1067 19.32 68.76C18.1467 70.3867 17 71.96 15.88 73.48C14.7867 75 13.8133 76.3467 12.96 77.52C12.2667 78.5067 11.7067 79.2533 11.28 79.76C10.8533 80.24 10.4667 80.56 10.12 80.72C9.8 80.88 9.42667 80.96 9 80.96ZM30.4631 81.6C29.7165 81.6 29.0498 81.3467 28.4631 80.84C27.9031 80.3333 27.6231 79.5067 27.6231 78.36C27.6231 77.7467 27.7031 76.88 27.8631 75.76C28.0498 74.64 28.2898 73.4267 28.5831 72.12C28.8765 70.7867 29.1965 69.4667 29.5431 68.16C29.9165 66.8533 30.2765 65.6933 30.6231 64.68C30.9698 63.64 31.2765 62.8667 31.5431 62.36C31.8898 61.7467 32.2098 61.3733 32.5031 61.24C32.8231 61.08 33.1298 61 33.4231 61C33.9565 61 34.4498 61.16 34.9031 61.48C35.3831 61.8 35.6231 62.5067 35.6231 63.6C35.6231 64.0267 35.5431 64.72 35.3831 65.68C35.2231 66.6133 35.0231 67.7067 34.7831 68.96C34.5431 70.2133 34.2765 71.5067 33.9831 72.84C33.7165 74.1733 33.4498 75.44 33.1831 76.64C32.9431 77.8133 32.7431 78.8 32.5831 79.6C32.4498 80.2667 32.1698 80.76 31.7431 81.08C31.3431 81.4267 30.9165 81.6 30.4631 81.6ZM35.0631 57.04C34.1831 57.04 33.3698 56.7867 32.6231 56.28C31.8765 55.7467 31.5031 54.9333 31.5031 53.84C31.5031 52.9333 31.7298 52.2 32.1831 51.64C32.6365 51.08 33.1698 50.68 33.7831 50.44C34.4231 50.1733 34.9831 50.04 35.4631 50.04C35.9431 50.04 36.4765 50.1467 37.0631 50.36C37.6498 50.5467 38.1565 50.9067 38.5831 51.44C39.0365 51.9467 39.2631 52.68 39.2631 53.64C39.2631 54.28 39.0365 54.8667 38.5831 55.4C38.1298 55.9067 37.5698 56.3067 36.9031 56.6C36.2631 56.8933 35.6498 57.04 35.0631 57.04ZM47.0469 80.96C46.3535 80.96 45.7402 80.6267 45.2069 79.96C44.7002 79.2933 44.3135 78.2667 44.0469 76.88C43.8335 75.7067 43.6469 74.3733 43.4869 72.88C43.3269 71.3867 43.1802 69.92 43.0469 68.48C42.9402 67.0133 42.8602 65.7333 42.8069 64.64C42.7535 63.5467 42.7269 62.8 42.7269 62.4C42.7269 60.96 42.9802 59.7733 43.4869 58.84C43.9935 57.88 44.9669 57.4 46.4069 57.4C47.0202 57.4 47.4869 57.6667 47.8069 58.2C48.1269 58.7067 48.2869 59.4133 48.2869 60.32C48.2869 60.88 48.2869 61.5867 48.2869 62.44C48.3135 63.2667 48.3402 64.2 48.3669 65.24C48.3935 66.3867 48.4202 67.6267 48.4469 68.96C48.5002 70.2667 48.5269 71.5733 48.5269 72.88C49.4602 71.4133 50.4602 69.8533 51.5269 68.2C52.5935 66.52 53.6335 64.8933 54.6469 63.32C55.6869 61.7467 56.6202 60.36 57.4469 59.16C58.2735 57.9333 58.9002 57.0667 59.3269 56.56C59.7002 56.1067 60.1535 55.72 60.6869 55.4C61.2202 55.0533 61.7802 54.88 62.3669 54.88C63.0069 54.88 63.5402 55.1333 63.9669 55.64C64.3935 56.1467 64.6069 56.7333 64.6069 57.4C64.6069 57.9067 64.5002 58.3867 64.2869 58.84C64.1002 59.2933 63.8602 59.72 63.5669 60.12C62.7669 61.24 61.8202 62.5467 60.7269 64.04C59.6602 65.5333 58.5402 67.1067 57.3669 68.76C56.1935 70.3867 55.0469 71.96 53.9269 73.48C52.8335 75 51.8602 76.3467 51.0069 77.52C50.3135 78.5067 49.7535 79.2533 49.3269 79.76C48.9002 80.24 48.5135 80.56 48.1669 80.72C47.8469 80.88 47.4735 80.96 47.0469 80.96ZM70.9634 82.36C69.3101 82.36 67.9768 81.7867 66.9634 80.64C65.9501 79.4667 65.4434 77.5867 65.4434 75C65.4434 73.3467 65.6301 71.6933 66.0034 70.04C66.4034 68.36 66.9501 66.7733 67.6434 65.28C68.3634 63.76 69.1901 62.4133 70.1234 61.24C71.0834 60.0667 72.1368 59.1467 73.2834 58.48C74.4301 57.7867 75.6168 57.44 76.8434 57.44C78.9234 57.44 80.5501 58 81.7234 59.12C82.8968 60.24 83.4834 61.6667 83.4834 63.4C83.4834 64.7333 83.1101 65.9467 82.3634 67.04C81.6434 68.1067 80.6568 69.0667 79.4034 69.92C78.1501 70.7733 76.7501 71.5467 75.2034 72.24C73.6568 72.9333 72.0701 73.56 70.4434 74.12C70.3101 75.08 70.2434 75.9333 70.2434 76.68C70.2434 77.1333 70.4968 77.36 71.0034 77.36C72.2034 77.36 73.4834 77.1733 74.8434 76.8C76.2301 76.4 77.6301 75.8933 79.0434 75.28C80.4568 74.64 81.8168 73.9867 83.1234 73.32C84.4301 72.6267 85.6168 71.9733 86.6834 71.36C87.7768 70.72 88.6701 70.2133 89.3634 69.84C90.0834 69.44 90.5501 69.24 90.7634 69.24C91.3501 69.24 91.7768 69.4133 92.0434 69.76C92.3101 70.1067 92.4434 70.48 92.4434 70.88C92.4434 71.0667 92.0834 71.48 91.3634 72.12C90.6701 72.76 89.7101 73.52 88.4834 74.4C87.2834 75.2533 85.9234 76.1467 84.4034 77.08C82.9101 77.9867 81.3501 78.8533 79.7234 79.68C78.1234 80.48 76.5634 81.12 75.0434 81.6C73.5501 82.1067 72.1901 82.36 70.9634 82.36ZM71.1234 70.56C72.2168 69.92 73.2968 69.2533 74.3634 68.56C75.4568 67.84 76.3634 67.04 77.0834 66.16C77.8034 65.2533 78.1634 64.2 78.1634 63C78.1634 62.6533 78.0701 62.4267 77.8834 62.32C77.6968 62.1867 77.4301 62.12 77.0834 62.12C76.1501 62.12 75.2968 62.5333 74.5234 63.36C73.7768 64.1867 73.1101 65.2533 72.5234 66.56C71.9634 67.84 71.4968 69.1733 71.1234 70.56ZM112.038 83.92C110.224 83.92 108.544 83.5333 106.998 82.76C105.451 82.0133 104.038 81.0267 102.758 79.8C101.478 78.5467 100.331 77.1867 99.3178 75.72C98.3311 74.2267 97.4911 72.76 96.7978 71.32C96.4778 72.7867 96.1845 74.04 95.9178 75.08C95.6778 76.12 95.4778 76.9867 95.3178 77.68C95.1845 78.2133 95.0378 78.7333 94.8778 79.24C94.7445 79.7467 94.5311 80.16 94.2378 80.48C93.9445 80.8 93.5311 80.96 92.9978 80.96C91.8511 80.96 91.1178 80.5733 90.7978 79.8C90.4778 79 90.3178 77.9867 90.3178 76.76C90.3178 75.6667 90.4911 74.2267 90.8378 72.44C91.2111 70.6533 91.7045 68.6533 92.3178 66.44C92.9311 64.2267 93.6378 61.9467 94.4378 59.6C95.2645 57.2267 96.1445 54.92 97.0778 52.68C98.0111 50.4133 98.9445 48.36 99.8778 46.52C100.464 45.4 100.984 44.6933 101.438 44.4C101.891 44.08 102.424 43.92 103.038 43.92C103.651 43.92 104.118 44.08 104.438 44.4C104.758 44.72 104.918 45.1467 104.918 45.68C104.918 46.0267 104.838 46.3733 104.678 46.72C104.518 47.0667 104.344 47.4933 104.158 48C103.544 49.36 102.904 50.9467 102.238 52.76C101.571 54.5467 100.931 56.4 100.318 58.32C99.7045 60.2133 99.1578 62.0133 98.6778 63.72C99.9845 62.9467 101.438 62.2 103.038 61.48C104.638 60.7333 106.251 60.0667 107.878 59.48C109.531 58.8667 111.078 58.3867 112.518 58.04C113.958 57.6933 115.171 57.52 116.158 57.52C116.931 57.52 117.518 57.7467 117.918 58.2C118.318 58.6533 118.518 59.1467 118.518 59.68C118.518 60.08 118.398 60.48 118.158 60.88C117.918 61.28 117.411 61.6267 116.638 61.92C114.078 62.7733 111.531 63.64 108.998 64.52C106.491 65.4 103.704 66.44 100.638 67.64C101.278 68.8933 102.024 70.1867 102.878 71.52C103.731 72.8267 104.651 74.0533 105.638 75.2C106.624 76.32 107.638 77.24 108.678 77.96C109.718 78.6533 110.744 79 111.758 79C113.251 79 114.691 78.7067 116.078 78.12C117.464 77.5067 118.744 76.7733 119.918 75.92C121.091 75.04 122.118 74.1867 122.998 73.36C123.904 72.5333 124.611 71.8933 125.118 71.44C125.411 71.1467 125.691 70.9333 125.958 70.8C126.251 70.6667 126.611 70.6 127.038 70.6C127.544 70.6 127.931 70.76 128.198 71.08C128.491 71.3733 128.624 71.76 128.598 72.24C128.571 72.6933 128.344 73.1467 127.918 73.6C127.571 73.9733 127.024 74.5733 126.278 75.4C125.558 76.2 124.678 77.0933 123.638 78.08C122.624 79.04 121.491 79.9733 120.238 80.88C119.011 81.76 117.704 82.48 116.318 83.04C114.931 83.6267 113.504 83.92 112.038 83.92ZM134.962 82.04C134.135 82.04 133.362 81.7867 132.642 81.28C131.922 80.7733 131.562 79.9467 131.562 78.8C131.562 77.92 131.788 77.2133 132.242 76.68C132.695 76.12 133.215 75.7067 133.802 75.44C134.415 75.1733 134.935 75.04 135.362 75.04C135.815 75.04 136.322 75.1467 136.882 75.36C137.468 75.5467 137.975 75.9067 138.402 76.44C138.828 76.9467 139.042 77.68 139.042 78.64C139.042 79.5733 138.642 80.3733 137.842 81.04C137.068 81.7067 136.108 82.04 134.962 82.04Z" fill="white"/>
<path d="M6.34931 121.24C6.05065 121.24 5.78398 121.139 5.54931 120.936C5.32531 120.733 5.21331 120.403 5.21331 119.944C5.21331 119.699 5.24531 119.352 5.30931 118.904C5.38398 118.456 5.47998 117.971 5.59731 117.448C5.71465 116.915 5.84265 116.387 5.98131 115.864C6.13065 115.341 6.27465 114.877 6.41331 114.472C6.55198 114.056 6.67465 113.747 6.78131 113.544C6.91998 113.299 7.04798 113.149 7.16531 113.096C7.29331 113.032 7.41598 113 7.53331 113C7.74665 113 7.94398 113.064 8.12531 113.192C8.31731 113.32 8.41331 113.603 8.41331 114.04C8.41331 114.211 8.38131 114.488 8.31731 114.872C8.25331 115.245 8.17331 115.683 8.07731 116.184C7.98131 116.685 7.87465 117.203 7.75731 117.736C7.65065 118.269 7.54398 118.776 7.43731 119.256C7.34131 119.725 7.26131 120.12 7.19731 120.44C7.14398 120.707 7.03198 120.904 6.86131 121.032C6.70131 121.171 6.53065 121.24 6.34931 121.24ZM8.18931 111.416C7.83731 111.416 7.51198 111.315 7.21331 111.112C6.91465 110.899 6.76531 110.573 6.76531 110.136C6.76531 109.773 6.85598 109.48 7.03731 109.256C7.21865 109.032 7.43198 108.872 7.67731 108.776C7.93331 108.669 8.15731 108.616 8.34931 108.616C8.54131 108.616 8.75465 108.659 8.98931 108.744C9.22398 108.819 9.42665 108.963 9.59731 109.176C9.77865 109.379 9.86931 109.672 9.86931 110.056C9.86931 110.312 9.77865 110.547 9.59731 110.76C9.41598 110.963 9.19198 111.123 8.92531 111.24C8.66931 111.357 8.42398 111.416 8.18931 111.416ZM33.0788 120.632C33.0148 121.208 32.6735 121.496 32.0548 121.496C31.7348 121.496 31.4788 121.4 31.2868 121.208C31.1055 121.016 31.0148 120.739 31.0148 120.376C31.0148 119.757 31.0415 119.096 31.0948 118.392C31.1588 117.677 31.2335 116.957 31.3188 116.232C31.4148 115.507 31.5055 114.813 31.5908 114.152C31.2068 114.707 30.8015 115.277 30.3748 115.864C29.9481 116.451 29.5215 117.021 29.0948 117.576C28.6681 118.131 28.2575 118.632 27.8628 119.08C27.4788 119.517 27.1268 119.869 26.8068 120.136C26.4868 120.392 26.2201 120.52 26.0068 120.52C25.4948 120.52 25.0521 120.333 24.6788 119.96C24.3055 119.576 24.1188 119.091 24.1188 118.504C24.1188 118.301 24.1401 118.029 24.1828 117.688C24.2255 117.336 24.2788 116.963 24.3428 116.568C24.4068 116.173 24.4601 115.8 24.5028 115.448C24.5455 115.096 24.5668 114.819 24.5668 114.616C24.5668 114.616 24.5668 114.605 24.5668 114.584C24.5775 114.531 24.5668 114.504 24.5348 114.504C24.4921 114.504 24.3748 114.648 24.1828 114.936C23.9908 115.213 23.7561 115.576 23.4788 116.024C23.2015 116.472 22.9081 116.941 22.5988 117.432C22.3001 117.923 22.0175 118.381 21.7508 118.808C21.4948 119.235 21.2815 119.565 21.1108 119.8C20.8761 120.163 20.6575 120.392 20.4548 120.488C20.2521 120.584 20.0175 120.632 19.7508 120.632C19.3775 120.632 19.0841 120.509 18.8708 120.264C18.6681 120.008 18.5668 119.651 18.5668 119.192C18.5668 119 18.5988 118.701 18.6628 118.296C18.7375 117.891 18.8281 117.443 18.9348 116.952C19.0415 116.451 19.1481 115.965 19.2548 115.496C19.3721 115.016 19.4735 114.611 19.5588 114.28C19.6548 113.843 19.7881 113.539 19.9588 113.368C20.1401 113.187 20.3695 113.096 20.6468 113.096C21.2975 113.096 21.6228 113.416 21.6228 114.056C21.6228 114.173 21.5855 114.365 21.5108 114.632C21.4361 114.899 21.3455 115.208 21.2388 115.56C21.1321 115.912 21.0201 116.275 20.9028 116.648C20.7855 117.011 20.6895 117.352 20.6148 117.672C20.8708 117.224 21.1481 116.744 21.4468 116.232C21.7455 115.72 22.0495 115.219 22.3588 114.728C22.6788 114.237 22.9935 113.789 23.3028 113.384C23.6228 112.979 23.9375 112.659 24.2468 112.424C24.5561 112.179 24.8495 112.056 25.1268 112.056C25.4041 112.056 25.6761 112.157 25.9428 112.36C26.2095 112.552 26.4281 112.803 26.5988 113.112C26.7801 113.411 26.8708 113.731 26.8708 114.072C26.8708 114.392 26.8281 114.776 26.7428 115.224C26.6575 115.672 26.5615 116.141 26.4548 116.632C26.3481 117.123 26.2735 117.603 26.2308 118.072C26.5935 117.667 26.9775 117.208 27.3828 116.696C27.7881 116.173 28.2041 115.635 28.6308 115.08C29.0575 114.525 29.4735 113.987 29.8788 113.464C30.2948 112.941 30.6788 112.467 31.0308 112.04C31.3935 111.613 31.7135 111.277 31.9908 111.032C32.2681 110.776 32.4815 110.648 32.6308 110.648C33.0681 110.648 33.4095 110.765 33.6548 111C33.9108 111.224 34.0388 111.619 34.0388 112.184C34.0388 112.536 34.0121 112.995 33.9588 113.56C33.9161 114.125 33.8521 114.739 33.7668 115.4C33.6921 116.051 33.6068 116.712 33.5108 117.384C33.4255 118.045 33.3455 118.659 33.2708 119.224C33.1961 119.789 33.1321 120.259 33.0788 120.632ZM37.4119 121.608C37.0706 121.608 36.7613 121.512 36.4839 121.32C36.2066 121.139 35.9879 120.899 35.8279 120.6C35.6679 120.291 35.5879 119.96 35.5879 119.608C35.5879 118.947 35.7319 118.301 36.0199 117.672C36.3186 117.043 36.7079 116.445 37.1879 115.88C37.6679 115.315 38.1906 114.797 38.7559 114.328C39.3319 113.848 39.9026 113.437 40.4679 113.096C41.0439 112.755 41.5666 112.488 42.0359 112.296C42.5159 112.104 42.8893 112.008 43.1559 112.008C43.4653 112.008 43.7159 112.077 43.9079 112.216C44.1106 112.344 44.2119 112.547 44.2119 112.824C44.2119 112.909 44.1906 112.979 44.1479 113.032C44.2866 113.064 44.3986 113.144 44.4839 113.272C44.5693 113.4 44.6119 113.592 44.6119 113.848C44.6119 113.955 44.5853 114.232 44.5319 114.68C44.4786 115.128 44.4199 115.672 44.3559 116.312C44.3026 116.952 44.2759 117.619 44.2759 118.312C44.2759 118.419 44.2919 118.515 44.3239 118.6C44.3559 118.675 44.4253 118.712 44.5319 118.712C44.9586 118.712 45.3906 118.627 45.8279 118.456C46.2759 118.275 46.7079 118.056 47.1239 117.8C47.5506 117.533 47.9346 117.272 48.2759 117.016C48.6279 116.749 48.9213 116.531 49.1559 116.36C49.4013 116.179 49.5613 116.088 49.6359 116.088C49.9986 116.088 50.1799 116.269 50.1799 116.632C50.1799 116.728 50.0626 116.931 49.8279 117.24C49.6039 117.539 49.2946 117.885 48.8999 118.28C48.5053 118.664 48.0626 119.048 47.5719 119.432C47.0919 119.805 46.5906 120.115 46.0679 120.36C45.5559 120.605 45.0599 120.728 44.5799 120.728C43.9933 120.728 43.5453 120.589 43.2359 120.312C42.9373 120.035 42.7239 119.661 42.5959 119.192C42.4786 118.712 42.4146 118.173 42.4039 117.576C41.8599 118.355 41.2946 119.048 40.7079 119.656C40.1319 120.253 39.5613 120.728 38.9959 121.08C38.4306 121.432 37.9026 121.608 37.4119 121.608ZM43.0759 113.592C42.0306 114.093 41.0919 114.669 40.2599 115.32C39.4279 115.96 38.7666 116.632 38.2759 117.336C37.7959 118.04 37.5559 118.717 37.5559 119.368C37.5559 119.549 37.6413 119.64 37.8119 119.64C38.0146 119.64 38.2813 119.523 38.6119 119.288C38.9533 119.053 39.3213 118.744 39.7159 118.36C40.1106 117.965 40.5053 117.528 40.8999 117.048C41.2946 116.557 41.6626 116.056 42.0039 115.544C42.3453 115.032 42.6173 114.541 42.8199 114.072C42.8946 113.901 42.9799 113.741 43.0759 113.592ZM57.4479 122.168C56.7226 122.168 56.0506 122.013 55.4319 121.704C54.8133 121.405 54.2479 121.011 53.7359 120.52C53.2239 120.019 52.7653 119.475 52.3599 118.888C51.9653 118.291 51.6293 117.704 51.3519 117.128C51.2239 117.715 51.1066 118.216 50.9999 118.632C50.9039 119.048 50.8239 119.395 50.7599 119.672C50.7066 119.885 50.6479 120.093 50.5839 120.296C50.5306 120.499 50.4453 120.664 50.3279 120.792C50.2106 120.92 50.0453 120.984 49.8319 120.984C49.3733 120.984 49.0799 120.829 48.9519 120.52C48.8239 120.2 48.7599 119.795 48.7599 119.304C48.7599 118.867 48.8293 118.291 48.9679 117.576C49.1173 116.861 49.3146 116.061 49.5599 115.176C49.8053 114.291 50.0879 113.379 50.4079 112.44C50.7386 111.491 51.0906 110.568 51.4639 109.672C51.8373 108.765 52.2106 107.944 52.5839 107.208C52.8186 106.76 53.0266 106.477 53.2079 106.36C53.3893 106.232 53.6026 106.168 53.8479 106.168C54.0933 106.168 54.2799 106.232 54.4079 106.36C54.5359 106.488 54.5999 106.659 54.5999 106.872C54.5999 107.011 54.5679 107.149 54.5039 107.288C54.4399 107.427 54.3706 107.597 54.2959 107.8C54.0506 108.344 53.7946 108.979 53.5279 109.704C53.2613 110.419 53.0053 111.16 52.7599 111.928C52.5146 112.685 52.2959 113.405 52.1039 114.088C52.6266 113.779 53.2079 113.48 53.8479 113.192C54.4879 112.893 55.1333 112.627 55.7839 112.392C56.4453 112.147 57.0639 111.955 57.6399 111.816C58.2159 111.677 58.7013 111.608 59.0959 111.608C59.4053 111.608 59.6399 111.699 59.7999 111.88C59.9599 112.061 60.0399 112.259 60.0399 112.472C60.0399 112.632 59.9919 112.792 59.8959 112.952C59.7999 113.112 59.5973 113.251 59.2879 113.368C58.2639 113.709 57.2453 114.056 56.2319 114.408C55.2293 114.76 54.1146 115.176 52.8879 115.656C53.1439 116.157 53.4426 116.675 53.7839 117.208C54.1253 117.731 54.4933 118.221 54.8879 118.68C55.2826 119.128 55.6879 119.496 56.1039 119.784C56.5199 120.061 56.9306 120.2 57.3359 120.2C57.9333 120.2 58.5093 120.083 59.0639 119.848C59.6186 119.603 60.1306 119.309 60.5999 118.968C61.0693 118.616 61.4799 118.275 61.8319 117.944C62.1946 117.613 62.4773 117.357 62.6799 117.176C62.7973 117.059 62.9093 116.973 63.0159 116.92C63.1333 116.867 63.2773 116.84 63.4479 116.84C63.6506 116.84 63.8053 116.904 63.9119 117.032C64.0293 117.149 64.0826 117.304 64.0719 117.496C64.0613 117.677 63.9706 117.859 63.7999 118.04C63.6613 118.189 63.4426 118.429 63.1439 118.76C62.8559 119.08 62.5039 119.437 62.0879 119.832C61.6826 120.216 61.2293 120.589 60.7279 120.952C60.2373 121.304 59.7146 121.592 59.1599 121.816C58.6053 122.051 58.0346 122.168 57.4479 122.168ZM64.9713 121.544C64.31 121.544 63.7766 121.315 63.3713 120.856C62.966 120.387 62.7633 119.635 62.7633 118.6C62.7633 117.939 62.838 117.277 62.9873 116.616C63.1473 115.944 63.366 115.309 63.6433 114.712C63.9313 114.104 64.262 113.565 64.6353 113.096C65.0193 112.627 65.4406 112.259 65.8993 111.992C66.358 111.715 66.8326 111.576 67.3233 111.576C68.1553 111.576 68.806 111.8 69.2753 112.248C69.7446 112.696 69.9793 113.267 69.9793 113.96C69.9793 114.493 69.83 114.979 69.5313 115.416C69.2433 115.843 68.8486 116.227 68.3473 116.568C67.846 116.909 67.286 117.219 66.6673 117.496C66.0486 117.773 65.414 118.024 64.7633 118.248C64.71 118.632 64.6833 118.973 64.6833 119.272C64.6833 119.453 64.7846 119.544 64.9873 119.544C65.4673 119.544 65.9793 119.469 66.5233 119.32C67.078 119.16 67.638 118.957 68.2033 118.712C68.7686 118.456 69.3126 118.195 69.8353 117.928C70.358 117.651 70.8326 117.389 71.2593 117.144C71.6966 116.888 72.054 116.685 72.3313 116.536C72.6193 116.376 72.806 116.296 72.8913 116.296C73.126 116.296 73.2966 116.365 73.4033 116.504C73.51 116.643 73.5633 116.792 73.5633 116.952C73.5633 117.027 73.4193 117.192 73.1313 117.448C72.854 117.704 72.47 118.008 71.9793 118.36C71.4993 118.701 70.9553 119.059 70.3473 119.432C69.75 119.795 69.126 120.141 68.4753 120.472C67.8353 120.792 67.2113 121.048 66.6033 121.24C66.006 121.443 65.462 121.544 64.9713 121.544ZM65.0353 116.824C65.4726 116.568 65.9046 116.301 66.3313 116.024C66.7686 115.736 67.1313 115.416 67.4193 115.064C67.7073 114.701 67.8513 114.28 67.8513 113.8C67.8513 113.661 67.814 113.571 67.7393 113.528C67.6646 113.475 67.558 113.448 67.4193 113.448C67.046 113.448 66.7046 113.613 66.3953 113.944C66.0966 114.275 65.83 114.701 65.5953 115.224C65.3713 115.736 65.1846 116.269 65.0353 116.824ZM82.0922 120.984C81.8149 120.984 81.5695 120.851 81.3562 120.584C81.1535 120.317 80.9989 119.907 80.8922 119.352C80.8069 118.883 80.7322 118.349 80.6682 117.752C80.6042 117.155 80.5455 116.568 80.4922 115.992C80.4495 115.405 80.4175 114.893 80.3962 114.456C80.3749 114.019 80.3642 113.72 80.3642 113.56C80.3642 112.984 80.4655 112.509 80.6682 112.136C80.8709 111.752 81.2602 111.56 81.8362 111.56C82.0815 111.56 82.2682 111.667 82.3962 111.88C82.5242 112.083 82.5882 112.365 82.5882 112.728C82.5882 112.952 82.5882 113.235 82.5882 113.576C82.5989 113.907 82.6095 114.28 82.6202 114.696C82.6309 115.155 82.6415 115.651 82.6522 116.184C82.6735 116.707 82.6842 117.229 82.6842 117.752C83.0575 117.165 83.4575 116.541 83.8842 115.88C84.3109 115.208 84.7269 114.557 85.1322 113.928C85.5482 113.299 85.9215 112.744 86.2522 112.264C86.5829 111.773 86.8335 111.427 87.0042 111.224C87.1535 111.043 87.3349 110.888 87.5482 110.76C87.7615 110.621 87.9855 110.552 88.2202 110.552C88.4762 110.552 88.6895 110.653 88.8602 110.856C89.0309 111.059 89.1162 111.293 89.1162 111.56C89.1162 111.763 89.0735 111.955 88.9882 112.136C88.9135 112.317 88.8175 112.488 88.7002 112.648C88.3802 113.096 88.0015 113.619 87.5642 114.216C87.1375 114.813 86.6895 115.443 86.2202 116.104C85.7509 116.755 85.2922 117.384 84.8442 117.992C84.4069 118.6 84.0175 119.139 83.6762 119.608C83.3989 120.003 83.1749 120.301 83.0042 120.504C82.8335 120.696 82.6789 120.824 82.5402 120.888C82.4122 120.952 82.2629 120.984 82.0922 120.984ZM90.6774 121.24C90.3788 121.24 90.1121 121.139 89.8774 120.936C89.6534 120.733 89.5414 120.403 89.5414 119.944C89.5414 119.699 89.5734 119.352 89.6374 118.904C89.7121 118.456 89.8081 117.971 89.9254 117.448C90.0428 116.915 90.1708 116.387 90.3094 115.864C90.4588 115.341 90.6028 114.877 90.7414 114.472C90.8801 114.056 91.0028 113.747 91.1094 113.544C91.2481 113.299 91.3761 113.149 91.4934 113.096C91.6214 113.032 91.7441 113 91.8614 113C92.0748 113 92.2721 113.064 92.4534 113.192C92.6454 113.32 92.7414 113.603 92.7414 114.04C92.7414 114.211 92.7094 114.488 92.6454 114.872C92.5814 115.245 92.5014 115.683 92.4054 116.184C92.3094 116.685 92.2028 117.203 92.0854 117.736C91.9788 118.269 91.8721 118.776 91.7654 119.256C91.6694 119.725 91.5894 120.12 91.5254 120.44C91.4721 120.707 91.3601 120.904 91.1894 121.032C91.0294 121.171 90.8588 121.24 90.6774 121.24ZM92.5174 111.416C92.1654 111.416 91.8401 111.315 91.5414 111.112C91.2428 110.899 91.0934 110.573 91.0934 110.136C91.0934 109.773 91.1841 109.48 91.3654 109.256C91.5468 109.032 91.7601 108.872 92.0054 108.776C92.2614 108.669 92.4854 108.616 92.6774 108.616C92.8694 108.616 93.0828 108.659 93.3174 108.744C93.5521 108.819 93.7548 108.963 93.9254 109.176C94.1068 109.379 94.1974 109.672 94.1974 110.056C94.1974 110.312 94.1068 110.547 93.9254 110.76C93.7441 110.963 93.5201 111.123 93.2534 111.24C92.9974 111.357 92.7521 111.416 92.5174 111.416ZM101.713 112.44C102.3 111.043 102.817 109.603 103.265 108.12C103.351 107.821 103.473 107.592 103.633 107.432C103.804 107.272 104.039 107.192 104.337 107.192C104.583 107.192 104.769 107.267 104.897 107.416C105.025 107.555 105.089 107.747 105.089 107.992C105.089 108.195 105.004 108.557 104.833 109.08C104.663 109.592 104.455 110.243 104.209 111.032C103.964 111.821 103.719 112.733 103.473 113.768C103.228 114.803 103.02 115.939 102.849 117.176C102.679 118.413 102.593 119.736 102.593 121.144C102.593 121.528 102.519 121.843 102.369 122.088C102.231 122.344 101.985 122.472 101.633 122.472C101.249 122.472 100.967 122.339 100.785 122.072C100.615 121.805 100.529 121.464 100.529 121.048C100.529 120.227 100.556 119.544 100.609 119C100.673 118.445 100.737 117.971 100.801 117.576C100.279 118.472 99.7239 119.245 99.1372 119.896C98.5612 120.536 98.0065 121.027 97.4732 121.368C96.9399 121.72 96.4812 121.896 96.0972 121.896C95.4679 121.896 94.9559 121.72 94.5612 121.368C94.1665 121.016 93.9692 120.483 93.9692 119.768C93.9692 119.213 94.1025 118.643 94.3692 118.056C94.6359 117.459 94.9879 116.872 95.4252 116.296C95.8625 115.72 96.3425 115.181 96.8652 114.68C97.3985 114.168 97.9319 113.72 98.4652 113.336C98.9985 112.941 99.4945 112.632 99.9532 112.408C100.412 112.184 100.785 112.072 101.073 112.072C101.393 112.072 101.607 112.195 101.713 112.44ZM101.345 113.304C101.281 113.347 101.212 113.389 101.137 113.432C101.073 113.464 101.009 113.501 100.945 113.544C100.54 113.8 100.108 114.109 99.6492 114.472C99.1905 114.824 98.7372 115.219 98.2892 115.656C97.8412 116.083 97.4305 116.531 97.0572 117C96.6945 117.459 96.4012 117.917 96.1772 118.376C95.9639 118.824 95.8572 119.256 95.8572 119.672C95.8572 119.747 95.8892 119.8 95.9532 119.832C96.0172 119.864 96.0759 119.88 96.1292 119.88C96.5025 119.88 96.9025 119.715 97.3292 119.384C97.7665 119.053 98.2092 118.595 98.6572 118.008C99.1159 117.411 99.5692 116.712 100.017 115.912C100.476 115.112 100.919 114.243 101.345 113.304ZM108.128 121.544C107.466 121.544 106.933 121.315 106.528 120.856C106.122 120.387 105.92 119.635 105.92 118.6C105.92 117.939 105.994 117.277 106.144 116.616C106.304 115.944 106.522 115.309 106.8 114.712C107.088 114.104 107.418 113.565 107.792 113.096C108.176 112.627 108.597 112.259 109.056 111.992C109.514 111.715 109.989 111.576 110.48 111.576C111.312 111.576 111.962 111.8 112.432 112.248C112.901 112.696 113.136 113.267 113.136 113.96C113.136 114.493 112.986 114.979 112.688 115.416C112.4 115.843 112.005 116.227 111.504 116.568C111.002 116.909 110.442 117.219 109.824 117.496C109.205 117.773 108.57 118.024 107.92 118.248C107.866 118.632 107.84 118.973 107.84 119.272C107.84 119.453 107.941 119.544 108.144 119.544C108.624 119.544 109.136 119.469 109.68 119.32C110.234 119.16 110.794 118.957 111.36 118.712C111.925 118.456 112.469 118.195 112.992 117.928C113.514 117.651 113.989 117.389 114.416 117.144C114.853 116.888 115.21 116.685 115.488 116.536C115.776 116.376 115.962 116.296 116.048 116.296C116.282 116.296 116.453 116.365 116.56 116.504C116.666 116.643 116.72 116.792 116.72 116.952C116.72 117.027 116.576 117.192 116.288 117.448C116.01 117.704 115.626 118.008 115.136 118.36C114.656 118.701 114.112 119.059 113.504 119.432C112.906 119.795 112.282 120.141 111.632 120.472C110.992 120.792 110.368 121.048 109.76 121.24C109.162 121.443 108.618 121.544 108.128 121.544ZM108.192 116.824C108.629 116.568 109.061 116.301 109.488 116.024C109.925 115.736 110.288 115.416 110.576 115.064C110.864 114.701 111.008 114.28 111.008 113.8C111.008 113.661 110.97 113.571 110.896 113.528C110.821 113.475 110.714 113.448 110.576 113.448C110.202 113.448 109.861 113.613 109.552 113.944C109.253 114.275 108.986 114.701 108.752 115.224C108.528 115.736 108.341 116.269 108.192 116.824ZM118.278 121.528C117.52 121.528 116.912 121.261 116.454 120.728C115.995 120.184 115.766 119.459 115.766 118.552C115.766 118.264 115.803 117.971 115.878 117.672C115.963 117.373 116.064 117.096 116.182 116.84C116.118 116.744 116.064 116.621 116.022 116.472C115.99 116.312 115.974 116.125 115.974 115.912C115.974 115.219 116.096 114.584 116.342 114.008C116.587 113.421 116.918 112.915 117.334 112.488C117.75 112.061 118.208 111.731 118.71 111.496C119.211 111.261 119.718 111.144 120.23 111.144C121.104 111.144 121.819 111.437 122.374 112.024C122.939 112.611 123.222 113.523 123.222 114.76C123.222 115.379 123.126 116.008 122.934 116.648C122.742 117.288 122.48 117.901 122.15 118.488C121.83 119.064 121.456 119.581 121.03 120.04C120.614 120.499 120.166 120.861 119.686 121.128C119.216 121.395 118.747 121.528 118.278 121.528ZM118.022 116.12C118.075 116.237 118.102 116.376 118.102 116.536C118.102 116.696 118.07 116.861 118.006 117.032C117.942 117.203 117.878 117.432 117.814 117.72C117.75 117.997 117.718 118.397 117.718 118.92C117.718 119.059 117.734 119.176 117.766 119.272C117.808 119.357 117.899 119.4 118.038 119.4C118.4 119.4 118.742 119.283 119.062 119.048C119.392 118.813 119.686 118.504 119.942 118.12C120.208 117.736 120.432 117.309 120.614 116.84C120.806 116.36 120.95 115.875 121.046 115.384C121.152 114.883 121.206 114.419 121.206 113.992C121.206 113.715 121.152 113.523 121.046 113.416C120.939 113.309 120.752 113.256 120.486 113.256C120.123 113.256 119.75 113.373 119.366 113.608C118.992 113.832 118.678 114.141 118.422 114.536C118.166 114.92 118.038 115.357 118.038 115.848C118.038 115.944 118.032 116.035 118.022 116.12ZM126.94 121.816C126.482 121.816 126.156 121.752 125.964 121.624C125.783 121.496 125.692 121.309 125.692 121.064C125.692 120.851 125.767 120.669 125.916 120.52C126.066 120.36 126.396 120.2 126.908 120.04C127.506 119.859 128.071 119.651 128.604 119.416C129.148 119.171 129.591 118.904 129.932 118.616C130.284 118.328 130.46 118.024 130.46 117.704C130.46 117.491 130.386 117.336 130.236 117.24C130.098 117.144 129.932 117.096 129.74 117.096C129.58 117.096 129.346 117.123 129.036 117.176C128.738 117.219 128.407 117.277 128.044 117.352C127.682 117.416 127.33 117.475 126.988 117.528C126.658 117.571 126.375 117.592 126.14 117.592C125.586 117.592 125.175 117.469 124.908 117.224C124.642 116.968 124.508 116.643 124.508 116.248C124.508 116.035 124.62 115.741 124.844 115.368C125.068 114.995 125.367 114.584 125.74 114.136C126.114 113.688 126.53 113.24 126.988 112.792C127.447 112.344 127.911 111.933 128.38 111.56C128.86 111.176 129.314 110.872 129.74 110.648C130.167 110.413 130.53 110.296 130.828 110.296C131.17 110.296 131.442 110.403 131.644 110.616C131.858 110.829 131.964 111.117 131.964 111.48C131.964 111.651 131.948 111.837 131.916 112.04C131.884 112.232 131.804 112.408 131.676 112.568C131.548 112.717 131.351 112.824 131.084 112.888C130.818 112.952 130.455 112.941 129.996 112.856C129.634 113.123 129.255 113.416 128.86 113.736C128.476 114.045 128.114 114.371 127.772 114.712C127.431 115.043 127.148 115.368 126.924 115.688C127.319 115.56 127.767 115.459 128.268 115.384C128.77 115.299 129.276 115.256 129.788 115.256C130.407 115.256 130.908 115.368 131.292 115.592C131.687 115.805 131.975 116.093 132.156 116.456C132.348 116.819 132.444 117.219 132.444 117.656C132.444 118.147 132.284 118.637 131.964 119.128C131.644 119.619 131.218 120.067 130.684 120.472C130.151 120.877 129.559 121.203 128.908 121.448C128.258 121.693 127.602 121.816 126.94 121.816ZM135.477 121.416C135.146 121.416 134.837 121.315 134.549 121.112C134.261 120.909 134.117 120.579 134.117 120.12C134.117 119.768 134.207 119.485 134.389 119.272C134.57 119.048 134.778 118.883 135.013 118.776C135.258 118.669 135.466 118.616 135.637 118.616C135.818 118.616 136.021 118.659 136.245 118.744C136.479 118.819 136.682 118.963 136.853 119.176C137.023 119.379 137.109 119.672 137.109 120.056C137.109 120.429 136.949 120.749 136.629 121.016C136.319 121.283 135.935 121.416 135.477 121.416Z" fill="white" fill-opacity="0.3"/>
</svg>
