<svg width="1633" height="3609" viewBox="0 0 1633 3609" fill="none" xmlns="http://www.w3.org/2000/svg">
<path d="M1178.68 1.28898C1170.73 -1.02686 1162.41 3.54376 1160.09 11.4978L1122.35 141.116C1120.03 149.07 1124.61 157.395 1132.56 159.711C1140.51 162.027 1148.84 157.456 1151.15 149.502L1184.7 34.2861L1299.92 67.8318C1307.87 70.1477 1316.2 65.577 1318.51 57.623C1320.83 49.669 1316.26 41.3437 1308.3 39.0278L1178.68 1.28898ZM1151.53 2471.45C1503.73 2002.87 1642.98 1622 1628.07 1239.49C1613.18 857.792 1444.79 476.876 1187.64 8.47227L1161.34 22.9097C1418.39 491.123 1583.51 866.611 1598.09 1240.65C1612.64 1613.87 1477.32 1988.08 1127.55 2453.43L1151.53 2471.45Z" fill="white"/>
<path d="M20.4856 1382.43C34.775 1385.44 41.9196 1391.83 41.9196 1401.61C38.1593 1412.14 32.1427 1417.4 23.8699 1417.4C9.95665 1414.77 3 1407.81 3 1396.53C6.76035 1387.13 12.5889 1382.43 20.4856 1382.43ZM41.9196 1461.4C47.9362 1461.4 53.0126 1466.85 57.149 1477.75L52.0726 1517.8V1544.31C52.0726 1575.15 57.3371 1615.57 67.866 1665.58C64.1057 1672.73 57.7131 1676.3 48.6882 1676.3C33.2708 1676.3 23.1179 1631.18 18.2294 1540.93V1521.19C18.2294 1481.33 26.1262 1461.4 41.9196 1461.4ZM336.024 1388.07C345.049 1388.07 350.878 1402.17 353.51 1430.37L355.766 1460.83C355.766 1483.77 351.63 1543.56 343.357 1640.2H346.741V1641.89L348.998 1640.2H353.51L419.504 1645.28H424.017L452.219 1636.82H456.168C462.184 1640.58 466.321 1645.84 468.577 1652.61C468.577 1666.9 452.595 1675.74 420.632 1679.12L363.099 1673.48H352.382L325.307 1680.81C315.155 1677.05 310.078 1671.04 310.078 1662.76L321.923 1469.29V1460.83L318.539 1404.43C318.539 1395.03 324.367 1389.57 336.024 1388.07ZM559.068 1371.15L573.169 1368.89H578.809C586.33 1368.89 594.603 1373.59 603.628 1382.99C620.173 1382.99 643.675 1403.68 674.134 1445.04C700.081 1493.92 713.054 1537.36 713.054 1575.34C713.054 1627.23 694.252 1661.82 656.649 1679.12L621.113 1686.45C564.708 1686.45 524.096 1644.15 499.278 1559.54C493.637 1537.36 490.817 1515.73 490.817 1494.68V1489.04C490.817 1425.49 513.567 1386.19 559.068 1371.15ZM553.991 1425.3L541.582 1420.22C529.925 1434.13 524.096 1454.25 524.096 1480.57V1495.8C524.096 1565.37 547.599 1615.95 594.603 1647.53L610.396 1650.92H631.83C651.384 1650.92 665.485 1638.7 674.134 1614.26L677.519 1589.44V1571.95C677.519 1515.55 655.145 1464.97 610.396 1420.22L587.27 1413.45H586.142C578.621 1413.45 567.904 1417.4 553.991 1425.3ZM807.493 1371.15L821.594 1368.89H827.235C834.756 1368.89 843.028 1373.59 852.053 1382.99C868.599 1382.99 892.101 1403.68 922.56 1445.04C948.506 1493.92 961.479 1537.36 961.479 1575.34C961.479 1627.23 942.678 1661.82 905.074 1679.12L869.539 1686.45C813.134 1686.45 772.522 1644.15 747.703 1559.54C742.063 1537.36 739.243 1515.73 739.243 1494.68V1489.04C739.243 1425.49 761.993 1386.19 807.493 1371.15ZM802.417 1425.3L790.007 1420.22C778.35 1434.13 772.522 1454.25 772.522 1480.57V1495.8C772.522 1565.37 796.024 1615.95 843.028 1647.53L858.822 1650.92H880.256C899.81 1650.92 913.911 1638.7 922.56 1614.26L925.944 1589.44V1571.95C925.944 1515.55 903.57 1464.97 858.822 1420.22L835.696 1413.45H834.568C827.047 1413.45 816.33 1417.4 802.417 1425.3ZM1046.33 1311.36C1053.1 1311.36 1058.36 1316.06 1062.12 1325.46C1045.95 1368.33 1037.87 1424.17 1037.87 1492.98V1554.47H1039C1060.05 1533.41 1092.58 1468.35 1136.58 1359.3C1147.86 1345.01 1156.51 1337.87 1162.52 1337.87H1164.78C1171.17 1337.87 1176.25 1341.44 1180.01 1348.59V1359.3C1169.48 1365.7 1143.72 1418.9 1102.73 1518.93L1056.48 1588.31V1589.44C1098.97 1633.43 1143.16 1655.43 1189.03 1655.43H1210.47C1224.38 1655.43 1233.78 1654.11 1238.67 1651.48C1248.82 1655.62 1253.9 1661.64 1253.9 1669.53V1674.04C1253.9 1683.45 1237.54 1688.15 1204.83 1688.15H1196.37C1142.59 1688.15 1091.27 1665.96 1042.38 1621.59H1039V1687.02C1039 1699.8 1033.17 1706.2 1021.51 1706.2C1010.98 1706.2 1005.72 1699.8 1005.72 1687.02V1619.9C991.804 1609.37 984.848 1598.09 984.848 1586.05C984.848 1575.9 991.24 1570.82 1004.03 1570.82V1490.73C1004.03 1417.78 1013.43 1359.87 1032.23 1317C1037.12 1313.24 1041.82 1311.36 1046.33 1311.36ZM40.2275 2233.07C49.2523 2233.07 55.0808 2247.17 57.7131 2275.37L59.9693 2305.83C59.9693 2328.77 55.8329 2388.56 47.5601 2485.2H50.9445V2486.89L53.2007 2485.2H57.7131L123.707 2490.28H128.22L156.422 2481.82H160.371C166.387 2485.58 170.524 2490.84 172.78 2497.61C172.78 2511.9 156.798 2520.74 124.835 2524.12L67.302 2518.48H56.585L29.5105 2525.81C19.3575 2522.05 14.281 2516.04 14.281 2507.76L26.1262 2314.29V2305.83L22.7418 2249.43C22.7418 2240.03 28.5704 2234.57 40.2275 2233.07ZM218.146 2208.82C227.171 2208.82 233 2213.52 235.632 2222.92L232.248 2256.2V2266.91C241.649 2344.75 247.477 2405.29 249.733 2448.54C253.87 2488.77 258.194 2508.89 262.706 2508.89C262.706 2516.79 256.126 2521.86 242.965 2524.12C224.163 2524.12 214.762 2486.14 214.762 2410.18L198.969 2263.53V2258.45C198.969 2225.36 205.361 2208.82 218.146 2208.82ZM353.382 2156.36C360.151 2156.36 365.415 2161.06 369.176 2170.46C353.006 2213.33 344.922 2269.17 344.922 2337.98V2399.47H346.05C367.108 2378.41 399.635 2313.35 443.631 2204.3C454.912 2190.01 463.561 2182.87 469.577 2182.87H471.833C478.226 2182.87 483.302 2186.44 487.063 2193.59V2204.3C476.534 2210.7 450.775 2263.9 409.788 2363.93L363.535 2433.31V2434.44C406.027 2478.43 450.211 2500.43 496.088 2500.43H517.522C531.435 2500.43 540.836 2499.11 545.724 2496.48C555.877 2500.62 560.954 2506.64 560.954 2514.53V2519.04C560.954 2528.45 544.596 2533.15 511.881 2533.15H503.42C449.647 2533.15 398.319 2510.96 349.434 2466.59H346.05V2532.02C346.05 2544.8 340.221 2551.2 328.564 2551.2C318.035 2551.2 312.771 2544.8 312.771 2532.02V2464.9C298.857 2454.37 291.901 2443.09 291.901 2431.05C291.901 2420.9 298.293 2415.82 311.078 2415.82V2335.73C311.078 2262.78 320.479 2204.87 339.281 2162C344.169 2158.24 348.87 2156.36 353.382 2156.36ZM759.654 2195.84C766.423 2195.84 771.123 2201.67 773.756 2213.33C773.756 2220.1 761.911 2229.5 738.22 2241.53C708.89 2267.1 687.08 2311.1 672.79 2373.52V2383.67C705.505 2367.5 729.007 2357.73 743.297 2354.34C747.809 2354.34 753.262 2358.29 759.654 2366.19V2376.9C759.654 2381.04 743.109 2389.31 710.018 2401.72C685.199 2415.26 672.79 2422.97 672.79 2424.85V2429.92C672.79 2450.98 686.327 2469.22 713.402 2484.64L732.58 2488.02C744.989 2488.02 763.415 2480.31 787.857 2464.9H794.626C802.522 2468.66 806.471 2474.11 806.471 2481.25V2484.64C783.156 2509.08 757.398 2521.3 729.195 2521.3C688.96 2521.3 659.629 2494.23 641.203 2440.08L605.668 2447.41C588.37 2444.78 579.722 2439.14 579.722 2430.49C579.722 2421.84 584.798 2415.63 594.951 2411.87L607.924 2414.13C627.478 2408.49 637.255 2404.35 637.255 2401.72C637.255 2337.8 661.509 2278.57 710.018 2224.05C734.46 2205.24 751.005 2195.84 759.654 2195.84ZM123.707 3010.38L292.923 2999.67C297.811 2999.67 302.512 3004.37 307.024 3013.77C307.024 3028.06 290.479 3035.2 257.388 3035.2L158.678 3040.84L156.422 3041.97C165.823 3103.26 170.524 3219.65 170.524 3391.12C168.643 3407.66 162.627 3415.94 152.474 3415.94C142.697 3415.94 137.056 3408.42 135.552 3393.38V3262.52C135.552 3175.28 131.604 3102.51 123.707 3044.23C56.397 3050.62 22.7418 3058.14 22.7418 3066.79L17.6654 3069.05C6.00828 3065.66 0.179738 3059.64 0.179738 3051C0.179738 3030.31 41.3556 3016.78 123.707 3010.38ZM298.453 3052.12C311.615 3052.12 318.195 3075.06 318.195 3120.94L321.579 3208.93H322.708L412.956 3173.96C421.981 3097.25 430.254 3058.89 437.774 3058.89L445.107 3057.76C451.5 3057.76 457.328 3062.84 462.593 3072.99C449.431 3137.67 442.851 3193.7 442.851 3241.08V3265.34C442.851 3299.93 451.124 3332.83 467.669 3364.04C463.909 3374.57 457.892 3379.84 449.619 3379.84C431.57 3379.84 418.22 3343.36 409.572 3270.41V3212.88H406.187C349.782 3232.81 321.579 3245.59 321.579 3251.23C321.579 3340.73 313.307 3385.48 296.761 3385.48H294.505C286.608 3385.48 281.532 3378.9 279.276 3365.74C284.916 3324.75 287.736 3292.97 287.736 3270.41L262.918 3283.39L257.842 3284.51C248.441 3281.13 243.74 3275.3 243.74 3267.03C243.74 3258.75 258.406 3245.78 287.736 3228.11V3226.98C286.608 3162.3 284.164 3108.72 280.404 3066.22C280.404 3057.95 286.42 3053.25 298.453 3052.12ZM517.799 3053.82C526.824 3053.82 532.653 3058.52 535.285 3067.92L531.901 3101.2V3111.91C541.301 3189.75 547.13 3250.29 549.386 3293.54C553.523 3333.77 557.847 3353.89 562.359 3353.89C562.359 3361.79 555.779 3366.86 542.618 3369.12C523.816 3369.12 514.415 3331.14 514.415 3255.18L498.621 3108.53V3103.45C498.621 3070.36 505.014 3053.82 517.799 3053.82ZM761.897 3032.38H767.538C778.067 3032.38 784.083 3038.59 785.587 3051C785.587 3061.9 770.734 3067.35 741.027 3067.35C693.271 3085.4 661.12 3111.73 644.574 3146.32L640.626 3162.68V3166.06C640.626 3182.61 651.719 3190.88 673.905 3190.88L735.951 3187.5C777.691 3187.5 805.893 3207.8 820.559 3248.41L823.943 3268.16C823.943 3307.26 792.356 3342.99 729.182 3375.33C710.38 3380.59 693.835 3384.16 679.546 3386.04C641.19 3386.04 614.116 3364.42 598.322 3321.18C593.81 3306.51 591.553 3291.66 591.553 3276.62C591.553 3272.1 595.126 3267.4 602.27 3262.52H609.039C620.696 3262.52 626.525 3277.37 626.525 3307.08C636.302 3336.41 651.719 3351.07 672.777 3351.07H688.006C718.465 3351.07 748.548 3333.4 778.255 3298.05C786.152 3286.77 790.1 3274.55 790.1 3261.39C790.1 3242.96 775.623 3229.99 746.668 3222.47H744.412L670.521 3224.16C629.533 3219.27 609.039 3202.35 609.039 3173.39L606.783 3166.06C606.783 3127.33 635.738 3089.73 693.647 3053.25C718.841 3039.34 741.591 3032.38 761.897 3032.38Z" fill="white"/>
</svg>
