<svg width="240" height="215" viewBox="0 0 240 215" fill="none" xmlns="http://www.w3.org/2000/svg">
<rect width="240" height="215" fill="#4C0E87"/>
<path d="M53.2 81.12C51.9733 81.12 51.0933 80.7733 50.56 80.08C50.0267 79.3867 49.76 78.3733 49.76 77.04C49.76 75.8133 49.9867 74.2133 50.44 72.24C50.92 70.24 51.5467 68.0133 52.32 65.56C53.12 63.08 54.0133 60.5333 55 57.92C55.9867 55.28 57.0133 52.6933 58.08 50.16C59.1467 47.6 60.1867 45.2533 61.2 43.12C61.68 42.1867 62.1867 41.5467 62.72 41.2C63.2533 40.8533 63.84 40.68 64.48 40.68C65.0933 40.68 65.6133 40.8533 66.04 41.2C66.4667 41.52 66.68 42.04 66.68 42.76C66.68 42.92 66.4667 43.5333 66.04 44.6C65.6133 45.64 65.0533 47 64.36 48.68C63.6667 50.3333 62.9067 52.2 62.08 54.28C61.2533 56.3333 60.4267 58.48 59.6 60.72C58.7733 62.9333 58.0267 65.12 57.36 67.28C56.6933 69.44 56.16 71.44 55.76 73.28C56.6933 72.0267 57.6933 70.64 58.76 69.12C59.8533 67.5733 60.96 66.04 62.08 64.52C63.2267 62.9733 64.3467 61.56 65.44 60.28C66.56 59 67.6 57.9733 68.56 57.2C69.52 56.4267 70.36 56.04 71.08 56.04C72.4133 56.04 73.48 56.4133 74.28 57.16C75.1067 57.88 75.52 59.1333 75.52 60.92C75.52 61.7467 75.36 62.7467 75.04 63.92C74.72 65.0667 74.3333 66.28 73.88 67.56C73.4533 68.8133 73.08 70.0267 72.76 71.2C72.44 72.3733 72.28 73.4 72.28 74.28C72.28 74.76 72.5067 75 72.96 75C74.2667 75 75.5867 74.72 76.92 74.16C78.28 73.6 79.5733 72.9067 80.8 72.08C82.0533 71.2267 83.1867 70.3867 84.2 69.56C85.24 68.7067 86.08 68 86.72 67.44C87.1733 67.0133 87.5867 66.7333 87.96 66.6C88.3333 66.44 88.68 66.36 89 66.36C90.0933 66.36 90.64 66.9067 90.64 68C90.64 68.2133 90.6 68.48 90.52 68.8C90.44 69.0933 90.1867 69.4667 89.76 69.92C89.3333 70.3733 88.6933 71.0133 87.84 71.84C86.9867 72.6667 85.9867 73.5467 84.84 74.48C83.72 75.4133 82.4933 76.3067 81.16 77.16C79.8533 77.9867 78.5067 78.6667 77.12 79.2C75.7333 79.7333 74.3867 80 73.08 80C71.1067 80 69.5867 79.44 68.52 78.32C67.4533 77.2267 66.92 75.7333 66.92 73.84C66.92 72.5333 67.1867 70.8933 67.72 68.92C68.2533 66.92 68.8533 64.88 69.52 62.8C68.5867 63.7067 67.6133 64.7867 66.6 66.04C65.5867 67.2667 64.56 68.5733 63.52 69.96C62.48 71.32 61.4533 72.6667 60.44 74C59.4533 75.3067 58.5067 76.5067 57.6 77.6C56.6933 78.6667 55.8667 79.52 55.12 80.16C54.3733 80.8 53.7333 81.12 53.2 81.12ZM88.4631 78.6C87.7165 78.6 87.0498 78.3467 86.4631 77.84C85.9031 77.3333 85.6231 76.5067 85.6231 75.36C85.6231 74.7467 85.7031 73.88 85.8631 72.76C86.0498 71.64 86.2898 70.4267 86.5831 69.12C86.8765 67.7867 87.1965 66.4667 87.5431 65.16C87.9165 63.8533 88.2765 62.6933 88.6231 61.68C88.9698 60.64 89.2765 59.8667 89.5431 59.36C89.8898 58.7467 90.2098 58.3733 90.5031 58.24C90.8231 58.08 91.1298 58 91.4231 58C91.9565 58 92.4498 58.16 92.9031 58.48C93.3831 58.8 93.6231 59.5067 93.6231 60.6C93.6231 61.0267 93.5431 61.72 93.3831 62.68C93.2231 63.6133 93.0231 64.7067 92.7831 65.96C92.5431 67.2133 92.2765 68.5067 91.9831 69.84C91.7165 71.1733 91.4498 72.44 91.1831 73.64C90.9431 74.8133 90.7431 75.8 90.5831 76.6C90.4498 77.2667 90.1698 77.76 89.7431 78.08C89.3431 78.4267 88.9165 78.6 88.4631 78.6ZM93.0631 54.04C92.1831 54.04 91.3698 53.7867 90.6231 53.28C89.8765 52.7467 89.5031 51.9333 89.5031 50.84C89.5031 49.9333 89.7298 49.2 90.1831 48.64C90.6365 48.08 91.1698 47.68 91.7831 47.44C92.4231 47.1733 92.9831 47.04 93.4631 47.04C93.9431 47.04 94.4765 47.1467 95.0631 47.36C95.6498 47.5467 96.1565 47.9067 96.5831 48.44C97.0365 48.9467 97.2631 49.68 97.2631 50.64C97.2631 51.28 97.0365 51.8667 96.5831 52.4C96.1298 52.9067 95.5698 53.3067 94.9031 53.6C94.2631 53.8933 93.6498 54.04 93.0631 54.04ZM95.7034 91.4C93.3034 92.04 92.1034 91.6267 92.1034 90.16C92.1034 89.3867 92.5568 88.7467 93.4634 88.24C94.7968 87.4133 95.8768 86.2 96.7034 84.6C97.5034 83 98.1301 81.1867 98.5834 79.16C99.0634 77.1333 99.4368 75.08 99.7034 73C99.8368 72.1467 100.09 71.5867 100.463 71.32C100.837 71.0267 101.237 70.88 101.663 70.88C102.49 70.88 103.263 71.2133 103.983 71.88C104.703 72.52 105.063 73.5867 105.063 75.08C105.063 77.1067 104.757 79.04 104.143 80.88C103.557 82.72 102.783 84.3733 101.823 85.84C100.89 87.3333 99.8768 88.56 98.7834 89.52C97.6901 90.48 96.6634 91.1067 95.7034 91.4ZM138.807 78.6C138.06 78.6 137.394 78.3467 136.807 77.84C136.247 77.3333 135.967 76.5067 135.967 75.36C135.967 74.7467 136.047 73.88 136.207 72.76C136.394 71.64 136.634 70.4267 136.927 69.12C137.22 67.7867 137.54 66.4667 137.887 65.16C138.26 63.8533 138.62 62.6933 138.967 61.68C139.314 60.64 139.62 59.8667 139.887 59.36C140.234 58.7467 140.554 58.3733 140.847 58.24C141.167 58.08 141.474 58 141.767 58C142.3 58 142.794 58.16 143.247 58.48C143.727 58.8 143.967 59.5067 143.967 60.6C143.967 61.0267 143.887 61.72 143.727 62.68C143.567 63.6133 143.367 64.7067 143.127 65.96C142.887 67.2133 142.62 68.5067 142.327 69.84C142.06 71.1733 141.794 72.44 141.527 73.64C141.287 74.8133 141.087 75.8 140.927 76.6C140.794 77.2667 140.514 77.76 140.087 78.08C139.687 78.4267 139.26 78.6 138.807 78.6ZM143.407 54.04C142.527 54.04 141.714 53.7867 140.967 53.28C140.22 52.7467 139.847 51.9333 139.847 50.84C139.847 49.9333 140.074 49.2 140.527 48.64C140.98 48.08 141.514 47.68 142.127 47.44C142.767 47.1733 143.327 47.04 143.807 47.04C144.287 47.04 144.82 47.1467 145.407 47.36C145.994 47.5467 146.5 47.9067 146.927 48.44C147.38 48.9467 147.607 49.68 147.607 50.64C147.607 51.28 147.38 51.8667 146.927 52.4C146.474 52.9067 145.914 53.3067 145.247 53.6C144.607 53.8933 143.994 54.04 143.407 54.04ZM185.201 77.08C185.041 78.52 184.188 79.24 182.641 79.24C181.841 79.24 181.201 79 180.721 78.52C180.268 78.04 180.041 77.3467 180.041 76.44C180.041 74.8933 180.108 73.24 180.241 71.48C180.401 69.6933 180.588 67.8933 180.801 66.08C181.041 64.2667 181.268 62.5333 181.481 60.88C180.521 62.2667 179.508 63.6933 178.441 65.16C177.374 66.6267 176.308 68.0533 175.241 69.44C174.174 70.8267 173.148 72.08 172.161 73.2C171.201 74.2933 170.321 75.1733 169.521 75.84C168.721 76.48 168.054 76.8 167.521 76.8C166.241 76.8 165.134 76.3333 164.201 75.4C163.268 74.44 162.801 73.2267 162.801 71.76C162.801 71.2533 162.854 70.5733 162.961 69.72C163.068 68.84 163.201 67.9067 163.361 66.92C163.521 65.9333 163.654 65 163.761 64.12C163.868 63.24 163.921 62.5467 163.921 62.04C163.921 62.04 163.921 62.0133 163.921 61.96C163.948 61.8267 163.921 61.76 163.841 61.76C163.734 61.76 163.441 62.12 162.961 62.84C162.481 63.5333 161.894 64.44 161.201 65.56C160.508 66.68 159.774 67.8533 159.001 69.08C158.254 70.3067 157.548 71.4533 156.881 72.52C156.241 73.5867 155.708 74.4133 155.281 75C154.694 75.9067 154.148 76.48 153.641 76.72C153.134 76.96 152.548 77.08 151.881 77.08C150.948 77.08 150.214 76.7733 149.681 76.16C149.174 75.52 148.921 74.6267 148.921 73.48C148.921 73 149.001 72.2533 149.161 71.24C149.348 70.2267 149.574 69.1067 149.841 67.88C150.108 66.6267 150.374 65.4133 150.641 64.24C150.934 63.04 151.188 62.0267 151.401 61.2C151.641 60.1067 151.974 59.3467 152.401 58.92C152.854 58.4667 153.428 58.24 154.121 58.24C155.748 58.24 156.561 59.04 156.561 60.64C156.561 60.9333 156.468 61.4133 156.281 62.08C156.094 62.7467 155.868 63.52 155.601 64.4C155.334 65.28 155.054 66.1867 154.761 67.12C154.468 68.0267 154.228 68.88 154.041 69.68C154.681 68.56 155.374 67.36 156.121 66.08C156.868 64.8 157.628 63.5467 158.401 62.32C159.201 61.0933 159.988 59.9733 160.761 58.96C161.561 57.9467 162.348 57.1467 163.121 56.56C163.894 55.9467 164.628 55.64 165.321 55.64C166.014 55.64 166.694 55.8933 167.361 56.4C168.028 56.88 168.574 57.5067 169.001 58.28C169.454 59.0267 169.681 59.8267 169.681 60.68C169.681 61.48 169.574 62.44 169.361 63.56C169.148 64.68 168.908 65.8533 168.641 67.08C168.374 68.3067 168.188 69.5067 168.081 70.68C168.988 69.6667 169.948 68.52 170.961 67.24C171.974 65.9333 173.014 64.5867 174.081 63.2C175.148 61.8133 176.188 60.4667 177.201 59.16C178.241 57.8533 179.201 56.6667 180.081 55.6C180.988 54.5333 181.788 53.6933 182.481 53.08C183.174 52.44 183.708 52.12 184.081 52.12C185.174 52.12 186.028 52.4133 186.641 53C187.281 53.56 187.601 54.5467 187.601 55.96C187.601 56.84 187.534 57.9867 187.401 59.4C187.294 60.8133 187.134 62.3467 186.921 64C186.734 65.6267 186.521 67.28 186.281 68.96C186.068 70.6133 185.868 72.1467 185.681 73.56C185.494 74.9733 185.334 76.1467 185.201 77.08ZM57 120.96C56.3067 120.96 55.6933 120.627 55.16 119.96C54.6533 119.293 54.2667 118.267 54 116.88C53.7867 115.707 53.6 114.373 53.44 112.88C53.28 111.387 53.1333 109.92 53 108.48C52.8933 107.013 52.8133 105.733 52.76 104.64C52.7067 103.547 52.68 102.8 52.68 102.4C52.68 100.96 52.9333 99.7733 53.44 98.84C53.9467 97.88 54.92 97.4 56.36 97.4C56.9733 97.4 57.44 97.6667 57.76 98.2C58.08 98.7067 58.24 99.4133 58.24 100.32C58.24 100.88 58.24 101.587 58.24 102.44C58.2667 103.267 58.2933 104.2 58.32 105.24C58.3467 106.387 58.3733 107.627 58.4 108.96C58.4533 110.267 58.48 111.573 58.48 112.88C59.4133 111.413 60.4133 109.853 61.48 108.2C62.5467 106.52 63.5867 104.893 64.6 103.32C65.64 101.747 66.5733 100.36 67.4 99.16C68.2267 97.9333 68.8533 97.0667 69.28 96.56C69.6533 96.1067 70.1067 95.72 70.64 95.4C71.1733 95.0533 71.7333 94.88 72.32 94.88C72.96 94.88 73.4933 95.1333 73.92 95.64C74.3467 96.1467 74.56 96.7333 74.56 97.4C74.56 97.9067 74.4533 98.3867 74.24 98.84C74.0533 99.2933 73.8133 99.72 73.52 100.12C72.72 101.24 71.7733 102.547 70.68 104.04C69.6133 105.533 68.4933 107.107 67.32 108.76C66.1467 110.387 65 111.96 63.88 113.48C62.7867 115 61.8133 116.347 60.96 117.52C60.2667 118.507 59.7067 119.253 59.28 119.76C58.8533 120.24 58.4667 120.56 58.12 120.72C57.8 120.88 57.4267 120.96 57 120.96ZM78.4631 121.6C77.7165 121.6 77.0498 121.347 76.4631 120.84C75.9031 120.333 75.6231 119.507 75.6231 118.36C75.6231 117.747 75.7031 116.88 75.8631 115.76C76.0498 114.64 76.2898 113.427 76.5831 112.12C76.8765 110.787 77.1965 109.467 77.5431 108.16C77.9165 106.853 78.2765 105.693 78.6231 104.68C78.9698 103.64 79.2765 102.867 79.5431 102.36C79.8898 101.747 80.2098 101.373 80.5031 101.24C80.8231 101.08 81.1298 101 81.4231 101C81.9565 101 82.4498 101.16 82.9031 101.48C83.3831 101.8 83.6231 102.507 83.6231 103.6C83.6231 104.027 83.5431 104.72 83.3831 105.68C83.2231 106.613 83.0231 107.707 82.7831 108.96C82.5431 110.213 82.2765 111.507 81.9831 112.84C81.7165 114.173 81.4498 115.44 81.1831 116.64C80.9431 117.813 80.7431 118.8 80.5831 119.6C80.4498 120.267 80.1698 120.76 79.7431 121.08C79.3431 121.427 78.9165 121.6 78.4631 121.6ZM83.0631 97.04C82.1831 97.04 81.3698 96.7867 80.6231 96.28C79.8765 95.7467 79.5031 94.9333 79.5031 93.84C79.5031 92.9333 79.7298 92.2 80.1831 91.64C80.6365 91.08 81.1698 90.68 81.7831 90.44C82.4231 90.1733 82.9831 90.04 83.4631 90.04C83.9431 90.04 84.4765 90.1467 85.0631 90.36C85.6498 90.5467 86.1565 90.9067 86.5831 91.44C87.0365 91.9467 87.2631 92.68 87.2631 93.64C87.2631 94.28 87.0365 94.8667 86.5831 95.4C86.1298 95.9067 85.5698 96.3067 84.9031 96.6C84.2631 96.8933 83.6498 97.04 83.0631 97.04ZM95.0469 120.96C94.3535 120.96 93.7402 120.627 93.2069 119.96C92.7002 119.293 92.3135 118.267 92.0469 116.88C91.8335 115.707 91.6469 114.373 91.4869 112.88C91.3269 111.387 91.1802 109.92 91.0469 108.48C90.9402 107.013 90.8602 105.733 90.8069 104.64C90.7535 103.547 90.7269 102.8 90.7269 102.4C90.7269 100.96 90.9802 99.7733 91.4869 98.84C91.9935 97.88 92.9669 97.4 94.4069 97.4C95.0202 97.4 95.4869 97.6667 95.8069 98.2C96.1269 98.7067 96.2869 99.4133 96.2869 100.32C96.2869 100.88 96.2869 101.587 96.2869 102.44C96.3135 103.267 96.3402 104.2 96.3669 105.24C96.3935 106.387 96.4202 107.627 96.4469 108.96C96.5002 110.267 96.5269 111.573 96.5269 112.88C97.4602 111.413 98.4602 109.853 99.5269 108.2C100.594 106.52 101.634 104.893 102.647 103.32C103.687 101.747 104.62 100.36 105.447 99.16C106.274 97.9333 106.9 97.0667 107.327 96.56C107.7 96.1067 108.154 95.72 108.687 95.4C109.22 95.0533 109.78 94.88 110.367 94.88C111.007 94.88 111.54 95.1333 111.967 95.64C112.394 96.1467 112.607 96.7333 112.607 97.4C112.607 97.9067 112.5 98.3867 112.287 98.84C112.1 99.2933 111.86 99.72 111.567 100.12C110.767 101.24 109.82 102.547 108.727 104.04C107.66 105.533 106.54 107.107 105.367 108.76C104.194 110.387 103.047 111.96 101.927 113.48C100.834 115 99.8602 116.347 99.0069 117.52C98.3135 118.507 97.7535 119.253 97.3269 119.76C96.9002 120.24 96.5135 120.56 96.1669 120.72C95.8469 120.88 95.4735 120.96 95.0469 120.96ZM118.963 122.36C117.31 122.36 115.977 121.787 114.963 120.64C113.95 119.467 113.443 117.587 113.443 115C113.443 113.347 113.63 111.693 114.003 110.04C114.403 108.36 114.95 106.773 115.643 105.28C116.363 103.76 117.19 102.413 118.123 101.24C119.083 100.067 120.137 99.1467 121.283 98.48C122.43 97.7867 123.617 97.44 124.843 97.44C126.923 97.44 128.55 98 129.723 99.12C130.897 100.24 131.483 101.667 131.483 103.4C131.483 104.733 131.11 105.947 130.363 107.04C129.643 108.107 128.657 109.067 127.403 109.92C126.15 110.773 124.75 111.547 123.203 112.24C121.657 112.933 120.07 113.56 118.443 114.12C118.31 115.08 118.243 115.933 118.243 116.68C118.243 117.133 118.497 117.36 119.003 117.36C120.203 117.36 121.483 117.173 122.843 116.8C124.23 116.4 125.63 115.893 127.043 115.28C128.457 114.64 129.817 113.987 131.123 113.32C132.43 112.627 133.617 111.973 134.683 111.36C135.777 110.72 136.67 110.213 137.363 109.84C138.083 109.44 138.55 109.24 138.763 109.24C139.35 109.24 139.777 109.413 140.043 109.76C140.31 110.107 140.443 110.48 140.443 110.88C140.443 111.067 140.083 111.48 139.363 112.12C138.67 112.76 137.71 113.52 136.483 114.4C135.283 115.253 133.923 116.147 132.403 117.08C130.91 117.987 129.35 118.853 127.723 119.68C126.123 120.48 124.563 121.12 123.043 121.6C121.55 122.107 120.19 122.36 118.963 122.36ZM119.123 110.56C120.217 109.92 121.297 109.253 122.363 108.56C123.457 107.84 124.363 107.04 125.083 106.16C125.803 105.253 126.163 104.2 126.163 103C126.163 102.653 126.07 102.427 125.883 102.32C125.697 102.187 125.43 102.12 125.083 102.12C124.15 102.12 123.297 102.533 122.523 103.36C121.777 104.187 121.11 105.253 120.523 106.56C119.963 107.84 119.497 109.173 119.123 110.56ZM160.038 123.92C158.224 123.92 156.544 123.533 154.998 122.76C153.451 122.013 152.038 121.027 150.758 119.8C149.478 118.547 148.331 117.187 147.318 115.72C146.331 114.227 145.491 112.76 144.798 111.32C144.478 112.787 144.184 114.04 143.918 115.08C143.678 116.12 143.478 116.987 143.318 117.68C143.184 118.213 143.038 118.733 142.878 119.24C142.744 119.747 142.531 120.16 142.238 120.48C141.944 120.8 141.531 120.96 140.998 120.96C139.851 120.96 139.118 120.573 138.798 119.8C138.478 119 138.318 117.987 138.318 116.76C138.318 115.667 138.491 114.227 138.838 112.44C139.211 110.653 139.704 108.653 140.318 106.44C140.931 104.227 141.638 101.947 142.438 99.6C143.264 97.2267 144.144 94.92 145.078 92.68C146.011 90.4133 146.944 88.36 147.878 86.52C148.464 85.4 148.984 84.6933 149.438 84.4C149.891 84.08 150.424 83.92 151.038 83.92C151.651 83.92 152.118 84.08 152.438 84.4C152.758 84.72 152.918 85.1467 152.918 85.68C152.918 86.0267 152.838 86.3733 152.678 86.72C152.518 87.0667 152.344 87.4933 152.158 88C151.544 89.36 150.904 90.9467 150.238 92.76C149.571 94.5467 148.931 96.4 148.318 98.32C147.704 100.213 147.158 102.013 146.678 103.72C147.984 102.947 149.438 102.2 151.038 101.48C152.638 100.733 154.251 100.067 155.878 99.48C157.531 98.8667 159.078 98.3867 160.518 98.04C161.958 97.6933 163.171 97.52 164.158 97.52C164.931 97.52 165.518 97.7467 165.918 98.2C166.318 98.6533 166.518 99.1467 166.518 99.68C166.518 100.08 166.398 100.48 166.158 100.88C165.918 101.28 165.411 101.627 164.638 101.92C162.078 102.773 159.531 103.64 156.998 104.52C154.491 105.4 151.704 106.44 148.638 107.64C149.278 108.893 150.024 110.187 150.878 111.52C151.731 112.827 152.651 114.053 153.638 115.2C154.624 116.32 155.638 117.24 156.678 117.96C157.718 118.653 158.744 119 159.758 119C161.251 119 162.691 118.707 164.078 118.12C165.464 117.507 166.744 116.773 167.918 115.92C169.091 115.04 170.118 114.187 170.998 113.36C171.904 112.533 172.611 111.893 173.118 111.44C173.411 111.147 173.691 110.933 173.958 110.8C174.251 110.667 174.611 110.6 175.038 110.6C175.544 110.6 175.931 110.76 176.198 111.08C176.491 111.373 176.624 111.76 176.598 112.24C176.571 112.693 176.344 113.147 175.918 113.6C175.571 113.973 175.024 114.573 174.278 115.4C173.558 116.2 172.678 117.093 171.638 118.08C170.624 119.04 169.491 119.973 168.238 120.88C167.011 121.76 165.704 122.48 164.318 123.04C162.931 123.627 161.504 123.92 160.038 123.92ZM182.962 122.04C182.135 122.04 181.362 121.787 180.642 121.28C179.922 120.773 179.562 119.947 179.562 118.8C179.562 117.92 179.788 117.213 180.242 116.68C180.695 116.12 181.215 115.707 181.802 115.44C182.415 115.173 182.935 115.04 183.362 115.04C183.815 115.04 184.322 115.147 184.882 115.36C185.468 115.547 185.975 115.907 186.402 116.44C186.828 116.947 187.042 117.68 187.042 118.64C187.042 119.573 186.642 120.373 185.842 121.04C185.068 121.707 184.108 122.04 182.962 122.04Z" fill="white"/>
<path d="M54.3493 161.24C54.0506 161.24 53.784 161.139 53.5493 160.936C53.3253 160.733 53.2133 160.403 53.2133 159.944C53.2133 159.699 53.2453 159.352 53.3093 158.904C53.384 158.456 53.48 157.971 53.5973 157.448C53.7146 156.915 53.8426 156.387 53.9813 155.864C54.1306 155.341 54.2746 154.877 54.4133 154.472C54.552 154.056 54.6746 153.747 54.7813 153.544C54.92 153.299 55.048 153.149 55.1653 153.096C55.2933 153.032 55.416 153 55.5333 153C55.7466 153 55.944 153.064 56.1253 153.192C56.3173 153.32 56.4133 153.603 56.4133 154.04C56.4133 154.211 56.3813 154.488 56.3173 154.872C56.2533 155.245 56.1733 155.683 56.0773 156.184C55.9813 156.685 55.8746 157.203 55.7573 157.736C55.6506 158.269 55.544 158.776 55.4373 159.256C55.3413 159.725 55.2613 160.12 55.1973 160.44C55.144 160.707 55.032 160.904 54.8613 161.032C54.7013 161.171 54.5306 161.24 54.3493 161.24ZM56.1893 151.416C55.8373 151.416 55.512 151.315 55.2133 151.112C54.9146 150.899 54.7653 150.573 54.7653 150.136C54.7653 149.773 54.856 149.48 55.0373 149.256C55.2186 149.032 55.432 148.872 55.6773 148.776C55.9333 148.669 56.1573 148.616 56.3493 148.616C56.5413 148.616 56.7546 148.659 56.9893 148.744C57.224 148.819 57.4266 148.963 57.5973 149.176C57.7786 149.379 57.8693 149.672 57.8693 150.056C57.8693 150.312 57.7786 150.547 57.5973 150.76C57.416 150.963 57.192 151.123 56.9253 151.24C56.6693 151.357 56.424 151.416 56.1893 151.416ZM81.0788 160.632C81.0148 161.208 80.6735 161.496 80.0548 161.496C79.7348 161.496 79.4788 161.4 79.2868 161.208C79.1055 161.016 79.0148 160.739 79.0148 160.376C79.0148 159.757 79.0415 159.096 79.0948 158.392C79.1588 157.677 79.2335 156.957 79.3188 156.232C79.4148 155.507 79.5055 154.813 79.5908 154.152C79.2068 154.707 78.8015 155.277 78.3748 155.864C77.9481 156.451 77.5215 157.021 77.0948 157.576C76.6681 158.131 76.2575 158.632 75.8628 159.08C75.4788 159.517 75.1268 159.869 74.8068 160.136C74.4868 160.392 74.2201 160.52 74.0068 160.52C73.4948 160.52 73.0521 160.333 72.6788 159.96C72.3055 159.576 72.1188 159.091 72.1188 158.504C72.1188 158.301 72.1401 158.029 72.1828 157.688C72.2255 157.336 72.2788 156.963 72.3428 156.568C72.4068 156.173 72.4601 155.8 72.5028 155.448C72.5455 155.096 72.5668 154.819 72.5668 154.616C72.5668 154.616 72.5668 154.605 72.5668 154.584C72.5775 154.531 72.5668 154.504 72.5348 154.504C72.4921 154.504 72.3748 154.648 72.1828 154.936C71.9908 155.213 71.7561 155.576 71.4788 156.024C71.2015 156.472 70.9081 156.941 70.5988 157.432C70.3001 157.923 70.0175 158.381 69.7508 158.808C69.4948 159.235 69.2815 159.565 69.1108 159.8C68.8761 160.163 68.6575 160.392 68.4548 160.488C68.2521 160.584 68.0175 160.632 67.7508 160.632C67.3775 160.632 67.0841 160.509 66.8708 160.264C66.6681 160.008 66.5668 159.651 66.5668 159.192C66.5668 159 66.5988 158.701 66.6628 158.296C66.7375 157.891 66.8281 157.443 66.9348 156.952C67.0415 156.451 67.1481 155.965 67.2548 155.496C67.3721 155.016 67.4735 154.611 67.5588 154.28C67.6548 153.843 67.7881 153.539 67.9588 153.368C68.1401 153.187 68.3695 153.096 68.6468 153.096C69.2975 153.096 69.6228 153.416 69.6228 154.056C69.6228 154.173 69.5855 154.365 69.5108 154.632C69.4361 154.899 69.3455 155.208 69.2388 155.56C69.1321 155.912 69.0201 156.275 68.9028 156.648C68.7855 157.011 68.6895 157.352 68.6148 157.672C68.8708 157.224 69.1481 156.744 69.4468 156.232C69.7455 155.72 70.0495 155.219 70.3588 154.728C70.6788 154.237 70.9935 153.789 71.3028 153.384C71.6228 152.979 71.9375 152.659 72.2468 152.424C72.5561 152.179 72.8495 152.056 73.1268 152.056C73.4041 152.056 73.6761 152.157 73.9428 152.36C74.2095 152.552 74.4281 152.803 74.5988 153.112C74.7801 153.411 74.8708 153.731 74.8708 154.072C74.8708 154.392 74.8281 154.776 74.7428 155.224C74.6575 155.672 74.5615 156.141 74.4548 156.632C74.3481 157.123 74.2735 157.603 74.2308 158.072C74.5935 157.667 74.9775 157.208 75.3828 156.696C75.7881 156.173 76.2041 155.635 76.6308 155.08C77.0575 154.525 77.4735 153.987 77.8788 153.464C78.2948 152.941 78.6788 152.467 79.0308 152.04C79.3935 151.613 79.7135 151.277 79.9908 151.032C80.2681 150.776 80.4815 150.648 80.6308 150.648C81.0681 150.648 81.4095 150.765 81.6548 151C81.9108 151.224 82.0388 151.619 82.0388 152.184C82.0388 152.536 82.0121 152.995 81.9588 153.56C81.9161 154.125 81.8521 154.739 81.7668 155.4C81.6921 156.051 81.6068 156.712 81.5108 157.384C81.4255 158.045 81.3455 158.659 81.2708 159.224C81.1961 159.789 81.1321 160.259 81.0788 160.632ZM85.4119 161.608C85.0706 161.608 84.7613 161.512 84.4839 161.32C84.2066 161.139 83.9879 160.899 83.8279 160.6C83.6679 160.291 83.5879 159.96 83.5879 159.608C83.5879 158.947 83.7319 158.301 84.0199 157.672C84.3186 157.043 84.7079 156.445 85.1879 155.88C85.6679 155.315 86.1906 154.797 86.7559 154.328C87.3319 153.848 87.9026 153.437 88.4679 153.096C89.0439 152.755 89.5666 152.488 90.0359 152.296C90.5159 152.104 90.8893 152.008 91.1559 152.008C91.4653 152.008 91.7159 152.077 91.9079 152.216C92.1106 152.344 92.2119 152.547 92.2119 152.824C92.2119 152.909 92.1906 152.979 92.1479 153.032C92.2866 153.064 92.3986 153.144 92.4839 153.272C92.5693 153.4 92.6119 153.592 92.6119 153.848C92.6119 153.955 92.5853 154.232 92.5319 154.68C92.4786 155.128 92.4199 155.672 92.3559 156.312C92.3026 156.952 92.2759 157.619 92.2759 158.312C92.2759 158.419 92.2919 158.515 92.3239 158.6C92.3559 158.675 92.4253 158.712 92.5319 158.712C92.9586 158.712 93.3906 158.627 93.8279 158.456C94.2759 158.275 94.7079 158.056 95.1239 157.8C95.5506 157.533 95.9346 157.272 96.2759 157.016C96.6279 156.749 96.9213 156.531 97.1559 156.36C97.4013 156.179 97.5613 156.088 97.6359 156.088C97.9986 156.088 98.1799 156.269 98.1799 156.632C98.1799 156.728 98.0626 156.931 97.8279 157.24C97.6039 157.539 97.2946 157.885 96.8999 158.28C96.5053 158.664 96.0626 159.048 95.5719 159.432C95.0919 159.805 94.5906 160.115 94.0679 160.36C93.5559 160.605 93.0599 160.728 92.5799 160.728C91.9933 160.728 91.5453 160.589 91.2359 160.312C90.9373 160.035 90.7239 159.661 90.5959 159.192C90.4786 158.712 90.4146 158.173 90.4039 157.576C89.8599 158.355 89.2946 159.048 88.7079 159.656C88.1319 160.253 87.5613 160.728 86.9959 161.08C86.4306 161.432 85.9026 161.608 85.4119 161.608ZM91.0759 153.592C90.0306 154.093 89.0919 154.669 88.2599 155.32C87.4279 155.96 86.7666 156.632 86.2759 157.336C85.7959 158.04 85.5559 158.717 85.5559 159.368C85.5559 159.549 85.6413 159.64 85.8119 159.64C86.0146 159.64 86.2813 159.523 86.6119 159.288C86.9533 159.053 87.3213 158.744 87.7159 158.36C88.1106 157.965 88.5053 157.528 88.8999 157.048C89.2946 156.557 89.6626 156.056 90.0039 155.544C90.3453 155.032 90.6173 154.541 90.8199 154.072C90.8946 153.901 90.9799 153.741 91.0759 153.592ZM105.448 162.168C104.723 162.168 104.051 162.013 103.432 161.704C102.813 161.405 102.248 161.011 101.736 160.52C101.224 160.019 100.765 159.475 100.36 158.888C99.9653 158.291 99.6293 157.704 99.3519 157.128C99.2239 157.715 99.1066 158.216 98.9999 158.632C98.9039 159.048 98.8239 159.395 98.7599 159.672C98.7066 159.885 98.6479 160.093 98.5839 160.296C98.5306 160.499 98.4453 160.664 98.3279 160.792C98.2106 160.92 98.0453 160.984 97.8319 160.984C97.3733 160.984 97.0799 160.829 96.9519 160.52C96.8239 160.2 96.7599 159.795 96.7599 159.304C96.7599 158.867 96.8293 158.291 96.9679 157.576C97.1173 156.861 97.3146 156.061 97.5599 155.176C97.8053 154.291 98.0879 153.379 98.4079 152.44C98.7386 151.491 99.0906 150.568 99.4639 149.672C99.8373 148.765 100.211 147.944 100.584 147.208C100.819 146.76 101.027 146.477 101.208 146.36C101.389 146.232 101.603 146.168 101.848 146.168C102.093 146.168 102.28 146.232 102.408 146.36C102.536 146.488 102.6 146.659 102.6 146.872C102.6 147.011 102.568 147.149 102.504 147.288C102.44 147.427 102.371 147.597 102.296 147.8C102.051 148.344 101.795 148.979 101.528 149.704C101.261 150.419 101.005 151.16 100.76 151.928C100.515 152.685 100.296 153.405 100.104 154.088C100.627 153.779 101.208 153.48 101.848 153.192C102.488 152.893 103.133 152.627 103.784 152.392C104.445 152.147 105.064 151.955 105.64 151.816C106.216 151.677 106.701 151.608 107.096 151.608C107.405 151.608 107.64 151.699 107.8 151.88C107.96 152.061 108.04 152.259 108.04 152.472C108.04 152.632 107.992 152.792 107.896 152.952C107.8 153.112 107.597 153.251 107.288 153.368C106.264 153.709 105.245 154.056 104.232 154.408C103.229 154.76 102.115 155.176 100.888 155.656C101.144 156.157 101.443 156.675 101.784 157.208C102.125 157.731 102.493 158.221 102.888 158.68C103.283 159.128 103.688 159.496 104.104 159.784C104.52 160.061 104.931 160.2 105.336 160.2C105.933 160.2 106.509 160.083 107.064 159.848C107.619 159.603 108.131 159.309 108.6 158.968C109.069 158.616 109.48 158.275 109.832 157.944C110.195 157.613 110.477 157.357 110.68 157.176C110.797 157.059 110.909 156.973 111.016 156.92C111.133 156.867 111.277 156.84 111.448 156.84C111.651 156.84 111.805 156.904 111.912 157.032C112.029 157.149 112.083 157.304 112.072 157.496C112.061 157.677 111.971 157.859 111.8 158.04C111.661 158.189 111.443 158.429 111.144 158.76C110.856 159.08 110.504 159.437 110.088 159.832C109.683 160.216 109.229 160.589 108.728 160.952C108.237 161.304 107.715 161.592 107.16 161.816C106.605 162.051 106.035 162.168 105.448 162.168ZM112.971 161.544C112.31 161.544 111.777 161.315 111.371 160.856C110.966 160.387 110.763 159.635 110.763 158.6C110.763 157.939 110.838 157.277 110.987 156.616C111.147 155.944 111.366 155.309 111.643 154.712C111.931 154.104 112.262 153.565 112.635 153.096C113.019 152.627 113.441 152.259 113.899 151.992C114.358 151.715 114.833 151.576 115.323 151.576C116.155 151.576 116.806 151.8 117.275 152.248C117.745 152.696 117.979 153.267 117.979 153.96C117.979 154.493 117.83 154.979 117.531 155.416C117.243 155.843 116.849 156.227 116.347 156.568C115.846 156.909 115.286 157.219 114.667 157.496C114.049 157.773 113.414 158.024 112.763 158.248C112.71 158.632 112.683 158.973 112.683 159.272C112.683 159.453 112.785 159.544 112.987 159.544C113.467 159.544 113.979 159.469 114.523 159.32C115.078 159.16 115.638 158.957 116.203 158.712C116.769 158.456 117.313 158.195 117.835 157.928C118.358 157.651 118.833 157.389 119.259 157.144C119.697 156.888 120.054 156.685 120.331 156.536C120.619 156.376 120.806 156.296 120.891 156.296C121.126 156.296 121.297 156.365 121.403 156.504C121.51 156.643 121.563 156.792 121.563 156.952C121.563 157.027 121.419 157.192 121.131 157.448C120.854 157.704 120.47 158.008 119.979 158.36C119.499 158.701 118.955 159.059 118.347 159.432C117.75 159.795 117.126 160.141 116.475 160.472C115.835 160.792 115.211 161.048 114.603 161.24C114.006 161.443 113.462 161.544 112.971 161.544ZM113.035 156.824C113.473 156.568 113.905 156.301 114.331 156.024C114.769 155.736 115.131 155.416 115.419 155.064C115.707 154.701 115.851 154.28 115.851 153.8C115.851 153.661 115.814 153.571 115.739 153.528C115.665 153.475 115.558 153.448 115.419 153.448C115.046 153.448 114.705 153.613 114.395 153.944C114.097 154.275 113.83 154.701 113.595 155.224C113.371 155.736 113.185 156.269 113.035 156.824ZM130.092 160.984C129.815 160.984 129.57 160.851 129.356 160.584C129.154 160.317 128.999 159.907 128.892 159.352C128.807 158.883 128.732 158.349 128.668 157.752C128.604 157.155 128.546 156.568 128.492 155.992C128.45 155.405 128.418 154.893 128.396 154.456C128.375 154.019 128.364 153.72 128.364 153.56C128.364 152.984 128.466 152.509 128.668 152.136C128.871 151.752 129.26 151.56 129.836 151.56C130.082 151.56 130.268 151.667 130.396 151.88C130.524 152.083 130.588 152.365 130.588 152.728C130.588 152.952 130.588 153.235 130.588 153.576C130.599 153.907 130.61 154.28 130.62 154.696C130.631 155.155 130.642 155.651 130.652 156.184C130.674 156.707 130.684 157.229 130.684 157.752C131.058 157.165 131.458 156.541 131.884 155.88C132.311 155.208 132.727 154.557 133.132 153.928C133.548 153.299 133.922 152.744 134.252 152.264C134.583 151.773 134.834 151.427 135.004 151.224C135.154 151.043 135.335 150.888 135.548 150.76C135.762 150.621 135.986 150.552 136.22 150.552C136.476 150.552 136.69 150.653 136.86 150.856C137.031 151.059 137.116 151.293 137.116 151.56C137.116 151.763 137.074 151.955 136.988 152.136C136.914 152.317 136.818 152.488 136.7 152.648C136.38 153.096 136.002 153.619 135.564 154.216C135.138 154.813 134.69 155.443 134.22 156.104C133.751 156.755 133.292 157.384 132.844 157.992C132.407 158.6 132.018 159.139 131.676 159.608C131.399 160.003 131.175 160.301 131.004 160.504C130.834 160.696 130.679 160.824 130.54 160.888C130.412 160.952 130.263 160.984 130.092 160.984ZM138.677 161.24C138.379 161.24 138.112 161.139 137.877 160.936C137.653 160.733 137.541 160.403 137.541 159.944C137.541 159.699 137.573 159.352 137.637 158.904C137.712 158.456 137.808 157.971 137.925 157.448C138.043 156.915 138.171 156.387 138.309 155.864C138.459 155.341 138.603 154.877 138.741 154.472C138.88 154.056 139.003 153.747 139.109 153.544C139.248 153.299 139.376 153.149 139.493 153.096C139.621 153.032 139.744 153 139.861 153C140.075 153 140.272 153.064 140.453 153.192C140.645 153.32 140.741 153.603 140.741 154.04C140.741 154.211 140.709 154.488 140.645 154.872C140.581 155.245 140.501 155.683 140.405 156.184C140.309 156.685 140.203 157.203 140.085 157.736C139.979 158.269 139.872 158.776 139.765 159.256C139.669 159.725 139.589 160.12 139.525 160.44C139.472 160.707 139.36 160.904 139.189 161.032C139.029 161.171 138.859 161.24 138.677 161.24ZM140.517 151.416C140.165 151.416 139.84 151.315 139.541 151.112C139.243 150.899 139.093 150.573 139.093 150.136C139.093 149.773 139.184 149.48 139.365 149.256C139.547 149.032 139.76 148.872 140.005 148.776C140.261 148.669 140.485 148.616 140.677 148.616C140.869 148.616 141.083 148.659 141.317 148.744C141.552 148.819 141.755 148.963 141.925 149.176C142.107 149.379 142.197 149.672 142.197 150.056C142.197 150.312 142.107 150.547 141.925 150.76C141.744 150.963 141.52 151.123 141.253 151.24C140.997 151.357 140.752 151.416 140.517 151.416ZM149.713 152.44C150.3 151.043 150.817 149.603 151.265 148.12C151.351 147.821 151.473 147.592 151.633 147.432C151.804 147.272 152.039 147.192 152.337 147.192C152.583 147.192 152.769 147.267 152.897 147.416C153.025 147.555 153.089 147.747 153.089 147.992C153.089 148.195 153.004 148.557 152.833 149.08C152.663 149.592 152.455 150.243 152.209 151.032C151.964 151.821 151.719 152.733 151.473 153.768C151.228 154.803 151.02 155.939 150.849 157.176C150.679 158.413 150.593 159.736 150.593 161.144C150.593 161.528 150.519 161.843 150.369 162.088C150.231 162.344 149.985 162.472 149.633 162.472C149.249 162.472 148.967 162.339 148.785 162.072C148.615 161.805 148.529 161.464 148.529 161.048C148.529 160.227 148.556 159.544 148.609 159C148.673 158.445 148.737 157.971 148.801 157.576C148.279 158.472 147.724 159.245 147.137 159.896C146.561 160.536 146.007 161.027 145.473 161.368C144.94 161.72 144.481 161.896 144.097 161.896C143.468 161.896 142.956 161.72 142.561 161.368C142.167 161.016 141.969 160.483 141.969 159.768C141.969 159.213 142.103 158.643 142.369 158.056C142.636 157.459 142.988 156.872 143.425 156.296C143.863 155.72 144.343 155.181 144.865 154.68C145.399 154.168 145.932 153.72 146.465 153.336C146.999 152.941 147.495 152.632 147.953 152.408C148.412 152.184 148.785 152.072 149.073 152.072C149.393 152.072 149.607 152.195 149.713 152.44ZM149.345 153.304C149.281 153.347 149.212 153.389 149.137 153.432C149.073 153.464 149.009 153.501 148.945 153.544C148.54 153.8 148.108 154.109 147.649 154.472C147.191 154.824 146.737 155.219 146.289 155.656C145.841 156.083 145.431 156.531 145.057 157C144.695 157.459 144.401 157.917 144.177 158.376C143.964 158.824 143.857 159.256 143.857 159.672C143.857 159.747 143.889 159.8 143.953 159.832C144.017 159.864 144.076 159.88 144.129 159.88C144.503 159.88 144.903 159.715 145.329 159.384C145.767 159.053 146.209 158.595 146.657 158.008C147.116 157.411 147.569 156.712 148.017 155.912C148.476 155.112 148.919 154.243 149.345 153.304ZM156.128 161.544C155.466 161.544 154.933 161.315 154.528 160.856C154.122 160.387 153.92 159.635 153.92 158.6C153.92 157.939 153.994 157.277 154.144 156.616C154.304 155.944 154.522 155.309 154.8 154.712C155.088 154.104 155.418 153.565 155.792 153.096C156.176 152.627 156.597 152.259 157.056 151.992C157.514 151.715 157.989 151.576 158.48 151.576C159.312 151.576 159.962 151.8 160.432 152.248C160.901 152.696 161.136 153.267 161.136 153.96C161.136 154.493 160.986 154.979 160.688 155.416C160.4 155.843 160.005 156.227 159.504 156.568C159.002 156.909 158.442 157.219 157.824 157.496C157.205 157.773 156.57 158.024 155.92 158.248C155.866 158.632 155.84 158.973 155.84 159.272C155.84 159.453 155.941 159.544 156.144 159.544C156.624 159.544 157.136 159.469 157.68 159.32C158.234 159.16 158.794 158.957 159.36 158.712C159.925 158.456 160.469 158.195 160.992 157.928C161.514 157.651 161.989 157.389 162.416 157.144C162.853 156.888 163.21 156.685 163.488 156.536C163.776 156.376 163.962 156.296 164.048 156.296C164.282 156.296 164.453 156.365 164.56 156.504C164.666 156.643 164.72 156.792 164.72 156.952C164.72 157.027 164.576 157.192 164.288 157.448C164.01 157.704 163.626 158.008 163.136 158.36C162.656 158.701 162.112 159.059 161.504 159.432C160.906 159.795 160.282 160.141 159.632 160.472C158.992 160.792 158.368 161.048 157.76 161.24C157.162 161.443 156.618 161.544 156.128 161.544ZM156.192 156.824C156.629 156.568 157.061 156.301 157.488 156.024C157.925 155.736 158.288 155.416 158.576 155.064C158.864 154.701 159.008 154.28 159.008 153.8C159.008 153.661 158.97 153.571 158.896 153.528C158.821 153.475 158.714 153.448 158.576 153.448C158.202 153.448 157.861 153.613 157.552 153.944C157.253 154.275 156.986 154.701 156.752 155.224C156.528 155.736 156.341 156.269 156.192 156.824ZM166.278 161.528C165.52 161.528 164.912 161.261 164.454 160.728C163.995 160.184 163.766 159.459 163.766 158.552C163.766 158.264 163.803 157.971 163.878 157.672C163.963 157.373 164.064 157.096 164.182 156.84C164.118 156.744 164.064 156.621 164.022 156.472C163.99 156.312 163.974 156.125 163.974 155.912C163.974 155.219 164.096 154.584 164.342 154.008C164.587 153.421 164.918 152.915 165.334 152.488C165.75 152.061 166.208 151.731 166.71 151.496C167.211 151.261 167.718 151.144 168.23 151.144C169.104 151.144 169.819 151.437 170.374 152.024C170.939 152.611 171.222 153.523 171.222 154.76C171.222 155.379 171.126 156.008 170.934 156.648C170.742 157.288 170.48 157.901 170.15 158.488C169.83 159.064 169.456 159.581 169.03 160.04C168.614 160.499 168.166 160.861 167.686 161.128C167.216 161.395 166.747 161.528 166.278 161.528ZM166.022 156.12C166.075 156.237 166.102 156.376 166.102 156.536C166.102 156.696 166.07 156.861 166.006 157.032C165.942 157.203 165.878 157.432 165.814 157.72C165.75 157.997 165.718 158.397 165.718 158.92C165.718 159.059 165.734 159.176 165.766 159.272C165.808 159.357 165.899 159.4 166.038 159.4C166.4 159.4 166.742 159.283 167.062 159.048C167.392 158.813 167.686 158.504 167.942 158.12C168.208 157.736 168.432 157.309 168.614 156.84C168.806 156.36 168.95 155.875 169.046 155.384C169.152 154.883 169.206 154.419 169.206 153.992C169.206 153.715 169.152 153.523 169.046 153.416C168.939 153.309 168.752 153.256 168.486 153.256C168.123 153.256 167.75 153.373 167.366 153.608C166.992 153.832 166.678 154.141 166.422 154.536C166.166 154.92 166.038 155.357 166.038 155.848C166.038 155.944 166.032 156.035 166.022 156.12ZM174.94 161.816C174.482 161.816 174.156 161.752 173.964 161.624C173.783 161.496 173.692 161.309 173.692 161.064C173.692 160.851 173.767 160.669 173.916 160.52C174.066 160.36 174.396 160.2 174.908 160.04C175.506 159.859 176.071 159.651 176.604 159.416C177.148 159.171 177.591 158.904 177.932 158.616C178.284 158.328 178.46 158.024 178.46 157.704C178.46 157.491 178.386 157.336 178.236 157.24C178.098 157.144 177.932 157.096 177.74 157.096C177.58 157.096 177.346 157.123 177.036 157.176C176.738 157.219 176.407 157.277 176.044 157.352C175.682 157.416 175.33 157.475 174.988 157.528C174.658 157.571 174.375 157.592 174.14 157.592C173.586 157.592 173.175 157.469 172.908 157.224C172.642 156.968 172.508 156.643 172.508 156.248C172.508 156.035 172.62 155.741 172.844 155.368C173.068 154.995 173.367 154.584 173.74 154.136C174.114 153.688 174.53 153.24 174.988 152.792C175.447 152.344 175.911 151.933 176.38 151.56C176.86 151.176 177.314 150.872 177.74 150.648C178.167 150.413 178.53 150.296 178.828 150.296C179.17 150.296 179.442 150.403 179.644 150.616C179.858 150.829 179.964 151.117 179.964 151.48C179.964 151.651 179.948 151.837 179.916 152.04C179.884 152.232 179.804 152.408 179.676 152.568C179.548 152.717 179.351 152.824 179.084 152.888C178.818 152.952 178.455 152.941 177.996 152.856C177.634 153.123 177.255 153.416 176.86 153.736C176.476 154.045 176.114 154.371 175.772 154.712C175.431 155.043 175.148 155.368 174.924 155.688C175.319 155.56 175.767 155.459 176.268 155.384C176.77 155.299 177.276 155.256 177.788 155.256C178.407 155.256 178.908 155.368 179.292 155.592C179.687 155.805 179.975 156.093 180.156 156.456C180.348 156.819 180.444 157.219 180.444 157.656C180.444 158.147 180.284 158.637 179.964 159.128C179.644 159.619 179.218 160.067 178.684 160.472C178.151 160.877 177.559 161.203 176.908 161.448C176.258 161.693 175.602 161.816 174.94 161.816ZM183.477 161.416C183.146 161.416 182.837 161.315 182.549 161.112C182.261 160.909 182.117 160.579 182.117 160.12C182.117 159.768 182.207 159.485 182.389 159.272C182.57 159.048 182.778 158.883 183.013 158.776C183.258 158.669 183.466 158.616 183.637 158.616C183.818 158.616 184.021 158.659 184.245 158.744C184.479 158.819 184.682 158.963 184.853 159.176C185.023 159.379 185.109 159.672 185.109 160.056C185.109 160.429 184.949 160.749 184.629 161.016C184.319 161.283 183.935 161.416 183.477 161.416Z" fill="white" fill-opacity="0.3"/>
</svg>
