<svg width="46" height="52" viewBox="0 0 46 52" fill="none" xmlns="http://www.w3.org/2000/svg">
<path d="M2.386 13.07C2.20867 13.07 2.05 13.0047 1.91 12.874C1.77 12.734 1.7 12.5193 1.7 12.23C1.7 12.0247 1.728 11.74 1.784 11.376C1.84 11.0027 1.91467 10.5967 2.008 10.158C2.10133 9.71933 2.19933 9.28533 2.302 8.856C2.414 8.41733 2.526 8.02533 2.638 7.68C2.75 7.33467 2.848 7.078 2.932 6.91C3.00667 6.77933 3.07667 6.69533 3.142 6.658C3.21667 6.62067 3.28667 6.602 3.352 6.602C3.48267 6.602 3.59467 6.644 3.688 6.728C3.79067 6.812 3.842 6.97533 3.842 7.218C3.842 7.358 3.814 7.59133 3.758 7.918C3.71133 8.23533 3.646 8.60867 3.562 9.038C3.48733 9.458 3.40333 9.892 3.31 10.34C3.226 10.7787 3.142 11.1987 3.058 11.6C2.974 12.0013 2.90867 12.3373 2.862 12.608C2.82467 12.7573 2.75933 12.874 2.666 12.958C2.582 13.0327 2.48867 13.07 2.386 13.07ZM3.758 5.328C3.54333 5.328 3.338 5.26267 3.142 5.132C2.95533 5.00133 2.862 4.79133 2.862 4.502C2.862 4.25933 2.918 4.06333 3.03 3.914C3.15133 3.76467 3.29133 3.65733 3.45 3.592C3.618 3.51733 3.76267 3.48 3.884 3.48C4.00533 3.48 4.14067 3.508 4.29 3.564C4.44867 3.61067 4.584 3.704 4.696 3.844C4.808 3.97467 4.864 4.17067 4.864 4.432C4.864 4.60933 4.80333 4.768 4.682 4.908C4.56067 5.03867 4.41133 5.14133 4.234 5.216C4.066 5.29067 3.90733 5.328 3.758 5.328ZM15.2894 13.56C14.5707 13.56 14.0061 13.3267 13.5954 12.86C13.1941 12.384 12.9934 11.7213 12.9934 10.872C12.9934 10.3493 13.0634 9.738 13.2034 9.038C13.3527 8.32867 13.5394 7.582 13.7634 6.798C13.9967 6.00467 14.2487 5.22067 14.5194 4.446C14.7901 3.67133 15.0514 2.95267 15.3034 2.29C15.5647 1.618 15.7934 1.058 15.9894 0.609999C16.1014 0.357999 16.2601 0.231999 16.4654 0.231999C16.7454 0.231999 16.8854 0.404666 16.8854 0.749999C16.8854 0.861999 16.8341 1.09067 16.7314 1.436C16.6287 1.78133 16.4934 2.21067 16.3254 2.724C16.1574 3.228 15.9754 3.788 15.7794 4.404C15.5834 5.02 15.3827 5.65467 15.1774 6.308C14.9814 6.952 14.7994 7.59133 14.6314 8.226C14.4634 8.85133 14.3281 9.43933 14.2254 9.99C14.1227 10.5407 14.0714 11.012 14.0714 11.404C14.0714 11.656 14.1367 11.8567 14.2674 12.006C14.4074 12.146 14.5941 12.216 14.8274 12.216C15.2567 12.216 15.6861 12.132 16.1154 11.964C16.5541 11.7867 16.9741 11.572 17.3754 11.32C17.7767 11.0587 18.1407 10.802 18.4674 10.55C18.8034 10.2887 19.0881 10.074 19.3214 9.906C19.5547 9.72867 19.7181 9.64 19.8114 9.64C20.0167 9.64 20.1194 9.752 20.1194 9.976C20.1194 10.0507 20.0447 10.1907 19.8954 10.396C19.7461 10.592 19.5454 10.8253 19.2934 11.096C19.0414 11.3667 18.7474 11.6467 18.4114 11.936C18.0847 12.216 17.7394 12.482 17.3754 12.734C17.0207 12.9767 16.6614 13.1727 16.2974 13.322C15.9427 13.4807 15.6067 13.56 15.2894 13.56ZM21.191 13.14C20.6403 13.14 20.2063 12.93 19.889 12.51C19.5716 12.09 19.413 11.544 19.413 10.872C19.413 10.6293 19.4456 10.3727 19.511 10.102C19.5856 9.822 19.679 9.57 19.791 9.346C19.7256 9.28067 19.6743 9.192 19.637 9.08C19.5996 8.95867 19.581 8.80933 19.581 8.632C19.581 8.08133 19.6743 7.57733 19.861 7.12C20.0476 6.66267 20.295 6.266 20.603 5.93C20.911 5.58467 21.2516 5.31867 21.625 5.132C22.0076 4.94533 22.395 4.852 22.787 4.852C23.431 4.852 23.9536 5.08533 24.355 5.552C24.7563 6.00933 24.957 6.70933 24.957 7.652C24.957 8.14667 24.8823 8.65067 24.733 9.164C24.593 9.67733 24.397 10.172 24.145 10.648C23.9023 11.124 23.6176 11.5487 23.291 11.922C22.9736 12.2953 22.633 12.594 22.269 12.818C21.9143 13.0327 21.555 13.14 21.191 13.14ZM20.715 8.87C20.771 8.94467 20.799 9.04267 20.799 9.164C20.799 9.304 20.771 9.444 20.715 9.584C20.6683 9.724 20.617 9.91533 20.561 10.158C20.505 10.4007 20.477 10.746 20.477 11.194C20.477 11.642 20.6543 11.866 21.009 11.866C21.401 11.866 21.765 11.712 22.101 11.404C22.437 11.0867 22.7356 10.6807 22.997 10.186C23.2583 9.69133 23.459 9.164 23.599 8.604C23.7483 8.03467 23.823 7.498 23.823 6.994C23.823 6.66733 23.7623 6.43867 23.641 6.308C23.5196 6.168 23.3003 6.098 22.983 6.098C22.6563 6.098 22.3156 6.21 21.961 6.434C21.6156 6.64867 21.3263 6.94267 21.093 7.316C20.8596 7.68933 20.743 8.10933 20.743 8.576C20.743 8.67867 20.7336 8.77667 20.715 8.87ZM28.3824 13.14C27.8317 13.14 27.3977 12.93 27.0804 12.51C26.763 12.09 26.6044 11.544 26.6044 10.872C26.6044 10.6293 26.637 10.3727 26.7024 10.102C26.777 9.822 26.8704 9.57 26.9824 9.346C26.917 9.28067 26.8657 9.192 26.8284 9.08C26.791 8.95867 26.7724 8.80933 26.7724 8.632C26.7724 8.08133 26.8657 7.57733 27.0524 7.12C27.239 6.66267 27.4864 6.266 27.7944 5.93C28.1024 5.58467 28.443 5.31867 28.8164 5.132C29.199 4.94533 29.5864 4.852 29.9784 4.852C30.6224 4.852 31.145 5.08533 31.5464 5.552C31.9477 6.00933 32.1484 6.70933 32.1484 7.652C32.1484 8.14667 32.0737 8.65067 31.9244 9.164C31.7844 9.67733 31.5884 10.172 31.3364 10.648C31.0937 11.124 30.809 11.5487 30.4824 11.922C30.165 12.2953 29.8244 12.594 29.4604 12.818C29.1057 13.0327 28.7464 13.14 28.3824 13.14ZM27.9064 8.87C27.9624 8.94467 27.9904 9.04267 27.9904 9.164C27.9904 9.304 27.9624 9.444 27.9064 9.584C27.8597 9.724 27.8084 9.91533 27.7524 10.158C27.6964 10.4007 27.6684 10.746 27.6684 11.194C27.6684 11.642 27.8457 11.866 28.2004 11.866C28.5924 11.866 28.9564 11.712 29.2924 11.404C29.6284 11.0867 29.927 10.6807 30.1884 10.186C30.4497 9.69133 30.6504 9.164 30.7904 8.604C30.9397 8.03467 31.0144 7.498 31.0144 6.994C31.0144 6.66733 30.9537 6.43867 30.8324 6.308C30.711 6.168 30.4917 6.098 30.1744 6.098C29.8477 6.098 29.507 6.21 29.1524 6.434C28.807 6.64867 28.5177 6.94267 28.2844 7.316C28.051 7.68933 27.9344 8.10933 27.9344 8.576C27.9344 8.67867 27.925 8.77667 27.9064 8.87ZM40.5317 13.742C39.9251 13.742 39.3651 13.5973 38.8517 13.308C38.3477 13.0187 37.8904 12.6453 37.4797 12.188C37.0784 11.7307 36.7191 11.2407 36.4017 10.718C36.0937 10.186 35.8277 9.68667 35.6037 9.22C35.4451 9.976 35.3191 10.5873 35.2257 11.054C35.1417 11.5207 35.0717 11.8753 35.0157 12.118C34.9691 12.3607 34.9224 12.524 34.8757 12.608C34.8291 12.692 34.7684 12.734 34.6937 12.734C34.4884 12.734 34.2924 12.622 34.1057 12.398C33.9191 12.174 33.8257 11.8847 33.8257 11.53C33.8257 11.1567 33.8911 10.662 34.0217 10.046C34.1524 9.42067 34.3251 8.73 34.5397 7.974C34.7637 7.20867 35.0204 6.42 35.3097 5.608C35.5991 4.78667 35.8977 3.98867 36.2057 3.214C36.5231 2.43 36.8404 1.716 37.1577 1.072C37.3164 0.754666 37.4517 0.549333 37.5637 0.456C37.6851 0.362666 37.8297 0.316 37.9977 0.316C38.2684 0.316 38.4037 0.442 38.4037 0.693999C38.4037 0.787333 38.3757 0.89 38.3197 1.002C38.2731 1.114 38.2217 1.24 38.1657 1.38C37.9977 1.79067 37.8111 2.25267 37.6057 2.766C37.4097 3.27933 37.2091 3.816 37.0037 4.376C36.8077 4.936 36.6211 5.49133 36.4437 6.042C36.2664 6.59267 36.1124 7.10133 35.9817 7.568C36.3831 7.288 36.8544 7.008 37.3957 6.728C37.9371 6.448 38.4971 6.196 39.0757 5.972C39.6544 5.73867 40.2004 5.552 40.7137 5.412C41.2271 5.272 41.6517 5.202 41.9877 5.202C42.1651 5.202 42.3004 5.258 42.3937 5.37C42.4964 5.47267 42.5477 5.58933 42.5477 5.72C42.5477 5.82267 42.5151 5.92533 42.4497 6.028C42.3937 6.12133 42.2724 6.20533 42.0857 6.28C41.4697 6.49467 40.8584 6.714 40.2517 6.938C39.6451 7.15267 39.0104 7.386 38.3477 7.638C37.6944 7.88067 36.9804 8.17 36.2057 8.506C36.4484 8.91667 36.7331 9.36 37.0597 9.836C37.3864 10.3027 37.7364 10.746 38.1097 11.166C38.4831 11.5767 38.8657 11.9173 39.2577 12.188C39.6497 12.4493 40.0417 12.58 40.4337 12.58C40.9471 12.58 41.4417 12.4727 41.9177 12.258C42.3937 12.0433 42.8324 11.782 43.2337 11.474C43.6444 11.166 44.0037 10.8673 44.3117 10.578C44.6197 10.2793 44.8624 10.046 45.0397 9.878C45.1331 9.794 45.2171 9.738 45.2917 9.71C45.3757 9.67267 45.4504 9.654 45.5157 9.654C45.6464 9.654 45.7351 9.724 45.7817 9.864C45.8377 9.99467 45.7911 10.1393 45.6417 10.298C45.5297 10.4287 45.3571 10.6293 45.1237 10.9C44.8904 11.1707 44.6057 11.4693 44.2697 11.796C43.9431 12.1133 43.5791 12.4213 43.1777 12.72C42.7857 13.0187 42.3611 13.2613 41.9037 13.448C41.4557 13.644 40.9984 13.742 40.5317 13.742ZM4.598 32.56C3.87933 32.56 3.31467 32.3267 2.904 31.86C2.50267 31.384 2.302 30.7213 2.302 29.872C2.302 29.3493 2.372 28.738 2.512 28.038C2.66133 27.3287 2.848 26.582 3.072 25.798C3.30533 25.0047 3.55733 24.2207 3.828 23.446C4.09867 22.6713 4.36 21.9527 4.612 21.29C4.87333 20.618 5.102 20.058 5.298 19.61C5.41 19.358 5.56867 19.232 5.774 19.232C6.054 19.232 6.194 19.4047 6.194 19.75C6.194 19.862 6.14267 20.0907 6.04 20.436C5.93733 20.7813 5.802 21.2107 5.634 21.724C5.466 22.228 5.284 22.788 5.088 23.404C4.892 24.02 4.69133 24.6547 4.486 25.308C4.29 25.952 4.108 26.5913 3.94 27.226C3.772 27.8513 3.63667 28.4393 3.534 28.99C3.43133 29.5407 3.38 30.012 3.38 30.404C3.38 30.656 3.44533 30.8567 3.576 31.006C3.716 31.146 3.90267 31.216 4.136 31.216C4.56533 31.216 4.99467 31.132 5.424 30.964C5.86267 30.7867 6.28267 30.572 6.684 30.32C7.08533 30.0587 7.44933 29.802 7.776 29.55C8.112 29.2887 8.39667 29.074 8.63 28.906C8.86333 28.7287 9.02667 28.64 9.12 28.64C9.32533 28.64 9.428 28.752 9.428 28.976C9.428 29.0507 9.35333 29.1907 9.204 29.396C9.05467 29.592 8.854 29.8253 8.602 30.096C8.35 30.3667 8.056 30.6467 7.72 30.936C7.39333 31.216 7.048 31.482 6.684 31.734C6.32933 31.9767 5.97 32.1727 5.606 32.322C5.25133 32.4807 4.91533 32.56 4.598 32.56ZM9.42702 32.07C9.24968 32.07 9.09102 32.0047 8.95102 31.874C8.81102 31.734 8.74102 31.5193 8.74102 31.23C8.74102 31.0247 8.76902 30.74 8.82502 30.376C8.88102 30.0027 8.95568 29.5967 9.04902 29.158C9.14235 28.7193 9.24035 28.2853 9.34302 27.856C9.45502 27.4173 9.56702 27.0253 9.67902 26.68C9.79102 26.3347 9.88902 26.078 9.97302 25.91C10.0477 25.7793 10.1177 25.6953 10.183 25.658C10.2577 25.6207 10.3277 25.602 10.393 25.602C10.5237 25.602 10.6357 25.644 10.729 25.728C10.8317 25.812 10.883 25.9753 10.883 26.218C10.883 26.358 10.855 26.5913 10.799 26.918C10.7523 27.2353 10.687 27.6087 10.603 28.038C10.5283 28.458 10.4443 28.892 10.351 29.34C10.267 29.7787 10.183 30.1987 10.099 30.6C10.015 31.0013 9.94968 31.3373 9.90302 31.608C9.86568 31.7573 9.80035 31.874 9.70702 31.958C9.62302 32.0327 9.52968 32.07 9.42702 32.07ZM10.799 24.328C10.5843 24.328 10.379 24.2627 10.183 24.132C9.99635 24.0013 9.90302 23.7913 9.90302 23.502C9.90302 23.2593 9.95902 23.0633 10.071 22.914C10.1923 22.7647 10.3323 22.6573 10.491 22.592C10.659 22.5173 10.8037 22.48 10.925 22.48C11.0463 22.48 11.1817 22.508 11.331 22.564C11.4897 22.6107 11.625 22.704 11.737 22.844C11.849 22.9747 11.905 23.1707 11.905 23.432C11.905 23.6093 11.8443 23.768 11.723 23.908C11.6017 24.0387 11.4523 24.1413 11.275 24.216C11.107 24.2907 10.9483 24.328 10.799 24.328ZM19.6548 32.742C19.0481 32.742 18.4881 32.5973 17.9748 32.308C17.4708 32.0187 17.0134 31.6453 16.6028 31.188C16.2014 30.7307 15.8421 30.2407 15.5248 29.718C15.2168 29.186 14.9508 28.6867 14.7268 28.22C14.5681 28.976 14.4421 29.5873 14.3488 30.054C14.2648 30.5207 14.1948 30.8753 14.1388 31.118C14.0921 31.3607 14.0454 31.524 13.9988 31.608C13.9521 31.692 13.8914 31.734 13.8168 31.734C13.6114 31.734 13.4154 31.622 13.2288 31.398C13.0421 31.174 12.9488 30.8847 12.9488 30.53C12.9488 30.1567 13.0141 29.662 13.1448 29.046C13.2754 28.4207 13.4481 27.73 13.6628 26.974C13.8868 26.2087 14.1434 25.42 14.4328 24.608C14.7221 23.7867 15.0208 22.9887 15.3288 22.214C15.6461 21.43 15.9634 20.716 16.2808 20.072C16.4394 19.7547 16.5748 19.5493 16.6868 19.456C16.8081 19.3627 16.9528 19.316 17.1208 19.316C17.3914 19.316 17.5268 19.442 17.5268 19.694C17.5268 19.7873 17.4988 19.89 17.4428 20.002C17.3961 20.114 17.3448 20.24 17.2888 20.38C17.1208 20.7907 16.9341 21.2527 16.7288 21.766C16.5328 22.2793 16.3321 22.816 16.1268 23.376C15.9308 23.936 15.7441 24.4913 15.5668 25.042C15.3894 25.5927 15.2354 26.1013 15.1048 26.568C15.5061 26.288 15.9774 26.008 16.5188 25.728C17.0601 25.448 17.6201 25.196 18.1988 24.972C18.7774 24.7387 19.3234 24.552 19.8368 24.412C20.3501 24.272 20.7748 24.202 21.1108 24.202C21.2881 24.202 21.4234 24.258 21.5168 24.37C21.6194 24.4727 21.6708 24.5893 21.6708 24.72C21.6708 24.8227 21.6381 24.9253 21.5728 25.028C21.5168 25.1213 21.3954 25.2053 21.2088 25.28C20.5928 25.4947 19.9814 25.714 19.3748 25.938C18.7681 26.1527 18.1334 26.386 17.4708 26.638C16.8174 26.8807 16.1034 27.17 15.3288 27.506C15.5714 27.9167 15.8561 28.36 16.1828 28.836C16.5094 29.3027 16.8594 29.746 17.2328 30.166C17.6061 30.5767 17.9888 30.9173 18.3808 31.188C18.7728 31.4493 19.1648 31.58 19.5568 31.58C20.0701 31.58 20.5648 31.4727 21.0408 31.258C21.5168 31.0433 21.9554 30.782 22.3568 30.474C22.7674 30.166 23.1268 29.8673 23.4348 29.578C23.7428 29.2793 23.9854 29.046 24.1628 28.878C24.2561 28.794 24.3401 28.738 24.4148 28.71C24.4988 28.6727 24.5734 28.654 24.6388 28.654C24.7694 28.654 24.8581 28.724 24.9048 28.864C24.9608 28.9947 24.9141 29.1393 24.7648 29.298C24.6528 29.4287 24.4801 29.6293 24.2468 29.9C24.0134 30.1707 23.7288 30.4693 23.3928 30.796C23.0661 31.1133 22.7021 31.4213 22.3008 31.72C21.9088 32.0187 21.4841 32.2613 21.0268 32.448C20.5788 32.644 20.1214 32.742 19.6548 32.742ZM29.6279 25.966C29.6279 26.2647 29.5346 26.5587 29.3479 26.848C29.1613 27.128 28.9139 27.3987 28.6059 27.66C28.2979 27.912 27.9573 28.15 27.5839 28.374C27.2106 28.598 26.8373 28.794 26.4639 28.962C26.0906 29.13 25.7499 29.2653 25.4419 29.368C25.3673 29.732 25.3299 30.054 25.3299 30.334C25.3299 30.5113 25.3719 30.6373 25.4559 30.712C25.5399 30.7867 25.6706 30.824 25.8479 30.824C26.2399 30.824 26.6553 30.754 27.0939 30.614C27.5326 30.474 27.9806 30.292 28.4379 30.068C28.8953 29.844 29.3339 29.606 29.7539 29.354C30.1739 29.102 30.5566 28.864 30.9019 28.64C31.2566 28.416 31.5506 28.234 31.7839 28.094C32.0173 27.954 32.1713 27.884 32.2459 27.884C32.3579 27.884 32.4419 27.9213 32.4979 27.996C32.5633 28.0613 32.5959 28.1407 32.5959 28.234C32.5959 28.3087 32.4793 28.4533 32.2459 28.668C32.0219 28.8827 31.7186 29.1347 31.3359 29.424C30.9533 29.704 30.5239 29.9933 30.0479 30.292C29.5719 30.5907 29.0773 30.8707 28.5639 31.132C28.0599 31.3933 27.5699 31.6033 27.0939 31.762C26.6273 31.9207 26.2073 32 25.8339 32C25.3486 32 24.9706 31.818 24.6999 31.454C24.4293 31.09 24.2939 30.5253 24.2939 29.76C24.2939 29.2467 24.3593 28.7287 24.4899 28.206C24.6299 27.6833 24.8166 27.184 25.0499 26.708C25.2926 26.2227 25.5586 25.7933 25.8479 25.42C26.1466 25.0373 26.4593 24.7387 26.7859 24.524C27.1126 24.3 27.4299 24.188 27.7379 24.188C28.3259 24.188 28.7879 24.3513 29.1239 24.678C29.4599 25.0047 29.6279 25.434 29.6279 25.966ZM25.7359 28.29C26.0253 28.1127 26.3239 27.926 26.6319 27.73C26.9399 27.534 27.2246 27.3333 27.4859 27.128C27.7473 26.9227 27.9573 26.708 28.1159 26.484C28.2839 26.2507 28.3679 26.0127 28.3679 25.77C28.3679 25.4247 28.1813 25.252 27.8079 25.252C27.5746 25.252 27.3273 25.4013 27.0659 25.7C26.8139 25.9893 26.5713 26.3673 26.3379 26.834C26.1046 27.3007 25.9039 27.786 25.7359 28.29ZM0.762 46.52C0.51 46.5013 0.393333 46.338 0.412 46.03C0.421333 45.9553 0.472667 45.8667 0.566 45.764C0.659333 45.652 0.766667 45.5913 0.888 45.582C1.17733 45.554 1.532 45.512 1.952 45.456C2.38133 45.3907 2.85267 45.316 3.366 45.232C3.45933 44.7747 3.57133 44.294 3.702 43.79C3.83267 43.286 3.97733 42.796 4.136 42.32C4.29467 41.8347 4.46267 41.396 4.64 41.004C4.81733 40.612 5.004 40.304 5.2 40.08C5.30267 39.9773 5.396 39.9073 5.48 39.87C5.564 39.8233 5.63867 39.8 5.704 39.8C5.83467 39.8 5.93733 39.856 6.012 39.968C6.096 40.08 6.138 40.206 6.138 40.346C6.138 40.4207 6.124 40.4953 6.096 40.57C5.90933 41.0927 5.70867 41.7367 5.494 42.502C5.27933 43.2673 5.05067 44.1027 4.808 45.008C5.66667 44.868 6.52533 44.7187 7.384 44.56C8.24267 44.4013 8.98 44.2567 9.596 44.126C9.77333 44.0513 9.90867 44.0653 10.002 44.168C10.1047 44.2707 10.156 44.3733 10.156 44.476C10.156 44.6067 10.1187 44.7047 10.044 44.77C9.97867 44.8353 9.90867 44.8913 9.834 44.938L9.82 44.952C9.63333 45.0267 9.35333 45.1153 8.98 45.218C8.60667 45.3113 8.17733 45.414 7.692 45.526C7.20667 45.6287 6.68867 45.7313 6.138 45.834C5.59667 45.9367 5.06 46.03 4.528 46.114C4.31333 46.9353 4.094 47.78 3.87 48.648C3.65533 49.5067 3.44067 50.3513 3.226 51.182C3.13267 51.518 3.02533 51.728 2.904 51.812C2.792 51.9053 2.67067 51.952 2.54 51.952C2.39067 51.952 2.26 51.896 2.148 51.784C2.04533 51.672 2.03133 51.4433 2.106 51.098L3.128 46.324C2.568 46.408 2.07333 46.4687 1.644 46.506C1.224 46.5433 0.93 46.548 0.762 46.52ZM9.02955 51.63C8.82421 51.63 8.66555 51.5693 8.55355 51.448C8.44155 51.336 8.38555 51.0513 8.38555 50.594C8.38555 50.174 8.46021 49.628 8.60955 48.956C8.75888 48.2747 8.95955 47.5187 9.21155 46.688C9.46355 45.8573 9.74821 44.9987 10.0655 44.112C10.3829 43.216 10.7142 42.3387 11.0595 41.48C11.4142 40.612 11.7549 39.8187 12.0815 39.1C12.2029 38.8387 12.3289 38.6567 12.4595 38.554C12.5902 38.4513 12.7442 38.4 12.9215 38.4C13.0429 38.4 13.1455 38.4373 13.2295 38.512C13.3229 38.5773 13.3695 38.6893 13.3695 38.848C13.3695 38.904 13.3089 39.086 13.1875 39.394C13.0755 39.702 12.9169 40.108 12.7115 40.612C12.5155 41.116 12.2962 41.6807 12.0535 42.306C11.8109 42.9313 11.5635 43.5893 11.3115 44.28C11.0595 44.9707 10.8215 45.666 10.5975 46.366C10.3735 47.0567 10.1822 47.7193 10.0235 48.354C9.86488 48.9887 9.75755 49.558 9.70155 50.062C9.92555 49.7913 10.1822 49.446 10.4715 49.026C10.7609 48.606 11.0689 48.1533 11.3955 47.668C11.7222 47.1827 12.0535 46.702 12.3895 46.226C12.7255 45.75 13.0569 45.316 13.3835 44.924C13.7102 44.532 14.0135 44.2193 14.2935 43.986C14.5829 43.7433 14.8349 43.622 15.0495 43.622C15.4042 43.622 15.6889 43.734 15.9035 43.958C16.1275 44.1727 16.2395 44.5273 16.2395 45.022C16.2395 45.302 16.1835 45.638 16.0715 46.03C15.9689 46.422 15.8475 46.8327 15.7075 47.262C15.5675 47.6913 15.4415 48.102 15.3295 48.494C15.2269 48.886 15.1755 49.222 15.1755 49.502C15.1755 49.8847 15.3202 50.076 15.6095 50.076C16.0575 50.076 16.5055 49.978 16.9535 49.782C17.4109 49.586 17.8449 49.3433 18.2555 49.054C18.6662 48.7553 19.0442 48.4567 19.3895 48.158C19.7349 47.85 20.0289 47.5887 20.2715 47.374C20.5329 47.1407 20.7522 47.024 20.9295 47.024C21.1535 47.024 21.2655 47.1407 21.2655 47.374C21.2655 47.4393 21.2515 47.514 21.2235 47.598C21.1955 47.682 21.1209 47.7893 20.9995 47.92C20.8502 48.088 20.6355 48.3073 20.3555 48.578C20.0849 48.8487 19.7675 49.138 19.4035 49.446C19.0489 49.754 18.6615 50.0433 18.2415 50.314C17.8309 50.5847 17.4062 50.8087 16.9675 50.986C16.5382 51.154 16.1182 51.238 15.7075 51.238C15.1475 51.238 14.7135 51.0793 14.4055 50.762C14.1069 50.4353 13.9575 49.9873 13.9575 49.418C13.9575 49.0633 14.0135 48.634 14.1255 48.13C14.2375 47.626 14.3775 47.094 14.5455 46.534C14.7229 45.9647 14.9002 45.4093 15.0775 44.868C14.7789 45.0733 14.4522 45.3813 14.0975 45.792C13.7522 46.1933 13.3882 46.6507 13.0055 47.164C12.6229 47.668 12.2402 48.1813 11.8575 48.704C11.4842 49.2267 11.1202 49.712 10.7655 50.16C10.4202 50.5987 10.0982 50.9533 9.79955 51.224C9.50088 51.4947 9.24421 51.63 9.02955 51.63ZM29.3545 44.854C29.5225 45.3487 29.6858 45.8713 29.8445 46.422C30.0125 46.9727 30.1478 47.514 30.2505 48.046C30.3625 48.5687 30.4185 49.0353 30.4185 49.446C30.4185 49.9127 30.3018 50.2953 30.0685 50.594C29.8445 50.8833 29.5552 51.1073 29.2005 51.266C28.8458 51.434 28.4725 51.546 28.0805 51.602C27.6978 51.6673 27.3432 51.7 27.0165 51.7C26.7552 51.7 26.5732 51.644 26.4705 51.532C26.3772 51.4293 26.3305 51.3173 26.3305 51.196C26.3305 51.112 26.3632 51.028 26.4285 50.944C26.4938 50.8507 26.6618 50.7853 26.9325 50.748C27.1378 50.72 27.3712 50.6733 27.6325 50.608C27.9032 50.5427 28.1645 50.454 28.4165 50.342C28.6778 50.23 28.8925 50.0947 29.0605 49.936C29.2285 49.768 29.3125 49.5673 29.3125 49.334C29.3125 48.8207 29.2378 48.2933 29.0885 47.752C28.9485 47.2107 28.8038 46.6553 28.6545 46.086C28.3278 46.59 27.9545 47.0893 27.5345 47.584C27.1145 48.0787 26.6665 48.55 26.1905 48.998C25.7145 49.446 25.2338 49.8427 24.7485 50.188C24.2632 50.5333 23.7918 50.804 23.3345 51C22.8772 51.196 22.4525 51.294 22.0605 51.294C21.4165 51.294 20.8938 51.07 20.4925 50.622C20.0912 50.1647 19.8905 49.4787 19.8905 48.564C19.8905 48.0507 19.9418 47.5233 20.0445 46.982C20.1565 46.4407 20.2965 45.9413 20.4645 45.484C20.6418 45.0173 20.8238 44.644 21.0105 44.364C21.1972 44.0747 21.3698 43.93 21.5285 43.93C21.6498 43.93 21.7525 43.9673 21.8365 44.042C21.9298 44.1167 21.9765 44.2473 21.9765 44.434C21.9765 44.5367 21.9345 44.742 21.8505 45.05C21.7665 45.3487 21.6732 45.7033 21.5705 46.114C21.4678 46.5153 21.3745 46.94 21.2905 47.388C21.2065 47.8267 21.1645 48.2373 21.1645 48.62C21.1645 49.124 21.2485 49.4927 21.4165 49.726C21.5938 49.9593 21.8318 50.076 22.1305 50.076C22.4945 50.076 22.9098 49.9593 23.3765 49.726C23.8432 49.4927 24.3238 49.1847 24.8185 48.802C25.3132 48.41 25.7892 47.9807 26.2465 47.514C26.7132 47.038 27.1285 46.5527 27.4925 46.058C27.8565 45.5633 28.1412 45.092 28.3465 44.644C28.3185 44.4667 28.2952 44.2847 28.2765 44.098C28.2672 43.9113 28.2625 43.7247 28.2625 43.538C28.2625 43.2207 28.3138 42.9547 28.4165 42.74C28.5192 42.516 28.6358 42.3433 28.7665 42.222C28.9065 42.1007 29.0232 42.04 29.1165 42.04C29.3218 42.04 29.4852 42.1427 29.6065 42.348C29.7278 42.5533 29.7885 42.852 29.7885 43.244C29.7885 43.4773 29.7512 43.7293 29.6765 44C29.6018 44.2707 29.4945 44.5553 29.3545 44.854ZM21.9905 42.208C21.7292 42.208 21.5238 42.138 21.3745 41.998C21.2345 41.8487 21.1645 41.6527 21.1645 41.41C21.1645 41.13 21.2578 40.906 21.4445 40.738C21.6405 40.5607 21.8598 40.472 22.1025 40.472C22.3732 40.472 22.5878 40.5513 22.7465 40.71C22.9145 40.8593 22.9985 41.074 22.9985 41.354C22.9985 41.5593 22.8958 41.7553 22.6905 41.942C22.4945 42.1193 22.2612 42.208 21.9905 42.208Z" fill="white" fill-opacity="0.3"/>
</svg>
