<svg width="73" height="145" viewBox="0 0 73 145" fill="none" xmlns="http://www.w3.org/2000/svg">
<path d="M2.386 103.07C2.20867 103.07 2.05 103.005 1.91 102.874C1.77 102.734 1.7 102.519 1.7 102.23C1.7 102.025 1.728 101.74 1.784 101.376C1.84 101.003 1.91467 100.597 2.008 100.158C2.10133 99.7193 2.19933 99.2853 2.302 98.856C2.414 98.4173 2.526 98.0253 2.638 97.68C2.75 97.3347 2.848 97.078 2.932 96.91C3.00667 96.7793 3.07667 96.6953 3.142 96.658C3.21667 96.6207 3.28667 96.602 3.352 96.602C3.48267 96.602 3.59467 96.644 3.688 96.728C3.79067 96.812 3.842 96.9753 3.842 97.218C3.842 97.358 3.814 97.5913 3.758 97.918C3.71133 98.2353 3.646 98.6087 3.562 99.038C3.48733 99.458 3.40333 99.892 3.31 100.34C3.226 100.779 3.142 101.199 3.058 101.6C2.974 102.001 2.90867 102.337 2.862 102.608C2.82467 102.757 2.75933 102.874 2.666 102.958C2.582 103.033 2.48867 103.07 2.386 103.07ZM3.758 95.328C3.54333 95.328 3.338 95.2627 3.142 95.132C2.95533 95.0013 2.862 94.7913 2.862 94.502C2.862 94.2593 2.918 94.0633 3.03 93.914C3.15133 93.7647 3.29133 93.6573 3.45 93.592C3.618 93.5173 3.76267 93.48 3.884 93.48C4.00533 93.48 4.14067 93.508 4.29 93.564C4.44867 93.6107 4.584 93.704 4.696 93.844C4.808 93.9747 4.864 94.1707 4.864 94.432C4.864 94.6093 4.80333 94.768 4.682 94.908C4.56067 95.0387 4.41133 95.1413 4.234 95.216C4.066 95.2907 3.90733 95.328 3.758 95.328ZM15.2894 103.56C14.5707 103.56 14.0061 103.327 13.5954 102.86C13.1941 102.384 12.9934 101.721 12.9934 100.872C12.9934 100.349 13.0634 99.738 13.2034 99.038C13.3527 98.3287 13.5394 97.582 13.7634 96.798C13.9967 96.0047 14.2487 95.2207 14.5194 94.446C14.7901 93.6713 15.0514 92.9527 15.3034 92.29C15.5647 91.618 15.7934 91.058 15.9894 90.61C16.1014 90.358 16.2601 90.232 16.4654 90.232C16.7454 90.232 16.8854 90.4047 16.8854 90.75C16.8854 90.862 16.8341 91.0907 16.7314 91.436C16.6287 91.7813 16.4934 92.2107 16.3254 92.724C16.1574 93.228 15.9754 93.788 15.7794 94.404C15.5834 95.02 15.3827 95.6547 15.1774 96.308C14.9814 96.952 14.7994 97.5913 14.6314 98.226C14.4634 98.8513 14.3281 99.4393 14.2254 99.99C14.1227 100.541 14.0714 101.012 14.0714 101.404C14.0714 101.656 14.1367 101.857 14.2674 102.006C14.4074 102.146 14.5941 102.216 14.8274 102.216C15.2567 102.216 15.6861 102.132 16.1154 101.964C16.5541 101.787 16.9741 101.572 17.3754 101.32C17.7767 101.059 18.1407 100.802 18.4674 100.55C18.8034 100.289 19.0881 100.074 19.3214 99.906C19.5547 99.7287 19.7181 99.64 19.8114 99.64C20.0167 99.64 20.1194 99.752 20.1194 99.976C20.1194 100.051 20.0447 100.191 19.8954 100.396C19.7461 100.592 19.5454 100.825 19.2934 101.096C19.0414 101.367 18.7474 101.647 18.4114 101.936C18.0847 102.216 17.7394 102.482 17.3754 102.734C17.0207 102.977 16.6614 103.173 16.2974 103.322C15.9427 103.481 15.6067 103.56 15.2894 103.56ZM21.191 103.14C20.6403 103.14 20.2063 102.93 19.889 102.51C19.5716 102.09 19.413 101.544 19.413 100.872C19.413 100.629 19.4456 100.373 19.511 100.102C19.5856 99.822 19.679 99.57 19.791 99.346C19.7256 99.2807 19.6743 99.192 19.637 99.08C19.5996 98.9587 19.581 98.8093 19.581 98.632C19.581 98.0813 19.6743 97.5773 19.861 97.12C20.0476 96.6627 20.295 96.266 20.603 95.93C20.911 95.5847 21.2516 95.3187 21.625 95.132C22.0076 94.9453 22.395 94.852 22.787 94.852C23.431 94.852 23.9536 95.0853 24.355 95.552C24.7563 96.0093 24.957 96.7093 24.957 97.652C24.957 98.1467 24.8823 98.6507 24.733 99.164C24.593 99.6773 24.397 100.172 24.145 100.648C23.9023 101.124 23.6176 101.549 23.291 101.922C22.9736 102.295 22.633 102.594 22.269 102.818C21.9143 103.033 21.555 103.14 21.191 103.14ZM20.715 98.87C20.771 98.9447 20.799 99.0427 20.799 99.164C20.799 99.304 20.771 99.444 20.715 99.584C20.6683 99.724 20.617 99.9153 20.561 100.158C20.505 100.401 20.477 100.746 20.477 101.194C20.477 101.642 20.6543 101.866 21.009 101.866C21.401 101.866 21.765 101.712 22.101 101.404C22.437 101.087 22.7356 100.681 22.997 100.186C23.2583 99.6913 23.459 99.164 23.599 98.604C23.7483 98.0347 23.823 97.498 23.823 96.994C23.823 96.6673 23.7623 96.4387 23.641 96.308C23.5196 96.168 23.3003 96.098 22.983 96.098C22.6563 96.098 22.3156 96.21 21.961 96.434C21.6156 96.6487 21.3263 96.9427 21.093 97.316C20.8596 97.6893 20.743 98.1093 20.743 98.576C20.743 98.6787 20.7336 98.7767 20.715 98.87ZM28.3824 103.14C27.8317 103.14 27.3977 102.93 27.0804 102.51C26.763 102.09 26.6044 101.544 26.6044 100.872C26.6044 100.629 26.637 100.373 26.7024 100.102C26.777 99.822 26.8704 99.57 26.9824 99.346C26.917 99.2807 26.8657 99.192 26.8284 99.08C26.791 98.9587 26.7724 98.8093 26.7724 98.632C26.7724 98.0813 26.8657 97.5773 27.0524 97.12C27.239 96.6627 27.4864 96.266 27.7944 95.93C28.1024 95.5847 28.443 95.3187 28.8164 95.132C29.199 94.9453 29.5864 94.852 29.9784 94.852C30.6224 94.852 31.145 95.0853 31.5464 95.552C31.9477 96.0093 32.1484 96.7093 32.1484 97.652C32.1484 98.1467 32.0737 98.6507 31.9244 99.164C31.7844 99.6773 31.5884 100.172 31.3364 100.648C31.0937 101.124 30.809 101.549 30.4824 101.922C30.165 102.295 29.8244 102.594 29.4604 102.818C29.1057 103.033 28.7464 103.14 28.3824 103.14ZM27.9064 98.87C27.9624 98.9447 27.9904 99.0427 27.9904 99.164C27.9904 99.304 27.9624 99.444 27.9064 99.584C27.8597 99.724 27.8084 99.9153 27.7524 100.158C27.6964 100.401 27.6684 100.746 27.6684 101.194C27.6684 101.642 27.8457 101.866 28.2004 101.866C28.5924 101.866 28.9564 101.712 29.2924 101.404C29.6284 101.087 29.927 100.681 30.1884 100.186C30.4497 99.6913 30.6504 99.164 30.7904 98.604C30.9397 98.0347 31.0144 97.498 31.0144 96.994C31.0144 96.6673 30.9537 96.4387 30.8324 96.308C30.711 96.168 30.4917 96.098 30.1744 96.098C29.8477 96.098 29.507 96.21 29.1524 96.434C28.807 96.6487 28.5177 96.9427 28.2844 97.316C28.051 97.6893 27.9344 98.1093 27.9344 98.576C27.9344 98.6787 27.925 98.7767 27.9064 98.87ZM40.5317 103.742C39.9251 103.742 39.3651 103.597 38.8517 103.308C38.3477 103.019 37.8904 102.645 37.4797 102.188C37.0784 101.731 36.7191 101.241 36.4017 100.718C36.0937 100.186 35.8277 99.6867 35.6037 99.22C35.4451 99.976 35.3191 100.587 35.2257 101.054C35.1417 101.521 35.0717 101.875 35.0157 102.118C34.9691 102.361 34.9224 102.524 34.8757 102.608C34.8291 102.692 34.7684 102.734 34.6937 102.734C34.4884 102.734 34.2924 102.622 34.1057 102.398C33.9191 102.174 33.8257 101.885 33.8257 101.53C33.8257 101.157 33.8911 100.662 34.0217 100.046C34.1524 99.4207 34.3251 98.73 34.5397 97.974C34.7637 97.2087 35.0204 96.42 35.3097 95.608C35.5991 94.7867 35.8977 93.9887 36.2057 93.214C36.5231 92.43 36.8404 91.716 37.1577 91.072C37.3164 90.7547 37.4517 90.5493 37.5637 90.456C37.6851 90.3627 37.8297 90.316 37.9977 90.316C38.2684 90.316 38.4037 90.442 38.4037 90.694C38.4037 90.7873 38.3757 90.89 38.3197 91.002C38.2731 91.114 38.2217 91.24 38.1657 91.38C37.9977 91.7907 37.8111 92.2527 37.6057 92.766C37.4097 93.2793 37.2091 93.816 37.0037 94.376C36.8077 94.936 36.6211 95.4913 36.4437 96.042C36.2664 96.5927 36.1124 97.1013 35.9817 97.568C36.3831 97.288 36.8544 97.008 37.3957 96.728C37.9371 96.448 38.4971 96.196 39.0757 95.972C39.6544 95.7387 40.2004 95.552 40.7137 95.412C41.2271 95.272 41.6517 95.202 41.9877 95.202C42.1651 95.202 42.3004 95.258 42.3937 95.37C42.4964 95.4727 42.5477 95.5893 42.5477 95.72C42.5477 95.8227 42.5151 95.9253 42.4497 96.028C42.3937 96.1213 42.2724 96.2053 42.0857 96.28C41.4697 96.4947 40.8584 96.714 40.2517 96.938C39.6451 97.1527 39.0104 97.386 38.3477 97.638C37.6944 97.8807 36.9804 98.17 36.2057 98.506C36.4484 98.9167 36.7331 99.36 37.0597 99.836C37.3864 100.303 37.7364 100.746 38.1097 101.166C38.4831 101.577 38.8657 101.917 39.2577 102.188C39.6497 102.449 40.0417 102.58 40.4337 102.58C40.9471 102.58 41.4417 102.473 41.9177 102.258C42.3937 102.043 42.8324 101.782 43.2337 101.474C43.6444 101.166 44.0037 100.867 44.3117 100.578C44.6197 100.279 44.8624 100.046 45.0397 99.878C45.1331 99.794 45.2171 99.738 45.2917 99.71C45.3757 99.6727 45.4504 99.654 45.5157 99.654C45.6464 99.654 45.7351 99.724 45.7817 99.864C45.8377 99.9947 45.7911 100.139 45.6417 100.298C45.5297 100.429 45.3571 100.629 45.1237 100.9C44.8904 101.171 44.6057 101.469 44.2697 101.796C43.9431 102.113 43.5791 102.421 43.1777 102.72C42.7857 103.019 42.3611 103.261 41.9037 103.448C41.4557 103.644 40.9984 103.742 40.5317 103.742ZM4.598 122.56C3.87933 122.56 3.31467 122.327 2.904 121.86C2.50267 121.384 2.302 120.721 2.302 119.872C2.302 119.349 2.372 118.738 2.512 118.038C2.66133 117.329 2.848 116.582 3.072 115.798C3.30533 115.005 3.55733 114.221 3.828 113.446C4.09867 112.671 4.36 111.953 4.612 111.29C4.87333 110.618 5.102 110.058 5.298 109.61C5.41 109.358 5.56867 109.232 5.774 109.232C6.054 109.232 6.194 109.405 6.194 109.75C6.194 109.862 6.14267 110.091 6.04 110.436C5.93733 110.781 5.802 111.211 5.634 111.724C5.466 112.228 5.284 112.788 5.088 113.404C4.892 114.02 4.69133 114.655 4.486 115.308C4.29 115.952 4.108 116.591 3.94 117.226C3.772 117.851 3.63667 118.439 3.534 118.99C3.43133 119.541 3.38 120.012 3.38 120.404C3.38 120.656 3.44533 120.857 3.576 121.006C3.716 121.146 3.90267 121.216 4.136 121.216C4.56533 121.216 4.99467 121.132 5.424 120.964C5.86267 120.787 6.28267 120.572 6.684 120.32C7.08533 120.059 7.44933 119.802 7.776 119.55C8.112 119.289 8.39667 119.074 8.63 118.906C8.86333 118.729 9.02667 118.64 9.12 118.64C9.32533 118.64 9.428 118.752 9.428 118.976C9.428 119.051 9.35333 119.191 9.204 119.396C9.05467 119.592 8.854 119.825 8.602 120.096C8.35 120.367 8.056 120.647 7.72 120.936C7.39333 121.216 7.048 121.482 6.684 121.734C6.32933 121.977 5.97 122.173 5.606 122.322C5.25133 122.481 4.91533 122.56 4.598 122.56ZM9.42702 122.07C9.24968 122.07 9.09102 122.005 8.95102 121.874C8.81102 121.734 8.74102 121.519 8.74102 121.23C8.74102 121.025 8.76902 120.74 8.82502 120.376C8.88102 120.003 8.95568 119.597 9.04902 119.158C9.14235 118.719 9.24035 118.285 9.34302 117.856C9.45502 117.417 9.56702 117.025 9.67902 116.68C9.79102 116.335 9.88902 116.078 9.97302 115.91C10.0477 115.779 10.1177 115.695 10.183 115.658C10.2577 115.621 10.3277 115.602 10.393 115.602C10.5237 115.602 10.6357 115.644 10.729 115.728C10.8317 115.812 10.883 115.975 10.883 116.218C10.883 116.358 10.855 116.591 10.799 116.918C10.7523 117.235 10.687 117.609 10.603 118.038C10.5283 118.458 10.4443 118.892 10.351 119.34C10.267 119.779 10.183 120.199 10.099 120.6C10.015 121.001 9.94968 121.337 9.90302 121.608C9.86568 121.757 9.80035 121.874 9.70702 121.958C9.62302 122.033 9.52968 122.07 9.42702 122.07ZM10.799 114.328C10.5843 114.328 10.379 114.263 10.183 114.132C9.99635 114.001 9.90302 113.791 9.90302 113.502C9.90302 113.259 9.95902 113.063 10.071 112.914C10.1923 112.765 10.3323 112.657 10.491 112.592C10.659 112.517 10.8037 112.48 10.925 112.48C11.0463 112.48 11.1817 112.508 11.331 112.564C11.4897 112.611 11.625 112.704 11.737 112.844C11.849 112.975 11.905 113.171 11.905 113.432C11.905 113.609 11.8443 113.768 11.723 113.908C11.6017 114.039 11.4523 114.141 11.275 114.216C11.107 114.291 10.9483 114.328 10.799 114.328ZM19.6548 122.742C19.0481 122.742 18.4881 122.597 17.9748 122.308C17.4708 122.019 17.0134 121.645 16.6028 121.188C16.2014 120.731 15.8421 120.241 15.5248 119.718C15.2168 119.186 14.9508 118.687 14.7268 118.22C14.5681 118.976 14.4421 119.587 14.3488 120.054C14.2648 120.521 14.1948 120.875 14.1388 121.118C14.0921 121.361 14.0454 121.524 13.9988 121.608C13.9521 121.692 13.8914 121.734 13.8168 121.734C13.6114 121.734 13.4154 121.622 13.2288 121.398C13.0421 121.174 12.9488 120.885 12.9488 120.53C12.9488 120.157 13.0141 119.662 13.1448 119.046C13.2754 118.421 13.4481 117.73 13.6628 116.974C13.8868 116.209 14.1434 115.42 14.4328 114.608C14.7221 113.787 15.0208 112.989 15.3288 112.214C15.6461 111.43 15.9634 110.716 16.2808 110.072C16.4394 109.755 16.5748 109.549 16.6868 109.456C16.8081 109.363 16.9528 109.316 17.1208 109.316C17.3914 109.316 17.5268 109.442 17.5268 109.694C17.5268 109.787 17.4988 109.89 17.4428 110.002C17.3961 110.114 17.3448 110.24 17.2888 110.38C17.1208 110.791 16.9341 111.253 16.7288 111.766C16.5328 112.279 16.3321 112.816 16.1268 113.376C15.9308 113.936 15.7441 114.491 15.5668 115.042C15.3894 115.593 15.2354 116.101 15.1048 116.568C15.5061 116.288 15.9774 116.008 16.5188 115.728C17.0601 115.448 17.6201 115.196 18.1988 114.972C18.7774 114.739 19.3234 114.552 19.8368 114.412C20.3501 114.272 20.7748 114.202 21.1108 114.202C21.2881 114.202 21.4234 114.258 21.5168 114.37C21.6194 114.473 21.6708 114.589 21.6708 114.72C21.6708 114.823 21.6381 114.925 21.5728 115.028C21.5168 115.121 21.3954 115.205 21.2088 115.28C20.5928 115.495 19.9814 115.714 19.3748 115.938C18.7681 116.153 18.1334 116.386 17.4708 116.638C16.8174 116.881 16.1034 117.17 15.3288 117.506C15.5714 117.917 15.8561 118.36 16.1828 118.836C16.5094 119.303 16.8594 119.746 17.2328 120.166C17.6061 120.577 17.9888 120.917 18.3808 121.188C18.7728 121.449 19.1648 121.58 19.5568 121.58C20.0701 121.58 20.5648 121.473 21.0408 121.258C21.5168 121.043 21.9554 120.782 22.3568 120.474C22.7674 120.166 23.1268 119.867 23.4348 119.578C23.7428 119.279 23.9854 119.046 24.1628 118.878C24.2561 118.794 24.3401 118.738 24.4148 118.71C24.4988 118.673 24.5734 118.654 24.6388 118.654C24.7694 118.654 24.8581 118.724 24.9048 118.864C24.9608 118.995 24.9141 119.139 24.7648 119.298C24.6528 119.429 24.4801 119.629 24.2468 119.9C24.0134 120.171 23.7288 120.469 23.3928 120.796C23.0661 121.113 22.7021 121.421 22.3008 121.72C21.9088 122.019 21.4841 122.261 21.0268 122.448C20.5788 122.644 20.1214 122.742 19.6548 122.742ZM29.6279 115.966C29.6279 116.265 29.5346 116.559 29.3479 116.848C29.1613 117.128 28.9139 117.399 28.6059 117.66C28.2979 117.912 27.9573 118.15 27.5839 118.374C27.2106 118.598 26.8373 118.794 26.4639 118.962C26.0906 119.13 25.7499 119.265 25.4419 119.368C25.3673 119.732 25.3299 120.054 25.3299 120.334C25.3299 120.511 25.3719 120.637 25.4559 120.712C25.5399 120.787 25.6706 120.824 25.8479 120.824C26.2399 120.824 26.6553 120.754 27.0939 120.614C27.5326 120.474 27.9806 120.292 28.4379 120.068C28.8953 119.844 29.3339 119.606 29.7539 119.354C30.1739 119.102 30.5566 118.864 30.9019 118.64C31.2566 118.416 31.5506 118.234 31.7839 118.094C32.0173 117.954 32.1713 117.884 32.2459 117.884C32.3579 117.884 32.4419 117.921 32.4979 117.996C32.5633 118.061 32.5959 118.141 32.5959 118.234C32.5959 118.309 32.4793 118.453 32.2459 118.668C32.0219 118.883 31.7186 119.135 31.3359 119.424C30.9533 119.704 30.5239 119.993 30.0479 120.292C29.5719 120.591 29.0773 120.871 28.5639 121.132C28.0599 121.393 27.5699 121.603 27.0939 121.762C26.6273 121.921 26.2073 122 25.8339 122C25.3486 122 24.9706 121.818 24.6999 121.454C24.4293 121.09 24.2939 120.525 24.2939 119.76C24.2939 119.247 24.3593 118.729 24.4899 118.206C24.6299 117.683 24.8166 117.184 25.0499 116.708C25.2926 116.223 25.5586 115.793 25.8479 115.42C26.1466 115.037 26.4593 114.739 26.7859 114.524C27.1126 114.3 27.4299 114.188 27.7379 114.188C28.3259 114.188 28.7879 114.351 29.1239 114.678C29.4599 115.005 29.6279 115.434 29.6279 115.966ZM25.7359 118.29C26.0253 118.113 26.3239 117.926 26.6319 117.73C26.9399 117.534 27.2246 117.333 27.4859 117.128C27.7473 116.923 27.9573 116.708 28.1159 116.484C28.2839 116.251 28.3679 116.013 28.3679 115.77C28.3679 115.425 28.1813 115.252 27.8079 115.252C27.5746 115.252 27.3273 115.401 27.0659 115.7C26.8139 115.989 26.5713 116.367 26.3379 116.834C26.1046 117.301 25.9039 117.786 25.7359 118.29ZM0.762 136.52C0.51 136.501 0.393333 136.338 0.412 136.03C0.421333 135.955 0.472667 135.867 0.566 135.764C0.659333 135.652 0.766667 135.591 0.888 135.582C1.17733 135.554 1.532 135.512 1.952 135.456C2.38133 135.391 2.85267 135.316 3.366 135.232C3.45933 134.775 3.57133 134.294 3.702 133.79C3.83267 133.286 3.97733 132.796 4.136 132.32C4.29467 131.835 4.46267 131.396 4.64 131.004C4.81733 130.612 5.004 130.304 5.2 130.08C5.30267 129.977 5.396 129.907 5.48 129.87C5.564 129.823 5.63867 129.8 5.704 129.8C5.83467 129.8 5.93733 129.856 6.012 129.968C6.096 130.08 6.138 130.206 6.138 130.346C6.138 130.421 6.124 130.495 6.096 130.57C5.90933 131.093 5.70867 131.737 5.494 132.502C5.27933 133.267 5.05067 134.103 4.808 135.008C5.66667 134.868 6.52533 134.719 7.384 134.56C8.24267 134.401 8.98 134.257 9.596 134.126C9.77333 134.051 9.90867 134.065 10.002 134.168C10.1047 134.271 10.156 134.373 10.156 134.476C10.156 134.607 10.1187 134.705 10.044 134.77C9.97867 134.835 9.90867 134.891 9.834 134.938L9.82 134.952C9.63333 135.027 9.35333 135.115 8.98 135.218C8.60667 135.311 8.17733 135.414 7.692 135.526C7.20667 135.629 6.68867 135.731 6.138 135.834C5.59667 135.937 5.06 136.03 4.528 136.114C4.31333 136.935 4.094 137.78 3.87 138.648C3.65533 139.507 3.44067 140.351 3.226 141.182C3.13267 141.518 3.02533 141.728 2.904 141.812C2.792 141.905 2.67067 141.952 2.54 141.952C2.39067 141.952 2.26 141.896 2.148 141.784C2.04533 141.672 2.03133 141.443 2.106 141.098L3.128 136.324C2.568 136.408 2.07333 136.469 1.644 136.506C1.224 136.543 0.93 136.548 0.762 136.52ZM9.02955 141.63C8.82421 141.63 8.66555 141.569 8.55355 141.448C8.44155 141.336 8.38555 141.051 8.38555 140.594C8.38555 140.174 8.46021 139.628 8.60955 138.956C8.75888 138.275 8.95955 137.519 9.21155 136.688C9.46355 135.857 9.74821 134.999 10.0655 134.112C10.3829 133.216 10.7142 132.339 11.0595 131.48C11.4142 130.612 11.7549 129.819 12.0815 129.1C12.2029 128.839 12.3289 128.657 12.4595 128.554C12.5902 128.451 12.7442 128.4 12.9215 128.4C13.0429 128.4 13.1455 128.437 13.2295 128.512C13.3229 128.577 13.3695 128.689 13.3695 128.848C13.3695 128.904 13.3089 129.086 13.1875 129.394C13.0755 129.702 12.9169 130.108 12.7115 130.612C12.5155 131.116 12.2962 131.681 12.0535 132.306C11.8109 132.931 11.5635 133.589 11.3115 134.28C11.0595 134.971 10.8215 135.666 10.5975 136.366C10.3735 137.057 10.1822 137.719 10.0235 138.354C9.86488 138.989 9.75755 139.558 9.70155 140.062C9.92555 139.791 10.1822 139.446 10.4715 139.026C10.7609 138.606 11.0689 138.153 11.3955 137.668C11.7222 137.183 12.0535 136.702 12.3895 136.226C12.7255 135.75 13.0569 135.316 13.3835 134.924C13.7102 134.532 14.0135 134.219 14.2935 133.986C14.5829 133.743 14.8349 133.622 15.0495 133.622C15.4042 133.622 15.6889 133.734 15.9035 133.958C16.1275 134.173 16.2395 134.527 16.2395 135.022C16.2395 135.302 16.1835 135.638 16.0715 136.03C15.9689 136.422 15.8475 136.833 15.7075 137.262C15.5675 137.691 15.4415 138.102 15.3295 138.494C15.2269 138.886 15.1755 139.222 15.1755 139.502C15.1755 139.885 15.3202 140.076 15.6095 140.076C16.0575 140.076 16.5055 139.978 16.9535 139.782C17.4109 139.586 17.8449 139.343 18.2555 139.054C18.6662 138.755 19.0442 138.457 19.3895 138.158C19.7349 137.85 20.0289 137.589 20.2715 137.374C20.5329 137.141 20.7522 137.024 20.9295 137.024C21.1535 137.024 21.2655 137.141 21.2655 137.374C21.2655 137.439 21.2515 137.514 21.2235 137.598C21.1955 137.682 21.1209 137.789 20.9995 137.92C20.8502 138.088 20.6355 138.307 20.3555 138.578C20.0849 138.849 19.7675 139.138 19.4035 139.446C19.0489 139.754 18.6615 140.043 18.2415 140.314C17.8309 140.585 17.4062 140.809 16.9675 140.986C16.5382 141.154 16.1182 141.238 15.7075 141.238C15.1475 141.238 14.7135 141.079 14.4055 140.762C14.1069 140.435 13.9575 139.987 13.9575 139.418C13.9575 139.063 14.0135 138.634 14.1255 138.13C14.2375 137.626 14.3775 137.094 14.5455 136.534C14.7229 135.965 14.9002 135.409 15.0775 134.868C14.7789 135.073 14.4522 135.381 14.0975 135.792C13.7522 136.193 13.3882 136.651 13.0055 137.164C12.6229 137.668 12.2402 138.181 11.8575 138.704C11.4842 139.227 11.1202 139.712 10.7655 140.16C10.4202 140.599 10.0982 140.953 9.79955 141.224C9.50088 141.495 9.24421 141.63 9.02955 141.63ZM29.3545 134.854C29.5225 135.349 29.6858 135.871 29.8445 136.422C30.0125 136.973 30.1478 137.514 30.2505 138.046C30.3625 138.569 30.4185 139.035 30.4185 139.446C30.4185 139.913 30.3018 140.295 30.0685 140.594C29.8445 140.883 29.5552 141.107 29.2005 141.266C28.8458 141.434 28.4725 141.546 28.0805 141.602C27.6978 141.667 27.3432 141.7 27.0165 141.7C26.7552 141.7 26.5732 141.644 26.4705 141.532C26.3772 141.429 26.3305 141.317 26.3305 141.196C26.3305 141.112 26.3632 141.028 26.4285 140.944C26.4938 140.851 26.6618 140.785 26.9325 140.748C27.1378 140.72 27.3712 140.673 27.6325 140.608C27.9032 140.543 28.1645 140.454 28.4165 140.342C28.6778 140.23 28.8925 140.095 29.0605 139.936C29.2285 139.768 29.3125 139.567 29.3125 139.334C29.3125 138.821 29.2378 138.293 29.0885 137.752C28.9485 137.211 28.8038 136.655 28.6545 136.086C28.3278 136.59 27.9545 137.089 27.5345 137.584C27.1145 138.079 26.6665 138.55 26.1905 138.998C25.7145 139.446 25.2338 139.843 24.7485 140.188C24.2632 140.533 23.7918 140.804 23.3345 141C22.8772 141.196 22.4525 141.294 22.0605 141.294C21.4165 141.294 20.8938 141.07 20.4925 140.622C20.0912 140.165 19.8905 139.479 19.8905 138.564C19.8905 138.051 19.9418 137.523 20.0445 136.982C20.1565 136.441 20.2965 135.941 20.4645 135.484C20.6418 135.017 20.8238 134.644 21.0105 134.364C21.1972 134.075 21.3698 133.93 21.5285 133.93C21.6498 133.93 21.7525 133.967 21.8365 134.042C21.9298 134.117 21.9765 134.247 21.9765 134.434C21.9765 134.537 21.9345 134.742 21.8505 135.05C21.7665 135.349 21.6732 135.703 21.5705 136.114C21.4678 136.515 21.3745 136.94 21.2905 137.388C21.2065 137.827 21.1645 138.237 21.1645 138.62C21.1645 139.124 21.2485 139.493 21.4165 139.726C21.5938 139.959 21.8318 140.076 22.1305 140.076C22.4945 140.076 22.9098 139.959 23.3765 139.726C23.8432 139.493 24.3238 139.185 24.8185 138.802C25.3132 138.41 25.7892 137.981 26.2465 137.514C26.7132 137.038 27.1285 136.553 27.4925 136.058C27.8565 135.563 28.1412 135.092 28.3465 134.644C28.3185 134.467 28.2952 134.285 28.2765 134.098C28.2672 133.911 28.2625 133.725 28.2625 133.538C28.2625 133.221 28.3138 132.955 28.4165 132.74C28.5192 132.516 28.6358 132.343 28.7665 132.222C28.9065 132.101 29.0232 132.04 29.1165 132.04C29.3218 132.04 29.4852 132.143 29.6065 132.348C29.7278 132.553 29.7885 132.852 29.7885 133.244C29.7885 133.477 29.7512 133.729 29.6765 134C29.6018 134.271 29.4945 134.555 29.3545 134.854ZM21.9905 132.208C21.7292 132.208 21.5238 132.138 21.3745 131.998C21.2345 131.849 21.1645 131.653 21.1645 131.41C21.1645 131.13 21.2578 130.906 21.4445 130.738C21.6405 130.561 21.8598 130.472 22.1025 130.472C22.3732 130.472 22.5878 130.551 22.7465 130.71C22.9145 130.859 22.9985 131.074 22.9985 131.354C22.9985 131.559 22.8958 131.755 22.6905 131.942C22.4945 132.119 22.2612 132.208 21.9905 132.208Z" fill="white" fill-opacity="0.3"/>
<path d="M41.9041 3.49901L45.9916 15.2621" stroke="white" stroke-opacity="0.3"/>
<path d="M41.1921 3.44792L55.8585 1.00206" stroke="white" stroke-opacity="0.3"/>
<path d="M42 3.49995C80.7819 20.1166 82.5 93 42 117" stroke="white" stroke-opacity="0.2"/>
</svg>
