<svg width="26" height="103" viewBox="0 0 26 103" fill="none" xmlns="http://www.w3.org/2000/svg">
<path d="M25.42 101.08C25.42 101.453 25.2867 101.747 25.02 101.96C24.7667 102.16 24.3733 102.26 23.84 102.26C23.1067 102.26 22.2333 102.193 21.22 102.06C20.2067 101.927 19.1333 101.747 18 101.52C16.8667 101.293 15.7533 101.047 14.66 100.78C13.4067 100.46 12.2667 100.147 11.24 99.84C10.2133 99.52 9.39333 99.2 8.78 98.88C8.15333 98.5467 7.84 98.2133 7.84 97.88C7.84 97.5733 7.95333 97.3067 8.18 97.08C8.39333 96.84 8.71333 96.72 9.14 96.72C9.44667 96.72 9.88667 96.8 10.46 96.96C11.02 97.12 11.72 97.32 12.56 97.56C11.8133 97.1067 11.08 96.64 10.36 96.16C9.64 95.6667 8.98667 95.1667 8.4 94.66C7.81333 94.1533 7.34667 93.66 7 93.18C6.65333 92.7 6.48 92.2467 6.48 91.82C6.48 91.3133 6.62667 90.8667 6.92 90.48C7.21333 90.08 7.61333 89.7667 8.12 89.54C8.62667 89.3133 9.2 89.2 9.84 89.2C11.0267 89.2 12.18 89.4133 13.3 89.84C14.4067 90.2667 15.4 90.86 16.28 91.62C17.16 92.3667 17.86 93.24 18.38 94.24C18.8867 95.24 19.14 96.32 19.14 97.48C19.14 97.8133 19.1067 98.12 19.04 98.4C18.9867 98.6667 18.92 98.9133 18.84 99.14C19.6933 99.3 20.5667 99.4533 21.46 99.6C22.3667 99.7333 23.32 99.8733 24.32 100.02C25.0533 100.18 25.42 100.533 25.42 101.08ZM8.84 91.62C8.84 91.9133 9.04 92.2867 9.44 92.74C9.84 93.18 10.3667 93.66 11.02 94.18C11.66 94.7 12.36 95.2267 13.12 95.76C13.8667 96.28 14.6 96.78 15.32 97.26C16.04 97.7267 16.6667 98.1267 17.2 98.46C17.0933 97.4467 16.8267 96.5533 16.4 95.78C15.96 95.0067 15.4267 94.3467 14.8 93.8C14.1733 93.2533 13.5133 92.8133 12.82 92.48C12.1133 92.1333 11.4267 91.88 10.76 91.72C10.0933 91.56 9.51333 91.48 9.02 91.48C8.9 91.48 8.84 91.5267 8.84 91.62ZM19.66 83.932C19.66 84.8787 19.3267 85.6387 18.66 86.212C17.98 86.7854 17.0733 87.072 15.94 87.072C15.58 87.072 15.2133 87.0254 14.84 86.932C14.4667 86.8254 14.12 86.6987 13.8 86.552C13.68 86.632 13.5267 86.6987 13.34 86.752C13.14 86.792 12.9067 86.812 12.64 86.812C11.7733 86.812 10.98 86.6587 10.26 86.352C9.52667 86.0454 8.89333 85.632 8.36 85.112C7.82667 84.592 7.41333 84.0187 7.12 83.392C6.82667 82.7654 6.68 82.132 6.68 81.492C6.68 80.3987 7.04667 79.5054 7.78 78.812C8.51333 78.1054 9.65333 77.752 11.2 77.752C11.9733 77.752 12.76 77.872 13.56 78.112C14.36 78.352 15.1267 78.6787 15.86 79.092C16.58 79.492 17.2267 79.9587 17.8 80.492C18.3733 81.012 18.8267 81.572 19.16 82.172C19.4933 82.7587 19.66 83.3454 19.66 83.932ZM12.9 84.252C13.0467 84.1854 13.22 84.152 13.42 84.152C13.62 84.152 13.8267 84.192 14.04 84.272C14.2533 84.352 14.54 84.432 14.9 84.512C15.2467 84.592 15.7467 84.632 16.4 84.632C16.5733 84.632 16.72 84.612 16.84 84.572C16.9467 84.5187 17 84.4054 17 84.232C17 83.7787 16.8533 83.352 16.56 82.952C16.2667 82.5387 15.88 82.172 15.4 81.852C14.92 81.5187 14.3867 81.2387 13.8 81.012C13.2 80.772 12.5933 80.592 11.98 80.472C11.3533 80.3387 10.7733 80.272 10.24 80.272C9.89333 80.272 9.65333 80.3387 9.52 80.472C9.38667 80.6054 9.32 80.8387 9.32 81.172C9.32 81.6254 9.46667 82.092 9.76 82.572C10.04 83.0387 10.4267 83.432 10.92 83.752C11.4 84.072 11.9467 84.232 12.56 84.232C12.68 84.232 12.7933 84.2387 12.9 84.252ZM19.88 74.6509C19.88 74.9843 19.76 75.2709 19.52 75.5109C19.28 75.7376 18.9333 75.8509 18.48 75.8509C18.28 75.8509 17.9533 75.8243 17.5 75.7709C17.0333 75.7043 16.5 75.6243 15.9 75.5309C15.3 75.4243 14.6733 75.3243 14.02 75.2309C13.3667 75.1243 12.7467 75.0376 12.16 74.9709C11.5733 74.8909 11.0733 74.8376 10.66 74.8109C10.1533 74.7843 9.79333 74.6509 9.58 74.4109C9.35333 74.1709 9.24 73.8843 9.24 73.5509C9.24 73.2843 9.30667 73.0443 9.44 72.8309C9.56 72.6043 9.82 72.4643 10.22 72.4109C10.6067 72.3443 11.1667 72.3376 11.9 72.3909C10.8333 71.8043 9.88 71.2109 9.04 70.6109C8.2 69.9976 7.53333 69.3576 7.04 68.6909C6.2 67.5843 5.78 66.5843 5.78 65.6909C5.78 65.1843 5.89333 64.8509 6.12 64.6909C6.34667 64.5309 6.58 64.4509 6.82 64.4509C6.98 64.4509 7.12667 64.4909 7.26 64.5709C7.39333 64.6376 7.53333 64.7843 7.68 65.0109C7.82667 65.2376 8.02 65.5843 8.26 66.0509C8.58 66.6776 9 67.2976 9.52 67.9109C10.04 68.5109 10.7067 69.1109 11.52 69.7109C12.3333 70.3109 13.3333 70.9176 14.52 71.5309C15.7067 72.1443 17.12 72.7776 18.76 73.4309C19.2133 73.5509 19.5133 73.7243 19.66 73.9509C19.8067 74.1643 19.88 74.3976 19.88 74.6509ZM8.92 51.3552C9.08 51.3552 9.22 51.4085 9.34 51.5152C9.46 51.6218 9.55333 51.7552 9.62 51.9152C9.71333 52.1418 9.83333 52.5352 9.98 53.0952C10.1267 53.6552 10.2933 54.3352 10.48 55.1352C10.6667 55.9218 10.86 56.7685 11.06 57.6752C11.2467 58.5818 11.4267 59.4885 11.6 60.3952C12.88 60.7418 14.2 61.0952 15.56 61.4552C16.9067 61.8152 18.2333 62.1752 19.54 62.5352C20.0067 62.6685 20.36 62.8285 20.6 63.0152C20.8533 63.2018 20.98 63.5218 20.98 63.9752C20.98 64.4685 20.82 64.8018 20.5 64.9752C20.1933 65.1352 19.7733 65.1552 19.24 65.0352C17.7867 64.6885 16.4333 64.3685 15.18 64.0752C13.9267 63.7685 12.9133 63.5218 12.14 63.3352C12.2733 64.1352 12.38 64.8352 12.46 65.4352C12.5267 66.0352 12.5533 66.4618 12.54 66.7152C12.5133 66.9952 12.4 67.2285 12.2 67.4152C12 67.6018 11.7533 67.6885 11.46 67.6752C11.1933 67.6485 10.9667 67.5285 10.78 67.3152C10.58 67.1018 10.46 66.8485 10.42 66.5552C10.38 66.1418 10.32 65.6085 10.24 64.9552C10.16 64.3018 10.0667 63.5818 9.96 62.7952C9.28 62.6218 8.58 62.4218 7.86 62.1952C7.12667 61.9685 6.42667 61.7352 5.76 61.4952C5.08 61.2418 4.48667 61.0018 3.98 60.7752C3.47333 60.5485 3.10667 60.3418 2.88 60.1552C2.70667 60.0085 2.57333 59.8285 2.48 59.6152C2.38667 59.3885 2.34 59.1685 2.34 58.9552C2.34 58.6752 2.44 58.4485 2.64 58.2752C2.84 58.1018 3.07333 58.0152 3.34 58.0152C3.44667 58.0152 3.56 58.0218 3.68 58.0352C3.78667 58.0485 3.89333 58.0752 4 58.1152C4.66667 58.3685 5.47333 58.6418 6.42 58.9352C7.36667 59.2152 8.40667 59.5085 9.54 59.8152C9.39333 58.8152 9.24667 57.8352 9.1 56.8752C8.94 55.9018 8.79333 55.0218 8.66 54.2352C8.51333 53.4352 8.38667 52.7952 8.28 52.3152C8.18667 52.0485 8.20667 51.8218 8.34 51.6352C8.46 51.4485 8.65333 51.3552 8.92 51.3552ZM21.24 52.5414C21.24 52.8747 21.14 53.1614 20.94 53.4014C20.7533 53.6414 20.3667 53.7481 19.78 53.7214C19.1267 53.6947 18.4467 53.6481 17.74 53.5814C17.0333 53.5147 16.3733 53.4414 15.76 53.3614C14.4133 53.1881 13.3733 53.1481 12.64 53.2414C11.8933 53.3214 11.36 53.5281 11.04 53.8614C10.72 54.1814 10.5067 54.6147 10.4 55.1614C10.3467 55.4281 10.2467 55.6414 10.1 55.8014C9.94 55.9614 9.73333 56.0414 9.48 56.0414C9.14667 56.0414 8.92667 55.9081 8.82 55.6414C8.71333 55.3881 8.66 55.0614 8.66 54.6614C8.66 54.3547 8.68 53.9614 8.72 53.4814C8.74667 52.9881 8.76667 52.4614 8.78 51.9014C7.24667 51.4347 5.98 50.9081 4.98 50.3214C3.98 49.7347 3.19333 49.0947 2.62 48.4014C2.03333 47.7081 1.62667 46.9747 1.4 46.2014C1.16 45.4281 1.04 44.6281 1.04 43.8014C1.04 42.7747 1.40667 42.2614 2.14 42.2614C2.5 42.2614 2.77333 42.4347 2.96 42.7814C3.14667 43.1281 3.3 43.6547 3.42 44.3614C3.56667 45.2014 3.84 45.9414 4.24 46.5814C4.64 47.2081 5.20667 47.7614 5.94 48.2414C6.67333 48.7081 7.62 49.1214 8.78 49.4814C8.74 47.6281 8.64 46.1081 8.48 44.9214C8.32 43.7347 8.16667 42.8214 8.02 42.1814C7.86 41.5281 7.78 41.0747 7.78 40.8214C7.78 40.4614 7.86667 40.2414 8.04 40.1614C8.21333 40.0681 8.4 40.0214 8.6 40.0214C8.82667 40.0214 9.06 40.2347 9.3 40.6614C9.46 40.9414 9.64 41.3881 9.84 42.0014C10.0267 42.6147 10.2133 43.3347 10.4 44.1614C10.5733 44.9881 10.72 45.8614 10.84 46.7814C10.9467 47.6881 11 48.5747 11 49.4414C11 49.6547 11 49.8481 11 50.0214C11.7733 50.1681 12.5933 50.3147 13.46 50.4614C14.3133 50.5947 15.1467 50.7147 15.96 50.8214C16.7733 50.9281 17.5133 51.0214 18.18 51.1014C18.8467 51.1681 19.38 51.2081 19.78 51.2214C20.2733 51.2347 20.64 51.3614 20.88 51.6014C21.12 51.8414 21.24 52.1547 21.24 52.5414ZM19.66 41.3148C19.66 42.2615 19.3267 43.0215 18.66 43.5948C17.98 44.1682 17.0733 44.4548 15.94 44.4548C15.58 44.4548 15.2133 44.4082 14.84 44.3148C14.4667 44.2082 14.12 44.0815 13.8 43.9348C13.68 44.0148 13.5267 44.0815 13.34 44.1348C13.14 44.1748 12.9067 44.1948 12.64 44.1948C11.7733 44.1948 10.98 44.0415 10.26 43.7348C9.52667 43.4282 8.89333 43.0148 8.36 42.4948C7.82667 41.9748 7.41333 41.4015 7.12 40.7748C6.82667 40.1482 6.68 39.5148 6.68 38.8748C6.68 37.7815 7.04667 36.8882 7.78 36.1948C8.51333 35.4882 9.65333 35.1348 11.2 35.1348C11.9733 35.1348 12.76 35.2548 13.56 35.4948C14.36 35.7348 15.1267 36.0615 15.86 36.4748C16.58 36.8748 17.2267 37.3415 17.8 37.8748C18.3733 38.3948 18.8267 38.9548 19.16 39.5548C19.4933 40.1415 19.66 40.7282 19.66 41.3148ZM12.9 41.6348C13.0467 41.5682 13.22 41.5348 13.42 41.5348C13.62 41.5348 13.8267 41.5748 14.04 41.6548C14.2533 41.7348 14.54 41.8148 14.9 41.8948C15.2467 41.9748 15.7467 42.0148 16.4 42.0148C16.5733 42.0148 16.72 41.9948 16.84 41.9548C16.9467 41.9015 17 41.7882 17 41.6148C17 41.1615 16.8533 40.7348 16.56 40.3348C16.2667 39.9215 15.88 39.5548 15.4 39.2348C14.92 38.9015 14.3867 38.6215 13.8 38.3948C13.2 38.1548 12.5933 37.9748 11.98 37.8548C11.3533 37.7215 10.7733 37.6548 10.24 37.6548C9.89333 37.6548 9.65333 37.7215 9.52 37.8548C9.38667 37.9882 9.32 38.2215 9.32 38.5548C9.32 39.0082 9.46667 39.4748 9.76 39.9548C10.04 40.4215 10.4267 40.8148 10.92 41.1348C11.4 41.4548 11.9467 41.6148 12.56 41.6148C12.68 41.6148 12.7933 41.6215 12.9 41.6348ZM20 28.6044C20 29.8044 19.6333 30.751 18.9 31.4444C18.1533 32.1244 17.0933 32.4644 15.72 32.4644C14.9733 32.4644 14.1 32.3644 13.1 32.1644C12.0867 31.9644 11.02 31.7044 9.9 31.3844C8.76667 31.051 7.64667 30.6977 6.54 30.3244C5.43333 29.9377 4.40667 29.5577 3.46 29.1844C2.51333 28.811 1.72 28.4844 1.08 28.2044C0.586666 27.9644 0.339999 27.6244 0.339999 27.1844C0.339999 26.9044 0.426666 26.6777 0.6 26.5044C0.773332 26.3177 1.05333 26.2244 1.44 26.2244C1.62667 26.2244 2.03333 26.3177 2.66 26.5044C3.28667 26.691 4.06 26.9377 4.98 27.2444C5.88667 27.5377 6.86667 27.8577 7.92 28.2044C8.97333 28.5377 10.0333 28.8577 11.1 29.1644C12.1667 29.4577 13.1733 29.6977 14.12 29.8844C15.0533 30.071 15.8467 30.1644 16.5 30.1644C16.7667 30.1644 16.98 30.091 17.14 29.9444C17.3 29.7844 17.38 29.5777 17.38 29.3244C17.38 28.7777 17.28 28.2177 17.08 27.6444C16.88 27.0577 16.6267 26.4844 16.32 25.9244C16.0133 25.351 15.6867 24.811 15.34 24.3044C14.9933 23.7977 14.6667 23.3444 14.36 22.9444C14.04 22.531 13.7867 22.1977 13.6 21.9444C13.3467 21.611 13.22 21.3844 13.22 21.2644C13.22 20.811 13.44 20.5844 13.88 20.5844C13.9867 20.5844 14.2067 20.7177 14.54 20.9844C14.8333 21.211 15.2067 21.531 15.66 21.9444C16.1133 22.3577 16.5933 22.8377 17.1 23.3844C17.5933 23.9177 18.06 24.491 18.5 25.1044C18.94 25.7044 19.3 26.3044 19.58 26.9044C19.86 27.5044 20 28.071 20 28.6044ZM19.3 20.4637C19.3 20.8371 19.1733 21.1704 18.92 21.4637C18.6667 21.7437 18.2533 21.8837 17.68 21.8837C17.3733 21.8837 16.94 21.8437 16.38 21.7637C15.82 21.6704 15.2133 21.5504 14.56 21.4037C13.8933 21.2571 13.2333 21.0971 12.58 20.9237C11.9267 20.7371 11.3467 20.5571 10.84 20.3837C10.32 20.2104 9.93333 20.0571 9.68 19.9237C9.37333 19.7504 9.18667 19.5904 9.12 19.4437C9.04 19.2837 9 19.1304 9 18.9837C9 18.7171 9.08 18.4704 9.24 18.2437C9.4 18.0037 9.75333 17.8837 10.3 17.8837C10.5133 17.8837 10.86 17.9237 11.34 18.0037C11.8067 18.0837 12.3533 18.1837 12.98 18.3037C13.6067 18.4237 14.2533 18.5571 14.92 18.7037C15.5867 18.8371 16.22 18.9704 16.82 19.1037C17.4067 19.2237 17.9 19.3237 18.3 19.4037C18.6333 19.4704 18.88 19.6104 19.04 19.8237C19.2133 20.0237 19.3 20.2371 19.3 20.4637ZM7.02 18.1637C7.02 18.6037 6.89333 19.0104 6.64 19.3837C6.37333 19.7571 5.96667 19.9437 5.42 19.9437C4.96667 19.9437 4.6 19.8304 4.32 19.6037C4.04 19.3771 3.84 19.1104 3.72 18.8037C3.58667 18.4837 3.52 18.2037 3.52 17.9637C3.52 17.7237 3.57333 17.4571 3.68 17.1637C3.77333 16.8704 3.95333 16.6171 4.22 16.4037C4.47333 16.1771 4.84 16.0637 5.32 16.0637C5.64 16.0637 5.93333 16.1771 6.2 16.4037C6.45333 16.6304 6.65333 16.9104 6.8 17.2437C6.94667 17.5637 7.02 17.8704 7.02 18.1637ZM19.66 11.8812C19.66 12.8279 19.3267 13.5879 18.66 14.1612C17.98 14.7346 17.0733 15.0212 15.94 15.0212C15.58 15.0212 15.2133 14.9746 14.84 14.8812C14.4667 14.7746 14.12 14.6479 13.8 14.5012C13.68 14.5812 13.5267 14.6479 13.34 14.7012C13.14 14.7412 12.9067 14.7612 12.64 14.7612C11.7733 14.7612 10.98 14.6079 10.26 14.3012C9.52667 13.9946 8.89333 13.5812 8.36 13.0612C7.82667 12.5412 7.41333 11.9679 7.12 11.3412C6.82667 10.7146 6.68 10.0812 6.68 9.44125C6.68 8.34792 7.04667 7.45458 7.78 6.76125C8.51333 6.05458 9.65333 5.70125 11.2 5.70125C11.9733 5.70125 12.76 5.82125 13.56 6.06125C14.36 6.30125 15.1267 6.62792 15.86 7.04125C16.58 7.44125 17.2267 7.90792 17.8 8.44125C18.3733 8.96125 18.8267 9.52125 19.16 10.1212C19.4933 10.7079 19.66 11.2946 19.66 11.8812ZM12.9 12.2012C13.0467 12.1346 13.22 12.1012 13.42 12.1012C13.62 12.1012 13.8267 12.1412 14.04 12.2212C14.2533 12.3012 14.54 12.3812 14.9 12.4612C15.2467 12.5412 15.7467 12.5812 16.4 12.5812C16.5733 12.5812 16.72 12.5612 16.84 12.5212C16.9467 12.4679 17 12.3546 17 12.1812C17 11.7279 16.8533 11.3012 16.56 10.9012C16.2667 10.4879 15.88 10.1212 15.4 9.80125C14.92 9.46792 14.3867 9.18792 13.8 8.96125C13.2 8.72125 12.5933 8.54125 11.98 8.42125C11.3533 8.28792 10.7733 8.22125 10.24 8.22125C9.89333 8.22125 9.65333 8.28792 9.52 8.42125C9.38667 8.55458 9.32 8.78792 9.32 9.12125C9.32 9.57458 9.46667 10.0412 9.76 10.5212C10.04 10.9879 10.4267 11.3812 10.92 11.7012C11.4 12.0212 11.9467 12.1812 12.56 12.1812C12.68 12.1812 12.7933 12.1879 12.9 12.2012ZM19.52 2.98016C19.52 3.39349 19.3933 3.78016 19.14 4.14016C18.8867 4.50016 18.4733 4.68016 17.9 4.68016C17.46 4.68016 17.1067 4.56682 16.84 4.34016C16.56 4.11349 16.3533 3.85349 16.22 3.56016C16.0867 3.25349 16.02 2.99349 16.02 2.78016C16.02 2.55349 16.0733 2.30016 16.18 2.02016C16.2733 1.72682 16.4533 1.47349 16.72 1.26016C16.9733 1.04682 17.34 0.940156 17.82 0.940156C18.2867 0.940156 18.6867 1.14016 19.02 1.54016C19.3533 1.92682 19.52 2.40682 19.52 2.98016Z" fill="#6F15C4"/>
</svg>
