<svg width="116" height="55" viewBox="0 0 116 55" fill="none" xmlns="http://www.w3.org/2000/svg">
<path d="M3.724 13.196C3.26667 13.196 2.87 13.0933 2.534 12.888C2.20733 12.6733 1.95533 12.398 1.778 12.062C1.60067 11.726 1.512 11.3807 1.512 11.026C1.512 10.2793 1.64267 9.598 1.904 8.982C2.16533 8.35667 2.492 7.806 2.884 7.33C3.28533 6.84467 3.696 6.434 4.116 6.098C4.54533 5.762 4.93267 5.51 5.278 5.342C5.63267 5.16467 5.88467 5.076 6.034 5.076C6.33267 5.076 6.482 5.22533 6.482 5.524C6.482 5.664 6.38867 5.82733 6.202 6.014C6.01533 6.19133 5.77733 6.40133 5.488 6.644C5.19867 6.88667 4.89067 7.162 4.564 7.47C4.23733 7.76867 3.92933 8.10933 3.64 8.492C3.35067 8.86533 3.11267 9.28533 2.926 9.752C2.73933 10.2093 2.646 10.7133 2.646 11.264C2.646 11.824 2.87467 12.104 3.332 12.104C3.752 12.104 4.18133 12.0247 4.62 11.866C5.068 11.7073 5.50667 11.502 5.936 11.25C6.37467 10.9887 6.79467 10.718 7.196 10.438C7.59733 10.158 7.96133 9.892 8.288 9.64C8.61467 9.37867 8.89 9.16867 9.114 9.01C9.338 8.85133 9.49667 8.772 9.59 8.772C9.77667 8.772 9.87 8.87467 9.87 9.08C9.87 9.23867 9.76267 9.44867 9.548 9.71C9.33333 9.97133 9.044 10.256 8.68 10.564C8.316 10.872 7.91 11.1847 7.462 11.502C7.014 11.81 6.56133 12.0947 6.104 12.356C5.64667 12.608 5.208 12.8133 4.788 12.972C4.37733 13.1213 4.02267 13.196 3.724 13.196ZM11.7054 13.56C10.9868 13.56 10.4221 13.3267 10.0114 12.86C9.61009 12.384 9.40942 11.7213 9.40942 10.872C9.40942 10.3493 9.47942 9.738 9.61942 9.038C9.76876 8.32867 9.95542 7.582 10.1794 6.798C10.4128 6.00467 10.6648 5.22067 10.9354 4.446C11.2061 3.67133 11.4674 2.95267 11.7194 2.29C11.9808 1.618 12.2094 1.058 12.4054 0.609999C12.5174 0.357999 12.6761 0.231999 12.8814 0.231999C13.1614 0.231999 13.3014 0.404666 13.3014 0.749999C13.3014 0.861999 13.2501 1.09067 13.1474 1.436C13.0448 1.78133 12.9094 2.21067 12.7414 2.724C12.5734 3.228 12.3914 3.788 12.1954 4.404C11.9994 5.02 11.7988 5.65467 11.5934 6.308C11.3974 6.952 11.2154 7.59133 11.0474 8.226C10.8794 8.85133 10.7441 9.43933 10.6414 9.99C10.5388 10.5407 10.4874 11.012 10.4874 11.404C10.4874 11.656 10.5528 11.8567 10.6834 12.006C10.8234 12.146 11.0101 12.216 11.2434 12.216C11.6728 12.216 12.1021 12.132 12.5314 11.964C12.9701 11.7867 13.3901 11.572 13.7914 11.32C14.1928 11.0587 14.5568 10.802 14.8834 10.55C15.2194 10.2887 15.5041 10.074 15.7374 9.906C15.9708 9.72867 16.1341 9.64 16.2274 9.64C16.4328 9.64 16.5354 9.752 16.5354 9.976C16.5354 10.0507 16.4608 10.1907 16.3114 10.396C16.1621 10.592 15.9614 10.8253 15.7094 11.096C15.4574 11.3667 15.1634 11.6467 14.8274 11.936C14.5008 12.216 14.1554 12.482 13.7914 12.734C13.4368 12.9767 13.0774 13.1727 12.7134 13.322C12.3588 13.4807 12.0228 13.56 11.7054 13.56ZM16.5344 13.07C16.3571 13.07 16.1984 13.0047 16.0584 12.874C15.9184 12.734 15.8484 12.5193 15.8484 12.23C15.8484 12.0247 15.8764 11.74 15.9324 11.376C15.9884 11.0027 16.0631 10.5967 16.1564 10.158C16.2498 9.71933 16.3478 9.28533 16.4504 8.856C16.5624 8.41733 16.6744 8.02533 16.7864 7.68C16.8984 7.33467 16.9964 7.078 17.0804 6.91C17.1551 6.77933 17.2251 6.69533 17.2904 6.658C17.3651 6.62067 17.4351 6.602 17.5004 6.602C17.6311 6.602 17.7431 6.644 17.8364 6.728C17.9391 6.812 17.9904 6.97533 17.9904 7.218C17.9904 7.358 17.9624 7.59133 17.9064 7.918C17.8598 8.23533 17.7944 8.60867 17.7104 9.038C17.6358 9.458 17.5518 9.892 17.4584 10.34C17.3744 10.7787 17.2904 11.1987 17.2064 11.6C17.1224 12.0013 17.0571 12.3373 17.0104 12.608C16.9731 12.7573 16.9078 12.874 16.8144 12.958C16.7304 13.0327 16.6371 13.07 16.5344 13.07ZM17.9064 5.328C17.6918 5.328 17.4864 5.26267 17.2904 5.132C17.1038 5.00133 17.0104 4.79133 17.0104 4.502C17.0104 4.25933 17.0664 4.06333 17.1784 3.914C17.2998 3.76467 17.4398 3.65733 17.5984 3.592C17.7664 3.51733 17.9111 3.48 18.0324 3.48C18.1538 3.48 18.2891 3.508 18.4384 3.564C18.5971 3.61067 18.7324 3.704 18.8444 3.844C18.9564 3.97467 19.0124 4.17067 19.0124 4.432C19.0124 4.60933 18.9518 4.768 18.8304 4.908C18.7091 5.03867 18.5598 5.14133 18.3824 5.216C18.2144 5.29067 18.0558 5.328 17.9064 5.328ZM22.14 13.196C21.6827 13.196 21.286 13.0933 20.95 12.888C20.6233 12.6733 20.3713 12.398 20.194 12.062C20.0167 11.726 19.928 11.3807 19.928 11.026C19.928 10.2793 20.0587 9.598 20.32 8.982C20.5813 8.35667 20.908 7.806 21.3 7.33C21.7013 6.84467 22.112 6.434 22.532 6.098C22.9613 5.762 23.3487 5.51 23.694 5.342C24.0487 5.16467 24.3007 5.076 24.45 5.076C24.7487 5.076 24.898 5.22533 24.898 5.524C24.898 5.664 24.8047 5.82733 24.618 6.014C24.4313 6.19133 24.1933 6.40133 23.904 6.644C23.6147 6.88667 23.3067 7.162 22.98 7.47C22.6533 7.76867 22.3453 8.10933 22.056 8.492C21.7667 8.86533 21.5287 9.28533 21.342 9.752C21.1553 10.2093 21.062 10.7133 21.062 11.264C21.062 11.824 21.2907 12.104 21.748 12.104C22.168 12.104 22.5973 12.0247 23.036 11.866C23.484 11.7073 23.9227 11.502 24.352 11.25C24.7907 10.9887 25.2107 10.718 25.612 10.438C26.0133 10.158 26.3773 9.892 26.704 9.64C27.0307 9.37867 27.306 9.16867 27.53 9.01C27.754 8.85133 27.9127 8.772 28.006 8.772C28.1927 8.772 28.286 8.87467 28.286 9.08C28.286 9.23867 28.1787 9.44867 27.964 9.71C27.7493 9.97133 27.46 10.256 27.096 10.564C26.732 10.872 26.326 11.1847 25.878 11.502C25.43 11.81 24.9773 12.0947 24.52 12.356C24.0627 12.608 23.624 12.8133 23.204 12.972C22.7933 13.1213 22.4387 13.196 22.14 13.196ZM34.3091 13.742C33.7024 13.742 33.1424 13.5973 32.6291 13.308C32.1251 13.0187 31.6677 12.6453 31.2571 12.188C30.8557 11.7307 30.4964 11.2407 30.1791 10.718C29.8711 10.186 29.6051 9.68667 29.3811 9.22C29.2224 9.976 29.0964 10.5873 29.0031 11.054C28.9191 11.5207 28.8491 11.8753 28.7931 12.118C28.7464 12.3607 28.6997 12.524 28.6531 12.608C28.6064 12.692 28.5457 12.734 28.4711 12.734C28.2657 12.734 28.0697 12.622 27.8831 12.398C27.6964 12.174 27.6031 11.8847 27.6031 11.53C27.6031 11.1567 27.6684 10.662 27.7991 10.046C27.9297 9.42067 28.1024 8.73 28.3171 7.974C28.5411 7.20867 28.7977 6.42 29.0871 5.608C29.3764 4.78667 29.6751 3.98867 29.9831 3.214C30.3004 2.43 30.6177 1.716 30.9351 1.072C31.0937 0.754666 31.2291 0.549333 31.3411 0.456C31.4624 0.362666 31.6071 0.316 31.7751 0.316C32.0457 0.316 32.1811 0.442 32.1811 0.693999C32.1811 0.787333 32.1531 0.89 32.0971 1.002C32.0504 1.114 31.9991 1.24 31.9431 1.38C31.7751 1.79067 31.5884 2.25267 31.3831 2.766C31.1871 3.27933 30.9864 3.816 30.7811 4.376C30.5851 4.936 30.3984 5.49133 30.2211 6.042C30.0437 6.59267 29.8897 7.10133 29.7591 7.568C30.1604 7.288 30.6317 7.008 31.1731 6.728C31.7144 6.448 32.2744 6.196 32.8531 5.972C33.4317 5.73867 33.9777 5.552 34.4911 5.412C35.0044 5.272 35.4291 5.202 35.7651 5.202C35.9424 5.202 36.0777 5.258 36.1711 5.37C36.2737 5.47267 36.3251 5.58933 36.3251 5.72C36.3251 5.82267 36.2924 5.92533 36.2271 6.028C36.1711 6.12133 36.0497 6.20533 35.8631 6.28C35.2471 6.49467 34.6357 6.714 34.0291 6.938C33.4224 7.15267 32.7877 7.386 32.1251 7.638C31.4717 7.88067 30.7577 8.17 29.9831 8.506C30.2257 8.91667 30.5104 9.36 30.8371 9.836C31.1637 10.3027 31.5137 10.746 31.8871 11.166C32.2604 11.5767 32.6431 11.9173 33.0351 12.188C33.4271 12.4493 33.8191 12.58 34.2111 12.58C34.7244 12.58 35.2191 12.4727 35.6951 12.258C36.1711 12.0433 36.6097 11.782 37.0111 11.474C37.4217 11.166 37.7811 10.8673 38.0891 10.578C38.3971 10.2793 38.6397 10.046 38.8171 9.878C38.9104 9.794 38.9944 9.738 39.0691 9.71C39.1531 9.67267 39.2277 9.654 39.2931 9.654C39.4237 9.654 39.5124 9.724 39.5591 9.864C39.6151 9.99467 39.5684 10.1393 39.4191 10.298C39.3071 10.4287 39.1344 10.6293 38.9011 10.9C38.6677 11.1707 38.3831 11.4693 38.0471 11.796C37.7204 12.1133 37.3564 12.4213 36.9551 12.72C36.5631 13.0187 36.1384 13.2613 35.6811 13.448C35.2331 13.644 34.7757 13.742 34.3091 13.742ZM45.3948 13.63C45.1894 13.63 45.0308 13.5693 44.9188 13.448C44.8068 13.336 44.7508 13.0513 44.7508 12.594C44.7508 12.174 44.8254 11.628 44.9748 10.956C45.1241 10.2747 45.3248 9.51867 45.5768 8.688C45.8288 7.85733 46.1134 6.99867 46.4308 6.112C46.7481 5.216 47.0794 4.33867 47.4248 3.48C47.7794 2.612 48.1201 1.81867 48.4468 1.1C48.5681 0.838666 48.6941 0.656666 48.8248 0.553999C48.9554 0.451333 49.1094 0.399999 49.2868 0.399999C49.4081 0.399999 49.5108 0.437333 49.5948 0.512C49.6881 0.577333 49.7348 0.689333 49.7348 0.848C49.7348 0.903999 49.6741 1.086 49.5528 1.394C49.4408 1.702 49.2821 2.108 49.0768 2.612C48.8808 3.116 48.6614 3.68067 48.4188 4.306C48.1761 4.93133 47.9288 5.58933 47.6768 6.28C47.4248 6.97067 47.1868 7.666 46.9628 8.366C46.7388 9.05667 46.5474 9.71933 46.3888 10.354C46.2301 10.9887 46.1228 11.558 46.0668 12.062C46.2908 11.7913 46.5474 11.446 46.8368 11.026C47.1261 10.606 47.4341 10.1533 47.7608 9.668C48.0874 9.18267 48.4188 8.702 48.7548 8.226C49.0908 7.75 49.4221 7.316 49.7488 6.924C50.0754 6.532 50.3788 6.21933 50.6588 5.986C50.9481 5.74333 51.2001 5.622 51.4148 5.622C51.7694 5.622 52.0541 5.734 52.2688 5.958C52.4928 6.17267 52.6048 6.52733 52.6048 7.022C52.6048 7.302 52.5488 7.638 52.4368 8.03C52.3341 8.422 52.2128 8.83267 52.0728 9.262C51.9328 9.69133 51.8068 10.102 51.6948 10.494C51.5921 10.886 51.5408 11.222 51.5408 11.502C51.5408 11.8847 51.6854 12.076 51.9748 12.076C52.4228 12.076 52.8708 11.978 53.3188 11.782C53.7761 11.586 54.2101 11.3433 54.6208 11.054C55.0314 10.7553 55.4094 10.4567 55.7548 10.158C56.1001 9.85 56.3941 9.58867 56.6368 9.374C56.8981 9.14067 57.1174 9.024 57.2948 9.024C57.5188 9.024 57.6308 9.14067 57.6308 9.374C57.6308 9.43933 57.6168 9.514 57.5888 9.598C57.5608 9.682 57.4861 9.78933 57.3648 9.92C57.2154 10.088 57.0008 10.3073 56.7208 10.578C56.4501 10.8487 56.1328 11.138 55.7688 11.446C55.4141 11.754 55.0268 12.0433 54.6068 12.314C54.1961 12.5847 53.7714 12.8087 53.3328 12.986C52.9034 13.154 52.4834 13.238 52.0728 13.238C51.5128 13.238 51.0788 13.0793 50.7708 12.762C50.4721 12.4353 50.3228 11.9873 50.3228 11.418C50.3228 11.0633 50.3788 10.634 50.4908 10.13C50.6028 9.626 50.7428 9.094 50.9108 8.534C51.0881 7.96467 51.2654 7.40933 51.4428 6.868C51.1441 7.07333 50.8174 7.38133 50.4628 7.792C50.1174 8.19333 49.7534 8.65067 49.3708 9.164C48.9881 9.668 48.6054 10.1813 48.2228 10.704C47.8494 11.2267 47.4854 11.712 47.1308 12.16C46.7854 12.5987 46.4634 12.9533 46.1648 13.224C45.8661 13.4947 45.6094 13.63 45.3948 13.63ZM61.5757 6.742C61.5757 7.33933 61.2911 7.918 60.7217 8.478C60.1524 9.038 59.2844 9.55133 58.1177 10.018C58.0804 10.2513 58.0617 10.4473 58.0617 10.606C58.0617 10.9793 58.1084 11.25 58.2017 11.418C58.3044 11.586 58.4724 11.67 58.7057 11.67C59.0511 11.67 59.4384 11.5627 59.8677 11.348C60.2971 11.124 60.7404 10.8393 61.1977 10.494C61.6551 10.1393 62.1031 9.766 62.5417 9.374C62.9897 8.982 63.4004 8.61333 63.7737 8.268C64.1471 7.91333 64.4644 7.62867 64.7257 7.414C64.9871 7.19 65.1644 7.078 65.2577 7.078C65.3884 7.078 65.4957 7.13867 65.5797 7.26C65.6637 7.372 65.7057 7.526 65.7057 7.722C65.7057 7.96467 65.6917 8.24467 65.6637 8.562C65.6357 8.87 65.6031 9.19667 65.5657 9.542C65.8084 8.86067 66.1117 8.268 66.4757 7.764C66.8491 7.25067 67.2457 6.826 67.6657 6.49C68.0857 6.154 68.4964 5.902 68.8977 5.734C69.2991 5.566 69.6444 5.482 69.9337 5.482C70.2044 5.482 70.4051 5.53333 70.5357 5.636C70.6664 5.73867 70.7317 5.86 70.7317 6C70.7317 6.13067 70.6711 6.252 70.5497 6.364C70.4377 6.46667 70.1764 6.602 69.7657 6.77C69.2897 6.95667 68.8417 7.176 68.4217 7.428C68.0111 7.68 67.6284 8.02533 67.2737 8.464C66.9191 8.89333 66.6017 9.46733 66.3217 10.186C66.0417 10.9047 65.8037 11.8287 65.6077 12.958C65.5704 13.182 65.5051 13.3407 65.4117 13.434C65.3184 13.5367 65.2064 13.588 65.0757 13.588C64.9824 13.588 64.8891 13.546 64.7957 13.462C64.7024 13.3873 64.6277 13.2053 64.5717 12.916C64.5157 12.6173 64.4877 12.1507 64.4877 11.516C64.4877 11.0867 64.5064 10.62 64.5437 10.116C64.5904 9.612 64.6557 9.08467 64.7397 8.534C64.3104 9.00067 63.8344 9.49067 63.3117 10.004C62.7891 10.508 62.2477 10.9793 61.6877 11.418C61.1277 11.8473 60.5771 12.1973 60.0357 12.468C59.4944 12.7387 58.9904 12.874 58.5237 12.874C58.0291 12.874 57.6324 12.7013 57.3337 12.356C57.0351 12.0107 56.8857 11.4973 56.8857 10.816C56.8857 10.032 56.9884 9.31333 57.1937 8.66C57.3991 8.00667 57.6651 7.442 57.9917 6.966C58.3184 6.48067 58.6684 6.10733 59.0417 5.846C59.4151 5.58467 59.7744 5.454 60.1197 5.454C60.5864 5.454 60.9457 5.57533 61.1977 5.818C61.4497 6.05133 61.5757 6.35933 61.5757 6.742ZM58.3417 8.996C58.6217 8.8 58.9251 8.58067 59.2517 8.338C59.5877 8.09533 59.8724 7.848 60.1057 7.596C60.3484 7.33467 60.4697 7.09667 60.4697 6.882C60.4697 6.75133 60.4371 6.658 60.3717 6.602C60.3064 6.546 60.1944 6.518 60.0357 6.518C59.7837 6.518 59.5504 6.644 59.3357 6.896C59.1211 7.13867 58.9297 7.45133 58.7617 7.834C58.5937 8.20733 58.4537 8.59467 58.3417 8.996ZM76.4248 6.966C76.4248 7.26467 76.3315 7.55867 76.1448 7.848C75.9581 8.128 75.7108 8.39867 75.4028 8.66C75.0948 8.912 74.7541 9.15 74.3808 9.374C74.0075 9.598 73.6341 9.794 73.2608 9.962C72.8875 10.13 72.5468 10.2653 72.2388 10.368C72.1641 10.732 72.1268 11.054 72.1268 11.334C72.1268 11.5113 72.1688 11.6373 72.2528 11.712C72.3368 11.7867 72.4675 11.824 72.6448 11.824C73.0368 11.824 73.4521 11.754 73.8908 11.614C74.3295 11.474 74.7775 11.292 75.2348 11.068C75.6921 10.844 76.1308 10.606 76.5508 10.354C76.9708 10.102 77.3535 9.864 77.6988 9.64C78.0535 9.416 78.3475 9.234 78.5808 9.094C78.8141 8.954 78.9681 8.884 79.0428 8.884C79.1548 8.884 79.2388 8.92133 79.2948 8.996C79.3601 9.06133 79.3928 9.14067 79.3928 9.234C79.3928 9.30867 79.2761 9.45333 79.0428 9.668C78.8188 9.88267 78.5155 10.1347 78.1328 10.424C77.7501 10.704 77.3208 10.9933 76.8448 11.292C76.3688 11.5907 75.8741 11.8707 75.3608 12.132C74.8568 12.3933 74.3668 12.6033 73.8908 12.762C73.4241 12.9207 73.0041 13 72.6308 13C72.1455 13 71.7675 12.818 71.4968 12.454C71.2261 12.09 71.0908 11.5253 71.0908 10.76C71.0908 10.2467 71.1561 9.72867 71.2868 9.206C71.4268 8.68333 71.6135 8.184 71.8468 7.708C72.0895 7.22267 72.3555 6.79333 72.6448 6.42C72.9435 6.03733 73.2561 5.73867 73.5828 5.524C73.9095 5.3 74.2268 5.188 74.5348 5.188C75.1228 5.188 75.5848 5.35133 75.9208 5.678C76.2568 6.00467 76.4248 6.434 76.4248 6.966ZM72.5328 9.29C72.8221 9.11267 73.1208 8.926 73.4288 8.73C73.7368 8.534 74.0215 8.33333 74.2828 8.128C74.5441 7.92267 74.7541 7.708 74.9128 7.484C75.0808 7.25067 75.1648 7.01267 75.1648 6.77C75.1648 6.42467 74.9781 6.252 74.6048 6.252C74.3715 6.252 74.1241 6.40133 73.8628 6.7C73.6108 6.98933 73.3681 7.36733 73.1348 7.834C72.9015 8.30067 72.7008 8.786 72.5328 9.29ZM83.5022 8.52C83.2502 8.50133 83.1336 8.338 83.1522 8.03C83.1616 7.95533 83.2129 7.86667 83.3062 7.764C83.3996 7.652 83.5069 7.59133 83.6282 7.582C83.9176 7.554 84.2722 7.512 84.6922 7.456C85.1216 7.39067 85.5929 7.316 86.1062 7.232C86.1996 6.77467 86.3116 6.294 86.4422 5.79C86.5729 5.286 86.7176 4.796 86.8762 4.32C87.0349 3.83467 87.2029 3.396 87.3802 3.004C87.5576 2.612 87.7442 2.304 87.9402 2.08C88.0429 1.97733 88.1362 1.90733 88.2202 1.87C88.3042 1.82333 88.3789 1.8 88.4442 1.8C88.5749 1.8 88.6776 1.856 88.7522 1.968C88.8362 2.08 88.8782 2.206 88.8782 2.346C88.8782 2.42067 88.8642 2.49533 88.8362 2.57C88.6496 3.09267 88.4489 3.73667 88.2342 4.502C88.0196 5.26733 87.7909 6.10267 87.5482 7.008C88.4069 6.868 89.2656 6.71867 90.1242 6.56C90.9829 6.40133 91.7202 6.25667 92.3362 6.126C92.5136 6.05133 92.6489 6.06533 92.7422 6.168C92.8449 6.27067 92.8962 6.37333 92.8962 6.476C92.8962 6.60667 92.8589 6.70467 92.7842 6.77C92.7189 6.83533 92.6489 6.89133 92.5742 6.938L92.5602 6.952C92.3736 7.02667 92.0936 7.11533 91.7202 7.218C91.3469 7.31133 90.9176 7.414 90.4322 7.526C89.9469 7.62867 89.4289 7.73133 88.8782 7.834C88.3369 7.93667 87.8002 8.03 87.2682 8.114C87.0536 8.93533 86.8342 9.78 86.6102 10.648C86.3956 11.5067 86.1809 12.3513 85.9662 13.182C85.8729 13.518 85.7656 13.728 85.6442 13.812C85.5322 13.9053 85.4109 13.952 85.2802 13.952C85.1309 13.952 85.0002 13.896 84.8882 13.784C84.7856 13.672 84.7716 13.4433 84.8462 13.098L85.8682 8.324C85.3082 8.408 84.8136 8.46867 84.3842 8.506C83.9642 8.54333 83.6702 8.548 83.5022 8.52ZM93.2398 13.14C92.6891 13.14 92.2551 12.93 91.9378 12.51C91.6204 12.09 91.4618 11.544 91.4618 10.872C91.4618 10.6293 91.4944 10.3727 91.5598 10.102C91.6344 9.822 91.7278 9.57 91.8398 9.346C91.7744 9.28067 91.7231 9.192 91.6858 9.08C91.6484 8.95867 91.6298 8.80933 91.6298 8.632C91.6298 8.08133 91.7231 7.57733 91.9098 7.12C92.0964 6.66267 92.3438 6.266 92.6518 5.93C92.9598 5.58467 93.3004 5.31867 93.6738 5.132C94.0564 4.94533 94.4438 4.852 94.8358 4.852C95.4798 4.852 96.0024 5.08533 96.4038 5.552C96.8051 6.00933 97.0058 6.70933 97.0058 7.652C97.0058 8.14667 96.9311 8.65067 96.7818 9.164C96.6418 9.67733 96.4458 10.172 96.1938 10.648C95.9511 11.124 95.6664 11.5487 95.3398 11.922C95.0224 12.2953 94.6818 12.594 94.3178 12.818C93.9631 13.0327 93.6038 13.14 93.2398 13.14ZM92.7638 8.87C92.8198 8.94467 92.8478 9.04267 92.8478 9.164C92.8478 9.304 92.8198 9.444 92.7638 9.584C92.7171 9.724 92.6658 9.91533 92.6098 10.158C92.5538 10.4007 92.5258 10.746 92.5258 11.194C92.5258 11.642 92.7031 11.866 93.0578 11.866C93.4498 11.866 93.8138 11.712 94.1498 11.404C94.4858 11.0867 94.7844 10.6807 95.0458 10.186C95.3071 9.69133 95.5078 9.164 95.6478 8.604C95.7971 8.03467 95.8718 7.498 95.8718 6.994C95.8718 6.66733 95.8111 6.43867 95.6898 6.308C95.5684 6.168 95.3491 6.098 95.0318 6.098C94.7051 6.098 94.3644 6.21 94.0098 6.434C93.6644 6.64867 93.3751 6.94267 93.1418 7.316C92.9084 7.68933 92.7918 8.10933 92.7918 8.576C92.7918 8.67867 92.7824 8.77667 92.7638 8.87ZM6.538 24.958C6.79 24.3513 7.028 23.726 7.252 23.082C7.48533 22.438 7.69533 21.78 7.882 21.108C7.938 20.9213 8.022 20.772 8.134 20.66C8.25533 20.5387 8.39533 20.478 8.554 20.478C8.666 20.478 8.75933 20.52 8.834 20.604C8.918 20.688 8.96 20.8 8.96 20.94C8.96 21.1173 8.89 21.4253 8.75 21.864C8.61933 22.3027 8.45133 22.858 8.246 23.53C8.05 24.202 7.84933 24.9767 7.644 25.854C7.448 26.722 7.28 27.6833 7.14 28.738C7.00933 29.7927 6.944 30.9173 6.944 32.112C6.944 32.3733 6.888 32.588 6.776 32.756C6.664 32.9333 6.52867 33.022 6.37 33.022C6.27667 33.022 6.188 32.9987 6.104 32.952C6.02 32.9053 5.94533 32.7933 5.88 32.616C5.824 32.448 5.77733 32.182 5.74 31.818C5.70267 31.4447 5.684 30.9407 5.684 30.306C5.684 29.8207 5.712 29.2933 5.768 28.724C5.33867 29.4987 4.872 30.1753 4.368 30.754C3.87333 31.3233 3.39267 31.762 2.926 32.07C2.46867 32.378 2.07667 32.532 1.75 32.532C1.34867 32.532 1.022 32.3967 0.77 32.126C0.527333 31.8647 0.406 31.4727 0.406 30.95C0.406 30.4927 0.513333 30.0213 0.728 29.536C0.942667 29.0507 1.22733 28.5747 1.582 28.108C1.93667 27.632 2.32867 27.184 2.758 26.764C3.18733 26.344 3.61667 25.9753 4.046 25.658C4.48467 25.3313 4.89067 25.0793 5.264 24.902C5.63733 24.7153 5.94067 24.622 6.174 24.622C6.26733 24.622 6.35133 24.6547 6.426 24.72C6.50067 24.7853 6.538 24.8647 6.538 24.958ZM6.356 25.392C6.29067 25.4573 6.21133 25.5227 6.118 25.588C6.02467 25.6533 5.922 25.7233 5.81 25.798C5.39933 26.0873 4.94667 26.4233 4.452 26.806C3.96667 27.1793 3.5 27.59 3.052 28.038C2.61333 28.4767 2.254 28.9387 1.974 29.424C1.694 29.9093 1.554 30.4087 1.554 30.922C1.554 31.146 1.666 31.258 1.89 31.258C2.198 31.258 2.534 31.1133 2.898 30.824C3.27133 30.5253 3.654 30.1147 4.046 29.592C4.438 29.06 4.83 28.4393 5.222 27.73C5.614 27.0113 5.992 26.232 6.356 25.392ZM11.8374 32.14C11.2868 32.14 10.8528 31.93 10.5354 31.51C10.2181 31.09 10.0594 30.544 10.0594 29.872C10.0594 29.6293 10.0921 29.3727 10.1574 29.102C10.2321 28.822 10.3254 28.57 10.4374 28.346C10.3721 28.2807 10.3208 28.192 10.2834 28.08C10.2461 27.9587 10.2274 27.8093 10.2274 27.632C10.2274 27.0813 10.3208 26.5773 10.5074 26.12C10.6941 25.6627 10.9414 25.266 11.2494 24.93C11.5574 24.5847 11.8981 24.3187 12.2714 24.132C12.6541 23.9453 13.0414 23.852 13.4334 23.852C14.0774 23.852 14.6001 24.0853 15.0014 24.552C15.4028 25.0093 15.6034 25.7093 15.6034 26.652C15.6034 27.1467 15.5288 27.6507 15.3794 28.164C15.2394 28.6773 15.0434 29.172 14.7914 29.648C14.5488 30.124 14.2641 30.5487 13.9374 30.922C13.6201 31.2953 13.2794 31.594 12.9154 31.818C12.5608 32.0327 12.2014 32.14 11.8374 32.14ZM11.3614 27.87C11.4174 27.9447 11.4454 28.0427 11.4454 28.164C11.4454 28.304 11.4174 28.444 11.3614 28.584C11.3148 28.724 11.2634 28.9153 11.2074 29.158C11.1514 29.4007 11.1234 29.746 11.1234 30.194C11.1234 30.642 11.3008 30.866 11.6554 30.866C12.0474 30.866 12.4114 30.712 12.7474 30.404C13.0834 30.0867 13.3821 29.6807 13.6434 29.186C13.9048 28.6913 14.1054 28.164 14.2454 27.604C14.3948 27.0347 14.4694 26.498 14.4694 25.994C14.4694 25.6673 14.4088 25.4387 14.2874 25.308C14.1661 25.168 13.9468 25.098 13.6294 25.098C13.3028 25.098 12.9621 25.21 12.6074 25.434C12.2621 25.6487 11.9728 25.9427 11.7394 26.316C11.5061 26.6893 11.3894 27.1093 11.3894 27.576C11.3894 27.6787 11.3801 27.7767 11.3614 27.87ZM18.8856 32.406C18.5589 32.406 18.2882 32.2613 18.0736 31.972C17.8682 31.6733 17.7656 31.146 17.7656 30.39C17.7656 29.5967 17.7796 28.8267 17.8076 28.08C17.8356 27.324 17.8869 26.6473 17.9616 26.05C18.0456 25.4527 18.1576 24.9767 18.2976 24.622C18.4376 24.2673 18.6196 24.09 18.8436 24.09C19.0022 24.09 19.1422 24.1787 19.2636 24.356C19.3849 24.524 19.4456 24.748 19.4456 25.028C19.4456 25.3173 19.4176 25.7047 19.3616 26.19C19.3056 26.6753 19.2356 27.198 19.1516 27.758C19.0769 28.3087 19.0116 28.8453 18.9556 29.368C18.8996 29.8813 18.8716 30.3153 18.8716 30.67C18.8716 30.8193 18.8762 30.9407 18.8856 31.034C18.9042 31.118 18.9322 31.16 18.9696 31.16C19.1096 31.16 19.2589 31.0387 19.4176 30.796C19.5856 30.544 19.7629 30.2173 19.9496 29.816C20.1362 29.4053 20.3322 28.9573 20.5376 28.472C20.7429 27.9773 20.9529 27.4873 21.1676 27.002C21.3822 26.5167 21.6016 26.0733 21.8256 25.672C22.0496 25.2613 22.2736 24.9347 22.4976 24.692C22.7216 24.44 22.9409 24.314 23.1556 24.314C23.4076 24.314 23.6409 24.4353 23.8556 24.678C24.0796 24.9113 24.1916 25.2473 24.1916 25.686C24.1916 25.8167 24.1729 26.0453 24.1356 26.372C24.0982 26.6893 24.0516 27.0533 23.9956 27.464C23.9396 27.8747 23.8836 28.2853 23.8276 28.696C23.7716 29.0973 23.7249 29.4567 23.6876 29.774C23.6502 30.082 23.6316 30.3013 23.6316 30.432C23.6316 30.9173 23.6782 31.16 23.7716 31.16C24.0329 31.16 24.3082 30.9967 24.5976 30.67C24.8962 30.334 25.1949 29.9047 25.4936 29.382C25.8016 28.85 26.1049 28.276 26.4036 27.66C26.7116 27.0347 27.0056 26.4373 27.2856 25.868C27.4162 25.5693 27.5236 25.3687 27.6076 25.266C27.7009 25.154 27.7942 25.098 27.8876 25.098C28.0182 25.098 28.1396 25.168 28.2516 25.308C28.3729 25.448 28.4336 25.6393 28.4336 25.882C28.4336 25.966 28.4289 26.05 28.4196 26.134C28.4102 26.2087 28.3869 26.2927 28.3496 26.386C28.0322 27.226 27.6916 28.0053 27.3276 28.724C26.9636 29.4333 26.5902 30.054 26.2076 30.586C25.8342 31.1087 25.4656 31.5193 25.1016 31.818C24.7376 32.1073 24.4016 32.252 24.0936 32.252C23.5616 32.252 23.1462 32.1027 22.8476 31.804C22.5582 31.496 22.4136 31.0853 22.4136 30.572C22.4136 30.3573 22.4276 30.0773 22.4556 29.732C22.4929 29.3867 22.5349 29.0133 22.5816 28.612C22.6376 28.2107 22.6936 27.8233 22.7496 27.45C22.8056 27.0767 22.8522 26.75 22.8896 26.47C22.9362 26.19 22.9642 25.9987 22.9736 25.896C22.9829 25.7653 22.9689 25.7 22.9316 25.7C22.8942 25.7 22.8196 25.8213 22.7076 26.064C22.6049 26.2973 22.4789 26.596 22.3296 26.96C22.1896 27.3147 22.0402 27.6833 21.8816 28.066C21.7042 28.486 21.4989 28.948 21.2656 29.452C21.0416 29.9467 20.7989 30.418 20.5376 30.866C20.2856 31.314 20.0196 31.6827 19.7396 31.972C19.4596 32.2613 19.1749 32.406 18.8856 32.406ZM30.6739 31.678C30.4032 31.678 30.1606 31.524 29.9459 31.216C29.7312 30.908 29.6239 30.5113 29.6239 30.026C29.6239 29.494 29.6939 28.9247 29.8339 28.318C29.9832 27.7113 30.1652 27.0953 30.3799 26.47C30.5946 25.8353 30.8046 25.224 31.0099 24.636C31.0566 24.5147 31.1219 24.426 31.2059 24.37C31.2992 24.3047 31.4392 24.272 31.6259 24.272C31.9619 24.272 32.1299 24.4353 32.1299 24.762C32.1299 24.8367 32.0926 25.0047 32.0179 25.266C31.9432 25.5273 31.8452 25.8493 31.7239 26.232C31.6119 26.6147 31.4952 27.03 31.3739 27.478C31.2526 27.9167 31.1452 28.36 31.0519 28.808C30.9586 29.256 30.8932 29.6713 30.8559 30.054C31.0052 29.8953 31.1732 29.6527 31.3599 29.326C31.5559 28.9993 31.7659 28.6307 31.9899 28.22C32.2139 27.8 32.4472 27.38 32.6899 26.96C32.9326 26.5307 33.1752 26.1387 33.4179 25.784C33.6699 25.42 33.9126 25.1307 34.1459 24.916C34.3886 24.692 34.6126 24.58 34.8179 24.58C35.1166 24.58 35.3686 24.6733 35.5739 24.86C35.7886 25.0373 35.9519 25.3547 36.0639 25.812C36.1852 26.26 36.2459 26.8947 36.2459 27.716C36.2459 28.1547 36.2879 28.5653 36.3719 28.948C36.4652 29.3307 36.6099 29.6387 36.8059 29.872C37.0112 30.096 37.2726 30.208 37.5899 30.208C38.0659 30.208 38.4906 30.124 38.8639 29.956C39.2372 29.7787 39.5592 29.5827 39.8299 29.368C40.1099 29.144 40.3432 28.948 40.5299 28.78C40.7166 28.6027 40.8612 28.514 40.9639 28.514C41.1786 28.514 41.2859 28.626 41.2859 28.85C41.2859 28.9433 41.2159 29.0927 41.0759 29.298C40.9452 29.494 40.7586 29.718 40.5159 29.97C40.2826 30.2127 40.0119 30.4507 39.7039 30.684C39.4052 30.908 39.0832 31.0947 38.7379 31.244C38.4019 31.3933 38.0612 31.468 37.7159 31.468C37.0719 31.468 36.5446 31.342 36.1339 31.09C35.7326 30.838 35.4339 30.4227 35.2379 29.844C35.0512 29.2653 34.9579 28.4907 34.9579 27.52C34.9579 26.988 34.9252 26.6007 34.8599 26.358C34.8039 26.106 34.6966 25.938 34.5379 25.854C34.4259 26.05 34.2812 26.33 34.1039 26.694C33.9266 27.0487 33.7212 27.4453 33.4879 27.884C33.2639 28.3227 33.0259 28.766 32.7739 29.214C32.5312 29.6527 32.2839 30.0587 32.0319 30.432C31.7799 30.8053 31.5372 31.1087 31.3039 31.342C31.0706 31.566 30.8606 31.678 30.6739 31.678ZM42.7679 32.56C42.0493 32.56 41.4846 32.3267 41.0739 31.86C40.6726 31.384 40.4719 30.7213 40.4719 29.872C40.4719 29.3493 40.5419 28.738 40.6819 28.038C40.8313 27.3287 41.0179 26.582 41.2419 25.798C41.4753 25.0047 41.7273 24.2207 41.9979 23.446C42.2686 22.6713 42.5299 21.9527 42.7819 21.29C43.0433 20.618 43.2719 20.058 43.4679 19.61C43.5799 19.358 43.7386 19.232 43.9439 19.232C44.2239 19.232 44.3639 19.4047 44.3639 19.75C44.3639 19.862 44.3126 20.0907 44.2099 20.436C44.1073 20.7813 43.9719 21.2107 43.8039 21.724C43.6359 22.228 43.4539 22.788 43.2579 23.404C43.0619 24.02 42.8613 24.6547 42.6559 25.308C42.4599 25.952 42.2779 26.5913 42.1099 27.226C41.9419 27.8513 41.8066 28.4393 41.7039 28.99C41.6013 29.5407 41.5499 30.012 41.5499 30.404C41.5499 30.656 41.6153 30.8567 41.7459 31.006C41.8859 31.146 42.0726 31.216 42.3059 31.216C42.7353 31.216 43.1646 31.132 43.5939 30.964C44.0326 30.7867 44.4526 30.572 44.8539 30.32C45.2553 30.0587 45.6193 29.802 45.9459 29.55C46.2819 29.2887 46.5666 29.074 46.7999 28.906C47.0333 28.7287 47.1966 28.64 47.2899 28.64C47.4953 28.64 47.5979 28.752 47.5979 28.976C47.5979 29.0507 47.5233 29.1907 47.3739 29.396C47.2246 29.592 47.0239 29.8253 46.7719 30.096C46.5199 30.3667 46.2259 30.6467 45.8899 30.936C45.5633 31.216 45.2179 31.482 44.8539 31.734C44.4993 31.9767 44.1399 32.1727 43.7759 32.322C43.4213 32.4807 43.0853 32.56 42.7679 32.56ZM48.6695 32.14C48.1188 32.14 47.6848 31.93 47.3675 31.51C47.0501 31.09 46.8915 30.544 46.8915 29.872C46.8915 29.6293 46.9241 29.3727 46.9895 29.102C47.0641 28.822 47.1575 28.57 47.2695 28.346C47.2041 28.2807 47.1528 28.192 47.1155 28.08C47.0781 27.9587 47.0595 27.8093 47.0595 27.632C47.0595 27.0813 47.1528 26.5773 47.3395 26.12C47.5261 25.6627 47.7735 25.266 48.0815 24.93C48.3895 24.5847 48.7301 24.3187 49.1035 24.132C49.4861 23.9453 49.8735 23.852 50.2655 23.852C50.9095 23.852 51.4321 24.0853 51.8335 24.552C52.2348 25.0093 52.4355 25.7093 52.4355 26.652C52.4355 27.1467 52.3608 27.6507 52.2115 28.164C52.0715 28.6773 51.8755 29.172 51.6235 29.648C51.3808 30.124 51.0961 30.5487 50.7695 30.922C50.4521 31.2953 50.1115 31.594 49.7475 31.818C49.3928 32.0327 49.0335 32.14 48.6695 32.14ZM48.1935 27.87C48.2495 27.9447 48.2775 28.0427 48.2775 28.164C48.2775 28.304 48.2495 28.444 48.1935 28.584C48.1468 28.724 48.0955 28.9153 48.0395 29.158C47.9835 29.4007 47.9555 29.746 47.9555 30.194C47.9555 30.642 48.1328 30.866 48.4875 30.866C48.8795 30.866 49.2435 30.712 49.5795 30.404C49.9155 30.0867 50.2141 29.6807 50.4755 29.186C50.7368 28.6913 50.9375 28.164 51.0775 27.604C51.2268 27.0347 51.3015 26.498 51.3015 25.994C51.3015 25.6673 51.2408 25.4387 51.1195 25.308C50.9981 25.168 50.7788 25.098 50.4615 25.098C50.1348 25.098 49.7941 25.21 49.4395 25.434C49.0941 25.6487 48.8048 25.9427 48.5715 26.316C48.3381 26.6893 48.2215 27.1093 48.2215 27.576C48.2215 27.6787 48.2121 27.7767 48.1935 27.87ZM54.7198 32.364C54.3651 32.364 54.0711 32.2007 53.8378 31.874C53.6138 31.538 53.5018 31.104 53.5018 30.572C53.5018 30.0773 53.6231 29.5873 53.8658 29.102C54.1178 28.6167 54.4491 28.15 54.8598 27.702C55.2704 27.254 55.7184 26.8433 56.2038 26.47C56.6891 26.0873 57.1744 25.756 57.6598 25.476C58.1544 25.196 58.6071 24.9767 59.0178 24.818C59.4284 24.6593 59.7551 24.58 59.9978 24.58C60.1284 24.58 60.2358 24.608 60.3198 24.664C60.4038 24.7107 60.4458 24.7993 60.4458 24.93C60.4458 25.014 60.4131 25.0933 60.3478 25.168C60.3571 25.168 60.3664 25.168 60.3758 25.168C60.5811 25.168 60.6838 25.2893 60.6838 25.532C60.6838 25.616 60.6511 25.7887 60.5858 26.05C60.5204 26.302 60.4458 26.6193 60.3618 27.002C60.2778 27.3847 60.2031 27.8093 60.1378 28.276C60.0724 28.7333 60.0398 29.2 60.0398 29.676C60.0398 30.0773 60.1938 30.278 60.5018 30.278C60.8471 30.278 61.1971 30.1987 61.5518 30.04C61.9064 29.8813 62.2518 29.69 62.5878 29.466C62.9238 29.2327 63.2318 29.004 63.5118 28.78C63.7918 28.5467 64.0298 28.3507 64.2258 28.192C64.4218 28.0333 64.5618 27.954 64.6458 27.954C64.7204 27.954 64.7858 27.9773 64.8418 28.024C64.8978 28.0707 64.9258 28.1453 64.9258 28.248C64.9258 28.3413 64.8324 28.5093 64.6458 28.752C64.4591 28.9947 64.2118 29.27 63.9038 29.578C63.5958 29.886 63.2504 30.1847 62.8678 30.474C62.4851 30.7633 62.0931 31.0013 61.6918 31.188C61.2904 31.3747 60.9078 31.468 60.5438 31.468C60.2638 31.468 60.0071 31.384 59.7738 31.216C59.5498 31.0387 59.3678 30.74 59.2278 30.32C59.0971 29.9 59.0318 29.3213 59.0318 28.584V28.234C58.5744 28.99 58.0938 29.6807 57.5898 30.306C57.0951 30.9313 56.6004 31.4307 56.1058 31.804C55.6204 32.1773 55.1584 32.364 54.7198 32.364ZM59.7318 25.588C59.6851 25.6067 59.6198 25.6347 59.5358 25.672C59.1064 25.868 58.6584 26.1107 58.1918 26.4C57.7344 26.6893 57.2864 27.0113 56.8478 27.366C56.4184 27.7207 56.0311 28.0893 55.6858 28.472C55.3404 28.8547 55.0651 29.242 54.8598 29.634C54.6544 30.026 54.5518 30.4087 54.5518 30.782C54.5518 30.9033 54.5751 30.9967 54.6218 31.062C54.6778 31.1273 54.7711 31.16 54.9018 31.16C55.0884 31.16 55.3311 31.0433 55.6298 30.81C55.9284 30.5673 56.2551 30.25 56.6098 29.858C56.9738 29.466 57.3378 29.032 57.7018 28.556C58.0658 28.08 58.4111 27.5993 58.7378 27.114C59.0738 26.6287 59.3631 26.1807 59.6058 25.77C59.6431 25.7047 59.6851 25.644 59.7318 25.588ZM69.4013 24.958C69.6533 24.3513 69.8913 23.726 70.1153 23.082C70.3486 22.438 70.5586 21.78 70.7453 21.108C70.8013 20.9213 70.8853 20.772 70.9973 20.66C71.1186 20.5387 71.2586 20.478 71.4173 20.478C71.5293 20.478 71.6226 20.52 71.6973 20.604C71.7813 20.688 71.8233 20.8 71.8233 20.94C71.8233 21.1173 71.7533 21.4253 71.6133 21.864C71.4826 22.3027 71.3146 22.858 71.1093 23.53C70.9133 24.202 70.7126 24.9767 70.5073 25.854C70.3113 26.722 70.1433 27.6833 70.0033 28.738C69.8726 29.7927 69.8073 30.9173 69.8073 32.112C69.8073 32.3733 69.7513 32.588 69.6393 32.756C69.5273 32.9333 69.3919 33.022 69.2333 33.022C69.1399 33.022 69.0513 32.9987 68.9673 32.952C68.8833 32.9053 68.8086 32.7933 68.7433 32.616C68.6873 32.448 68.6406 32.182 68.6033 31.818C68.5659 31.4447 68.5473 30.9407 68.5473 30.306C68.5473 29.8207 68.5753 29.2933 68.6313 28.724C68.2019 29.4987 67.7353 30.1753 67.2313 30.754C66.7366 31.3233 66.2559 31.762 65.7893 32.07C65.3319 32.378 64.9399 32.532 64.6133 32.532C64.2119 32.532 63.8853 32.3967 63.6333 32.126C63.3906 31.8647 63.2693 31.4727 63.2693 30.95C63.2693 30.4927 63.3766 30.0213 63.5913 29.536C63.8059 29.0507 64.0906 28.5747 64.4453 28.108C64.7999 27.632 65.1919 27.184 65.6213 26.764C66.0506 26.344 66.4799 25.9753 66.9093 25.658C67.3479 25.3313 67.7539 25.0793 68.1273 24.902C68.5006 24.7153 68.8039 24.622 69.0373 24.622C69.1306 24.622 69.2146 24.6547 69.2893 24.72C69.3639 24.7853 69.4013 24.8647 69.4013 24.958ZM69.2193 25.392C69.1539 25.4573 69.0746 25.5227 68.9813 25.588C68.8879 25.6533 68.7853 25.7233 68.6733 25.798C68.2626 26.0873 67.8099 26.4233 67.3153 26.806C66.8299 27.1793 66.3633 27.59 65.9153 28.038C65.4766 28.4767 65.1173 28.9387 64.8373 29.424C64.5573 29.9093 64.4173 30.4087 64.4173 30.922C64.4173 31.146 64.5293 31.258 64.7533 31.258C65.0613 31.258 65.3973 31.1133 65.7613 30.824C66.1346 30.5253 66.5173 30.1147 66.9093 29.592C67.3013 29.06 67.6933 28.4393 68.0853 27.73C68.4773 27.0113 68.8553 26.232 69.2193 25.392ZM12.152 50.58C12.1427 50.7293 12.082 50.8507 11.97 50.944C11.858 51.0373 11.7273 51.084 11.578 51.084C11.41 51.084 11.27 51.028 11.158 50.916C11.046 50.804 10.99 50.6313 10.99 50.398C10.99 49.7913 11.018 49.1333 11.074 48.424C11.13 47.7053 11.2 46.996 11.284 46.296C11.368 45.5867 11.452 44.9333 11.536 44.336C11.228 44.7747 10.892 45.26 10.528 45.792C10.1733 46.324 9.80933 46.8513 9.436 47.374C9.06267 47.8967 8.69867 48.3773 8.344 48.816C7.98933 49.2453 7.66733 49.5953 7.378 49.866C7.08867 50.1273 6.85067 50.258 6.664 50.258C6.31867 50.258 6.02 50.1227 5.768 49.852C5.516 49.572 5.39 49.222 5.39 48.802C5.39 48.634 5.40867 48.4053 5.446 48.116C5.48333 47.8173 5.52533 47.5047 5.572 47.178C5.61867 46.8513 5.66067 46.548 5.698 46.268C5.73533 45.9787 5.754 45.764 5.754 45.624C5.754 45.4933 5.74 45.3813 5.712 45.288C5.69333 45.1853 5.64667 45.134 5.572 45.134C5.46 45.134 5.306 45.26 5.11 45.512C4.914 45.7547 4.69467 46.0673 4.452 46.45C4.21867 46.8327 3.976 47.2387 3.724 47.668C3.48133 48.0973 3.25267 48.5033 3.038 48.886C2.82333 49.2593 2.64133 49.5533 2.492 49.768C2.37067 49.9733 2.25867 50.1227 2.156 50.216C2.05333 50.3093 1.92733 50.356 1.778 50.356C1.60067 50.356 1.43733 50.2627 1.288 50.076C1.148 49.8893 1.078 49.6607 1.078 49.39C1.078 49.2313 1.106 48.984 1.162 48.648C1.218 48.3027 1.288 47.9247 1.372 47.514C1.46533 47.1033 1.554 46.702 1.638 46.31C1.73133 45.9087 1.81067 45.568 1.876 45.288C1.95067 44.9707 2.044 44.756 2.156 44.644C2.268 44.532 2.38933 44.476 2.52 44.476C2.69733 44.476 2.83733 44.5413 2.94 44.672C3.052 44.7933 3.108 44.9847 3.108 45.246C3.108 45.2927 3.08 45.4187 3.024 45.624C2.968 45.82 2.898 46.0627 2.814 46.352C2.73933 46.632 2.65533 46.926 2.562 47.234C2.478 47.542 2.408 47.8267 2.352 48.088C2.55733 47.7427 2.772 47.3693 2.996 46.968C3.22933 46.5667 3.46267 46.17 3.696 45.778C3.92933 45.3767 4.16267 45.0127 4.396 44.686C4.62933 44.35 4.858 44.084 5.082 43.888C5.306 43.692 5.52067 43.594 5.726 43.594C5.96867 43.594 6.19267 43.6687 6.398 43.818C6.61267 43.9673 6.78533 44.168 6.916 44.42C7.04667 44.672 7.112 44.952 7.112 45.26C7.112 45.4747 7.07467 45.778 7 46.17C6.92533 46.5527 6.846 46.968 6.762 47.416C6.68733 47.864 6.64067 48.2887 6.622 48.69C6.622 48.7833 6.65 48.83 6.706 48.83C6.75267 48.83 6.80867 48.7973 6.874 48.732C7.14467 48.4333 7.44333 48.074 7.77 47.654C8.09667 47.2247 8.428 46.772 8.764 46.296C9.10933 45.82 9.45 45.3533 9.786 44.896C10.122 44.4293 10.4347 44.0093 10.724 43.636C11.0227 43.2533 11.284 42.95 11.508 42.726C11.7413 42.502 11.9233 42.39 12.054 42.39C12.334 42.39 12.5487 42.4693 12.698 42.628C12.8473 42.7867 12.922 43.0527 12.922 43.426C12.922 43.7247 12.8987 44.112 12.852 44.588C12.8147 45.064 12.7633 45.582 12.698 46.142C12.642 46.702 12.5767 47.2667 12.502 47.836C12.4367 48.396 12.3713 48.9187 12.306 49.404C12.2407 49.88 12.1893 50.272 12.152 50.58ZM17.025 54.598C16.5583 54.598 16.129 54.5653 15.737 54.5C15.3543 54.444 14.9763 54.3507 14.603 54.22C14.2297 54.0987 13.8237 53.94 13.385 53.744C13.2543 53.6787 13.1377 53.5993 13.035 53.506C12.9323 53.422 12.881 53.324 12.881 53.212C12.881 53.072 12.9697 52.9227 13.147 52.764C13.315 52.6147 13.4737 52.54 13.623 52.54C13.7817 52.54 13.9777 52.596 14.211 52.708C14.4537 52.82 14.7337 52.9507 15.051 53.1C15.3683 53.2587 15.7183 53.394 16.101 53.506C16.493 53.618 16.913 53.674 17.361 53.674C17.8463 53.674 18.3037 53.4733 18.733 53.072C19.1623 52.6707 19.5123 52.092 19.783 51.336C20.0537 50.5893 20.189 49.6887 20.189 48.634C20.189 48.3167 20.1797 47.9667 20.161 47.584C20.1517 47.192 20.133 46.7813 20.105 46.352C19.881 46.8373 19.629 47.318 19.349 47.794C19.0783 48.27 18.7937 48.6993 18.495 49.082C18.2057 49.4647 17.9023 49.7727 17.585 50.006C17.277 50.23 16.9643 50.342 16.647 50.342C16.2457 50.342 15.9563 50.2393 15.779 50.034C15.6017 49.8287 15.513 49.5113 15.513 49.082C15.513 48.634 15.5457 48.1487 15.611 47.626C15.6763 47.1033 15.7603 46.576 15.863 46.044C15.975 45.5027 16.1057 44.9893 16.255 44.504C16.4043 44.0187 16.563 43.5987 16.731 43.244C16.8243 43.0573 16.9643 42.964 17.151 42.964C17.2817 42.964 17.4077 43.034 17.529 43.174C17.6597 43.3047 17.725 43.4773 17.725 43.692C17.725 43.86 17.6877 44.098 17.613 44.406C17.5383 44.714 17.445 45.064 17.333 45.456C17.221 45.848 17.109 46.2587 16.997 46.688C16.885 47.108 16.7917 47.5233 16.717 47.934C16.6423 48.3353 16.605 48.704 16.605 49.04C16.605 49.18 16.6983 49.25 16.885 49.25C16.9877 49.25 17.1323 49.1567 17.319 48.97C17.515 48.774 17.7297 48.522 17.963 48.214C18.2057 47.8967 18.4483 47.5513 18.691 47.178C18.943 46.7953 19.1857 46.4173 19.419 46.044C19.6523 45.6613 19.853 45.3113 20.021 44.994C20.0117 44.9193 20.007 44.8493 20.007 44.784C20.007 44.7187 20.007 44.658 20.007 44.602C20.007 44.1447 20.0537 43.86 20.147 43.748C20.2497 43.6267 20.3803 43.566 20.539 43.566C20.8097 43.566 21.001 43.6267 21.113 43.748C21.225 43.8693 21.281 44.0793 21.281 44.378C21.281 44.49 21.267 44.6113 21.239 44.742C21.211 44.8633 21.1643 45.0407 21.099 45.274C21.1737 46.0113 21.2343 46.674 21.281 47.262C21.337 47.85 21.365 48.4427 21.365 49.04C21.365 50.1693 21.183 51.1493 20.819 51.98C20.4643 52.8107 19.9603 53.4547 19.307 53.912C18.663 54.3693 17.9023 54.598 17.025 54.598ZM31.46 52.246C31.3013 52.246 31.1753 52.19 31.082 52.078C30.9886 51.966 30.942 51.7793 30.942 51.518C30.942 51.0513 30.9653 50.5707 31.012 50.076C31.068 49.572 31.096 49.1053 31.096 48.676C31.096 47.696 31.0073 46.8887 30.83 46.254C30.662 45.61 30.2933 45.176 29.724 44.952C29.5933 44.9053 29.5 44.854 29.444 44.798C29.3786 44.742 29.346 44.6533 29.346 44.532C29.346 44.4013 29.3973 44.294 29.5 44.21C29.5933 44.126 29.7706 44.084 30.032 44.084C30.2466 44.084 30.5313 44.0933 30.886 44.112C31.2406 44.1307 31.6233 44.1493 32.034 44.168C32.3233 43.132 32.65 42.2733 33.014 41.592C33.378 40.9107 33.7746 40.374 34.204 39.982C34.6426 39.59 35.1046 39.31 35.59 39.142C36.0846 38.974 36.598 38.89 37.13 38.89C37.3633 38.89 37.5126 38.9227 37.578 38.988C37.6433 39.044 37.676 39.1327 37.676 39.254C37.676 39.4033 37.6293 39.562 37.536 39.73C37.4426 39.8887 37.2513 39.9913 36.962 40.038C36.3273 40.15 35.7626 40.3553 35.268 40.654C34.7733 40.9527 34.344 41.3867 33.98 41.956C33.616 42.516 33.3126 43.2533 33.07 44.168C33.966 44.1493 34.736 44.1027 35.38 44.028C36.024 43.944 36.5606 43.8553 36.99 43.762C37.4286 43.6593 37.7786 43.5753 38.04 43.51C38.3013 43.4353 38.502 43.398 38.642 43.398C38.8006 43.398 38.8986 43.44 38.936 43.524C38.9733 43.608 38.992 43.6967 38.992 43.79C38.992 43.9673 38.824 44.14 38.488 44.308C38.152 44.4667 37.7086 44.6113 37.158 44.742C36.6166 44.8633 36.0193 44.9613 35.366 45.036C34.7126 45.1107 34.0686 45.148 33.434 45.148C33.3313 45.148 33.2286 45.148 33.126 45.148C33.0326 45.148 32.9346 45.148 32.832 45.148C32.8133 45.2133 32.7993 45.2833 32.79 45.358C32.6966 45.8993 32.6033 46.4733 32.51 47.08C32.426 47.6773 32.3466 48.2653 32.272 48.844C32.2066 49.4133 32.1553 49.9313 32.118 50.398C32.0806 50.8647 32.062 51.238 32.062 51.518C32.062 51.7513 32.006 51.9287 31.894 52.05C31.782 52.1807 31.6373 52.246 31.46 52.246ZM31.796 45.092C31.5253 45.064 31.2733 45.0267 31.04 44.98C31.1613 45.12 31.264 45.2833 31.348 45.47C31.4413 45.6567 31.5206 45.8573 31.586 46.072C31.6513 45.7267 31.7213 45.4 31.796 45.092ZM41.3383 51.336C41.1796 51.336 41.0443 51.266 40.9323 51.126C40.8203 50.986 40.7643 50.7807 40.7643 50.51C40.7643 50.1927 40.8109 49.74 40.9043 49.152C41.0069 48.564 41.1563 47.7847 41.3523 46.814C41.1003 47.4113 40.8203 47.976 40.5123 48.508C40.2136 49.04 39.8963 49.474 39.5603 49.81C39.2243 50.146 38.8789 50.314 38.5243 50.314C38.1789 50.314 37.8709 50.1787 37.6003 49.908C37.3389 49.6373 37.2083 49.1613 37.2083 48.48C37.2083 48.0973 37.2409 47.668 37.3063 47.192C37.3716 46.7067 37.4556 46.226 37.5583 45.75C37.6609 45.274 37.7636 44.8493 37.8663 44.476C37.9689 44.0933 38.0623 43.8133 38.1463 43.636C38.2116 43.4867 38.2769 43.3887 38.3423 43.342C38.4076 43.286 38.4963 43.258 38.6083 43.258C38.7389 43.258 38.8789 43.314 39.0283 43.426C39.1776 43.538 39.2523 43.7247 39.2523 43.986C39.2523 44.0513 39.2196 44.2053 39.1543 44.448C39.0983 44.6813 39.0236 44.9707 38.9303 45.316C38.8463 45.652 38.7576 46.016 38.6643 46.408C38.5709 46.8 38.4916 47.192 38.4263 47.584C38.3703 47.976 38.3423 48.3353 38.3423 48.662C38.3423 48.8393 38.3609 48.984 38.3983 49.096C38.4356 49.208 38.5289 49.264 38.6783 49.264C38.8089 49.264 38.9723 49.1333 39.1683 48.872C39.3736 48.6107 39.5929 48.2653 39.8263 47.836C40.0689 47.3973 40.3163 46.912 40.5683 46.38C40.8296 45.848 41.0816 45.302 41.3243 44.742C41.5763 44.182 41.8049 43.65 42.0103 43.146C42.0849 42.978 42.1643 42.8753 42.2483 42.838C42.3323 42.7913 42.4256 42.768 42.5283 42.768C42.6963 42.768 42.8456 42.838 42.9763 42.978C43.1163 43.1087 43.1863 43.2813 43.1863 43.496C43.1863 43.636 43.1583 43.8787 43.1023 44.224C43.0556 44.5693 42.9856 44.9753 42.8923 45.442C42.8083 45.8993 42.7103 46.3847 42.5983 46.898C42.4956 47.4113 42.3929 47.92 42.2903 48.424C42.1876 48.9187 42.0896 49.3713 41.9963 49.782C41.9123 50.1927 41.8423 50.524 41.7863 50.776C41.7396 51.0093 41.6743 51.1587 41.5903 51.224C41.5156 51.2987 41.4316 51.336 41.3383 51.336ZM47.6488 51.56C46.9301 51.56 46.3654 51.3267 45.9548 50.86C45.5534 50.384 45.3528 49.7213 45.3528 48.872C45.3528 48.3493 45.4228 47.738 45.5628 47.038C45.7121 46.3287 45.8988 45.582 46.1228 44.798C46.3561 44.0047 46.6081 43.2207 46.8788 42.446C47.1494 41.6713 47.4108 40.9527 47.6628 40.29C47.9241 39.618 48.1528 39.058 48.3488 38.61C48.4608 38.358 48.6194 38.232 48.8248 38.232C49.1048 38.232 49.2448 38.4047 49.2448 38.75C49.2448 38.862 49.1934 39.0907 49.0908 39.436C48.9881 39.7813 48.8528 40.2107 48.6848 40.724C48.5168 41.228 48.3348 41.788 48.1388 42.404C47.9428 43.02 47.7421 43.6547 47.5368 44.308C47.3408 44.952 47.1588 45.5913 46.9908 46.226C46.8228 46.8513 46.6874 47.4393 46.5848 47.99C46.4821 48.5407 46.4308 49.012 46.4308 49.404C46.4308 49.656 46.4961 49.8567 46.6268 50.006C46.7668 50.146 46.9534 50.216 47.1868 50.216C47.6161 50.216 48.0454 50.132 48.4748 49.964C48.9134 49.7867 49.3334 49.572 49.7348 49.32C50.1361 49.0587 50.5001 48.802 50.8268 48.55C51.1628 48.2887 51.4474 48.074 51.6808 47.906C51.9141 47.7287 52.0774 47.64 52.1708 47.64C52.3761 47.64 52.4788 47.752 52.4788 47.976C52.4788 48.0507 52.4041 48.1907 52.2548 48.396C52.1054 48.592 51.9048 48.8253 51.6528 49.096C51.4008 49.3667 51.1068 49.6467 50.7708 49.936C50.4441 50.216 50.0988 50.482 49.7348 50.734C49.3801 50.9767 49.0208 51.1727 48.6568 51.322C48.3021 51.4807 47.9661 51.56 47.6488 51.56ZM54.1292 51.56C53.4106 51.56 52.8459 51.3267 52.4353 50.86C52.0339 50.384 51.8333 49.7213 51.8333 48.872C51.8333 48.3493 51.9033 47.738 52.0433 47.038C52.1926 46.3287 52.3793 45.582 52.6033 44.798C52.8366 44.0047 53.0886 43.2207 53.3593 42.446C53.6299 41.6713 53.8913 40.9527 54.1433 40.29C54.4046 39.618 54.6333 39.058 54.8293 38.61C54.9413 38.358 55.0999 38.232 55.3053 38.232C55.5853 38.232 55.7253 38.4047 55.7253 38.75C55.7253 38.862 55.6739 39.0907 55.5713 39.436C55.4686 39.7813 55.3333 40.2107 55.1653 40.724C54.9973 41.228 54.8153 41.788 54.6193 42.404C54.4233 43.02 54.2226 43.6547 54.0173 44.308C53.8213 44.952 53.6393 45.5913 53.4713 46.226C53.3033 46.8513 53.1679 47.4393 53.0653 47.99C52.9626 48.5407 52.9113 49.012 52.9113 49.404C52.9113 49.656 52.9766 49.8567 53.1073 50.006C53.2473 50.146 53.4339 50.216 53.6673 50.216C54.0966 50.216 54.5259 50.132 54.9553 49.964C55.3939 49.7867 55.8139 49.572 56.2153 49.32C56.6166 49.0587 56.9806 48.802 57.3073 48.55C57.6433 48.2887 57.9279 48.074 58.1613 47.906C58.3946 47.7287 58.5579 47.64 58.6513 47.64C58.8566 47.64 58.9593 47.752 58.9593 47.976C58.9593 48.0507 58.8846 48.1907 58.7353 48.396C58.5859 48.592 58.3853 48.8253 58.1333 49.096C57.8813 49.3667 57.5873 49.6467 57.2513 49.936C56.9246 50.216 56.5793 50.482 56.2153 50.734C55.8606 50.9767 55.5013 51.1727 55.1373 51.322C54.7826 51.4807 54.4466 51.56 54.1292 51.56ZM65.2939 51.266C65.1446 51.266 65.0186 51.2053 64.9159 51.084C64.8133 50.9627 64.7619 50.7947 64.7619 50.58C64.7619 50.4213 64.7946 50.16 64.8599 49.796C64.9346 49.4227 65.0139 48.9887 65.0979 48.494C65.1913 47.9993 65.2706 47.486 65.3359 46.954C65.4013 46.4127 65.4339 45.8947 65.4339 45.4C65.4339 45.1573 65.4946 44.98 65.6159 44.868C65.7466 44.7467 65.8913 44.686 66.0499 44.686C66.1993 44.686 66.3113 44.7793 66.3859 44.966C66.4606 45.1527 66.4746 45.526 66.4279 46.086C66.8573 45.134 67.3286 44.3687 67.8419 43.79C68.3646 43.202 68.8826 42.782 69.3959 42.53C69.9093 42.2687 70.3713 42.138 70.7819 42.138C71.0526 42.138 71.2486 42.194 71.3699 42.306C71.5006 42.4087 71.5659 42.5253 71.5659 42.656C71.5659 42.8333 71.4913 42.9733 71.3419 43.076C71.2019 43.1693 70.9546 43.2813 70.5999 43.412C70.1893 43.5707 69.8113 43.7573 69.4659 43.972C69.1299 44.1773 68.8079 44.448 68.4999 44.784C68.2013 45.12 67.9073 45.5493 67.6179 46.072C67.3286 46.5853 67.0393 47.22 66.7499 47.976C66.4606 48.732 66.1526 49.642 65.8259 50.706C65.7699 50.9113 65.6953 51.056 65.6019 51.14C65.5179 51.224 65.4153 51.266 65.2939 51.266ZM76.4932 44.966C76.4932 45.2647 76.3998 45.5587 76.2132 45.848C76.0265 46.128 75.7792 46.3987 75.4712 46.66C75.1632 46.912 74.8225 47.15 74.4492 47.374C74.0758 47.598 73.7025 47.794 73.3292 47.962C72.9558 48.13 72.6152 48.2653 72.3072 48.368C72.2325 48.732 72.1952 49.054 72.1952 49.334C72.1952 49.5113 72.2372 49.6373 72.3212 49.712C72.4052 49.7867 72.5358 49.824 72.7132 49.824C73.1052 49.824 73.5205 49.754 73.9592 49.614C74.3978 49.474 74.8458 49.292 75.3032 49.068C75.7605 48.844 76.1992 48.606 76.6192 48.354C77.0392 48.102 77.4218 47.864 77.7672 47.64C78.1218 47.416 78.4158 47.234 78.6492 47.094C78.8825 46.954 79.0365 46.884 79.1112 46.884C79.2232 46.884 79.3072 46.9213 79.3632 46.996C79.4285 47.0613 79.4612 47.1407 79.4612 47.234C79.4612 47.3087 79.3445 47.4533 79.1112 47.668C78.8872 47.8827 78.5838 48.1347 78.2012 48.424C77.8185 48.704 77.3892 48.9933 76.9132 49.292C76.4372 49.5907 75.9425 49.8707 75.4292 50.132C74.9252 50.3933 74.4352 50.6033 73.9592 50.762C73.4925 50.9207 73.0725 51 72.6992 51C72.2138 51 71.8358 50.818 71.5652 50.454C71.2945 50.09 71.1592 49.5253 71.1592 48.76C71.1592 48.2467 71.2245 47.7287 71.3552 47.206C71.4952 46.6833 71.6818 46.184 71.9152 45.708C72.1578 45.2227 72.4238 44.7933 72.7132 44.42C73.0118 44.0373 73.3245 43.7387 73.6512 43.524C73.9778 43.3 74.2952 43.188 74.6032 43.188C75.1912 43.188 75.6532 43.3513 75.9892 43.678C76.3252 44.0047 76.4932 44.434 76.4932 44.966ZM72.6012 47.29C72.8905 47.1127 73.1892 46.926 73.4972 46.73C73.8052 46.534 74.0898 46.3333 74.3512 46.128C74.6125 45.9227 74.8225 45.708 74.9812 45.484C75.1492 45.2507 75.2332 45.0127 75.2332 44.77C75.2332 44.4247 75.0465 44.252 74.6732 44.252C74.4398 44.252 74.1925 44.4013 73.9312 44.7C73.6792 44.9893 73.4365 45.3673 73.2032 45.834C72.9698 46.3007 72.7692 46.786 72.6012 47.29ZM80.4 51.308C80.1947 51.308 80.036 51.2473 79.924 51.126C79.8214 51.014 79.77 50.8833 79.77 50.734C79.77 50.6033 79.826 50.482 79.938 50.37C80.0594 50.2487 80.2227 50.1413 80.428 50.048C80.8014 49.852 81.1514 49.656 81.478 49.46C81.814 49.264 82.0847 49.054 82.29 48.83C82.4954 48.606 82.598 48.368 82.598 48.116C82.598 47.9013 82.528 47.738 82.388 47.626C82.248 47.5047 82.0567 47.444 81.814 47.444C81.674 47.444 81.478 47.472 81.226 47.528C80.974 47.5747 80.6987 47.6307 80.4 47.696C80.1107 47.752 79.826 47.808 79.546 47.864C79.266 47.9107 79.028 47.934 78.832 47.934C78.4774 47.934 78.2114 47.85 78.034 47.682C77.8567 47.5047 77.768 47.2667 77.768 46.968C77.768 46.8187 77.8567 46.5947 78.034 46.296C78.2114 45.9973 78.4447 45.666 78.734 45.302C79.0327 44.9287 79.3594 44.5553 79.714 44.182C80.0687 43.8087 80.428 43.4633 80.792 43.146C81.1654 42.8287 81.5107 42.572 81.828 42.376C82.1547 42.18 82.4254 42.082 82.64 42.082C82.8547 42.082 83.018 42.152 83.13 42.292C83.242 42.432 83.298 42.6093 83.298 42.824C83.298 42.992 83.27 43.1367 83.214 43.258C83.158 43.37 83.0414 43.4587 82.864 43.524C82.696 43.5893 82.4347 43.6267 82.08 43.636C81.716 43.9253 81.3287 44.2567 80.918 44.63C80.5167 44.994 80.148 45.372 79.812 45.764C79.4854 46.1467 79.2474 46.5153 79.098 46.87C79.406 46.7673 79.7794 46.6787 80.218 46.604C80.666 46.52 81.1187 46.478 81.576 46.478C82.2947 46.478 82.8267 46.6413 83.172 46.968C83.5267 47.2853 83.704 47.7053 83.704 48.228C83.704 48.564 83.5967 48.914 83.382 49.278C83.1767 49.6327 82.906 49.964 82.57 50.272C82.234 50.58 81.8747 50.8273 81.492 51.014C81.1094 51.21 80.7454 51.308 80.4 51.308ZM89.6 51.336C89.4413 51.336 89.306 51.266 89.194 51.126C89.082 50.986 89.026 50.7807 89.026 50.51C89.026 50.1927 89.0727 49.74 89.166 49.152C89.2687 48.564 89.418 47.7847 89.614 46.814C89.362 47.4113 89.082 47.976 88.774 48.508C88.4753 49.04 88.158 49.474 87.822 49.81C87.486 50.146 87.1407 50.314 86.786 50.314C86.4407 50.314 86.1327 50.1787 85.862 49.908C85.6007 49.6373 85.47 49.1613 85.47 48.48C85.47 48.0973 85.5027 47.668 85.568 47.192C85.6333 46.7067 85.7173 46.226 85.82 45.75C85.9227 45.274 86.0253 44.8493 86.128 44.476C86.2307 44.0933 86.324 43.8133 86.408 43.636C86.4733 43.4867 86.5387 43.3887 86.604 43.342C86.6693 43.286 86.758 43.258 86.87 43.258C87.0007 43.258 87.1407 43.314 87.29 43.426C87.4393 43.538 87.514 43.7247 87.514 43.986C87.514 44.0513 87.4813 44.2053 87.416 44.448C87.36 44.6813 87.2853 44.9707 87.192 45.316C87.108 45.652 87.0193 46.016 86.926 46.408C86.8327 46.8 86.7533 47.192 86.688 47.584C86.632 47.976 86.604 48.3353 86.604 48.662C86.604 48.8393 86.6227 48.984 86.66 49.096C86.6973 49.208 86.7907 49.264 86.94 49.264C87.0707 49.264 87.234 49.1333 87.43 48.872C87.6353 48.6107 87.8547 48.2653 88.088 47.836C88.3307 47.3973 88.578 46.912 88.83 46.38C89.0913 45.848 89.3433 45.302 89.586 44.742C89.838 44.182 90.0667 43.65 90.272 43.146C90.3467 42.978 90.426 42.8753 90.51 42.838C90.594 42.7913 90.6873 42.768 90.79 42.768C90.958 42.768 91.1073 42.838 91.238 42.978C91.378 43.1087 91.448 43.2813 91.448 43.496C91.448 43.636 91.42 43.8787 91.364 44.224C91.3173 44.5693 91.2473 44.9753 91.154 45.442C91.07 45.8993 90.972 46.3847 90.86 46.898C90.7573 47.4113 90.6547 47.92 90.552 48.424C90.4493 48.9187 90.3513 49.3713 90.258 49.782C90.174 50.1927 90.104 50.524 90.048 50.776C90.0013 51.0093 89.936 51.1587 89.852 51.224C89.7773 51.2987 89.6933 51.336 89.6 51.336ZM104.177 50.58C104.168 50.7293 104.107 50.8507 103.995 50.944C103.883 51.0373 103.753 51.084 103.603 51.084C103.435 51.084 103.295 51.028 103.183 50.916C103.071 50.804 103.015 50.6313 103.015 50.398C103.015 49.7913 103.043 49.1333 103.099 48.424C103.155 47.7053 103.225 46.996 103.309 46.296C103.393 45.5867 103.477 44.9333 103.561 44.336C103.253 44.7747 102.917 45.26 102.553 45.792C102.199 46.324 101.835 46.8513 101.461 47.374C101.088 47.8967 100.724 48.3773 100.369 48.816C100.015 49.2453 99.6927 49.5953 99.4034 49.866C99.1141 50.1273 98.8761 50.258 98.6894 50.258C98.3441 50.258 98.0454 50.1227 97.7934 49.852C97.5414 49.572 97.4154 49.222 97.4154 48.802C97.4154 48.634 97.4341 48.4053 97.4714 48.116C97.5087 47.8173 97.5507 47.5047 97.5974 47.178C97.6441 46.8513 97.6861 46.548 97.7234 46.268C97.7607 45.9787 97.7794 45.764 97.7794 45.624C97.7794 45.4933 97.7654 45.3813 97.7374 45.288C97.7187 45.1853 97.6721 45.134 97.5974 45.134C97.4854 45.134 97.3314 45.26 97.1354 45.512C96.9394 45.7547 96.7201 46.0673 96.4774 46.45C96.2441 46.8327 96.0014 47.2387 95.7494 47.668C95.5067 48.0973 95.2781 48.5033 95.0634 48.886C94.8487 49.2593 94.6667 49.5533 94.5174 49.768C94.3961 49.9733 94.2841 50.1227 94.1814 50.216C94.0787 50.3093 93.9527 50.356 93.8034 50.356C93.6261 50.356 93.4627 50.2627 93.3134 50.076C93.1734 49.8893 93.1034 49.6607 93.1034 49.39C93.1034 49.2313 93.1314 48.984 93.1874 48.648C93.2434 48.3027 93.3134 47.9247 93.3974 47.514C93.4907 47.1033 93.5794 46.702 93.6634 46.31C93.7567 45.9087 93.8361 45.568 93.9014 45.288C93.9761 44.9707 94.0694 44.756 94.1814 44.644C94.2934 44.532 94.4147 44.476 94.5454 44.476C94.7227 44.476 94.8627 44.5413 94.9654 44.672C95.0774 44.7933 95.1334 44.9847 95.1334 45.246C95.1334 45.2927 95.1054 45.4187 95.0494 45.624C94.9934 45.82 94.9234 46.0627 94.8394 46.352C94.7647 46.632 94.6807 46.926 94.5874 47.234C94.5034 47.542 94.4334 47.8267 94.3774 48.088C94.5827 47.7427 94.7974 47.3693 95.0214 46.968C95.2547 46.5667 95.4881 46.17 95.7214 45.778C95.9547 45.3767 96.1881 45.0127 96.4214 44.686C96.6547 44.35 96.8834 44.084 97.1074 43.888C97.3314 43.692 97.5461 43.594 97.7514 43.594C97.9941 43.594 98.2181 43.6687 98.4234 43.818C98.6381 43.9673 98.8107 44.168 98.9414 44.42C99.0721 44.672 99.1374 44.952 99.1374 45.26C99.1374 45.4747 99.1001 45.778 99.0254 46.17C98.9507 46.5527 98.8714 46.968 98.7874 47.416C98.7127 47.864 98.6661 48.2887 98.6474 48.69C98.6474 48.7833 98.6754 48.83 98.7314 48.83C98.7781 48.83 98.8341 48.7973 98.8994 48.732C99.1701 48.4333 99.4687 48.074 99.7954 47.654C100.122 47.2247 100.453 46.772 100.789 46.296C101.135 45.82 101.475 45.3533 101.811 44.896C102.147 44.4293 102.46 44.0093 102.749 43.636C103.048 43.2533 103.309 42.95 103.533 42.726C103.767 42.502 103.949 42.39 104.079 42.39C104.359 42.39 104.574 42.4693 104.723 42.628C104.873 42.7867 104.947 43.0527 104.947 43.426C104.947 43.7247 104.924 44.112 104.877 44.588C104.84 45.064 104.789 45.582 104.723 46.142C104.667 46.702 104.602 47.2667 104.527 47.836C104.462 48.396 104.397 48.9187 104.331 49.404C104.266 49.88 104.215 50.272 104.177 50.58ZM112.587 44.966C112.587 45.2647 112.494 45.5587 112.307 45.848C112.12 46.128 111.873 46.3987 111.565 46.66C111.257 46.912 110.916 47.15 110.543 47.374C110.17 47.598 109.796 47.794 109.423 47.962C109.05 48.13 108.709 48.2653 108.401 48.368C108.326 48.732 108.289 49.054 108.289 49.334C108.289 49.5113 108.331 49.6373 108.415 49.712C108.499 49.7867 108.63 49.824 108.807 49.824C109.199 49.824 109.614 49.754 110.053 49.614C110.492 49.474 110.94 49.292 111.397 49.068C111.854 48.844 112.293 48.606 112.713 48.354C113.133 48.102 113.516 47.864 113.861 47.64C114.216 47.416 114.51 47.234 114.743 47.094C114.976 46.954 115.13 46.884 115.205 46.884C115.317 46.884 115.401 46.9213 115.457 46.996C115.522 47.0613 115.555 47.1407 115.555 47.234C115.555 47.3087 115.438 47.4533 115.205 47.668C114.981 47.8827 114.678 48.1347 114.295 48.424C113.912 48.704 113.483 48.9933 113.007 49.292C112.531 49.5907 112.036 49.8707 111.523 50.132C111.019 50.3933 110.529 50.6033 110.053 50.762C109.586 50.9207 109.166 51 108.793 51C108.308 51 107.93 50.818 107.659 50.454C107.388 50.09 107.253 49.5253 107.253 48.76C107.253 48.2467 107.318 47.7287 107.449 47.206C107.589 46.6833 107.776 46.184 108.009 45.708C108.252 45.2227 108.518 44.7933 108.807 44.42C109.106 44.0373 109.418 43.7387 109.745 43.524C110.072 43.3 110.389 43.188 110.697 43.188C111.285 43.188 111.747 43.3513 112.083 43.678C112.419 44.0047 112.587 44.434 112.587 44.966ZM108.695 47.29C108.984 47.1127 109.283 46.926 109.591 46.73C109.899 46.534 110.184 46.3333 110.445 46.128C110.706 45.9227 110.916 45.708 111.075 45.484C111.243 45.2507 111.327 45.0127 111.327 44.77C111.327 44.4247 111.14 44.252 110.767 44.252C110.534 44.252 110.286 44.4013 110.025 44.7C109.773 44.9893 109.53 45.3673 109.297 45.834C109.064 46.3007 108.863 46.786 108.695 47.29Z" fill="white" fill-opacity="0.3"/>
</svg>
